%TF.GenerationSoftware,KiCad,Pcbnew,9.0.9-9.0.9~ubuntu24.04.1*%
%TF.CreationDate,2026-05-28T23:15:43+02:00*%
%TF.ProjectId,arduino-shield,61726475-696e-46f2-9d73-6869656c642e,rev?*%
%TF.SameCoordinates,Original*%
%TF.FileFunction,Copper,L1,Top*%
%TF.FilePolarity,Positive*%
%FSLAX46Y46*%
G04 Gerber Fmt 4.6, Leading zero omitted, Abs format (unit mm)*
G04 Created by KiCad (PCBNEW 9.0.9-9.0.9~ubuntu24.04.1) date 2026-05-28 23:15:43*
%MOMM*%
%LPD*%
G01*
G04 APERTURE LIST*
G04 Aperture macros list*
%AMRoundRect*
0 Rectangle with rounded corners*
0 $1 Rounding radius*
0 $2 $3 $4 $5 $6 $7 $8 $9 X,Y pos of 4 corners*
0 Add a 4 corners polygon primitive as box body*
4,1,4,$2,$3,$4,$5,$6,$7,$8,$9,$2,$3,0*
0 Add four circle primitives for the rounded corners*
1,1,$1+$1,$2,$3*
1,1,$1+$1,$4,$5*
1,1,$1+$1,$6,$7*
1,1,$1+$1,$8,$9*
0 Add four rect primitives between the rounded corners*
20,1,$1+$1,$2,$3,$4,$5,0*
20,1,$1+$1,$4,$5,$6,$7,0*
20,1,$1+$1,$6,$7,$8,$9,0*
20,1,$1+$1,$8,$9,$2,$3,0*%
G04 Aperture macros list end*
%TA.AperFunction,ComponentPad*%
%ADD10C,1.803400*%
%TD*%
%TA.AperFunction,ComponentPad*%
%ADD11RoundRect,0.250001X-0.949999X-0.949999X0.949999X-0.949999X0.949999X0.949999X-0.949999X0.949999X0*%
%TD*%
%TA.AperFunction,ComponentPad*%
%ADD12C,2.400000*%
%TD*%
%TA.AperFunction,ComponentPad*%
%ADD13R,2.000000X2.000000*%
%TD*%
%TA.AperFunction,ComponentPad*%
%ADD14C,2.000000*%
%TD*%
%TA.AperFunction,ComponentPad*%
%ADD15R,1.700000X1.700000*%
%TD*%
%TA.AperFunction,ComponentPad*%
%ADD16C,1.700000*%
%TD*%
%TA.AperFunction,ComponentPad*%
%ADD17R,1.600000X1.600000*%
%TD*%
%TA.AperFunction,ComponentPad*%
%ADD18O,1.600000X1.600000*%
%TD*%
%TA.AperFunction,ComponentPad*%
%ADD19C,4.500000*%
%TD*%
%TA.AperFunction,ComponentPad*%
%ADD20R,1.905000X2.000000*%
%TD*%
%TA.AperFunction,ComponentPad*%
%ADD21O,1.905000X2.000000*%
%TD*%
%TA.AperFunction,ComponentPad*%
%ADD22C,1.400000*%
%TD*%
%TA.AperFunction,ViaPad*%
%ADD23C,0.600000*%
%TD*%
%TA.AperFunction,Conductor*%
%ADD24C,2.000000*%
%TD*%
%TA.AperFunction,Conductor*%
%ADD25C,1.500000*%
%TD*%
G04 APERTURE END LIST*
D10*
%TO.P,J3,1,Pin_1*%
%TO.N,/current*%
X181899000Y-112796700D03*
%TO.P,J3,2,Pin_2*%
%TO.N,12vdc*%
X181899000Y-119146700D03*
%TD*%
D11*
%TO.P,D1,1,K*%
%TO.N,12vdc*%
X124380000Y-86860000D03*
D12*
%TO.P,D1,2,A*%
%TO.N,/current*%
X137080000Y-86860000D03*
%TD*%
D13*
%TO.P,BZ1,1,+*%
%TO.N,buzzer+*%
X93000000Y-89000000D03*
D14*
%TO.P,BZ1,2,-*%
%TO.N,GND*%
X98000000Y-89000000D03*
%TD*%
D15*
%TO.P,SW3,1,A*%
%TO.N,GND*%
X194500000Y-106000000D03*
D16*
%TO.P,SW3,2,B*%
%TO.N,relay_control*%
X194500000Y-108540000D03*
%TO.P,SW3,3,C*%
%TO.N,GND*%
X194500000Y-111080000D03*
%TD*%
D10*
%TO.P,J2,1,Pin_1*%
%TO.N,/current*%
X181840000Y-98740000D03*
%TO.P,J2,2,Pin_2*%
%TO.N,12vdc*%
X181840000Y-105090000D03*
%TD*%
D17*
%TO.P,A1,1,NC*%
%TO.N,unconnected-(A1-NC-Pad1)*%
X131930000Y-70270000D03*
D18*
%TO.P,A1,2,IOREF*%
%TO.N,unconnected-(A1-IOREF-Pad2)*%
X134470000Y-70270000D03*
%TO.P,A1,3,~{RESET}*%
%TO.N,unconnected-(A1-~{RESET}-Pad3)*%
X137010000Y-70270000D03*
%TO.P,A1,4,3V3*%
%TO.N,unconnected-(A1-3V3-Pad4)*%
X139550000Y-70270000D03*
%TO.P,A1,5,+5V*%
%TO.N,unconnected-(A1-+5V-Pad5)*%
X142090000Y-70270000D03*
%TO.P,A1,6,GND*%
%TO.N,GND*%
X144630000Y-70270000D03*
%TO.P,A1,7,GND*%
X147170000Y-70270000D03*
%TO.P,A1,8,VIN*%
%TO.N,unconnected-(A1-VIN-Pad8)*%
X149710000Y-70270000D03*
%TO.P,A1,9,A0*%
%TO.N,Vsense*%
X154790000Y-70270000D03*
%TO.P,A1,10,A1*%
%TO.N,unconnected-(A1-A1-Pad10)*%
X157330000Y-70270000D03*
%TO.P,A1,11,A2*%
%TO.N,temp_up*%
X159870000Y-70270000D03*
%TO.P,A1,12,A3*%
%TO.N,temp_down*%
X162410000Y-70270000D03*
%TO.P,A1,13,A4*%
%TO.N,relay_control*%
X164950000Y-70270000D03*
%TO.P,A1,14,A5*%
%TO.N,unconnected-(A1-A5-Pad14)*%
X167490000Y-70270000D03*
%TO.P,A1,15,D0/RX*%
%TO.N,unconnected-(A1-D0{slash}RX-Pad15)*%
X167490000Y-118530000D03*
%TO.P,A1,16,D1/TX*%
%TO.N,unconnected-(A1-D1{slash}TX-Pad16)*%
X164950000Y-118530000D03*
%TO.P,A1,17,D2/SDA*%
%TO.N,unconnected-(A1-D2{slash}SDA-Pad17)*%
X162410000Y-118530000D03*
%TO.P,A1,18,D3/SCL*%
%TO.N,unconnected-(A1-D3{slash}SCL-Pad18)*%
X159870000Y-118530000D03*
%TO.P,A1,19,D4*%
%TO.N,unconnected-(A1-D4-Pad19)*%
X157330000Y-118530000D03*
%TO.P,A1,20,D5*%
%TO.N,unconnected-(A1-D5-Pad20)*%
X154790000Y-118530000D03*
%TO.P,A1,21,D6*%
%TO.N,unconnected-(A1-D6-Pad21)*%
X152250000Y-118530000D03*
%TO.P,A1,22,D7*%
%TO.N,buzzer+*%
X149710000Y-118530000D03*
%TO.P,A1,23,D8*%
%TO.N,relay2pin*%
X145650000Y-118530000D03*
%TO.P,A1,24,D9*%
%TO.N,pump-pwm*%
X143110000Y-118530000D03*
%TO.P,A1,25,D10*%
%TO.N,unconnected-(A1-D10-Pad25)*%
X140570000Y-118530000D03*
%TO.P,A1,26,D11*%
%TO.N,unconnected-(A1-D11-Pad26)*%
X138030000Y-118530000D03*
%TO.P,A1,27,D12*%
%TO.N,unconnected-(A1-D12-Pad27)*%
X135490000Y-118530000D03*
%TO.P,A1,28,D13*%
%TO.N,unconnected-(A1-D13-Pad28)*%
X132950000Y-118530000D03*
%TO.P,A1,29,GND*%
%TO.N,GND*%
X130410000Y-118530000D03*
%TO.P,A1,30,AREF*%
%TO.N,AREF-voltage*%
X127870000Y-118530000D03*
%TO.P,A1,31,SDA/D2*%
%TO.N,unconnected-(A1-SDA{slash}D2-Pad31)*%
X125330000Y-118530000D03*
%TO.P,A1,32,SCL/D3*%
%TO.N,unconnected-(A1-SCL{slash}D3-Pad32)*%
X122790000Y-118530000D03*
%TD*%
D19*
%TO.P,Q2,*%
%TO.N,*%
X154000000Y-98000000D03*
D20*
%TO.P,Q2,1,B*%
%TO.N,relay2pin*%
X151460000Y-114660000D03*
D21*
%TO.P,Q2,2,C*%
%TO.N,/current*%
X154000000Y-114660000D03*
%TO.P,Q2,3,E*%
%TO.N,GND*%
X156540000Y-114660000D03*
%TD*%
D19*
%TO.P,Q1,*%
%TO.N,*%
X154000000Y-91660000D03*
D20*
%TO.P,Q1,1,B*%
%TO.N,pump-pwm*%
X156540000Y-75000000D03*
D21*
%TO.P,Q1,2,C*%
%TO.N,/current*%
X154000000Y-75000000D03*
%TO.P,Q1,3,E*%
%TO.N,GND*%
X151460000Y-75000000D03*
%TD*%
D11*
%TO.P,D2,1,K*%
%TO.N,12vdc*%
X124380000Y-93750000D03*
D12*
%TO.P,D2,2,A*%
%TO.N,/current*%
X137080000Y-93750000D03*
%TD*%
D10*
%TO.P,J1,1,Pin_1*%
%TO.N,/current*%
X181920000Y-84520000D03*
%TO.P,J1,2,Pin_2*%
%TO.N,12vdc*%
X181920000Y-90870000D03*
%TD*%
D15*
%TO.P,SW1,1,A*%
%TO.N,GND*%
X194500000Y-82080000D03*
D16*
%TO.P,SW1,2,B*%
%TO.N,temp_up*%
X194500000Y-79540000D03*
%TO.P,SW1,3,C*%
%TO.N,GND*%
X194500000Y-77000000D03*
%TD*%
D10*
%TO.P,TH1,1*%
%TO.N,Vsense*%
X182000000Y-69650000D03*
%TO.P,TH1,2*%
%TO.N,GND*%
X182000000Y-76000000D03*
%TD*%
D22*
%TO.P,R1,1*%
%TO.N,AREF-voltage*%
X129500000Y-108500000D03*
%TO.P,R1,2*%
%TO.N,Vsense*%
X132040000Y-108500000D03*
%TD*%
D15*
%TO.P,SW2,1,C*%
%TO.N,GND*%
X194500000Y-92000000D03*
D16*
%TO.P,SW2,2,B*%
%TO.N,temp_down*%
X194500000Y-94540000D03*
%TO.P,SW2,3,A*%
%TO.N,GND*%
X194500000Y-97080000D03*
%TD*%
D11*
%TO.P,D3,1,K*%
%TO.N,12vdc*%
X124380000Y-100640000D03*
D12*
%TO.P,D3,2,A*%
%TO.N,GND*%
X137080000Y-100640000D03*
%TD*%
D23*
%TO.N,/current*%
X170000000Y-85000000D03*
X173500000Y-111000000D03*
X168000000Y-116000000D03*
X161500000Y-116000000D03*
X141500000Y-73000000D03*
X147000000Y-102000000D03*
X160500000Y-79000000D03*
X143500000Y-82500000D03*
X143000000Y-111000000D03*
X161500000Y-111000000D03*
X163000000Y-101500000D03*
X162000000Y-88000000D03*
X143000000Y-101500000D03*
X143500000Y-88000000D03*
%TO.N,12vdc*%
X146891200Y-106157000D03*
%TO.N,pump-pwm*%
X152934000Y-72021300D03*
X144875300Y-80832700D03*
%TO.N,buzzer+*%
X130810100Y-120857800D03*
%TO.N,temp_up*%
X161514300Y-77023000D03*
%TO.N,GND*%
X145695900Y-75824800D03*
X100068800Y-94499800D03*
X147153200Y-97414100D03*
%TO.N,/current*%
X181805100Y-109129000D03*
%TD*%
D24*
%TO.N,12vdc*%
X184082100Y-102847900D02*
X181840000Y-105090000D01*
X184082100Y-93032100D02*
X184082100Y-102847900D01*
X181920000Y-90870000D02*
X184082100Y-93032100D01*
X129897000Y-106157000D02*
X124380000Y-100640000D01*
X146891200Y-106157000D02*
X129897000Y-106157000D01*
D25*
%TO.N,relay2pin*%
X147437500Y-116230000D02*
X145650000Y-116230000D01*
X149007500Y-114660000D02*
X147437500Y-116230000D01*
X151460000Y-114660000D02*
X149007500Y-114660000D01*
X145650000Y-118530000D02*
X145650000Y-116230000D01*
%TO.N,pump-pwm*%
X143728700Y-79686100D02*
X144875300Y-80832700D01*
X143728700Y-75012100D02*
X143728700Y-79686100D01*
X146099100Y-72641700D02*
X143728700Y-75012100D01*
X152313600Y-72641700D02*
X146099100Y-72641700D01*
X152934000Y-72021300D02*
X152313600Y-72641700D01*
%TO.N,buzzer+*%
X145800900Y-120857800D02*
X130810100Y-120857800D01*
X147410000Y-119248700D02*
X145800900Y-120857800D01*
X147410000Y-118530000D02*
X147410000Y-119248700D01*
X149710000Y-118530000D02*
X147410000Y-118530000D01*
%TO.N,temp_up*%
X164031300Y-79540000D02*
X161514300Y-77023000D01*
X194500000Y-79540000D02*
X164031300Y-79540000D01*
%TO.N,Vsense*%
X156593400Y-72073400D02*
X154790000Y-70270000D01*
X179576600Y-72073400D02*
X156593400Y-72073400D01*
X182000000Y-69650000D02*
X179576600Y-72073400D01*
D24*
%TO.N,GND*%
X160260200Y-113642300D02*
X159242500Y-114660000D01*
X178470000Y-113642300D02*
X160260200Y-113642300D01*
X156540000Y-114660000D02*
X159242500Y-114660000D01*
X147932700Y-75824800D02*
X148757500Y-75000000D01*
X145695900Y-75824800D02*
X147932700Y-75824800D01*
X151460000Y-75000000D02*
X148757500Y-75000000D01*
X147170000Y-70270000D02*
X144630000Y-70270000D01*
X102764000Y-97195000D02*
X100068800Y-94499800D01*
X133635000Y-97195000D02*
X102764000Y-97195000D01*
X137080000Y-100640000D02*
X133635000Y-97195000D01*
X140305900Y-97414100D02*
X137080000Y-100640000D01*
X147153200Y-97414100D02*
X140305900Y-97414100D01*
%TO.N,/current*%
X180441300Y-97341300D02*
X181840000Y-98740000D01*
X173775000Y-97341300D02*
X180441300Y-97341300D01*
X138087200Y-87867200D02*
X137080000Y-86860000D01*
X141225000Y-87867200D02*
X138087200Y-87867200D01*
X181634200Y-109299900D02*
X181805100Y-109129000D01*
X175849900Y-109299900D02*
X181634200Y-109299900D01*
X180691100Y-83291100D02*
X181920000Y-84520000D01*
X173775000Y-83291100D02*
X180691100Y-83291100D01*
X138470300Y-92359700D02*
X137080000Y-93750000D01*
X140926900Y-92359700D02*
X138470300Y-92359700D01*
%TD*%
%TA.AperFunction,Conductor*%
%TO.N,/current*%
G36*
X175936370Y-67526513D02*
G01*
X175982712Y-67578803D01*
X175994500Y-67631571D01*
X175994500Y-70698907D01*
X175999289Y-70743441D01*
X176000000Y-70756697D01*
X176000000Y-70898900D01*
X175980315Y-70965939D01*
X175927511Y-71011694D01*
X175876000Y-71022900D01*
X168543848Y-71022900D01*
X168476809Y-71003215D01*
X168431054Y-70950411D01*
X168421110Y-70881253D01*
X168433363Y-70842605D01*
X168509873Y-70692445D01*
X168563402Y-70527701D01*
X168590500Y-70356611D01*
X168590500Y-70183389D01*
X168563402Y-70012299D01*
X168509873Y-69847555D01*
X168431232Y-69693212D01*
X168329414Y-69553072D01*
X168206928Y-69430586D01*
X168066788Y-69328768D01*
X167912445Y-69250127D01*
X167747701Y-69196598D01*
X167747699Y-69196597D01*
X167747698Y-69196597D01*
X167616271Y-69175781D01*
X167576611Y-69169500D01*
X167403389Y-69169500D01*
X167363728Y-69175781D01*
X167232302Y-69196597D01*
X167067552Y-69250128D01*
X166913211Y-69328768D01*
X166833256Y-69386859D01*
X166773072Y-69430586D01*
X166773070Y-69430588D01*
X166773069Y-69430588D01*
X166650588Y-69553069D01*
X166650588Y-69553070D01*
X166650586Y-69553072D01*
X166623714Y-69590058D01*
X166548768Y-69693211D01*
X166470128Y-69847552D01*
X166470127Y-69847554D01*
X166470127Y-69847555D01*
X166468252Y-69853326D01*
X166416597Y-70012302D01*
X166405105Y-70084864D01*
X166389500Y-70183389D01*
X166389500Y-70356611D01*
X166397386Y-70406400D01*
X166416062Y-70524320D01*
X166416598Y-70527701D01*
X166470127Y-70692445D01*
X166518768Y-70787910D01*
X166546637Y-70842605D01*
X166559533Y-70911275D01*
X166533257Y-70976015D01*
X166476150Y-71016272D01*
X166436152Y-71022900D01*
X166003848Y-71022900D01*
X165936809Y-71003215D01*
X165891054Y-70950411D01*
X165881110Y-70881253D01*
X165893363Y-70842605D01*
X165969873Y-70692445D01*
X166023402Y-70527701D01*
X166050500Y-70356611D01*
X166050500Y-70183389D01*
X166023402Y-70012299D01*
X165969873Y-69847555D01*
X165891232Y-69693212D01*
X165789414Y-69553072D01*
X165666928Y-69430586D01*
X165526788Y-69328768D01*
X165372445Y-69250127D01*
X165207701Y-69196598D01*
X165207699Y-69196597D01*
X165207698Y-69196597D01*
X165076271Y-69175781D01*
X165036611Y-69169500D01*
X164863389Y-69169500D01*
X164823728Y-69175781D01*
X164692302Y-69196597D01*
X164527552Y-69250128D01*
X164373211Y-69328768D01*
X164293256Y-69386859D01*
X164233072Y-69430586D01*
X164233070Y-69430588D01*
X164233069Y-69430588D01*
X164110588Y-69553069D01*
X164110588Y-69553070D01*
X164110586Y-69553072D01*
X164083714Y-69590058D01*
X164008768Y-69693211D01*
X163930128Y-69847552D01*
X163930127Y-69847554D01*
X163930127Y-69847555D01*
X163928252Y-69853326D01*
X163876597Y-70012302D01*
X163865105Y-70084864D01*
X163849500Y-70183389D01*
X163849500Y-70356611D01*
X163857386Y-70406400D01*
X163876062Y-70524320D01*
X163876598Y-70527701D01*
X163930127Y-70692445D01*
X163978768Y-70787910D01*
X164006637Y-70842605D01*
X164019533Y-70911275D01*
X163993257Y-70976015D01*
X163936150Y-71016272D01*
X163896152Y-71022900D01*
X163463848Y-71022900D01*
X163396809Y-71003215D01*
X163351054Y-70950411D01*
X163341110Y-70881253D01*
X163353363Y-70842605D01*
X163429873Y-70692445D01*
X163483402Y-70527701D01*
X163510500Y-70356611D01*
X163510500Y-70183389D01*
X163483402Y-70012299D01*
X163429873Y-69847555D01*
X163351232Y-69693212D01*
X163249414Y-69553072D01*
X163126928Y-69430586D01*
X162986788Y-69328768D01*
X162832445Y-69250127D01*
X162667701Y-69196598D01*
X162667699Y-69196597D01*
X162667698Y-69196597D01*
X162536271Y-69175781D01*
X162496611Y-69169500D01*
X162323389Y-69169500D01*
X162283728Y-69175781D01*
X162152302Y-69196597D01*
X161987552Y-69250128D01*
X161833211Y-69328768D01*
X161753256Y-69386859D01*
X161693072Y-69430586D01*
X161693070Y-69430588D01*
X161693069Y-69430588D01*
X161570588Y-69553069D01*
X161570588Y-69553070D01*
X161570586Y-69553072D01*
X161543714Y-69590058D01*
X161468768Y-69693211D01*
X161390128Y-69847552D01*
X161390127Y-69847554D01*
X161390127Y-69847555D01*
X161388252Y-69853326D01*
X161336597Y-70012302D01*
X161325105Y-70084864D01*
X161309500Y-70183389D01*
X161309500Y-70356611D01*
X161317386Y-70406400D01*
X161336062Y-70524320D01*
X161336598Y-70527701D01*
X161390127Y-70692445D01*
X161438768Y-70787910D01*
X161466637Y-70842605D01*
X161479533Y-70911275D01*
X161453257Y-70976015D01*
X161396150Y-71016272D01*
X161356152Y-71022900D01*
X160923848Y-71022900D01*
X160856809Y-71003215D01*
X160811054Y-70950411D01*
X160801110Y-70881253D01*
X160813363Y-70842605D01*
X160889873Y-70692445D01*
X160943402Y-70527701D01*
X160970500Y-70356611D01*
X160970500Y-70183389D01*
X160943402Y-70012299D01*
X160889873Y-69847555D01*
X160811232Y-69693212D01*
X160709414Y-69553072D01*
X160586928Y-69430586D01*
X160446788Y-69328768D01*
X160292445Y-69250127D01*
X160127701Y-69196598D01*
X160127699Y-69196597D01*
X160127698Y-69196597D01*
X159996271Y-69175781D01*
X159956611Y-69169500D01*
X159783389Y-69169500D01*
X159743728Y-69175781D01*
X159612302Y-69196597D01*
X159447552Y-69250128D01*
X159293211Y-69328768D01*
X159213256Y-69386859D01*
X159153072Y-69430586D01*
X159153070Y-69430588D01*
X159153069Y-69430588D01*
X159030588Y-69553069D01*
X159030588Y-69553070D01*
X159030586Y-69553072D01*
X159003714Y-69590058D01*
X158928768Y-69693211D01*
X158850128Y-69847552D01*
X158850127Y-69847554D01*
X158850127Y-69847555D01*
X158848252Y-69853326D01*
X158796597Y-70012302D01*
X158785105Y-70084864D01*
X158769500Y-70183389D01*
X158769500Y-70356611D01*
X158777386Y-70406400D01*
X158796062Y-70524320D01*
X158796598Y-70527701D01*
X158850127Y-70692445D01*
X158898768Y-70787910D01*
X158926637Y-70842605D01*
X158939533Y-70911275D01*
X158913257Y-70976015D01*
X158856150Y-71016272D01*
X158816152Y-71022900D01*
X158383848Y-71022900D01*
X158316809Y-71003215D01*
X158271054Y-70950411D01*
X158261110Y-70881253D01*
X158273363Y-70842605D01*
X158349873Y-70692445D01*
X158403402Y-70527701D01*
X158430500Y-70356611D01*
X158430500Y-70183389D01*
X158403402Y-70012299D01*
X158349873Y-69847555D01*
X158271232Y-69693212D01*
X158169414Y-69553072D01*
X158046928Y-69430586D01*
X157906788Y-69328768D01*
X157752445Y-69250127D01*
X157587701Y-69196598D01*
X157587699Y-69196597D01*
X157587698Y-69196597D01*
X157456271Y-69175781D01*
X157416611Y-69169500D01*
X157243389Y-69169500D01*
X157203728Y-69175781D01*
X157072302Y-69196597D01*
X156907552Y-69250128D01*
X156753211Y-69328768D01*
X156673256Y-69386859D01*
X156613072Y-69430586D01*
X156613070Y-69430588D01*
X156613069Y-69430588D01*
X156490588Y-69553069D01*
X156490588Y-69553070D01*
X156490586Y-69553072D01*
X156463714Y-69590058D01*
X156388768Y-69693211D01*
X156310128Y-69847550D01*
X156260597Y-69999991D01*
X156221159Y-70057666D01*
X156156800Y-70084864D01*
X156087954Y-70072949D01*
X156054985Y-70049353D01*
X155778765Y-69773134D01*
X155755961Y-69741747D01*
X155731232Y-69693212D01*
X155731230Y-69693209D01*
X155731229Y-69693207D01*
X155701672Y-69652526D01*
X155629414Y-69553072D01*
X155506928Y-69430586D01*
X155366788Y-69328768D01*
X155212445Y-69250127D01*
X155047701Y-69196598D01*
X155047699Y-69196597D01*
X155047698Y-69196597D01*
X154916271Y-69175781D01*
X154876611Y-69169500D01*
X154703389Y-69169500D01*
X154663728Y-69175781D01*
X154532302Y-69196597D01*
X154367552Y-69250128D01*
X154213211Y-69328768D01*
X154133256Y-69386859D01*
X154073072Y-69430586D01*
X154073070Y-69430588D01*
X154073069Y-69430588D01*
X153950588Y-69553069D01*
X153950588Y-69553070D01*
X153950586Y-69553072D01*
X153923714Y-69590058D01*
X153848768Y-69693211D01*
X153770128Y-69847552D01*
X153770127Y-69847554D01*
X153770127Y-69847555D01*
X153768252Y-69853326D01*
X153716597Y-70012302D01*
X153705105Y-70084864D01*
X153689500Y-70183389D01*
X153689500Y-70356611D01*
X153697386Y-70406400D01*
X153716062Y-70524320D01*
X153716598Y-70527701D01*
X153770127Y-70692445D01*
X153848768Y-70846788D01*
X153950586Y-70986928D01*
X154073072Y-71109414D01*
X154152186Y-71166894D01*
X154213207Y-71211229D01*
X154213209Y-71211230D01*
X154213212Y-71211232D01*
X154261749Y-71235962D01*
X154293134Y-71258765D01*
X155923741Y-72889374D01*
X155923745Y-72889377D01*
X156095795Y-73004338D01*
X156095808Y-73004345D01*
X156286975Y-73083528D01*
X156286980Y-73083530D01*
X156286984Y-73083530D01*
X156286985Y-73083531D01*
X156489932Y-73123901D01*
X156489935Y-73123901D01*
X156702979Y-73123901D01*
X156702999Y-73123900D01*
X175876000Y-73123900D01*
X175884685Y-73126450D01*
X175893647Y-73125162D01*
X175917687Y-73136140D01*
X175943039Y-73143585D01*
X175948966Y-73150425D01*
X175957203Y-73154187D01*
X175971492Y-73176421D01*
X175988794Y-73196389D01*
X175991081Y-73206903D01*
X175994977Y-73212965D01*
X176000000Y-73247900D01*
X176000000Y-73400777D01*
X175998738Y-73418423D01*
X175994500Y-73447898D01*
X175994500Y-78165507D01*
X175999289Y-78210041D01*
X176000000Y-78223297D01*
X176000000Y-78365500D01*
X175980315Y-78432539D01*
X175927511Y-78478294D01*
X175876000Y-78489500D01*
X164517794Y-78489500D01*
X164450755Y-78469815D01*
X164430113Y-78453181D01*
X162183958Y-76207026D01*
X162183954Y-76207023D01*
X162011904Y-76092062D01*
X162011895Y-76092057D01*
X161820720Y-76012870D01*
X161820712Y-76012868D01*
X161617769Y-75972500D01*
X161617765Y-75972500D01*
X161410835Y-75972500D01*
X161410830Y-75972500D01*
X161207887Y-76012868D01*
X161207879Y-76012870D01*
X161016704Y-76092057D01*
X161016695Y-76092062D01*
X160844645Y-76207023D01*
X160844641Y-76207026D01*
X160698326Y-76353341D01*
X160698323Y-76353345D01*
X160583362Y-76525395D01*
X160583357Y-76525404D01*
X160504170Y-76716579D01*
X160504168Y-76716587D01*
X160463800Y-76919530D01*
X160463800Y-77126469D01*
X160504168Y-77329412D01*
X160504170Y-77329420D01*
X160583357Y-77520595D01*
X160583362Y-77520604D01*
X160698323Y-77692654D01*
X160698326Y-77692658D01*
X163361641Y-80355974D01*
X163361645Y-80355977D01*
X163533695Y-80470938D01*
X163533699Y-80470940D01*
X163533702Y-80470942D01*
X163667301Y-80526280D01*
X163724880Y-80550130D01*
X163754828Y-80556087D01*
X163796494Y-80564375D01*
X163927832Y-80590501D01*
X163927835Y-80590501D01*
X164140880Y-80590501D01*
X164140900Y-80590500D01*
X175876000Y-80590500D01*
X175884685Y-80593050D01*
X175893647Y-80591762D01*
X175917687Y-80602740D01*
X175943039Y-80610185D01*
X175948966Y-80617025D01*
X175957203Y-80620787D01*
X175971492Y-80643021D01*
X175988794Y-80662989D01*
X175991081Y-80673503D01*
X175994977Y-80679565D01*
X176000000Y-80714500D01*
X176000000Y-80867377D01*
X175998738Y-80885023D01*
X175994500Y-80914498D01*
X175994500Y-81666607D01*
X175999289Y-81711141D01*
X176000000Y-81724397D01*
X176000000Y-84868477D01*
X175998738Y-84886123D01*
X175994500Y-84915598D01*
X175994500Y-95716807D01*
X175999289Y-95761341D01*
X176000000Y-95774597D01*
X176000000Y-98918677D01*
X175998738Y-98936323D01*
X175994500Y-98965798D01*
X175994500Y-107675407D01*
X175999289Y-107719941D01*
X176000000Y-107733197D01*
X176000000Y-110877277D01*
X175998738Y-110894923D01*
X175994500Y-110924398D01*
X175994500Y-112217800D01*
X175974815Y-112284839D01*
X175922011Y-112330594D01*
X175870500Y-112341800D01*
X160362551Y-112341800D01*
X160157848Y-112341800D01*
X160090453Y-112352474D01*
X159955663Y-112373823D01*
X159858323Y-112405450D01*
X159858323Y-112405451D01*
X159805552Y-112422597D01*
X159760974Y-112437082D01*
X159669784Y-112483545D01*
X159669785Y-112483546D01*
X159578588Y-112530013D01*
X159412978Y-112650336D01*
X158740134Y-113323181D01*
X158678811Y-113356666D01*
X158652453Y-113359500D01*
X156437648Y-113359500D01*
X156419244Y-113362415D01*
X156235465Y-113391522D01*
X156040776Y-113454781D01*
X155858386Y-113547715D01*
X155692786Y-113668028D01*
X155548028Y-113812786D01*
X155427715Y-113978386D01*
X155334781Y-114160776D01*
X155271522Y-114355465D01*
X155239500Y-114557648D01*
X155239500Y-114762351D01*
X155271522Y-114964534D01*
X155334781Y-115159223D01*
X155427715Y-115341613D01*
X155548028Y-115507213D01*
X155692786Y-115651971D01*
X155823336Y-115746819D01*
X155858390Y-115772287D01*
X155949585Y-115818753D01*
X156040776Y-115865218D01*
X156040778Y-115865218D01*
X156040781Y-115865220D01*
X156138122Y-115896848D01*
X156235465Y-115928477D01*
X156336557Y-115944488D01*
X156437648Y-115960500D01*
X156437649Y-115960500D01*
X159344851Y-115960500D01*
X159344852Y-115960500D01*
X159547035Y-115928477D01*
X159644376Y-115896848D01*
X159741719Y-115865220D01*
X159832914Y-115818753D01*
X159924111Y-115772287D01*
X160089719Y-115651966D01*
X160762566Y-114979119D01*
X160823889Y-114945634D01*
X160850247Y-114942800D01*
X175870500Y-114942800D01*
X175937539Y-114962485D01*
X175983294Y-115015289D01*
X175994500Y-115066800D01*
X175994500Y-122382493D01*
X175974815Y-122449532D01*
X175922011Y-122495287D01*
X175871885Y-122506485D01*
X139130885Y-122916999D01*
X139063630Y-122898065D01*
X139017288Y-122845775D01*
X139005500Y-122793007D01*
X139005500Y-122232310D01*
X139005500Y-122232300D01*
X139000710Y-122187746D01*
X139000000Y-122174493D01*
X139000000Y-122032300D01*
X139019685Y-121965261D01*
X139072489Y-121919506D01*
X139124000Y-121908300D01*
X145904366Y-121908300D01*
X145904367Y-121908299D01*
X146107320Y-121867930D01*
X146298498Y-121788741D01*
X146470555Y-121673777D01*
X146616877Y-121527455D01*
X146616878Y-121527453D01*
X146623944Y-121520387D01*
X146623947Y-121520383D01*
X148079651Y-120064679D01*
X148079655Y-120064677D01*
X148225977Y-119918355D01*
X148340941Y-119746298D01*
X148377910Y-119657046D01*
X148421751Y-119602644D01*
X148488045Y-119580579D01*
X148492471Y-119580500D01*
X149362174Y-119580500D01*
X149400491Y-119586568D01*
X149419244Y-119592662D01*
X149452298Y-119603402D01*
X149536089Y-119616673D01*
X149623389Y-119630500D01*
X149623390Y-119630500D01*
X149796610Y-119630500D01*
X149796611Y-119630500D01*
X149967701Y-119603402D01*
X150132445Y-119549873D01*
X150286788Y-119471232D01*
X150426928Y-119369414D01*
X150549414Y-119246928D01*
X150651232Y-119106788D01*
X150729873Y-118952445D01*
X150783402Y-118787701D01*
X150810500Y-118616611D01*
X150810500Y-118443389D01*
X151149500Y-118443389D01*
X151149500Y-118616611D01*
X151157677Y-118668239D01*
X151166038Y-118721031D01*
X151176598Y-118787701D01*
X151230127Y-118952445D01*
X151308768Y-119106788D01*
X151410586Y-119246928D01*
X151533072Y-119369414D01*
X151673212Y-119471232D01*
X151827555Y-119549873D01*
X151992299Y-119603402D01*
X152163389Y-119630500D01*
X152163390Y-119630500D01*
X152336610Y-119630500D01*
X152336611Y-119630500D01*
X152507701Y-119603402D01*
X152672445Y-119549873D01*
X152826788Y-119471232D01*
X152966928Y-119369414D01*
X153089414Y-119246928D01*
X153191232Y-119106788D01*
X153269873Y-118952445D01*
X153323402Y-118787701D01*
X153350500Y-118616611D01*
X153350500Y-118443389D01*
X153689500Y-118443389D01*
X153689500Y-118616611D01*
X153697677Y-118668239D01*
X153706038Y-118721031D01*
X153716598Y-118787701D01*
X153770127Y-118952445D01*
X153848768Y-119106788D01*
X153950586Y-119246928D01*
X154073072Y-119369414D01*
X154213212Y-119471232D01*
X154367555Y-119549873D01*
X154532299Y-119603402D01*
X154703389Y-119630500D01*
X154703390Y-119630500D01*
X154876610Y-119630500D01*
X154876611Y-119630500D01*
X155047701Y-119603402D01*
X155212445Y-119549873D01*
X155366788Y-119471232D01*
X155506928Y-119369414D01*
X155629414Y-119246928D01*
X155731232Y-119106788D01*
X155809873Y-118952445D01*
X155863402Y-118787701D01*
X155890500Y-118616611D01*
X155890500Y-118443389D01*
X156229500Y-118443389D01*
X156229500Y-118616611D01*
X156237677Y-118668239D01*
X156246038Y-118721031D01*
X156256598Y-118787701D01*
X156310127Y-118952445D01*
X156388768Y-119106788D01*
X156490586Y-119246928D01*
X156613072Y-119369414D01*
X156753212Y-119471232D01*
X156907555Y-119549873D01*
X157072299Y-119603402D01*
X157243389Y-119630500D01*
X157243390Y-119630500D01*
X157416610Y-119630500D01*
X157416611Y-119630500D01*
X157587701Y-119603402D01*
X157752445Y-119549873D01*
X157906788Y-119471232D01*
X158046928Y-119369414D01*
X158169414Y-119246928D01*
X158271232Y-119106788D01*
X158349873Y-118952445D01*
X158403402Y-118787701D01*
X158430500Y-118616611D01*
X158430500Y-118443389D01*
X158769500Y-118443389D01*
X158769500Y-118616611D01*
X158777677Y-118668239D01*
X158786038Y-118721031D01*
X158796598Y-118787701D01*
X158850127Y-118952445D01*
X158928768Y-119106788D01*
X159030586Y-119246928D01*
X159153072Y-119369414D01*
X159293212Y-119471232D01*
X159447555Y-119549873D01*
X159612299Y-119603402D01*
X159783389Y-119630500D01*
X159783390Y-119630500D01*
X159956610Y-119630500D01*
X159956611Y-119630500D01*
X160127701Y-119603402D01*
X160292445Y-119549873D01*
X160446788Y-119471232D01*
X160586928Y-119369414D01*
X160709414Y-119246928D01*
X160811232Y-119106788D01*
X160889873Y-118952445D01*
X160943402Y-118787701D01*
X160970500Y-118616611D01*
X160970500Y-118443389D01*
X161309500Y-118443389D01*
X161309500Y-118616611D01*
X161317677Y-118668239D01*
X161326038Y-118721031D01*
X161336598Y-118787701D01*
X161390127Y-118952445D01*
X161468768Y-119106788D01*
X161570586Y-119246928D01*
X161693072Y-119369414D01*
X161833212Y-119471232D01*
X161987555Y-119549873D01*
X162152299Y-119603402D01*
X162323389Y-119630500D01*
X162323390Y-119630500D01*
X162496610Y-119630500D01*
X162496611Y-119630500D01*
X162667701Y-119603402D01*
X162832445Y-119549873D01*
X162986788Y-119471232D01*
X163126928Y-119369414D01*
X163249414Y-119246928D01*
X163351232Y-119106788D01*
X163429873Y-118952445D01*
X163483402Y-118787701D01*
X163510500Y-118616611D01*
X163510500Y-118443389D01*
X163849500Y-118443389D01*
X163849500Y-118616611D01*
X163857677Y-118668239D01*
X163866038Y-118721031D01*
X163876598Y-118787701D01*
X163930127Y-118952445D01*
X164008768Y-119106788D01*
X164110586Y-119246928D01*
X164233072Y-119369414D01*
X164373212Y-119471232D01*
X164527555Y-119549873D01*
X164692299Y-119603402D01*
X164863389Y-119630500D01*
X164863390Y-119630500D01*
X165036610Y-119630500D01*
X165036611Y-119630500D01*
X165207701Y-119603402D01*
X165372445Y-119549873D01*
X165526788Y-119471232D01*
X165666928Y-119369414D01*
X165789414Y-119246928D01*
X165891232Y-119106788D01*
X165969873Y-118952445D01*
X166023402Y-118787701D01*
X166050500Y-118616611D01*
X166050500Y-118443389D01*
X166389500Y-118443389D01*
X166389500Y-118616611D01*
X166397677Y-118668239D01*
X166406038Y-118721031D01*
X166416598Y-118787701D01*
X166470127Y-118952445D01*
X166548768Y-119106788D01*
X166650586Y-119246928D01*
X166773072Y-119369414D01*
X166913212Y-119471232D01*
X167067555Y-119549873D01*
X167232299Y-119603402D01*
X167403389Y-119630500D01*
X167403390Y-119630500D01*
X167576610Y-119630500D01*
X167576611Y-119630500D01*
X167747701Y-119603402D01*
X167912445Y-119549873D01*
X168066788Y-119471232D01*
X168206928Y-119369414D01*
X168329414Y-119246928D01*
X168431232Y-119106788D01*
X168509873Y-118952445D01*
X168563402Y-118787701D01*
X168590500Y-118616611D01*
X168590500Y-118443389D01*
X168563402Y-118272299D01*
X168509873Y-118107555D01*
X168431232Y-117953212D01*
X168329414Y-117813072D01*
X168206928Y-117690586D01*
X168066788Y-117588768D01*
X167912445Y-117510127D01*
X167747701Y-117456598D01*
X167747699Y-117456597D01*
X167747698Y-117456597D01*
X167616271Y-117435781D01*
X167576611Y-117429500D01*
X167403389Y-117429500D01*
X167363728Y-117435781D01*
X167232302Y-117456597D01*
X167067552Y-117510128D01*
X166913211Y-117588768D01*
X166833256Y-117646859D01*
X166773072Y-117690586D01*
X166773070Y-117690588D01*
X166773069Y-117690588D01*
X166650588Y-117813069D01*
X166650588Y-117813070D01*
X166650586Y-117813072D01*
X166623714Y-117850058D01*
X166548768Y-117953211D01*
X166470128Y-118107552D01*
X166470127Y-118107554D01*
X166470127Y-118107555D01*
X166468252Y-118113325D01*
X166416597Y-118272302D01*
X166396484Y-118399296D01*
X166389500Y-118443389D01*
X166050500Y-118443389D01*
X166023402Y-118272299D01*
X165969873Y-118107555D01*
X165891232Y-117953212D01*
X165789414Y-117813072D01*
X165666928Y-117690586D01*
X165526788Y-117588768D01*
X165372445Y-117510127D01*
X165207701Y-117456598D01*
X165207699Y-117456597D01*
X165207698Y-117456597D01*
X165076271Y-117435781D01*
X165036611Y-117429500D01*
X164863389Y-117429500D01*
X164823728Y-117435781D01*
X164692302Y-117456597D01*
X164527552Y-117510128D01*
X164373211Y-117588768D01*
X164293256Y-117646859D01*
X164233072Y-117690586D01*
X164233070Y-117690588D01*
X164233069Y-117690588D01*
X164110588Y-117813069D01*
X164110588Y-117813070D01*
X164110586Y-117813072D01*
X164083714Y-117850058D01*
X164008768Y-117953211D01*
X163930128Y-118107552D01*
X163930127Y-118107554D01*
X163930127Y-118107555D01*
X163928252Y-118113325D01*
X163876597Y-118272302D01*
X163856484Y-118399296D01*
X163849500Y-118443389D01*
X163510500Y-118443389D01*
X163483402Y-118272299D01*
X163429873Y-118107555D01*
X163351232Y-117953212D01*
X163249414Y-117813072D01*
X163126928Y-117690586D01*
X162986788Y-117588768D01*
X162832445Y-117510127D01*
X162667701Y-117456598D01*
X162667699Y-117456597D01*
X162667698Y-117456597D01*
X162536271Y-117435781D01*
X162496611Y-117429500D01*
X162323389Y-117429500D01*
X162283728Y-117435781D01*
X162152302Y-117456597D01*
X161987552Y-117510128D01*
X161833211Y-117588768D01*
X161753256Y-117646859D01*
X161693072Y-117690586D01*
X161693070Y-117690588D01*
X161693069Y-117690588D01*
X161570588Y-117813069D01*
X161570588Y-117813070D01*
X161570586Y-117813072D01*
X161543714Y-117850058D01*
X161468768Y-117953211D01*
X161390128Y-118107552D01*
X161390127Y-118107554D01*
X161390127Y-118107555D01*
X161388252Y-118113325D01*
X161336597Y-118272302D01*
X161316484Y-118399296D01*
X161309500Y-118443389D01*
X160970500Y-118443389D01*
X160943402Y-118272299D01*
X160889873Y-118107555D01*
X160811232Y-117953212D01*
X160709414Y-117813072D01*
X160586928Y-117690586D01*
X160446788Y-117588768D01*
X160292445Y-117510127D01*
X160127701Y-117456598D01*
X160127699Y-117456597D01*
X160127698Y-117456597D01*
X159996271Y-117435781D01*
X159956611Y-117429500D01*
X159783389Y-117429500D01*
X159743728Y-117435781D01*
X159612302Y-117456597D01*
X159447552Y-117510128D01*
X159293211Y-117588768D01*
X159213256Y-117646859D01*
X159153072Y-117690586D01*
X159153070Y-117690588D01*
X159153069Y-117690588D01*
X159030588Y-117813069D01*
X159030588Y-117813070D01*
X159030586Y-117813072D01*
X159003714Y-117850058D01*
X158928768Y-117953211D01*
X158850128Y-118107552D01*
X158850127Y-118107554D01*
X158850127Y-118107555D01*
X158848252Y-118113325D01*
X158796597Y-118272302D01*
X158776484Y-118399296D01*
X158769500Y-118443389D01*
X158430500Y-118443389D01*
X158403402Y-118272299D01*
X158349873Y-118107555D01*
X158271232Y-117953212D01*
X158169414Y-117813072D01*
X158046928Y-117690586D01*
X157906788Y-117588768D01*
X157752445Y-117510127D01*
X157587701Y-117456598D01*
X157587699Y-117456597D01*
X157587698Y-117456597D01*
X157456271Y-117435781D01*
X157416611Y-117429500D01*
X157243389Y-117429500D01*
X157203728Y-117435781D01*
X157072302Y-117456597D01*
X156907552Y-117510128D01*
X156753211Y-117588768D01*
X156673256Y-117646859D01*
X156613072Y-117690586D01*
X156613070Y-117690588D01*
X156613069Y-117690588D01*
X156490588Y-117813069D01*
X156490588Y-117813070D01*
X156490586Y-117813072D01*
X156463714Y-117850058D01*
X156388768Y-117953211D01*
X156310128Y-118107552D01*
X156310127Y-118107554D01*
X156310127Y-118107555D01*
X156308252Y-118113325D01*
X156256597Y-118272302D01*
X156236484Y-118399296D01*
X156229500Y-118443389D01*
X155890500Y-118443389D01*
X155863402Y-118272299D01*
X155809873Y-118107555D01*
X155731232Y-117953212D01*
X155629414Y-117813072D01*
X155506928Y-117690586D01*
X155366788Y-117588768D01*
X155212445Y-117510127D01*
X155047701Y-117456598D01*
X155047699Y-117456597D01*
X155047698Y-117456597D01*
X154916271Y-117435781D01*
X154876611Y-117429500D01*
X154703389Y-117429500D01*
X154663728Y-117435781D01*
X154532302Y-117456597D01*
X154367552Y-117510128D01*
X154213211Y-117588768D01*
X154133256Y-117646859D01*
X154073072Y-117690586D01*
X154073070Y-117690588D01*
X154073069Y-117690588D01*
X153950588Y-117813069D01*
X153950588Y-117813070D01*
X153950586Y-117813072D01*
X153923714Y-117850058D01*
X153848768Y-117953211D01*
X153770128Y-118107552D01*
X153770127Y-118107554D01*
X153770127Y-118107555D01*
X153768252Y-118113325D01*
X153716597Y-118272302D01*
X153696484Y-118399296D01*
X153689500Y-118443389D01*
X153350500Y-118443389D01*
X153323402Y-118272299D01*
X153269873Y-118107555D01*
X153191232Y-117953212D01*
X153089414Y-117813072D01*
X152966928Y-117690586D01*
X152826788Y-117588768D01*
X152672445Y-117510127D01*
X152507701Y-117456598D01*
X152507699Y-117456597D01*
X152507698Y-117456597D01*
X152376271Y-117435781D01*
X152336611Y-117429500D01*
X152163389Y-117429500D01*
X152123728Y-117435781D01*
X151992302Y-117456597D01*
X151827552Y-117510128D01*
X151673211Y-117588768D01*
X151593256Y-117646859D01*
X151533072Y-117690586D01*
X151533070Y-117690588D01*
X151533069Y-117690588D01*
X151410588Y-117813069D01*
X151410588Y-117813070D01*
X151410586Y-117813072D01*
X151383714Y-117850058D01*
X151308768Y-117953211D01*
X151230128Y-118107552D01*
X151230127Y-118107554D01*
X151230127Y-118107555D01*
X151228252Y-118113325D01*
X151176597Y-118272302D01*
X151156484Y-118399296D01*
X151149500Y-118443389D01*
X150810500Y-118443389D01*
X150783402Y-118272299D01*
X150729873Y-118107555D01*
X150651232Y-117953212D01*
X150549414Y-117813072D01*
X150426928Y-117690586D01*
X150286788Y-117588768D01*
X150132445Y-117510127D01*
X149967701Y-117456598D01*
X149967699Y-117456597D01*
X149967698Y-117456597D01*
X149836271Y-117435781D01*
X149796611Y-117429500D01*
X149623389Y-117429500D01*
X149602810Y-117432759D01*
X149452298Y-117456597D01*
X149406820Y-117471374D01*
X149400491Y-117473431D01*
X149362174Y-117479500D01*
X147789419Y-117479500D01*
X147722380Y-117459815D01*
X147676625Y-117407011D01*
X147666681Y-117337853D01*
X147695706Y-117274297D01*
X147741966Y-117240939D01*
X147743918Y-117240130D01*
X147743920Y-117240130D01*
X147935098Y-117160941D01*
X147959533Y-117144614D01*
X147959535Y-117144613D01*
X147996312Y-117120038D01*
X148107155Y-117045977D01*
X148253477Y-116899655D01*
X148253478Y-116899653D01*
X148260544Y-116892587D01*
X148260546Y-116892583D01*
X149406312Y-115746819D01*
X149467635Y-115713334D01*
X149493993Y-115710500D01*
X150120511Y-115710500D01*
X150187550Y-115730185D01*
X150233305Y-115782989D01*
X150233892Y-115784295D01*
X150255294Y-115832765D01*
X150334735Y-115912206D01*
X150437509Y-115957585D01*
X150462635Y-115960500D01*
X152457364Y-115960499D01*
X152457379Y-115960497D01*
X152457382Y-115960497D01*
X152482487Y-115957586D01*
X152482488Y-115957585D01*
X152482491Y-115957585D01*
X152585265Y-115912206D01*
X152664706Y-115832765D01*
X152710085Y-115729991D01*
X152713000Y-115704865D01*
X152712999Y-113615136D01*
X152712997Y-113615117D01*
X152710086Y-113590012D01*
X152710085Y-113590010D01*
X152710085Y-113590009D01*
X152664706Y-113487235D01*
X152585265Y-113407794D01*
X152548415Y-113391523D01*
X152482492Y-113362415D01*
X152457365Y-113359500D01*
X150462643Y-113359500D01*
X150462617Y-113359502D01*
X150437512Y-113362413D01*
X150437508Y-113362415D01*
X150334735Y-113407793D01*
X150255295Y-113487233D01*
X150255294Y-113487234D01*
X150255294Y-113487235D01*
X150233943Y-113535588D01*
X150188860Y-113588962D01*
X150122074Y-113609490D01*
X150120511Y-113609500D01*
X148904030Y-113609500D01*
X148701087Y-113649868D01*
X148701079Y-113649870D01*
X148509903Y-113729058D01*
X148337844Y-113844023D01*
X148264684Y-113917184D01*
X148191523Y-113990345D01*
X148191520Y-113990348D01*
X147038688Y-115143181D01*
X146977365Y-115176666D01*
X146951007Y-115179500D01*
X145546530Y-115179500D01*
X145343587Y-115219868D01*
X145343579Y-115219870D01*
X145152403Y-115299058D01*
X144980342Y-115414024D01*
X144834024Y-115560342D01*
X144719058Y-115732403D01*
X144639870Y-115923579D01*
X144639868Y-115923587D01*
X144599500Y-116126530D01*
X144599500Y-118182173D01*
X144593431Y-118220491D01*
X144576598Y-118272294D01*
X144576598Y-118272297D01*
X144565267Y-118343838D01*
X144549500Y-118443389D01*
X144549500Y-118616611D01*
X144557677Y-118668239D01*
X144566038Y-118721031D01*
X144576598Y-118787701D01*
X144630127Y-118952445D01*
X144708768Y-119106788D01*
X144810586Y-119246928D01*
X144933072Y-119369414D01*
X145073212Y-119471232D01*
X145227555Y-119549873D01*
X145275249Y-119565369D01*
X145332923Y-119604807D01*
X145360121Y-119669166D01*
X145348206Y-119738012D01*
X145300962Y-119789488D01*
X145236929Y-119807300D01*
X143523071Y-119807300D01*
X143456032Y-119787615D01*
X143410277Y-119734811D01*
X143400333Y-119665653D01*
X143429358Y-119602097D01*
X143484750Y-119565370D01*
X143532445Y-119549873D01*
X143686788Y-119471232D01*
X143826928Y-119369414D01*
X143949414Y-119246928D01*
X144051232Y-119106788D01*
X144129873Y-118952445D01*
X144183402Y-118787701D01*
X144210500Y-118616611D01*
X144210500Y-118443389D01*
X144183402Y-118272299D01*
X144129873Y-118107555D01*
X144051232Y-117953212D01*
X143949414Y-117813072D01*
X143826928Y-117690586D01*
X143686788Y-117588768D01*
X143532445Y-117510127D01*
X143367701Y-117456598D01*
X143367699Y-117456597D01*
X143367698Y-117456597D01*
X143236271Y-117435781D01*
X143196611Y-117429500D01*
X143023389Y-117429500D01*
X142983728Y-117435781D01*
X142852302Y-117456597D01*
X142687552Y-117510128D01*
X142533211Y-117588768D01*
X142453256Y-117646859D01*
X142393072Y-117690586D01*
X142393070Y-117690588D01*
X142393069Y-117690588D01*
X142270588Y-117813069D01*
X142270588Y-117813070D01*
X142270586Y-117813072D01*
X142243714Y-117850058D01*
X142168768Y-117953211D01*
X142090128Y-118107552D01*
X142090127Y-118107554D01*
X142090127Y-118107555D01*
X142088252Y-118113325D01*
X142036597Y-118272302D01*
X142016484Y-118399296D01*
X142009500Y-118443389D01*
X142009500Y-118616611D01*
X142017677Y-118668239D01*
X142026038Y-118721031D01*
X142036598Y-118787701D01*
X142090127Y-118952445D01*
X142168768Y-119106788D01*
X142270586Y-119246928D01*
X142393072Y-119369414D01*
X142533212Y-119471232D01*
X142687555Y-119549873D01*
X142735249Y-119565369D01*
X142792923Y-119604807D01*
X142820121Y-119669166D01*
X142808206Y-119738012D01*
X142760962Y-119789488D01*
X142696929Y-119807300D01*
X140983071Y-119807300D01*
X140916032Y-119787615D01*
X140870277Y-119734811D01*
X140860333Y-119665653D01*
X140889358Y-119602097D01*
X140944750Y-119565370D01*
X140992445Y-119549873D01*
X141146788Y-119471232D01*
X141286928Y-119369414D01*
X141409414Y-119246928D01*
X141511232Y-119106788D01*
X141589873Y-118952445D01*
X141643402Y-118787701D01*
X141670500Y-118616611D01*
X141670500Y-118443389D01*
X141643402Y-118272299D01*
X141589873Y-118107555D01*
X141511232Y-117953212D01*
X141409414Y-117813072D01*
X141286928Y-117690586D01*
X141146788Y-117588768D01*
X140992445Y-117510127D01*
X140827701Y-117456598D01*
X140827699Y-117456597D01*
X140827698Y-117456597D01*
X140696271Y-117435781D01*
X140656611Y-117429500D01*
X140483389Y-117429500D01*
X140443728Y-117435781D01*
X140312302Y-117456597D01*
X140147552Y-117510128D01*
X139993211Y-117588768D01*
X139913256Y-117646859D01*
X139853072Y-117690586D01*
X139853070Y-117690588D01*
X139853069Y-117690588D01*
X139730588Y-117813069D01*
X139730588Y-117813070D01*
X139730586Y-117813072D01*
X139703714Y-117850058D01*
X139628768Y-117953211D01*
X139550128Y-118107552D01*
X139550127Y-118107554D01*
X139550127Y-118107555D01*
X139548252Y-118113325D01*
X139496597Y-118272302D01*
X139476484Y-118399296D01*
X139469500Y-118443389D01*
X139469500Y-118616611D01*
X139477677Y-118668239D01*
X139486038Y-118721031D01*
X139496598Y-118787701D01*
X139550127Y-118952445D01*
X139628768Y-119106788D01*
X139730586Y-119246928D01*
X139853072Y-119369414D01*
X139993212Y-119471232D01*
X140147555Y-119549873D01*
X140195249Y-119565369D01*
X140252923Y-119604807D01*
X140280121Y-119669166D01*
X140268206Y-119738012D01*
X140220962Y-119789488D01*
X140156929Y-119807300D01*
X139124000Y-119807300D01*
X139056961Y-119787615D01*
X139011206Y-119734811D01*
X139000000Y-119683300D01*
X139000000Y-119080096D01*
X139013514Y-119023803D01*
X139049873Y-118952445D01*
X139103402Y-118787701D01*
X139130500Y-118616611D01*
X139130500Y-118443389D01*
X139103402Y-118272299D01*
X139049873Y-118107555D01*
X139013515Y-118036197D01*
X139000000Y-117979903D01*
X139000000Y-117191736D01*
X139001262Y-117174089D01*
X139003152Y-117160942D01*
X139005500Y-117144614D01*
X139005500Y-107781500D01*
X139000710Y-107736946D01*
X139000000Y-107723693D01*
X139000000Y-107581500D01*
X139019685Y-107514461D01*
X139072489Y-107468706D01*
X139124000Y-107457500D01*
X146993551Y-107457500D01*
X146993552Y-107457500D01*
X147195734Y-107425477D01*
X147390419Y-107362220D01*
X147572810Y-107269287D01*
X147665790Y-107201732D01*
X147738413Y-107148971D01*
X147738415Y-107148968D01*
X147738419Y-107148966D01*
X147883166Y-107004219D01*
X147883168Y-107004215D01*
X147883171Y-107004213D01*
X147935932Y-106931590D01*
X148003487Y-106838610D01*
X148096420Y-106656219D01*
X148159677Y-106461534D01*
X148191700Y-106259352D01*
X148191700Y-106054648D01*
X148159677Y-105852466D01*
X148096420Y-105657781D01*
X148096418Y-105657778D01*
X148096418Y-105657776D01*
X148062703Y-105591607D01*
X148003487Y-105475390D01*
X147995756Y-105464749D01*
X147883171Y-105309786D01*
X147738413Y-105165028D01*
X147572813Y-105044715D01*
X147572812Y-105044714D01*
X147572810Y-105044713D01*
X147507993Y-105011687D01*
X147390423Y-104951781D01*
X147195734Y-104888522D01*
X147021195Y-104860878D01*
X146993552Y-104856500D01*
X146993551Y-104856500D01*
X139124000Y-104856500D01*
X139115314Y-104853949D01*
X139106353Y-104855238D01*
X139082312Y-104844259D01*
X139056961Y-104836815D01*
X139051033Y-104829974D01*
X139042797Y-104826213D01*
X139028507Y-104803978D01*
X139011206Y-104784011D01*
X139008918Y-104773496D01*
X139005023Y-104767435D01*
X139000000Y-104732500D01*
X139000000Y-104579622D01*
X139001262Y-104561975D01*
X139005500Y-104532500D01*
X139005500Y-101924234D01*
X139005178Y-101906188D01*
X139004862Y-101897342D01*
X139003896Y-101879325D01*
X139002832Y-101874436D01*
X139000000Y-101848085D01*
X139000000Y-100610546D01*
X139019685Y-100543507D01*
X139036319Y-100522865D01*
X140808265Y-98750919D01*
X140869588Y-98717434D01*
X140895946Y-98714600D01*
X147255551Y-98714600D01*
X147255552Y-98714600D01*
X147457734Y-98682577D01*
X147652419Y-98619320D01*
X147834810Y-98526387D01*
X147957901Y-98436957D01*
X148000413Y-98406071D01*
X148000415Y-98406068D01*
X148000419Y-98406066D01*
X148145166Y-98261319D01*
X148145168Y-98261315D01*
X148145171Y-98261313D01*
X148230454Y-98143929D01*
X148265487Y-98095710D01*
X148358420Y-97913319D01*
X148376796Y-97856762D01*
X151449500Y-97856762D01*
X151449500Y-98143237D01*
X151481572Y-98427891D01*
X151545317Y-98707181D01*
X151545321Y-98707193D01*
X151639929Y-98977565D01*
X151639935Y-98977579D01*
X151764223Y-99235666D01*
X151764225Y-99235669D01*
X151916634Y-99478227D01*
X152002385Y-99585755D01*
X152089200Y-99694618D01*
X152095243Y-99702195D01*
X152297805Y-99904757D01*
X152521773Y-100083366D01*
X152764331Y-100235775D01*
X153022428Y-100360068D01*
X153022434Y-100360070D01*
X153292806Y-100454678D01*
X153292818Y-100454682D01*
X153572102Y-100518426D01*
X153572105Y-100518426D01*
X153572108Y-100518427D01*
X153572107Y-100518427D01*
X153714434Y-100534463D01*
X153856763Y-100550499D01*
X153856764Y-100550500D01*
X153856767Y-100550500D01*
X154143236Y-100550500D01*
X154143236Y-100550499D01*
X154348815Y-100527336D01*
X154427891Y-100518427D01*
X154427892Y-100518426D01*
X154427898Y-100518426D01*
X154707182Y-100454682D01*
X154977572Y-100360068D01*
X155235669Y-100235775D01*
X155478227Y-100083366D01*
X155702195Y-99904757D01*
X155904757Y-99702195D01*
X156083366Y-99478227D01*
X156235775Y-99235669D01*
X156360068Y-98977572D01*
X156454682Y-98707182D01*
X156518426Y-98427898D01*
X156524222Y-98376462D01*
X156537195Y-98261319D01*
X156550500Y-98143233D01*
X156550500Y-97856767D01*
X156518426Y-97572102D01*
X156454682Y-97292818D01*
X156360068Y-97022428D01*
X156235775Y-96764331D01*
X156083366Y-96521773D01*
X155904757Y-96297805D01*
X155702195Y-96095243D01*
X155478227Y-95916634D01*
X155235669Y-95764225D01*
X155235666Y-95764223D01*
X154977579Y-95639935D01*
X154977565Y-95639929D01*
X154707193Y-95545321D01*
X154707181Y-95545317D01*
X154427891Y-95481572D01*
X154427892Y-95481572D01*
X154143237Y-95449500D01*
X154143233Y-95449500D01*
X153856767Y-95449500D01*
X153856762Y-95449500D01*
X153572108Y-95481572D01*
X153292818Y-95545317D01*
X153292806Y-95545321D01*
X153022434Y-95639929D01*
X153022420Y-95639935D01*
X152764333Y-95764223D01*
X152521774Y-95916633D01*
X152297805Y-96095242D01*
X152095242Y-96297805D01*
X151916633Y-96521774D01*
X151764223Y-96764333D01*
X151639935Y-97022420D01*
X151639929Y-97022434D01*
X151545321Y-97292806D01*
X151545317Y-97292818D01*
X151481572Y-97572108D01*
X151449500Y-97856762D01*
X148376796Y-97856762D01*
X148421677Y-97718634D01*
X148453700Y-97516452D01*
X148453700Y-97311748D01*
X148436417Y-97202630D01*
X148421677Y-97109565D01*
X148358418Y-96914876D01*
X148324703Y-96848707D01*
X148265487Y-96732490D01*
X148215461Y-96663634D01*
X148145171Y-96566886D01*
X148000413Y-96422128D01*
X147834813Y-96301815D01*
X147834812Y-96301814D01*
X147834810Y-96301813D01*
X147777853Y-96272791D01*
X147652423Y-96208881D01*
X147457734Y-96145622D01*
X147283195Y-96117978D01*
X147255552Y-96113600D01*
X147255551Y-96113600D01*
X140413387Y-96113600D01*
X140413363Y-96113599D01*
X140408252Y-96113599D01*
X140203549Y-96113599D01*
X140136154Y-96124273D01*
X140001364Y-96145623D01*
X140001361Y-96145623D01*
X139806684Y-96208877D01*
X139806681Y-96208878D01*
X139644701Y-96291413D01*
X139644700Y-96291412D01*
X139624288Y-96301813D01*
X139458686Y-96422128D01*
X139458682Y-96422132D01*
X139217181Y-96663634D01*
X139155858Y-96697119D01*
X139086166Y-96692135D01*
X139030233Y-96650263D01*
X139005816Y-96584799D01*
X139005500Y-96575953D01*
X139005500Y-95034214D01*
X139005179Y-95016232D01*
X139005178Y-95016220D01*
X139005178Y-95016188D01*
X139004862Y-95007342D01*
X139003896Y-94989325D01*
X139002832Y-94984436D01*
X139000000Y-94958085D01*
X139000000Y-91516762D01*
X151449500Y-91516762D01*
X151449500Y-91803237D01*
X151481572Y-92087891D01*
X151545317Y-92367181D01*
X151545321Y-92367193D01*
X151639929Y-92637565D01*
X151639935Y-92637579D01*
X151764223Y-92895666D01*
X151764225Y-92895669D01*
X151916634Y-93138227D01*
X152095243Y-93362195D01*
X152297805Y-93564757D01*
X152521773Y-93743366D01*
X152764331Y-93895775D01*
X153022428Y-94020068D01*
X153022434Y-94020070D01*
X153292806Y-94114678D01*
X153292818Y-94114682D01*
X153572102Y-94178426D01*
X153572105Y-94178426D01*
X153572108Y-94178427D01*
X153572107Y-94178427D01*
X153714434Y-94194463D01*
X153856763Y-94210499D01*
X153856764Y-94210500D01*
X153856767Y-94210500D01*
X154143236Y-94210500D01*
X154143236Y-94210499D01*
X154348815Y-94187336D01*
X154427891Y-94178427D01*
X154427892Y-94178426D01*
X154427898Y-94178426D01*
X154707182Y-94114682D01*
X154977572Y-94020068D01*
X155235669Y-93895775D01*
X155478227Y-93743366D01*
X155702195Y-93564757D01*
X155904757Y-93362195D01*
X156083366Y-93138227D01*
X156235775Y-92895669D01*
X156360068Y-92637572D01*
X156454682Y-92367182D01*
X156518426Y-92087898D01*
X156550500Y-91803233D01*
X156550500Y-91516767D01*
X156518426Y-91232102D01*
X156454682Y-90952818D01*
X156360068Y-90682428D01*
X156235775Y-90424331D01*
X156083366Y-90181773D01*
X155904757Y-89957805D01*
X155702195Y-89755243D01*
X155478227Y-89576634D01*
X155235669Y-89424225D01*
X155235666Y-89424223D01*
X154977579Y-89299935D01*
X154977565Y-89299929D01*
X154707193Y-89205321D01*
X154707181Y-89205317D01*
X154427891Y-89141572D01*
X154427892Y-89141572D01*
X154143237Y-89109500D01*
X154143233Y-89109500D01*
X153856767Y-89109500D01*
X153856762Y-89109500D01*
X153572108Y-89141572D01*
X153292818Y-89205317D01*
X153292806Y-89205321D01*
X153022434Y-89299929D01*
X153022420Y-89299935D01*
X152764333Y-89424223D01*
X152521774Y-89576633D01*
X152297805Y-89755242D01*
X152095242Y-89957805D01*
X151916633Y-90181774D01*
X151764223Y-90424333D01*
X151639935Y-90682420D01*
X151639929Y-90682434D01*
X151545321Y-90952806D01*
X151545317Y-90952818D01*
X151481572Y-91232108D01*
X151449500Y-91516762D01*
X139000000Y-91516762D01*
X139000000Y-90782322D01*
X139001262Y-90764675D01*
X139005500Y-90735200D01*
X139005500Y-89491700D01*
X139000710Y-89447146D01*
X139000000Y-89433893D01*
X139000000Y-85622888D01*
X139001262Y-85605241D01*
X139005500Y-85575766D01*
X139005500Y-71420886D01*
X139025185Y-71353847D01*
X139077989Y-71308092D01*
X139147147Y-71298148D01*
X139167814Y-71302954D01*
X139292299Y-71343402D01*
X139463389Y-71370500D01*
X139463390Y-71370500D01*
X139636610Y-71370500D01*
X139636611Y-71370500D01*
X139807701Y-71343402D01*
X139972445Y-71289873D01*
X140126788Y-71211232D01*
X140266928Y-71109414D01*
X140389414Y-70986928D01*
X140491232Y-70846788D01*
X140569873Y-70692445D01*
X140623402Y-70527701D01*
X140650500Y-70356611D01*
X140650500Y-70183389D01*
X140989500Y-70183389D01*
X140989500Y-70356611D01*
X140997386Y-70406400D01*
X141016062Y-70524320D01*
X141016598Y-70527701D01*
X141070127Y-70692445D01*
X141148768Y-70846788D01*
X141250586Y-70986928D01*
X141373072Y-71109414D01*
X141513212Y-71211232D01*
X141667555Y-71289873D01*
X141832299Y-71343402D01*
X142003389Y-71370500D01*
X142003390Y-71370500D01*
X142176610Y-71370500D01*
X142176611Y-71370500D01*
X142347701Y-71343402D01*
X142512445Y-71289873D01*
X142666788Y-71211232D01*
X142806928Y-71109414D01*
X142929414Y-70986928D01*
X143031232Y-70846788D01*
X143109873Y-70692445D01*
X143136923Y-70609192D01*
X143176359Y-70551519D01*
X143240717Y-70524320D01*
X143309564Y-70536234D01*
X143361040Y-70583478D01*
X143372784Y-70609193D01*
X143424781Y-70769223D01*
X143443702Y-70806356D01*
X143517102Y-70950411D01*
X143517715Y-70951613D01*
X143638028Y-71117213D01*
X143782786Y-71261971D01*
X143909245Y-71353847D01*
X143948390Y-71382287D01*
X144024145Y-71420886D01*
X144130776Y-71475218D01*
X144130778Y-71475218D01*
X144130781Y-71475220D01*
X144218834Y-71503830D01*
X144325465Y-71538477D01*
X144426557Y-71554488D01*
X144527648Y-71570500D01*
X144527649Y-71570500D01*
X145402639Y-71570500D01*
X145469678Y-71590185D01*
X145515433Y-71642989D01*
X145525377Y-71712147D01*
X145496352Y-71775703D01*
X145471530Y-71797602D01*
X145429445Y-71825722D01*
X145429441Y-71825725D01*
X143603339Y-73651829D01*
X143059047Y-74196121D01*
X143059045Y-74196123D01*
X142985884Y-74269284D01*
X142912723Y-74342444D01*
X142797758Y-74514503D01*
X142718570Y-74705679D01*
X142718568Y-74705687D01*
X142678200Y-74908630D01*
X142678200Y-79789569D01*
X142718568Y-79992512D01*
X142718570Y-79992520D01*
X142797758Y-80183696D01*
X142912724Y-80355757D01*
X143063364Y-80506397D01*
X143063386Y-80506417D01*
X144205641Y-81648673D01*
X144205645Y-81648676D01*
X144377695Y-81763637D01*
X144377708Y-81763644D01*
X144568875Y-81842827D01*
X144568880Y-81842829D01*
X144568884Y-81842829D01*
X144568885Y-81842830D01*
X144771832Y-81883200D01*
X144771835Y-81883200D01*
X144978767Y-81883200D01*
X145115305Y-81856039D01*
X145181720Y-81842829D01*
X145372898Y-81763641D01*
X145544955Y-81648676D01*
X145691276Y-81502355D01*
X145806241Y-81330298D01*
X145885429Y-81139120D01*
X145925800Y-80936165D01*
X145925800Y-80729235D01*
X145925800Y-80729232D01*
X145885429Y-80526280D01*
X145885427Y-80526275D01*
X145806244Y-80335108D01*
X145806237Y-80335095D01*
X145691276Y-80163045D01*
X145691273Y-80163041D01*
X144815519Y-79287287D01*
X144782034Y-79225964D01*
X144779200Y-79199606D01*
X144779200Y-77009648D01*
X144798885Y-76942609D01*
X144851689Y-76896854D01*
X144920847Y-76886910D01*
X144976084Y-76909329D01*
X145014290Y-76937087D01*
X145066515Y-76963697D01*
X145196676Y-77030018D01*
X145196678Y-77030018D01*
X145196681Y-77030020D01*
X145294016Y-77061646D01*
X145391365Y-77093277D01*
X145492457Y-77109288D01*
X145593548Y-77125300D01*
X145593549Y-77125300D01*
X148035051Y-77125300D01*
X148035052Y-77125300D01*
X148237235Y-77093277D01*
X148334576Y-77061648D01*
X148431919Y-77030020D01*
X148562097Y-76963691D01*
X148614311Y-76937087D01*
X148779919Y-76816766D01*
X149259866Y-76336819D01*
X149321189Y-76303334D01*
X149347547Y-76300500D01*
X151562351Y-76300500D01*
X151562352Y-76300500D01*
X151764534Y-76268477D01*
X151959219Y-76205220D01*
X152141610Y-76112287D01*
X152278450Y-76012868D01*
X152307213Y-75991971D01*
X152307215Y-75991968D01*
X152307219Y-75991966D01*
X152451966Y-75847219D01*
X152451968Y-75847215D01*
X152451971Y-75847213D01*
X152504732Y-75774590D01*
X152572287Y-75681610D01*
X152665220Y-75499219D01*
X152728477Y-75304534D01*
X152760500Y-75102352D01*
X152760500Y-74897648D01*
X152728477Y-74695466D01*
X152665220Y-74500781D01*
X152665218Y-74500778D01*
X152665218Y-74500776D01*
X152631503Y-74434607D01*
X152572287Y-74318390D01*
X152564556Y-74307749D01*
X152451971Y-74152786D01*
X152343623Y-74044438D01*
X152307219Y-74008034D01*
X152234404Y-73955131D01*
X155287000Y-73955131D01*
X155287000Y-76044856D01*
X155287002Y-76044882D01*
X155289913Y-76069987D01*
X155289915Y-76069991D01*
X155335293Y-76172764D01*
X155335294Y-76172765D01*
X155414735Y-76252206D01*
X155517509Y-76297585D01*
X155542635Y-76300500D01*
X157537364Y-76300499D01*
X157537379Y-76300497D01*
X157537382Y-76300497D01*
X157562487Y-76297586D01*
X157562488Y-76297585D01*
X157562491Y-76297585D01*
X157665265Y-76252206D01*
X157744706Y-76172765D01*
X157790085Y-76069991D01*
X157793000Y-76044865D01*
X157792999Y-73955136D01*
X157792997Y-73955117D01*
X157790086Y-73930012D01*
X157790085Y-73930010D01*
X157790085Y-73930009D01*
X157744706Y-73827235D01*
X157665265Y-73747794D01*
X157621709Y-73728562D01*
X157562492Y-73702415D01*
X157537365Y-73699500D01*
X155542643Y-73699500D01*
X155542617Y-73699502D01*
X155517512Y-73702413D01*
X155517508Y-73702415D01*
X155414735Y-73747793D01*
X155335294Y-73827234D01*
X155289915Y-73930006D01*
X155289915Y-73930008D01*
X155287000Y-73955131D01*
X152234404Y-73955131D01*
X152179339Y-73915124D01*
X152177448Y-73913636D01*
X152158530Y-73887045D01*
X152138592Y-73861189D01*
X152138380Y-73858721D01*
X152136945Y-73856704D01*
X152135405Y-73824091D01*
X152132613Y-73791575D01*
X152133767Y-73789386D01*
X152133651Y-73786912D01*
X152149987Y-73758645D01*
X152165218Y-73729780D01*
X152167374Y-73728562D01*
X152168613Y-73726419D01*
X152197639Y-73711471D01*
X152226057Y-73695423D01*
X152229588Y-73695017D01*
X152230730Y-73694430D01*
X152232897Y-73694637D01*
X152254143Y-73692200D01*
X152417066Y-73692200D01*
X152417067Y-73692199D01*
X152620020Y-73651830D01*
X152811198Y-73572641D01*
X152983255Y-73457677D01*
X153129577Y-73311355D01*
X153129578Y-73311353D01*
X153136644Y-73304287D01*
X153136646Y-73304283D01*
X153749976Y-72690955D01*
X153864941Y-72518898D01*
X153944130Y-72327720D01*
X153984500Y-72124765D01*
X153984500Y-71917835D01*
X153944130Y-71714880D01*
X153864941Y-71523702D01*
X153864940Y-71523701D01*
X153864937Y-71523695D01*
X153749976Y-71351645D01*
X153749973Y-71351641D01*
X153603658Y-71205326D01*
X153603654Y-71205323D01*
X153431604Y-71090362D01*
X153431595Y-71090357D01*
X153240420Y-71011170D01*
X153240412Y-71011168D01*
X153037469Y-70970800D01*
X153037465Y-70970800D01*
X152830535Y-70970800D01*
X152830530Y-70970800D01*
X152627587Y-71011168D01*
X152627579Y-71011170D01*
X152436404Y-71090357D01*
X152436395Y-71090362D01*
X152264345Y-71205323D01*
X152264341Y-71205326D01*
X151914788Y-71554881D01*
X151853465Y-71588366D01*
X151827107Y-71591200D01*
X149978734Y-71591200D01*
X149911695Y-71571515D01*
X149865940Y-71518711D01*
X149855996Y-71449553D01*
X149885021Y-71385997D01*
X149943799Y-71348223D01*
X149959336Y-71344727D01*
X149960952Y-71344470D01*
X149967701Y-71343402D01*
X150132445Y-71289873D01*
X150286788Y-71211232D01*
X150426928Y-71109414D01*
X150549414Y-70986928D01*
X150651232Y-70846788D01*
X150729873Y-70692445D01*
X150783402Y-70527701D01*
X150810500Y-70356611D01*
X150810500Y-70183389D01*
X150783402Y-70012299D01*
X150729873Y-69847555D01*
X150651232Y-69693212D01*
X150549414Y-69553072D01*
X150426928Y-69430586D01*
X150286788Y-69328768D01*
X150132445Y-69250127D01*
X149967701Y-69196598D01*
X149967699Y-69196597D01*
X149967698Y-69196597D01*
X149836271Y-69175781D01*
X149796611Y-69169500D01*
X149623389Y-69169500D01*
X149583728Y-69175781D01*
X149452302Y-69196597D01*
X149287552Y-69250128D01*
X149133211Y-69328768D01*
X149053256Y-69386859D01*
X148993072Y-69430586D01*
X148993070Y-69430588D01*
X148993069Y-69430588D01*
X148870588Y-69553069D01*
X148870588Y-69553070D01*
X148870586Y-69553072D01*
X148843714Y-69590058D01*
X148768768Y-69693211D01*
X148690128Y-69847550D01*
X148663077Y-69930806D01*
X148623639Y-69988481D01*
X148559280Y-70015679D01*
X148490434Y-70003764D01*
X148438958Y-69956519D01*
X148427215Y-69930805D01*
X148417870Y-69902044D01*
X148375220Y-69770781D01*
X148282287Y-69588390D01*
X148242224Y-69533247D01*
X148161971Y-69422786D01*
X148017213Y-69278028D01*
X147851613Y-69157715D01*
X147851612Y-69157714D01*
X147851610Y-69157713D01*
X147794653Y-69128691D01*
X147669223Y-69064781D01*
X147474534Y-69001522D01*
X147299995Y-68973878D01*
X147272352Y-68969500D01*
X144527648Y-68969500D01*
X144503329Y-68973351D01*
X144325465Y-69001522D01*
X144130776Y-69064781D01*
X143948386Y-69157715D01*
X143782786Y-69278028D01*
X143638028Y-69422786D01*
X143517715Y-69588386D01*
X143424781Y-69770776D01*
X143372784Y-69930806D01*
X143333346Y-69988481D01*
X143268987Y-70015679D01*
X143200141Y-70003764D01*
X143148665Y-69956519D01*
X143136924Y-69930810D01*
X143109873Y-69847555D01*
X143031232Y-69693212D01*
X142929414Y-69553072D01*
X142806928Y-69430586D01*
X142666788Y-69328768D01*
X142512445Y-69250127D01*
X142347701Y-69196598D01*
X142347699Y-69196597D01*
X142347698Y-69196597D01*
X142216271Y-69175781D01*
X142176611Y-69169500D01*
X142003389Y-69169500D01*
X141963728Y-69175781D01*
X141832302Y-69196597D01*
X141667552Y-69250128D01*
X141513211Y-69328768D01*
X141433256Y-69386859D01*
X141373072Y-69430586D01*
X141373070Y-69430588D01*
X141373069Y-69430588D01*
X141250588Y-69553069D01*
X141250588Y-69553070D01*
X141250586Y-69553072D01*
X141223714Y-69590058D01*
X141148768Y-69693211D01*
X141070128Y-69847552D01*
X141070127Y-69847554D01*
X141070127Y-69847555D01*
X141068252Y-69853326D01*
X141016597Y-70012302D01*
X141005105Y-70084864D01*
X140989500Y-70183389D01*
X140650500Y-70183389D01*
X140623402Y-70012299D01*
X140569873Y-69847555D01*
X140491232Y-69693212D01*
X140389414Y-69553072D01*
X140266928Y-69430586D01*
X140126788Y-69328768D01*
X139972445Y-69250127D01*
X139807701Y-69196598D01*
X139807699Y-69196597D01*
X139807698Y-69196597D01*
X139676271Y-69175781D01*
X139636611Y-69169500D01*
X139463389Y-69169500D01*
X139431192Y-69174599D01*
X139292301Y-69196597D01*
X139167818Y-69237044D01*
X139097976Y-69239039D01*
X139038144Y-69202958D01*
X139007316Y-69140257D01*
X139005500Y-69119113D01*
X139005500Y-68050507D01*
X139005412Y-68048910D01*
X139005500Y-68048535D01*
X139005500Y-68047097D01*
X139005838Y-68047097D01*
X139021378Y-67980889D01*
X139071585Y-67932298D01*
X139127836Y-67918096D01*
X175869119Y-67507580D01*
X175936370Y-67526513D01*
G37*
%TD.AperFunction*%
%TD*%
%TA.AperFunction,Conductor*%
%TO.N,GND*%
G36*
X196943039Y-64520185D02*
G01*
X196988794Y-64572989D01*
X197000000Y-64624500D01*
X197000000Y-124375500D01*
X196980315Y-124442539D01*
X196927511Y-124488294D01*
X196876000Y-124499500D01*
X182601342Y-124499500D01*
X182562130Y-124493137D01*
X176714926Y-122544068D01*
X176703674Y-122540317D01*
X176687963Y-122531479D01*
X176641383Y-122519554D01*
X176637195Y-122518158D01*
X176637193Y-122518156D01*
X176588054Y-122501778D01*
X176588886Y-122499279D01*
X176538379Y-122473205D01*
X176503479Y-122412676D01*
X176500000Y-122383510D01*
X176500000Y-119036344D01*
X180496800Y-119036344D01*
X180496800Y-119257055D01*
X180531327Y-119475050D01*
X180599528Y-119684955D01*
X180599529Y-119684958D01*
X180699731Y-119881613D01*
X180829462Y-120060172D01*
X180985528Y-120216238D01*
X181164087Y-120345969D01*
X181260540Y-120395114D01*
X181360741Y-120446170D01*
X181360744Y-120446171D01*
X181465696Y-120480271D01*
X181570651Y-120514373D01*
X181788644Y-120548900D01*
X181788645Y-120548900D01*
X182009355Y-120548900D01*
X182009356Y-120548900D01*
X182227349Y-120514373D01*
X182437258Y-120446170D01*
X182633913Y-120345969D01*
X182812472Y-120216238D01*
X182968538Y-120060172D01*
X183098269Y-119881613D01*
X183198470Y-119684958D01*
X183266673Y-119475049D01*
X183301200Y-119257056D01*
X183301200Y-119036344D01*
X183266673Y-118818351D01*
X183198470Y-118608442D01*
X183198470Y-118608441D01*
X183098268Y-118411786D01*
X182968538Y-118233228D01*
X182812472Y-118077162D01*
X182633913Y-117947431D01*
X182437258Y-117847229D01*
X182437255Y-117847228D01*
X182227350Y-117779027D01*
X182118352Y-117761763D01*
X182009356Y-117744500D01*
X181788644Y-117744500D01*
X181715979Y-117756009D01*
X181570649Y-117779027D01*
X181360744Y-117847228D01*
X181360741Y-117847229D01*
X181164086Y-117947431D01*
X181062212Y-118021447D01*
X180985528Y-118077162D01*
X180985526Y-118077164D01*
X180985525Y-118077164D01*
X180829464Y-118233225D01*
X180829464Y-118233226D01*
X180829462Y-118233228D01*
X180773747Y-118309912D01*
X180699731Y-118411786D01*
X180599529Y-118608441D01*
X180599528Y-118608444D01*
X180531327Y-118818349D01*
X180496800Y-119036344D01*
X176500000Y-119036344D01*
X176500000Y-112686344D01*
X180496800Y-112686344D01*
X180496800Y-112907055D01*
X180531327Y-113125050D01*
X180599528Y-113334955D01*
X180599529Y-113334958D01*
X180699731Y-113531613D01*
X180829462Y-113710172D01*
X180985528Y-113866238D01*
X181164087Y-113995969D01*
X181260540Y-114045114D01*
X181360741Y-114096170D01*
X181360744Y-114096171D01*
X181465696Y-114130271D01*
X181570651Y-114164373D01*
X181788644Y-114198900D01*
X181788645Y-114198900D01*
X182009355Y-114198900D01*
X182009356Y-114198900D01*
X182227349Y-114164373D01*
X182437258Y-114096170D01*
X182633913Y-113995969D01*
X182812472Y-113866238D01*
X182968538Y-113710172D01*
X183098269Y-113531613D01*
X183198470Y-113334958D01*
X183266673Y-113125049D01*
X183301200Y-112907056D01*
X183301200Y-112686344D01*
X183266673Y-112468351D01*
X183198470Y-112258442D01*
X183198470Y-112258441D01*
X183098268Y-112061786D01*
X182968538Y-111883228D01*
X182812472Y-111727162D01*
X182633913Y-111597431D01*
X182437258Y-111497229D01*
X182437255Y-111497228D01*
X182227350Y-111429027D01*
X182118352Y-111411763D01*
X182009356Y-111394500D01*
X181788644Y-111394500D01*
X181715979Y-111406009D01*
X181570649Y-111429027D01*
X181360744Y-111497228D01*
X181360741Y-111497229D01*
X181164086Y-111597431D01*
X181062212Y-111671447D01*
X180985528Y-111727162D01*
X180985526Y-111727164D01*
X180985525Y-111727164D01*
X180829464Y-111883225D01*
X180829464Y-111883226D01*
X180829462Y-111883228D01*
X180773747Y-111959912D01*
X180699731Y-112061786D01*
X180599529Y-112258441D01*
X180599528Y-112258444D01*
X180531327Y-112468349D01*
X180496800Y-112686344D01*
X176500000Y-112686344D01*
X176500000Y-110924400D01*
X176519685Y-110857361D01*
X176572489Y-110811606D01*
X176624000Y-110800400D01*
X181752297Y-110800400D01*
X181985568Y-110763453D01*
X182210192Y-110690468D01*
X182420634Y-110583243D01*
X182611710Y-110444417D01*
X182949617Y-110106510D01*
X183088443Y-109915434D01*
X183195668Y-109704992D01*
X183268653Y-109480368D01*
X183278248Y-109419786D01*
X183305600Y-109247097D01*
X183305600Y-109010902D01*
X183268653Y-108777631D01*
X183195665Y-108553000D01*
X183161087Y-108485137D01*
X183161086Y-108485136D01*
X183134884Y-108433713D01*
X193149500Y-108433713D01*
X193149500Y-108646286D01*
X193182753Y-108856239D01*
X193248444Y-109058414D01*
X193344951Y-109247820D01*
X193469890Y-109419786D01*
X193620213Y-109570109D01*
X193792179Y-109695048D01*
X193792181Y-109695049D01*
X193792184Y-109695051D01*
X193981588Y-109791557D01*
X194183757Y-109857246D01*
X194393713Y-109890500D01*
X194393714Y-109890500D01*
X194606286Y-109890500D01*
X194606287Y-109890500D01*
X194816243Y-109857246D01*
X195018412Y-109791557D01*
X195207816Y-109695051D01*
X195268079Y-109651268D01*
X195379786Y-109570109D01*
X195379788Y-109570106D01*
X195379792Y-109570104D01*
X195530104Y-109419792D01*
X195530106Y-109419788D01*
X195530109Y-109419786D01*
X195655048Y-109247820D01*
X195655047Y-109247820D01*
X195655051Y-109247816D01*
X195751557Y-109058412D01*
X195817246Y-108856243D01*
X195850500Y-108646287D01*
X195850500Y-108433713D01*
X195817246Y-108223757D01*
X195751557Y-108021588D01*
X195655051Y-107832184D01*
X195655049Y-107832181D01*
X195655048Y-107832179D01*
X195530109Y-107660213D01*
X195379786Y-107509890D01*
X195207820Y-107384951D01*
X195018414Y-107288444D01*
X195018413Y-107288443D01*
X195018412Y-107288443D01*
X194816243Y-107222754D01*
X194816241Y-107222753D01*
X194816240Y-107222753D01*
X194654957Y-107197208D01*
X194606287Y-107189500D01*
X194393713Y-107189500D01*
X194345042Y-107197208D01*
X194183760Y-107222753D01*
X193981585Y-107288444D01*
X193792179Y-107384951D01*
X193620213Y-107509890D01*
X193469890Y-107660213D01*
X193344951Y-107832179D01*
X193248444Y-108021585D01*
X193182753Y-108223760D01*
X193149500Y-108433713D01*
X183134884Y-108433713D01*
X183088442Y-108342566D01*
X182949617Y-108151490D01*
X182782610Y-107984483D01*
X182591533Y-107845657D01*
X182565081Y-107832179D01*
X182381096Y-107738433D01*
X182156468Y-107665446D01*
X181923197Y-107628500D01*
X181923192Y-107628500D01*
X181687008Y-107628500D01*
X181687003Y-107628500D01*
X181453731Y-107665446D01*
X181229103Y-107738433D01*
X181135976Y-107785885D01*
X181079681Y-107799400D01*
X176624000Y-107799400D01*
X176556961Y-107779715D01*
X176511206Y-107726911D01*
X176500000Y-107675400D01*
X176500000Y-98965800D01*
X176519685Y-98898761D01*
X176572489Y-98853006D01*
X176624000Y-98841800D01*
X179768411Y-98841800D01*
X179835450Y-98861485D01*
X179856092Y-98878119D01*
X180862491Y-99884519D01*
X180862496Y-99884523D01*
X181029155Y-100005606D01*
X181053567Y-100023343D01*
X181187659Y-100091666D01*
X181264003Y-100130566D01*
X181264005Y-100130566D01*
X181264008Y-100130568D01*
X181384412Y-100169689D01*
X181488631Y-100203553D01*
X181721904Y-100240500D01*
X181721909Y-100240500D01*
X181958097Y-100240500D01*
X182191369Y-100203553D01*
X182415993Y-100130568D01*
X182415996Y-100130566D01*
X182419281Y-100129499D01*
X182489123Y-100127504D01*
X182548956Y-100163584D01*
X182579784Y-100226285D01*
X182581600Y-100247430D01*
X182581600Y-102175011D01*
X182561915Y-102242050D01*
X182545281Y-102262692D01*
X180695485Y-104112487D01*
X180695484Y-104112488D01*
X180556657Y-104303565D01*
X180449433Y-104514003D01*
X180376446Y-104738631D01*
X180339500Y-104971902D01*
X180339500Y-105208097D01*
X180376446Y-105441368D01*
X180449433Y-105665996D01*
X180556657Y-105876434D01*
X180695483Y-106067510D01*
X180862490Y-106234517D01*
X181053566Y-106373343D01*
X181152992Y-106424003D01*
X181264003Y-106480566D01*
X181264005Y-106480566D01*
X181264008Y-106480568D01*
X181384412Y-106519689D01*
X181488631Y-106553553D01*
X181721903Y-106590500D01*
X181721908Y-106590500D01*
X181958097Y-106590500D01*
X182191368Y-106553553D01*
X182415992Y-106480568D01*
X182626434Y-106373343D01*
X182817510Y-106234517D01*
X185226617Y-103825410D01*
X185365443Y-103634334D01*
X185472668Y-103423892D01*
X185545653Y-103199268D01*
X185582600Y-102965997D01*
X185582600Y-94433713D01*
X193149500Y-94433713D01*
X193149500Y-94646286D01*
X193182753Y-94856239D01*
X193248444Y-95058414D01*
X193344951Y-95247820D01*
X193469890Y-95419786D01*
X193620213Y-95570109D01*
X193792179Y-95695048D01*
X193792181Y-95695049D01*
X193792184Y-95695051D01*
X193981588Y-95791557D01*
X194183757Y-95857246D01*
X194393713Y-95890500D01*
X194393714Y-95890500D01*
X194606286Y-95890500D01*
X194606287Y-95890500D01*
X194816243Y-95857246D01*
X195018412Y-95791557D01*
X195207816Y-95695051D01*
X195229789Y-95679086D01*
X195379786Y-95570109D01*
X195379788Y-95570106D01*
X195379792Y-95570104D01*
X195530104Y-95419792D01*
X195530106Y-95419788D01*
X195530109Y-95419786D01*
X195655048Y-95247820D01*
X195655047Y-95247820D01*
X195655051Y-95247816D01*
X195751557Y-95058412D01*
X195817246Y-94856243D01*
X195850500Y-94646287D01*
X195850500Y-94433713D01*
X195817246Y-94223757D01*
X195751557Y-94021588D01*
X195655051Y-93832184D01*
X195655049Y-93832181D01*
X195655048Y-93832179D01*
X195530109Y-93660213D01*
X195379786Y-93509890D01*
X195207820Y-93384951D01*
X195018414Y-93288444D01*
X195018413Y-93288443D01*
X195018412Y-93288443D01*
X194816243Y-93222754D01*
X194816241Y-93222753D01*
X194816240Y-93222753D01*
X194654957Y-93197208D01*
X194606287Y-93189500D01*
X194393713Y-93189500D01*
X194345042Y-93197208D01*
X194183760Y-93222753D01*
X193981585Y-93288444D01*
X193792179Y-93384951D01*
X193620213Y-93509890D01*
X193469890Y-93660213D01*
X193344951Y-93832179D01*
X193248444Y-94021585D01*
X193182753Y-94223760D01*
X193149500Y-94433713D01*
X185582600Y-94433713D01*
X185582600Y-92914002D01*
X185545653Y-92680731D01*
X185472666Y-92456103D01*
X185365442Y-92245665D01*
X185226617Y-92054590D01*
X182897510Y-89725483D01*
X182706434Y-89586657D01*
X182495996Y-89479433D01*
X182271368Y-89406446D01*
X182038097Y-89369500D01*
X182038092Y-89369500D01*
X181801908Y-89369500D01*
X181801903Y-89369500D01*
X181568631Y-89406446D01*
X181344003Y-89479433D01*
X181133565Y-89586657D01*
X180942488Y-89725484D01*
X180775484Y-89892488D01*
X180636657Y-90083565D01*
X180529433Y-90294003D01*
X180456446Y-90518631D01*
X180419500Y-90751902D01*
X180419500Y-90988097D01*
X180456446Y-91221368D01*
X180529433Y-91445996D01*
X180636657Y-91656434D01*
X180775484Y-91847511D01*
X182545281Y-93617308D01*
X182578766Y-93678631D01*
X182581600Y-93704989D01*
X182581600Y-97060210D01*
X182561915Y-97127249D01*
X182509111Y-97173004D01*
X182439953Y-97182948D01*
X182376397Y-97153923D01*
X182369919Y-97147891D01*
X181418812Y-96196785D01*
X181418811Y-96196784D01*
X181227734Y-96057957D01*
X181017296Y-95950733D01*
X180792668Y-95877746D01*
X180559397Y-95840800D01*
X180559392Y-95840800D01*
X176624000Y-95840800D01*
X176556961Y-95821115D01*
X176511206Y-95768311D01*
X176500000Y-95716800D01*
X176500000Y-84915600D01*
X176519685Y-84848561D01*
X176572489Y-84802806D01*
X176624000Y-84791600D01*
X180018211Y-84791600D01*
X180085250Y-84811285D01*
X180105892Y-84827919D01*
X180942490Y-85664517D01*
X181133566Y-85803343D01*
X181232992Y-85854003D01*
X181344003Y-85910566D01*
X181344005Y-85910566D01*
X181344008Y-85910568D01*
X181464412Y-85949689D01*
X181568631Y-85983553D01*
X181801903Y-86020500D01*
X181801908Y-86020500D01*
X182038097Y-86020500D01*
X182271368Y-85983553D01*
X182495992Y-85910568D01*
X182706434Y-85803343D01*
X182897510Y-85664517D01*
X183064517Y-85497510D01*
X183203343Y-85306434D01*
X183310568Y-85095992D01*
X183383553Y-84871368D01*
X183402039Y-84754653D01*
X183420500Y-84638097D01*
X183420500Y-84401902D01*
X183383553Y-84168631D01*
X183310566Y-83944003D01*
X183203342Y-83733565D01*
X183064517Y-83542490D01*
X181668610Y-82146583D01*
X181477534Y-82007757D01*
X181267096Y-81900533D01*
X181042468Y-81827546D01*
X180809197Y-81790600D01*
X180809192Y-81790600D01*
X176624000Y-81790600D01*
X176556961Y-81770915D01*
X176511206Y-81718111D01*
X176500000Y-81666600D01*
X176500000Y-80914500D01*
X176519685Y-80847461D01*
X176572489Y-80801706D01*
X176624000Y-80790500D01*
X193958694Y-80790500D01*
X193997012Y-80796569D01*
X194069788Y-80820215D01*
X194183757Y-80857246D01*
X194393713Y-80890500D01*
X194393714Y-80890500D01*
X194606286Y-80890500D01*
X194606287Y-80890500D01*
X194816243Y-80857246D01*
X195018412Y-80791557D01*
X195207816Y-80695051D01*
X195325535Y-80609524D01*
X195379786Y-80570109D01*
X195379788Y-80570106D01*
X195379792Y-80570104D01*
X195530104Y-80419792D01*
X195530106Y-80419788D01*
X195530109Y-80419786D01*
X195655048Y-80247820D01*
X195655047Y-80247820D01*
X195655051Y-80247816D01*
X195751557Y-80058412D01*
X195817246Y-79856243D01*
X195850500Y-79646287D01*
X195850500Y-79433713D01*
X195817246Y-79223757D01*
X195751557Y-79021588D01*
X195655051Y-78832184D01*
X195655049Y-78832181D01*
X195655048Y-78832179D01*
X195530109Y-78660213D01*
X195379786Y-78509890D01*
X195207820Y-78384951D01*
X195018414Y-78288444D01*
X195018413Y-78288443D01*
X195018412Y-78288443D01*
X194816243Y-78222754D01*
X194816241Y-78222753D01*
X194816240Y-78222753D01*
X194654957Y-78197208D01*
X194606287Y-78189500D01*
X194393713Y-78189500D01*
X194354202Y-78195757D01*
X194183759Y-78222753D01*
X193997012Y-78283431D01*
X193958694Y-78289500D01*
X176624000Y-78289500D01*
X176556961Y-78269815D01*
X176511206Y-78217011D01*
X176500000Y-78165500D01*
X176500000Y-73447900D01*
X176519685Y-73380861D01*
X176572489Y-73335106D01*
X176624000Y-73323900D01*
X179675022Y-73323900D01*
X179869426Y-73293109D01*
X180056626Y-73232284D01*
X180232005Y-73142924D01*
X180391246Y-73027228D01*
X182414622Y-71003850D01*
X182463981Y-70973602D01*
X182538258Y-70949470D01*
X182734913Y-70849269D01*
X182913472Y-70719538D01*
X183069538Y-70563472D01*
X183199269Y-70384913D01*
X183299470Y-70188258D01*
X183367673Y-69978349D01*
X183402200Y-69760356D01*
X183402200Y-69539644D01*
X183367673Y-69321651D01*
X183299470Y-69111742D01*
X183299470Y-69111741D01*
X183199268Y-68915086D01*
X183069538Y-68736528D01*
X182913472Y-68580462D01*
X182734913Y-68450731D01*
X182538258Y-68350529D01*
X182538255Y-68350528D01*
X182328350Y-68282327D01*
X182219352Y-68265063D01*
X182110356Y-68247800D01*
X181889644Y-68247800D01*
X181816979Y-68259309D01*
X181671649Y-68282327D01*
X181461744Y-68350528D01*
X181461741Y-68350529D01*
X181265086Y-68450731D01*
X181204240Y-68494939D01*
X181086528Y-68580462D01*
X181086526Y-68580464D01*
X181086525Y-68580464D01*
X180930464Y-68736525D01*
X180930464Y-68736526D01*
X180930462Y-68736528D01*
X180874747Y-68813212D01*
X180800731Y-68915086D01*
X180700531Y-69111738D01*
X180676397Y-69186015D01*
X180646147Y-69235377D01*
X179094945Y-70786581D01*
X179033622Y-70820066D01*
X179007264Y-70822900D01*
X176624000Y-70822900D01*
X176556961Y-70803215D01*
X176511206Y-70750411D01*
X176500000Y-70698900D01*
X176500000Y-67614077D01*
X176507561Y-67588325D01*
X176511567Y-67561781D01*
X176517257Y-67555305D01*
X176519685Y-67547038D01*
X176539967Y-67529463D01*
X176557689Y-67509297D01*
X176569191Y-67504140D01*
X176572489Y-67501283D01*
X176589883Y-67494863D01*
X176636198Y-67481614D01*
X176698384Y-67464205D01*
X176698388Y-67464202D01*
X176698425Y-67464192D01*
X176699246Y-67463837D01*
X176699885Y-67463562D01*
X176700957Y-67463103D01*
X176701001Y-67463076D01*
X176701003Y-67463076D01*
X176756056Y-67430043D01*
X176756263Y-67429919D01*
X176811769Y-67397042D01*
X176811770Y-67397040D01*
X176815607Y-67394768D01*
X176820728Y-67391240D01*
X181609178Y-64518170D01*
X181672975Y-64500500D01*
X196876000Y-64500500D01*
X196943039Y-64520185D01*
G37*
%TD.AperFunction*%
%TD*%
%TA.AperFunction,NonConductor*%
G36*
X133029150Y-98715185D02*
G01*
X133049792Y-98731819D01*
X135428350Y-101110378D01*
X135460443Y-101165962D01*
X135466290Y-101187781D01*
X135466290Y-101187782D01*
X135551590Y-101393717D01*
X135551595Y-101393726D01*
X135663052Y-101586774D01*
X135663057Y-101586780D01*
X135663058Y-101586782D01*
X135798751Y-101763622D01*
X135798757Y-101763629D01*
X135956370Y-101921242D01*
X135956377Y-101921248D01*
X136082294Y-102017867D01*
X136133226Y-102056948D01*
X136326274Y-102168405D01*
X136532219Y-102253710D01*
X136747537Y-102311404D01*
X136968543Y-102340500D01*
X136968550Y-102340500D01*
X137191450Y-102340500D01*
X137191457Y-102340500D01*
X137412463Y-102311404D01*
X137627781Y-102253710D01*
X137833726Y-102168405D01*
X138026774Y-102056948D01*
X138203624Y-101921247D01*
X138215537Y-101909334D01*
X138288319Y-101836553D01*
X138349642Y-101803068D01*
X138419334Y-101808052D01*
X138475267Y-101849924D01*
X138499684Y-101915388D01*
X138500000Y-101924234D01*
X138500000Y-104532500D01*
X138480315Y-104599539D01*
X138427511Y-104645294D01*
X138376000Y-104656500D01*
X130569889Y-104656500D01*
X130502850Y-104636815D01*
X130482208Y-104620181D01*
X126116819Y-100254792D01*
X126083334Y-100193469D01*
X126080500Y-100167111D01*
X126080500Y-99639997D01*
X126080499Y-99639984D01*
X126069999Y-99537204D01*
X126069999Y-99537203D01*
X126014814Y-99370666D01*
X125922711Y-99221345D01*
X125798655Y-99097289D01*
X125798651Y-99097286D01*
X125649337Y-99005187D01*
X125649335Y-99005186D01*
X125566065Y-98977593D01*
X125482797Y-98950001D01*
X125482795Y-98950000D01*
X125482794Y-98950000D01*
X125412879Y-98942858D01*
X125348187Y-98916462D01*
X125308035Y-98859281D01*
X125305172Y-98789470D01*
X125340506Y-98729193D01*
X125402819Y-98697588D01*
X125425481Y-98695500D01*
X132962111Y-98695500D01*
X133029150Y-98715185D01*
G37*
%TD.AperFunction*%
%TA.AperFunction,NonConductor*%
G36*
X130991887Y-107677185D02*
G01*
X131037642Y-107729989D01*
X131047586Y-107799147D01*
X131025167Y-107854385D01*
X131013239Y-107870801D01*
X130927454Y-108039163D01*
X130887931Y-108160803D01*
X130848493Y-108218478D01*
X130784134Y-108245676D01*
X130715288Y-108233761D01*
X130663812Y-108186516D01*
X130652069Y-108160803D01*
X130612545Y-108039163D01*
X130526760Y-107870801D01*
X130514833Y-107854385D01*
X130491354Y-107788578D01*
X130507180Y-107720524D01*
X130557286Y-107671830D01*
X130615152Y-107657500D01*
X130924848Y-107657500D01*
X130991887Y-107677185D01*
G37*
%TD.AperFunction*%
%TA.AperFunction,NonConductor*%
G36*
X136831445Y-119073865D02*
G01*
X136870485Y-119118919D01*
X136917715Y-119211614D01*
X137038028Y-119377213D01*
X137056434Y-119395619D01*
X137089919Y-119456942D01*
X137084935Y-119526634D01*
X137043063Y-119582567D01*
X136977599Y-119606984D01*
X136968753Y-119607300D01*
X136551247Y-119607300D01*
X136484208Y-119587615D01*
X136438453Y-119534811D01*
X136428509Y-119465653D01*
X136457534Y-119402097D01*
X136463566Y-119395619D01*
X136481966Y-119377219D01*
X136481968Y-119377215D01*
X136481971Y-119377213D01*
X136602284Y-119211614D01*
X136602285Y-119211613D01*
X136602287Y-119211610D01*
X136649516Y-119118917D01*
X136697489Y-119068123D01*
X136765310Y-119051328D01*
X136831445Y-119073865D01*
G37*
%TD.AperFunction*%
%TA.AperFunction,NonConductor*%
G36*
X134291445Y-119073865D02*
G01*
X134330485Y-119118919D01*
X134377715Y-119211614D01*
X134498028Y-119377213D01*
X134516434Y-119395619D01*
X134549919Y-119456942D01*
X134544935Y-119526634D01*
X134503063Y-119582567D01*
X134437599Y-119606984D01*
X134428753Y-119607300D01*
X134011247Y-119607300D01*
X133944208Y-119587615D01*
X133898453Y-119534811D01*
X133888509Y-119465653D01*
X133917534Y-119402097D01*
X133923566Y-119395619D01*
X133941966Y-119377219D01*
X133941968Y-119377215D01*
X133941971Y-119377213D01*
X134062284Y-119211614D01*
X134062285Y-119211613D01*
X134062287Y-119211610D01*
X134109516Y-119118917D01*
X134157489Y-119068123D01*
X134225310Y-119051328D01*
X134291445Y-119073865D01*
G37*
%TD.AperFunction*%
%TA.AperFunction,NonConductor*%
G36*
X131751445Y-119073865D02*
G01*
X131790485Y-119118919D01*
X131837715Y-119211614D01*
X131958028Y-119377213D01*
X131976434Y-119395619D01*
X132009919Y-119456942D01*
X132004935Y-119526634D01*
X131963063Y-119582567D01*
X131897599Y-119606984D01*
X131888753Y-119607300D01*
X131471247Y-119607300D01*
X131404208Y-119587615D01*
X131358453Y-119534811D01*
X131348509Y-119465653D01*
X131377534Y-119402097D01*
X131383566Y-119395619D01*
X131401966Y-119377219D01*
X131401968Y-119377215D01*
X131401971Y-119377213D01*
X131522284Y-119211614D01*
X131522285Y-119211613D01*
X131522287Y-119211610D01*
X131569516Y-119118917D01*
X131617489Y-119068123D01*
X131685310Y-119051328D01*
X131751445Y-119073865D01*
G37*
%TD.AperFunction*%
%TA.AperFunction,NonConductor*%
G36*
X138441870Y-67945446D02*
G01*
X138488212Y-67997736D01*
X138500000Y-68050504D01*
X138500000Y-69462368D01*
X138495618Y-69477291D01*
X138496199Y-69492833D01*
X138482747Y-69525463D01*
X138479759Y-69530517D01*
X138437713Y-69588390D01*
X138388727Y-69684529D01*
X138386747Y-69687880D01*
X138363941Y-69709183D01*
X138342510Y-69731876D01*
X138338619Y-69732839D01*
X138335690Y-69735576D01*
X138304985Y-69741168D01*
X138274689Y-69748671D01*
X138270894Y-69747377D01*
X138266951Y-69748096D01*
X138238105Y-69736204D01*
X138208554Y-69726134D01*
X138206059Y-69722993D01*
X138202355Y-69721466D01*
X138169515Y-69681080D01*
X138168883Y-69679840D01*
X138122287Y-69588390D01*
X138114556Y-69577749D01*
X138001971Y-69422786D01*
X137857213Y-69278028D01*
X137691613Y-69157715D01*
X137691612Y-69157714D01*
X137691610Y-69157713D01*
X137634653Y-69128691D01*
X137509223Y-69064781D01*
X137314534Y-69001522D01*
X137139995Y-68973878D01*
X137112352Y-68969500D01*
X136907648Y-68969500D01*
X136883329Y-68973351D01*
X136705465Y-69001522D01*
X136510776Y-69064781D01*
X136328386Y-69157715D01*
X136162786Y-69278028D01*
X136018028Y-69422786D01*
X135897715Y-69588386D01*
X135850485Y-69681080D01*
X135802510Y-69731876D01*
X135734689Y-69748671D01*
X135668554Y-69726134D01*
X135629515Y-69681080D01*
X135628883Y-69679840D01*
X135582287Y-69588390D01*
X135574556Y-69577749D01*
X135461971Y-69422786D01*
X135317213Y-69278028D01*
X135151613Y-69157715D01*
X135151612Y-69157714D01*
X135151610Y-69157713D01*
X135094653Y-69128691D01*
X134969223Y-69064781D01*
X134774534Y-69001522D01*
X134599995Y-68973878D01*
X134572352Y-68969500D01*
X134367648Y-68969500D01*
X134343329Y-68973351D01*
X134165465Y-69001522D01*
X133970776Y-69064781D01*
X133788386Y-69157715D01*
X133622786Y-69278028D01*
X133478032Y-69422782D01*
X133451668Y-69459070D01*
X133396338Y-69501735D01*
X133326724Y-69507714D01*
X133264929Y-69475108D01*
X133230572Y-69414269D01*
X133228060Y-69399438D01*
X133227640Y-69395533D01*
X133224091Y-69362517D01*
X133173796Y-69227669D01*
X133173795Y-69227668D01*
X133173793Y-69227664D01*
X133087547Y-69112455D01*
X133087544Y-69112452D01*
X132972335Y-69026206D01*
X132972328Y-69026202D01*
X132837482Y-68975908D01*
X132837483Y-68975908D01*
X132777883Y-68969501D01*
X132777881Y-68969500D01*
X132777873Y-68969500D01*
X132777864Y-68969500D01*
X131082129Y-68969500D01*
X131082123Y-68969501D01*
X131022516Y-68975908D01*
X130887671Y-69026202D01*
X130887664Y-69026206D01*
X130772455Y-69112452D01*
X130772452Y-69112455D01*
X130686206Y-69227664D01*
X130686202Y-69227671D01*
X130635908Y-69362517D01*
X130629501Y-69422116D01*
X130629500Y-69422135D01*
X130629500Y-71117870D01*
X130629501Y-71117876D01*
X130635908Y-71177483D01*
X130686202Y-71312328D01*
X130686206Y-71312335D01*
X130772452Y-71427544D01*
X130772455Y-71427547D01*
X130887664Y-71513793D01*
X130887671Y-71513797D01*
X131022517Y-71564091D01*
X131022516Y-71564091D01*
X131029444Y-71564835D01*
X131082127Y-71570500D01*
X132777872Y-71570499D01*
X132837483Y-71564091D01*
X132972331Y-71513796D01*
X133087546Y-71427546D01*
X133173796Y-71312331D01*
X133224091Y-71177483D01*
X133228061Y-71140556D01*
X133254796Y-71076011D01*
X133312188Y-71036161D01*
X133382013Y-71033666D01*
X133442102Y-71069317D01*
X133451667Y-71080929D01*
X133478032Y-71117217D01*
X133622786Y-71261971D01*
X133777749Y-71374556D01*
X133788390Y-71382287D01*
X133877212Y-71427544D01*
X133970776Y-71475218D01*
X133970778Y-71475218D01*
X133970781Y-71475220D01*
X134075137Y-71509127D01*
X134165465Y-71538477D01*
X134266557Y-71554488D01*
X134367648Y-71570500D01*
X134367649Y-71570500D01*
X134572351Y-71570500D01*
X134572352Y-71570500D01*
X134774534Y-71538477D01*
X134969219Y-71475220D01*
X135151610Y-71382287D01*
X135247901Y-71312328D01*
X135317213Y-71261971D01*
X135317215Y-71261968D01*
X135317219Y-71261966D01*
X135461966Y-71117219D01*
X135461968Y-71117215D01*
X135461971Y-71117213D01*
X135582284Y-70951614D01*
X135582283Y-70951614D01*
X135582287Y-70951610D01*
X135629516Y-70858917D01*
X135677489Y-70808123D01*
X135745310Y-70791328D01*
X135811445Y-70813865D01*
X135850485Y-70858919D01*
X135897715Y-70951614D01*
X136018028Y-71117213D01*
X136162786Y-71261971D01*
X136317749Y-71374556D01*
X136328390Y-71382287D01*
X136417212Y-71427544D01*
X136510776Y-71475218D01*
X136510778Y-71475218D01*
X136510781Y-71475220D01*
X136615137Y-71509127D01*
X136705465Y-71538477D01*
X136806557Y-71554488D01*
X136907648Y-71570500D01*
X136907649Y-71570500D01*
X137112351Y-71570500D01*
X137112352Y-71570500D01*
X137314534Y-71538477D01*
X137509219Y-71475220D01*
X137691610Y-71382287D01*
X137787901Y-71312328D01*
X137857213Y-71261971D01*
X137857215Y-71261968D01*
X137857219Y-71261966D01*
X138001966Y-71117219D01*
X138001968Y-71117215D01*
X138001971Y-71117213D01*
X138122284Y-70951614D01*
X138122283Y-70951614D01*
X138122287Y-70951610D01*
X138169516Y-70858917D01*
X138175497Y-70852584D01*
X138178262Y-70844324D01*
X138199118Y-70827573D01*
X138217489Y-70808123D01*
X138225945Y-70806028D01*
X138232738Y-70800574D01*
X138259342Y-70797758D01*
X138285310Y-70791328D01*
X138293555Y-70794137D01*
X138302220Y-70793221D01*
X138326123Y-70805236D01*
X138351445Y-70813865D01*
X138358500Y-70821510D01*
X138364647Y-70824600D01*
X138379242Y-70843985D01*
X138386747Y-70852118D01*
X138388720Y-70855456D01*
X138437713Y-70951610D01*
X138479768Y-71009495D01*
X138482747Y-71014534D01*
X138489947Y-71042943D01*
X138499798Y-71070550D01*
X138500000Y-71077630D01*
X138500000Y-85575766D01*
X138480315Y-85642805D01*
X138427511Y-85688560D01*
X138358353Y-85698504D01*
X138294797Y-85669479D01*
X138288319Y-85663447D01*
X138203629Y-85578757D01*
X138203622Y-85578751D01*
X138026782Y-85443058D01*
X138026780Y-85443057D01*
X138026774Y-85443052D01*
X137833726Y-85331595D01*
X137833722Y-85331593D01*
X137627790Y-85246293D01*
X137627783Y-85246291D01*
X137627781Y-85246290D01*
X137412463Y-85188596D01*
X137412457Y-85188595D01*
X137412452Y-85188594D01*
X137191466Y-85159501D01*
X137191463Y-85159500D01*
X137191457Y-85159500D01*
X136968543Y-85159500D01*
X136968537Y-85159500D01*
X136968533Y-85159501D01*
X136747547Y-85188594D01*
X136747540Y-85188595D01*
X136747537Y-85188596D01*
X136610981Y-85225186D01*
X136532219Y-85246290D01*
X136532209Y-85246293D01*
X136326277Y-85331593D01*
X136326273Y-85331595D01*
X136133226Y-85443052D01*
X136133217Y-85443058D01*
X135956377Y-85578751D01*
X135956370Y-85578757D01*
X135798757Y-85736370D01*
X135798751Y-85736377D01*
X135663058Y-85913217D01*
X135663052Y-85913226D01*
X135551595Y-86106273D01*
X135551593Y-86106277D01*
X135466293Y-86312209D01*
X135466290Y-86312219D01*
X135451846Y-86366127D01*
X135408597Y-86527534D01*
X135408594Y-86527547D01*
X135379501Y-86748533D01*
X135379500Y-86748549D01*
X135379500Y-86971450D01*
X135379501Y-86971466D01*
X135408594Y-87192452D01*
X135408595Y-87192457D01*
X135408596Y-87192463D01*
X135408597Y-87192465D01*
X135466290Y-87407780D01*
X135466293Y-87407790D01*
X135551593Y-87613722D01*
X135551595Y-87613726D01*
X135663052Y-87806774D01*
X135663057Y-87806780D01*
X135663058Y-87806782D01*
X135798751Y-87983622D01*
X135798757Y-87983629D01*
X135956370Y-88141242D01*
X135956376Y-88141247D01*
X136133226Y-88276948D01*
X136326274Y-88388405D01*
X136532219Y-88473710D01*
X136554035Y-88479555D01*
X136609621Y-88511648D01*
X136942683Y-88844710D01*
X137109690Y-89011717D01*
X137300767Y-89150543D01*
X137400191Y-89201202D01*
X137511203Y-89257766D01*
X137511205Y-89257766D01*
X137511208Y-89257768D01*
X137631612Y-89296889D01*
X137735831Y-89330753D01*
X137969103Y-89367700D01*
X138376000Y-89367700D01*
X138443039Y-89387385D01*
X138488794Y-89440189D01*
X138500000Y-89491700D01*
X138500000Y-90735200D01*
X138480315Y-90802239D01*
X138427511Y-90847994D01*
X138376000Y-90859200D01*
X138352203Y-90859200D01*
X138118934Y-90896146D01*
X137894305Y-90969133D01*
X137683865Y-91076357D01*
X137492788Y-91215184D01*
X137492787Y-91215185D01*
X136609621Y-92098350D01*
X136554038Y-92130443D01*
X136538771Y-92134534D01*
X136532219Y-92136290D01*
X136532217Y-92136290D01*
X136532216Y-92136291D01*
X136326282Y-92221590D01*
X136326273Y-92221595D01*
X136133226Y-92333052D01*
X136133217Y-92333058D01*
X135956377Y-92468751D01*
X135956370Y-92468757D01*
X135798757Y-92626370D01*
X135798751Y-92626377D01*
X135663058Y-92803217D01*
X135663052Y-92803226D01*
X135551595Y-92996273D01*
X135551593Y-92996277D01*
X135466293Y-93202209D01*
X135466290Y-93202219D01*
X135430120Y-93337210D01*
X135408597Y-93417534D01*
X135408594Y-93417547D01*
X135379501Y-93638533D01*
X135379500Y-93638549D01*
X135379500Y-93861450D01*
X135379501Y-93861466D01*
X135408594Y-94082452D01*
X135408595Y-94082457D01*
X135408596Y-94082463D01*
X135466290Y-94297780D01*
X135466293Y-94297790D01*
X135551593Y-94503722D01*
X135551595Y-94503726D01*
X135663052Y-94696774D01*
X135663057Y-94696780D01*
X135663058Y-94696782D01*
X135798751Y-94873622D01*
X135798757Y-94873629D01*
X135956370Y-95031242D01*
X135956377Y-95031248D01*
X136014434Y-95075796D01*
X136133226Y-95166948D01*
X136326274Y-95278405D01*
X136532219Y-95363710D01*
X136747537Y-95421404D01*
X136968543Y-95450500D01*
X136968550Y-95450500D01*
X137191450Y-95450500D01*
X137191457Y-95450500D01*
X137412463Y-95421404D01*
X137627781Y-95363710D01*
X137833726Y-95278405D01*
X138026774Y-95166948D01*
X138203624Y-95031247D01*
X138215537Y-95019334D01*
X138288319Y-94946553D01*
X138349642Y-94913068D01*
X138419334Y-94918052D01*
X138475267Y-94959924D01*
X138499684Y-95025388D01*
X138500000Y-95034234D01*
X138500000Y-97046610D01*
X138480315Y-97113649D01*
X138463681Y-97134291D01*
X137167680Y-98430291D01*
X137106357Y-98463776D01*
X137036665Y-98458792D01*
X136992320Y-98430292D01*
X134612510Y-96050483D01*
X134421434Y-95911657D01*
X134210996Y-95804433D01*
X133986368Y-95731446D01*
X133753097Y-95694500D01*
X133753092Y-95694500D01*
X125425481Y-95694500D01*
X125358442Y-95674815D01*
X125312687Y-95622011D01*
X125302743Y-95552853D01*
X125331768Y-95489297D01*
X125390546Y-95451523D01*
X125412879Y-95447142D01*
X125433200Y-95445065D01*
X125482797Y-95439999D01*
X125649334Y-95384814D01*
X125798655Y-95292711D01*
X125922711Y-95168655D01*
X126014814Y-95019334D01*
X126069999Y-94852797D01*
X126080500Y-94750008D01*
X126080500Y-92749992D01*
X126069999Y-92647203D01*
X126014814Y-92480666D01*
X126013041Y-92477792D01*
X125922713Y-92331348D01*
X125922710Y-92331344D01*
X125798655Y-92207289D01*
X125798651Y-92207286D01*
X125649337Y-92115187D01*
X125649335Y-92115186D01*
X125566065Y-92087593D01*
X125482797Y-92060001D01*
X125482795Y-92060000D01*
X125380015Y-92049500D01*
X125380008Y-92049500D01*
X123379992Y-92049500D01*
X123379984Y-92049500D01*
X123277204Y-92060000D01*
X123277203Y-92060001D01*
X123110664Y-92115186D01*
X123110662Y-92115187D01*
X122961348Y-92207286D01*
X122961344Y-92207289D01*
X122837289Y-92331344D01*
X122837286Y-92331348D01*
X122745187Y-92480662D01*
X122745186Y-92480664D01*
X122690001Y-92647203D01*
X122690000Y-92647204D01*
X122679500Y-92749984D01*
X122679500Y-94750015D01*
X122690000Y-94852795D01*
X122690001Y-94852797D01*
X122696904Y-94873629D01*
X122745186Y-95019335D01*
X122745187Y-95019337D01*
X122837286Y-95168651D01*
X122837289Y-95168655D01*
X122961344Y-95292710D01*
X122961348Y-95292713D01*
X123110662Y-95384812D01*
X123110664Y-95384813D01*
X123110666Y-95384814D01*
X123277203Y-95439999D01*
X123320505Y-95444422D01*
X123347121Y-95447142D01*
X123411813Y-95473538D01*
X123451965Y-95530719D01*
X123454828Y-95600530D01*
X123419494Y-95660807D01*
X123357181Y-95692412D01*
X123334519Y-95694500D01*
X103436889Y-95694500D01*
X103369850Y-95674815D01*
X103349208Y-95658181D01*
X101046311Y-93355284D01*
X100855234Y-93216457D01*
X100644796Y-93109233D01*
X100420168Y-93036246D01*
X100186897Y-92999300D01*
X100186892Y-92999300D01*
X99950708Y-92999300D01*
X99950703Y-92999300D01*
X99717431Y-93036246D01*
X99492803Y-93109233D01*
X99282365Y-93216457D01*
X99091288Y-93355284D01*
X98924284Y-93522288D01*
X98785457Y-93713365D01*
X98678233Y-93923803D01*
X98605246Y-94148431D01*
X98568300Y-94381702D01*
X98568300Y-94617897D01*
X98605246Y-94851168D01*
X98678233Y-95075796D01*
X98781467Y-95278404D01*
X98785457Y-95286234D01*
X98924283Y-95477310D01*
X101786490Y-98339517D01*
X101977566Y-98478343D01*
X102055343Y-98517972D01*
X102188003Y-98585566D01*
X102188005Y-98585566D01*
X102188008Y-98585568D01*
X102308412Y-98624689D01*
X102412631Y-98658553D01*
X102645903Y-98695500D01*
X102645908Y-98695500D01*
X123334519Y-98695500D01*
X123401558Y-98715185D01*
X123447313Y-98767989D01*
X123457257Y-98837147D01*
X123428232Y-98900703D01*
X123369454Y-98938477D01*
X123347121Y-98942858D01*
X123277205Y-98950000D01*
X123277203Y-98950001D01*
X123110664Y-99005186D01*
X123110662Y-99005187D01*
X122961348Y-99097286D01*
X122961344Y-99097289D01*
X122837289Y-99221344D01*
X122837286Y-99221348D01*
X122745187Y-99370662D01*
X122745186Y-99370664D01*
X122690001Y-99537203D01*
X122690000Y-99537204D01*
X122679500Y-99639984D01*
X122679500Y-101640015D01*
X122690000Y-101742795D01*
X122690001Y-101742797D01*
X122696904Y-101763629D01*
X122745186Y-101909335D01*
X122745187Y-101909337D01*
X122837286Y-102058651D01*
X122837289Y-102058655D01*
X122961344Y-102182710D01*
X122961348Y-102182713D01*
X123110662Y-102274812D01*
X123110664Y-102274813D01*
X123110666Y-102274814D01*
X123277203Y-102329999D01*
X123379992Y-102340500D01*
X123907111Y-102340500D01*
X123974150Y-102360185D01*
X123994792Y-102376819D01*
X128896241Y-107278268D01*
X128929726Y-107339591D01*
X128924742Y-107409283D01*
X128882870Y-107465216D01*
X128873366Y-107471667D01*
X128870807Y-107473235D01*
X128788327Y-107533160D01*
X128717927Y-107584310D01*
X128717925Y-107584312D01*
X128717924Y-107584312D01*
X128584312Y-107717924D01*
X128584312Y-107717925D01*
X128584310Y-107717927D01*
X128538121Y-107781500D01*
X128473240Y-107870800D01*
X128387454Y-108039163D01*
X128329059Y-108218881D01*
X128299500Y-108405513D01*
X128299500Y-108594486D01*
X128329059Y-108781118D01*
X128387454Y-108960836D01*
X128473240Y-109129199D01*
X128584310Y-109282073D01*
X128717927Y-109415690D01*
X128870801Y-109526760D01*
X128950347Y-109567290D01*
X129039163Y-109612545D01*
X129039165Y-109612545D01*
X129039168Y-109612547D01*
X129135497Y-109643846D01*
X129218881Y-109670940D01*
X129405514Y-109700500D01*
X129405519Y-109700500D01*
X129594486Y-109700500D01*
X129781118Y-109670940D01*
X129960832Y-109612547D01*
X130129199Y-109526760D01*
X130282073Y-109415690D01*
X130415690Y-109282073D01*
X130526760Y-109129199D01*
X130612547Y-108960832D01*
X130652069Y-108839195D01*
X130691507Y-108781521D01*
X130755866Y-108754323D01*
X130824712Y-108766238D01*
X130876188Y-108813482D01*
X130887931Y-108839196D01*
X130927454Y-108960836D01*
X131013240Y-109129199D01*
X131124310Y-109282073D01*
X131257927Y-109415690D01*
X131410801Y-109526760D01*
X131490347Y-109567290D01*
X131579163Y-109612545D01*
X131579165Y-109612545D01*
X131579168Y-109612547D01*
X131675497Y-109643846D01*
X131758881Y-109670940D01*
X131945514Y-109700500D01*
X131945519Y-109700500D01*
X132134486Y-109700500D01*
X132321118Y-109670940D01*
X132500832Y-109612547D01*
X132669199Y-109526760D01*
X132822073Y-109415690D01*
X132955690Y-109282073D01*
X133066760Y-109129199D01*
X133152547Y-108960832D01*
X133210940Y-108781118D01*
X133215184Y-108754323D01*
X133240500Y-108594486D01*
X133240500Y-108405513D01*
X133210940Y-108218881D01*
X133152545Y-108039163D01*
X133066760Y-107870801D01*
X133054833Y-107854385D01*
X133031354Y-107788578D01*
X133047180Y-107720524D01*
X133097286Y-107671830D01*
X133155152Y-107657500D01*
X138376000Y-107657500D01*
X138443039Y-107677185D01*
X138488794Y-107729989D01*
X138500000Y-107781500D01*
X138500000Y-117144614D01*
X138480315Y-117211653D01*
X138427511Y-117257408D01*
X138358353Y-117267352D01*
X138337685Y-117262546D01*
X138334539Y-117261524D01*
X138334535Y-117261523D01*
X138233443Y-117245511D01*
X138132352Y-117229500D01*
X137927648Y-117229500D01*
X137903329Y-117233351D01*
X137725465Y-117261522D01*
X137530776Y-117324781D01*
X137348386Y-117417715D01*
X137182786Y-117538028D01*
X137038028Y-117682786D01*
X136917715Y-117848386D01*
X136870485Y-117941080D01*
X136822510Y-117991876D01*
X136754689Y-118008671D01*
X136688554Y-117986134D01*
X136649515Y-117941080D01*
X136648883Y-117939840D01*
X136602287Y-117848390D01*
X136594556Y-117837749D01*
X136481971Y-117682786D01*
X136337213Y-117538028D01*
X136171613Y-117417715D01*
X136171612Y-117417714D01*
X136171610Y-117417713D01*
X136114653Y-117388691D01*
X135989223Y-117324781D01*
X135794534Y-117261522D01*
X135619995Y-117233878D01*
X135592352Y-117229500D01*
X135387648Y-117229500D01*
X135363329Y-117233351D01*
X135185465Y-117261522D01*
X134990776Y-117324781D01*
X134808386Y-117417715D01*
X134642786Y-117538028D01*
X134498028Y-117682786D01*
X134377715Y-117848386D01*
X134330485Y-117941080D01*
X134282510Y-117991876D01*
X134214689Y-118008671D01*
X134148554Y-117986134D01*
X134109515Y-117941080D01*
X134108883Y-117939840D01*
X134062287Y-117848390D01*
X134054556Y-117837749D01*
X133941971Y-117682786D01*
X133797213Y-117538028D01*
X133631613Y-117417715D01*
X133631612Y-117417714D01*
X133631610Y-117417713D01*
X133574653Y-117388691D01*
X133449223Y-117324781D01*
X133254534Y-117261522D01*
X133079995Y-117233878D01*
X133052352Y-117229500D01*
X132847648Y-117229500D01*
X132823329Y-117233351D01*
X132645465Y-117261522D01*
X132450776Y-117324781D01*
X132268386Y-117417715D01*
X132102786Y-117538028D01*
X131958028Y-117682786D01*
X131837715Y-117848386D01*
X131790485Y-117941080D01*
X131742510Y-117991876D01*
X131674689Y-118008671D01*
X131608554Y-117986134D01*
X131569515Y-117941080D01*
X131568883Y-117939840D01*
X131522287Y-117848390D01*
X131514556Y-117837749D01*
X131401971Y-117682786D01*
X131257213Y-117538028D01*
X131091613Y-117417715D01*
X131091612Y-117417714D01*
X131091610Y-117417713D01*
X131034653Y-117388691D01*
X130909223Y-117324781D01*
X130714534Y-117261522D01*
X130539995Y-117233878D01*
X130512352Y-117229500D01*
X130307648Y-117229500D01*
X130283329Y-117233351D01*
X130105465Y-117261522D01*
X129910776Y-117324781D01*
X129728386Y-117417715D01*
X129562786Y-117538028D01*
X129418028Y-117682786D01*
X129297715Y-117848386D01*
X129250485Y-117941080D01*
X129202510Y-117991876D01*
X129134689Y-118008671D01*
X129068554Y-117986134D01*
X129029515Y-117941080D01*
X129028883Y-117939840D01*
X128982287Y-117848390D01*
X128974556Y-117837749D01*
X128861971Y-117682786D01*
X128717213Y-117538028D01*
X128551613Y-117417715D01*
X128551612Y-117417714D01*
X128551610Y-117417713D01*
X128494653Y-117388691D01*
X128369223Y-117324781D01*
X128174534Y-117261522D01*
X127999995Y-117233878D01*
X127972352Y-117229500D01*
X127767648Y-117229500D01*
X127743329Y-117233351D01*
X127565465Y-117261522D01*
X127370776Y-117324781D01*
X127188386Y-117417715D01*
X127022786Y-117538028D01*
X126878028Y-117682786D01*
X126757715Y-117848386D01*
X126710485Y-117941080D01*
X126662510Y-117991876D01*
X126594689Y-118008671D01*
X126528554Y-117986134D01*
X126489515Y-117941080D01*
X126488883Y-117939840D01*
X126442287Y-117848390D01*
X126434556Y-117837749D01*
X126321971Y-117682786D01*
X126177213Y-117538028D01*
X126011613Y-117417715D01*
X126011612Y-117417714D01*
X126011610Y-117417713D01*
X125954653Y-117388691D01*
X125829223Y-117324781D01*
X125634534Y-117261522D01*
X125459995Y-117233878D01*
X125432352Y-117229500D01*
X125227648Y-117229500D01*
X125203329Y-117233351D01*
X125025465Y-117261522D01*
X124830776Y-117324781D01*
X124648386Y-117417715D01*
X124482786Y-117538028D01*
X124338028Y-117682786D01*
X124217715Y-117848386D01*
X124170485Y-117941080D01*
X124122510Y-117991876D01*
X124054689Y-118008671D01*
X123988554Y-117986134D01*
X123949515Y-117941080D01*
X123948883Y-117939840D01*
X123902287Y-117848390D01*
X123894556Y-117837749D01*
X123781971Y-117682786D01*
X123637213Y-117538028D01*
X123471613Y-117417715D01*
X123471612Y-117417714D01*
X123471610Y-117417713D01*
X123414653Y-117388691D01*
X123289223Y-117324781D01*
X123094534Y-117261522D01*
X122919995Y-117233878D01*
X122892352Y-117229500D01*
X122687648Y-117229500D01*
X122663329Y-117233351D01*
X122485465Y-117261522D01*
X122290776Y-117324781D01*
X122108386Y-117417715D01*
X121942786Y-117538028D01*
X121798028Y-117682786D01*
X121677715Y-117848386D01*
X121584781Y-118030776D01*
X121521522Y-118225465D01*
X121489500Y-118427648D01*
X121489500Y-118632351D01*
X121521522Y-118834534D01*
X121584781Y-119029223D01*
X121677715Y-119211613D01*
X121798028Y-119377213D01*
X121942786Y-119521971D01*
X122059799Y-119606984D01*
X122108390Y-119642287D01*
X122224607Y-119701503D01*
X122290776Y-119735218D01*
X122290778Y-119735218D01*
X122290781Y-119735220D01*
X122395137Y-119769127D01*
X122485465Y-119798477D01*
X122586557Y-119814488D01*
X122687648Y-119830500D01*
X122687649Y-119830500D01*
X122892351Y-119830500D01*
X122892352Y-119830500D01*
X123094534Y-119798477D01*
X123289219Y-119735220D01*
X123471610Y-119642287D01*
X123564590Y-119574732D01*
X123637213Y-119521971D01*
X123637215Y-119521968D01*
X123637219Y-119521966D01*
X123781966Y-119377219D01*
X123781968Y-119377215D01*
X123781971Y-119377213D01*
X123902284Y-119211614D01*
X123902285Y-119211613D01*
X123902287Y-119211610D01*
X123949516Y-119118917D01*
X123997489Y-119068123D01*
X124065310Y-119051328D01*
X124131445Y-119073865D01*
X124170485Y-119118919D01*
X124217715Y-119211614D01*
X124338028Y-119377213D01*
X124482786Y-119521971D01*
X124599799Y-119606984D01*
X124648390Y-119642287D01*
X124764607Y-119701503D01*
X124830776Y-119735218D01*
X124830778Y-119735218D01*
X124830781Y-119735220D01*
X124935137Y-119769127D01*
X125025465Y-119798477D01*
X125126557Y-119814488D01*
X125227648Y-119830500D01*
X125227649Y-119830500D01*
X125432351Y-119830500D01*
X125432352Y-119830500D01*
X125634534Y-119798477D01*
X125829219Y-119735220D01*
X126011610Y-119642287D01*
X126104590Y-119574732D01*
X126177213Y-119521971D01*
X126177215Y-119521968D01*
X126177219Y-119521966D01*
X126321966Y-119377219D01*
X126321968Y-119377215D01*
X126321971Y-119377213D01*
X126442284Y-119211614D01*
X126442285Y-119211613D01*
X126442287Y-119211610D01*
X126489516Y-119118917D01*
X126537489Y-119068123D01*
X126605310Y-119051328D01*
X126671445Y-119073865D01*
X126710485Y-119118919D01*
X126757715Y-119211614D01*
X126878028Y-119377213D01*
X127022786Y-119521971D01*
X127139799Y-119606984D01*
X127188390Y-119642287D01*
X127304607Y-119701503D01*
X127370776Y-119735218D01*
X127370778Y-119735218D01*
X127370781Y-119735220D01*
X127475137Y-119769127D01*
X127565465Y-119798477D01*
X127666557Y-119814488D01*
X127767648Y-119830500D01*
X127767649Y-119830500D01*
X127972351Y-119830500D01*
X127972352Y-119830500D01*
X128174534Y-119798477D01*
X128369219Y-119735220D01*
X128551610Y-119642287D01*
X128644590Y-119574732D01*
X128717213Y-119521971D01*
X128717215Y-119521968D01*
X128717219Y-119521966D01*
X128861966Y-119377219D01*
X128861968Y-119377215D01*
X128861971Y-119377213D01*
X128982284Y-119211614D01*
X128982285Y-119211613D01*
X128982287Y-119211610D01*
X129029516Y-119118917D01*
X129077489Y-119068123D01*
X129145310Y-119051328D01*
X129211445Y-119073865D01*
X129250485Y-119118919D01*
X129297715Y-119211614D01*
X129418028Y-119377213D01*
X129562786Y-119521971D01*
X129679799Y-119606984D01*
X129728390Y-119642287D01*
X129849185Y-119703835D01*
X129910782Y-119735221D01*
X129915274Y-119737081D01*
X129914746Y-119738355D01*
X129967276Y-119774263D01*
X129994483Y-119838618D01*
X129982578Y-119907466D01*
X129958975Y-119940451D01*
X129856271Y-120043155D01*
X129740576Y-120202394D01*
X129651217Y-120377770D01*
X129590390Y-120564973D01*
X129559600Y-120759377D01*
X129559600Y-120956222D01*
X129590390Y-121150626D01*
X129651217Y-121337829D01*
X129740576Y-121513205D01*
X129856272Y-121672446D01*
X129995454Y-121811628D01*
X130154695Y-121927324D01*
X130237555Y-121969543D01*
X130330070Y-122016682D01*
X130330072Y-122016682D01*
X130330075Y-122016684D01*
X130430417Y-122049287D01*
X130517273Y-122077509D01*
X130711678Y-122108300D01*
X138376000Y-122108300D01*
X138443039Y-122127985D01*
X138488794Y-122180789D01*
X138500000Y-122232300D01*
X138500000Y-122801426D01*
X138480315Y-122868465D01*
X138427511Y-122914220D01*
X138377385Y-122925418D01*
X89745086Y-123468795D01*
X89744893Y-123468797D01*
X87625692Y-123489175D01*
X87558467Y-123470136D01*
X87512206Y-123417775D01*
X87500500Y-123365181D01*
X87500500Y-87952135D01*
X91499500Y-87952135D01*
X91499500Y-90047870D01*
X91499501Y-90047876D01*
X91505908Y-90107483D01*
X91556202Y-90242328D01*
X91556206Y-90242335D01*
X91642452Y-90357544D01*
X91642455Y-90357547D01*
X91757664Y-90443793D01*
X91757671Y-90443797D01*
X91892517Y-90494091D01*
X91892516Y-90494091D01*
X91899444Y-90494835D01*
X91952127Y-90500500D01*
X94047872Y-90500499D01*
X94107483Y-90494091D01*
X94242331Y-90443796D01*
X94357546Y-90357546D01*
X94443796Y-90242331D01*
X94494091Y-90107483D01*
X94500500Y-90047873D01*
X94500499Y-88881902D01*
X96499500Y-88881902D01*
X96499500Y-89118097D01*
X96536446Y-89351368D01*
X96609433Y-89575996D01*
X96716657Y-89786433D01*
X96855483Y-89977510D01*
X97022490Y-90144517D01*
X97213567Y-90283343D01*
X97312991Y-90334002D01*
X97424003Y-90390566D01*
X97424005Y-90390566D01*
X97424008Y-90390568D01*
X97544412Y-90429689D01*
X97648631Y-90463553D01*
X97881903Y-90500500D01*
X97881908Y-90500500D01*
X98118097Y-90500500D01*
X98351368Y-90463553D01*
X98575992Y-90390568D01*
X98786433Y-90283343D01*
X98977510Y-90144517D01*
X99144517Y-89977510D01*
X99283343Y-89786433D01*
X99390568Y-89575992D01*
X99463553Y-89351368D01*
X99478378Y-89257766D01*
X99500500Y-89118097D01*
X99500500Y-88881902D01*
X99463553Y-88648631D01*
X99390566Y-88424003D01*
X99315637Y-88276947D01*
X99283343Y-88213567D01*
X99144517Y-88022490D01*
X98977510Y-87855483D01*
X98786433Y-87716657D01*
X98575996Y-87609433D01*
X98351368Y-87536446D01*
X98118097Y-87499500D01*
X98118092Y-87499500D01*
X97881908Y-87499500D01*
X97881903Y-87499500D01*
X97648631Y-87536446D01*
X97424003Y-87609433D01*
X97213566Y-87716657D01*
X97157119Y-87757669D01*
X97022490Y-87855483D01*
X97022488Y-87855485D01*
X97022487Y-87855485D01*
X96855485Y-88022487D01*
X96855485Y-88022488D01*
X96855483Y-88022490D01*
X96795862Y-88104550D01*
X96716657Y-88213566D01*
X96609433Y-88424003D01*
X96536446Y-88648631D01*
X96499500Y-88881902D01*
X94500499Y-88881902D01*
X94500499Y-87952128D01*
X94494091Y-87892517D01*
X94480278Y-87855483D01*
X94443797Y-87757671D01*
X94443793Y-87757664D01*
X94357547Y-87642455D01*
X94357544Y-87642452D01*
X94242335Y-87556206D01*
X94242328Y-87556202D01*
X94107482Y-87505908D01*
X94107483Y-87505908D01*
X94047883Y-87499501D01*
X94047881Y-87499500D01*
X94047873Y-87499500D01*
X94047864Y-87499500D01*
X91952129Y-87499500D01*
X91952123Y-87499501D01*
X91892516Y-87505908D01*
X91757671Y-87556202D01*
X91757664Y-87556206D01*
X91642455Y-87642452D01*
X91642452Y-87642455D01*
X91556206Y-87757664D01*
X91556202Y-87757671D01*
X91505908Y-87892517D01*
X91499501Y-87952116D01*
X91499501Y-87952123D01*
X91499500Y-87952135D01*
X87500500Y-87952135D01*
X87500500Y-85859984D01*
X122679500Y-85859984D01*
X122679500Y-87860015D01*
X122690000Y-87962795D01*
X122690001Y-87962797D01*
X122696904Y-87983629D01*
X122745186Y-88129335D01*
X122745187Y-88129337D01*
X122837286Y-88278651D01*
X122837289Y-88278655D01*
X122961344Y-88402710D01*
X122961348Y-88402713D01*
X123110662Y-88494812D01*
X123110664Y-88494813D01*
X123110666Y-88494814D01*
X123277203Y-88549999D01*
X123379992Y-88560500D01*
X123379997Y-88560500D01*
X125380003Y-88560500D01*
X125380008Y-88560500D01*
X125482797Y-88549999D01*
X125649334Y-88494814D01*
X125798655Y-88402711D01*
X125922711Y-88278655D01*
X126014814Y-88129334D01*
X126069999Y-87962797D01*
X126080500Y-87860008D01*
X126080500Y-85859992D01*
X126069999Y-85757203D01*
X126014814Y-85590666D01*
X126007468Y-85578757D01*
X125922713Y-85441348D01*
X125922710Y-85441344D01*
X125798655Y-85317289D01*
X125798651Y-85317286D01*
X125649337Y-85225187D01*
X125649335Y-85225186D01*
X125538907Y-85188594D01*
X125482797Y-85170001D01*
X125482795Y-85170000D01*
X125380015Y-85159500D01*
X125380008Y-85159500D01*
X123379992Y-85159500D01*
X123379984Y-85159500D01*
X123277204Y-85170000D01*
X123277203Y-85170001D01*
X123110664Y-85225186D01*
X123110662Y-85225187D01*
X122961348Y-85317286D01*
X122961344Y-85317289D01*
X122837289Y-85441344D01*
X122837286Y-85441348D01*
X122745187Y-85590662D01*
X122745186Y-85590664D01*
X122690001Y-85757203D01*
X122690000Y-85757204D01*
X122679500Y-85859984D01*
X87500500Y-85859984D01*
X87500500Y-68617560D01*
X87520185Y-68550521D01*
X87572989Y-68504766D01*
X87623110Y-68493569D01*
X138374619Y-67926513D01*
X138441870Y-67945446D01*
G37*
%TD.AperFunction*%
M02*
