M48
; DRILL file {KiCad 9.0.9-9.0.9~ubuntu24.04.1} date 2026-05-28T14:52:21+0200
; FORMAT={-:-/ absolute / metric / decimal}
; #@! TF.CreationDate,2026-05-28T14:52:21+02:00
; #@! TF.GenerationSoftware,Kicad,Pcbnew,9.0.9-9.0.9~ubuntu24.04.1
; #@! TF.FileFunction,Plated,1,2,PTH
FMAT,2
METRIC
; #@! TA.AperFunction,Plated,PTH,ViaDrill
T1C0.300
; #@! TA.AperFunction,Plated,PTH,ComponentDrill
T2C0.700
; #@! TA.AperFunction,Plated,PTH,ComponentDrill
T3C1.000
; #@! TA.AperFunction,Plated,PTH,ComponentDrill
T4C1.100
; #@! TA.AperFunction,Plated,PTH,ComponentDrill
T5C1.200
; #@! TA.AperFunction,Plated,PTH,ComponentDrill
T6C1.295
%
G90
G05
T1
X139.989Y-102.014
X140.0Y-72.5
X140.5Y-68.5
X140.5Y-75.0
X140.5Y-82.5
X141.0Y-89.5
X142.0Y-120.5
X142.5Y-106.5
X142.597Y-79.928
X143.0Y-113.0
X145.74Y-103.243
X146.571Y-91.585
X147.077Y-115.03
X147.5Y-79.0
X147.5Y-82.5
X147.5Y-88.0
X147.5Y-95.5
X147.5Y-98.0
X147.5Y-101.0
X147.5Y-105.0
X148.0Y-112.5
X152.0Y-68.5
X152.0Y-71.5
X160.0Y-112.5
X160.5Y-79.0
X160.5Y-83.5
X160.5Y-88.0
X160.5Y-95.0
X160.5Y-98.0
X160.5Y-101.0
X160.5Y-105.0
X160.5Y-109.0
X167.0Y-75.5
X169.5Y-73.0
X173.0Y-119.0
X174.5Y-71.0
X179.5Y-73.0
T2
X129.5Y-108.5
X132.04Y-108.5
T3
X109.0Y-91.0
X114.0Y-91.0
X122.79Y-118.53
X125.33Y-118.53
X127.87Y-118.53
X130.41Y-118.53
X131.93Y-70.27
X132.95Y-118.53
X134.47Y-70.27
X135.49Y-118.53
X137.01Y-70.27
X138.03Y-118.53
X139.55Y-70.27
X140.57Y-118.53
X142.09Y-70.27
X143.11Y-118.53
X144.63Y-70.27
X145.65Y-118.53
X147.17Y-70.27
X149.71Y-70.27
X149.71Y-118.53
X152.25Y-118.53
X154.79Y-70.27
X154.79Y-118.53
X157.33Y-70.27
X157.33Y-118.53
X159.87Y-70.27
X159.87Y-118.53
X162.41Y-70.27
X162.41Y-118.53
X164.95Y-70.27
X164.95Y-118.53
X167.49Y-70.27
X167.49Y-118.53
X192.0Y-77.0
X192.0Y-79.54
X192.0Y-82.08
X192.0Y-92.0
X192.0Y-94.54
X192.0Y-97.08
X192.0Y-106.0
X192.0Y-108.54
X192.0Y-111.08
T4
X151.46Y-75.0
X151.46Y-114.66
X154.0Y-75.0
X154.0Y-114.66
X156.54Y-75.0
X156.54Y-114.66
T5
X124.38Y-86.86
X124.38Y-93.75
X124.38Y-100.64
X137.08Y-86.86
X137.08Y-93.75
X137.08Y-100.64
T6
X181.84Y-98.74
X181.84Y-105.09
X181.899Y-112.797
X181.899Y-119.147
X181.92Y-84.52
X181.92Y-90.87
X182.0Y-69.65
X182.0Y-76.0
M30
