%TF.GenerationSoftware,KiCad,Pcbnew,9.0.9-9.0.9~ubuntu24.04.1*%
%TF.CreationDate,2026-05-28T14:52:25+02:00*%
%TF.ProjectId,arduino-shield,61726475-696e-46f2-9d73-6869656c642e,rev?*%
%TF.SameCoordinates,Original*%
%TF.FileFunction,Copper,L1,Top*%
%TF.FilePolarity,Positive*%
%FSLAX46Y46*%
G04 Gerber Fmt 4.6, Leading zero omitted, Abs format (unit mm)*
G04 Created by KiCad (PCBNEW 9.0.9-9.0.9~ubuntu24.04.1) date 2026-05-28 14:52:25*
%MOMM*%
%LPD*%
G01*
G04 APERTURE LIST*
G04 Aperture macros list*
%AMRoundRect*
0 Rectangle with rounded corners*
0 $1 Rounding radius*
0 $2 $3 $4 $5 $6 $7 $8 $9 X,Y pos of 4 corners*
0 Add a 4 corners polygon primitive as box body*
4,1,4,$2,$3,$4,$5,$6,$7,$8,$9,$2,$3,0*
0 Add four circle primitives for the rounded corners*
1,1,$1+$1,$2,$3*
1,1,$1+$1,$4,$5*
1,1,$1+$1,$6,$7*
1,1,$1+$1,$8,$9*
0 Add four rect primitives between the rounded corners*
20,1,$1+$1,$2,$3,$4,$5,0*
20,1,$1+$1,$4,$5,$6,$7,0*
20,1,$1+$1,$6,$7,$8,$9,0*
20,1,$1+$1,$8,$9,$2,$3,0*%
G04 Aperture macros list end*
%TA.AperFunction,ComponentPad*%
%ADD10R,1.600000X1.600000*%
%TD*%
%TA.AperFunction,ComponentPad*%
%ADD11O,1.600000X1.600000*%
%TD*%
%TA.AperFunction,ComponentPad*%
%ADD12R,1.700000X1.700000*%
%TD*%
%TA.AperFunction,ComponentPad*%
%ADD13C,1.700000*%
%TD*%
%TA.AperFunction,ComponentPad*%
%ADD14R,1.905000X2.000000*%
%TD*%
%TA.AperFunction,ComponentPad*%
%ADD15O,1.905000X2.000000*%
%TD*%
%TA.AperFunction,ComponentPad*%
%ADD16C,1.803400*%
%TD*%
%TA.AperFunction,ComponentPad*%
%ADD17C,1.400000*%
%TD*%
%TA.AperFunction,ComponentPad*%
%ADD18RoundRect,0.250001X-0.949999X-0.949999X0.949999X-0.949999X0.949999X0.949999X-0.949999X0.949999X0*%
%TD*%
%TA.AperFunction,ComponentPad*%
%ADD19C,2.400000*%
%TD*%
%TA.AperFunction,ComponentPad*%
%ADD20R,2.000000X2.000000*%
%TD*%
%TA.AperFunction,ComponentPad*%
%ADD21C,2.000000*%
%TD*%
%TA.AperFunction,ViaPad*%
%ADD22C,0.600000*%
%TD*%
%TA.AperFunction,Conductor*%
%ADD23C,1.500000*%
%TD*%
%TA.AperFunction,Conductor*%
%ADD24C,2.000000*%
%TD*%
%TA.AperFunction,Conductor*%
%ADD25C,1.699800*%
%TD*%
G04 APERTURE END LIST*
D10*
%TO.P,A1,1,NC*%
%TO.N,unconnected-(A1-NC-Pad1)*%
X131930000Y-70270000D03*
D11*
%TO.P,A1,2,IOREF*%
%TO.N,unconnected-(A1-IOREF-Pad2)*%
X134470000Y-70270000D03*
%TO.P,A1,3,~{RESET}*%
%TO.N,unconnected-(A1-~{RESET}-Pad3)*%
X137010000Y-70270000D03*
%TO.P,A1,4,3V3*%
%TO.N,unconnected-(A1-3V3-Pad4)*%
X139550000Y-70270000D03*
%TO.P,A1,5,+5V*%
%TO.N,unconnected-(A1-+5V-Pad5)*%
X142090000Y-70270000D03*
%TO.P,A1,6,GND*%
%TO.N,GND*%
X144630000Y-70270000D03*
%TO.P,A1,7,GND*%
X147170000Y-70270000D03*
%TO.P,A1,8,VIN*%
%TO.N,unconnected-(A1-VIN-Pad8)*%
X149710000Y-70270000D03*
%TO.P,A1,9,A0*%
%TO.N,Vsense*%
X154790000Y-70270000D03*
%TO.P,A1,10,A1*%
%TO.N,unconnected-(A1-A1-Pad10)*%
X157330000Y-70270000D03*
%TO.P,A1,11,A2*%
%TO.N,temp_up*%
X159870000Y-70270000D03*
%TO.P,A1,12,A3*%
%TO.N,temp_down*%
X162410000Y-70270000D03*
%TO.P,A1,13,A4*%
%TO.N,relay_control*%
X164950000Y-70270000D03*
%TO.P,A1,14,A5*%
%TO.N,unconnected-(A1-A5-Pad14)*%
X167490000Y-70270000D03*
%TO.P,A1,15,D0/RX*%
%TO.N,unconnected-(A1-D0{slash}RX-Pad15)*%
X167490000Y-118530000D03*
%TO.P,A1,16,D1/TX*%
%TO.N,unconnected-(A1-D1{slash}TX-Pad16)*%
X164950000Y-118530000D03*
%TO.P,A1,17,D2/SDA*%
%TO.N,unconnected-(A1-D2{slash}SDA-Pad17)*%
X162410000Y-118530000D03*
%TO.P,A1,18,D3/SCL*%
%TO.N,unconnected-(A1-D3{slash}SCL-Pad18)*%
X159870000Y-118530000D03*
%TO.P,A1,19,D4*%
%TO.N,unconnected-(A1-D4-Pad19)*%
X157330000Y-118530000D03*
%TO.P,A1,20,D5*%
%TO.N,unconnected-(A1-D5-Pad20)*%
X154790000Y-118530000D03*
%TO.P,A1,21,D6*%
%TO.N,unconnected-(A1-D6-Pad21)*%
X152250000Y-118530000D03*
%TO.P,A1,22,D7*%
%TO.N,buzzer+*%
X149710000Y-118530000D03*
%TO.P,A1,23,D8*%
%TO.N,relay2pin*%
X145650000Y-118530000D03*
%TO.P,A1,24,D9*%
%TO.N,pump-pwm*%
X143110000Y-118530000D03*
%TO.P,A1,25,D10*%
%TO.N,unconnected-(A1-D10-Pad25)*%
X140570000Y-118530000D03*
%TO.P,A1,26,D11*%
%TO.N,unconnected-(A1-D11-Pad26)*%
X138030000Y-118530000D03*
%TO.P,A1,27,D12*%
%TO.N,unconnected-(A1-D12-Pad27)*%
X135490000Y-118530000D03*
%TO.P,A1,28,D13*%
%TO.N,unconnected-(A1-D13-Pad28)*%
X132950000Y-118530000D03*
%TO.P,A1,29,GND*%
%TO.N,GND*%
X130410000Y-118530000D03*
%TO.P,A1,30,AREF*%
%TO.N,AREF-voltage*%
X127870000Y-118530000D03*
%TO.P,A1,31,SDA/D2*%
%TO.N,unconnected-(A1-SDA{slash}D2-Pad31)*%
X125330000Y-118530000D03*
%TO.P,A1,32,SCL/D3*%
%TO.N,unconnected-(A1-SCL{slash}D3-Pad32)*%
X122790000Y-118530000D03*
%TD*%
D12*
%TO.P,SW3,1,A*%
%TO.N,GND*%
X192000000Y-106000000D03*
D13*
%TO.P,SW3,2,B*%
%TO.N,relay_control*%
X192000000Y-108540000D03*
%TO.P,SW3,3,C*%
%TO.N,GND*%
X192000000Y-111080000D03*
%TD*%
D12*
%TO.P,SW2,1,C*%
%TO.N,GND*%
X192000000Y-92000000D03*
D13*
%TO.P,SW2,2,B*%
%TO.N,temp_down*%
X192000000Y-94540000D03*
%TO.P,SW2,3,A*%
%TO.N,GND*%
X192000000Y-97080000D03*
%TD*%
D14*
%TO.P,Q2,1,B*%
%TO.N,relay2pin*%
X151460000Y-114660000D03*
D15*
%TO.P,Q2,2,C*%
%TO.N,/current*%
X154000000Y-114660000D03*
%TO.P,Q2,3,E*%
%TO.N,GND*%
X156540000Y-114660000D03*
%TD*%
D14*
%TO.P,Q1,1,B*%
%TO.N,pump-pwm*%
X156540000Y-75000000D03*
D15*
%TO.P,Q1,2,C*%
%TO.N,/current*%
X154000000Y-75000000D03*
%TO.P,Q1,3,E*%
%TO.N,GND*%
X151460000Y-75000000D03*
%TD*%
D16*
%TO.P,TH1,1*%
%TO.N,Vsense*%
X182000000Y-69650000D03*
%TO.P,TH1,2*%
%TO.N,GND*%
X182000000Y-76000000D03*
%TD*%
D12*
%TO.P,SW1,1,A*%
%TO.N,GND*%
X192000000Y-82080000D03*
D13*
%TO.P,SW1,2,B*%
%TO.N,temp_up*%
X192000000Y-79540000D03*
%TO.P,SW1,3,C*%
%TO.N,GND*%
X192000000Y-77000000D03*
%TD*%
D17*
%TO.P,R1,1*%
%TO.N,AREF-voltage*%
X129500000Y-108500000D03*
%TO.P,R1,2*%
%TO.N,Vsense*%
X132040000Y-108500000D03*
%TD*%
D16*
%TO.P,J3,1,Pin_1*%
%TO.N,12vdc*%
X181899000Y-112796700D03*
%TO.P,J3,2,Pin_2*%
%TO.N,GND*%
X181899000Y-119146700D03*
%TD*%
%TO.P,J2,1,Pin_1*%
%TO.N,/current*%
X181840000Y-98740000D03*
%TO.P,J2,2,Pin_2*%
%TO.N,12vdc*%
X181840000Y-105090000D03*
%TD*%
%TO.P,J1,1,Pin_1*%
%TO.N,/current*%
X181920000Y-84520000D03*
%TO.P,J1,2,Pin_2*%
%TO.N,12vdc*%
X181920000Y-90870000D03*
%TD*%
D18*
%TO.P,D3,1,K*%
%TO.N,12vdc*%
X124380000Y-100640000D03*
D19*
%TO.P,D3,2,A*%
%TO.N,GND*%
X137080000Y-100640000D03*
%TD*%
D18*
%TO.P,D2,1,K*%
%TO.N,12vdc*%
X124380000Y-93750000D03*
D19*
%TO.P,D2,2,A*%
%TO.N,/current*%
X137080000Y-93750000D03*
%TD*%
D18*
%TO.P,D1,1,K*%
%TO.N,12vdc*%
X124380000Y-86860000D03*
D19*
%TO.P,D1,2,A*%
%TO.N,/current*%
X137080000Y-86860000D03*
%TD*%
D20*
%TO.P,BZ1,1,+*%
%TO.N,buzzer+*%
X109000000Y-91000000D03*
D21*
%TO.P,BZ1,2,-*%
%TO.N,GND*%
X114000000Y-91000000D03*
%TD*%
D22*
%TO.N,/current*%
X174500000Y-71000000D03*
X169500000Y-73000000D03*
X167000000Y-75500000D03*
%TO.N,*%
X179500000Y-73000000D03*
%TO.N,/current*%
X142000000Y-120500000D03*
X173000000Y-119000000D03*
X140500000Y-68500000D03*
X152000000Y-68500000D03*
X152000000Y-71500000D03*
X140000000Y-72500000D03*
X140500000Y-75000000D03*
X140500000Y-82500000D03*
X141000000Y-89500000D03*
X160000000Y-112500000D03*
X160500000Y-109000000D03*
X160500000Y-105000000D03*
X143000000Y-113000000D03*
X142500000Y-106500000D03*
X148000000Y-112500000D03*
X147500000Y-105000000D03*
X160500000Y-101000000D03*
X160500000Y-98000000D03*
X160500000Y-95000000D03*
X147500000Y-98000000D03*
X147500000Y-101000000D03*
X147500000Y-95500000D03*
X147500000Y-82500000D03*
X147500000Y-88000000D03*
X147500000Y-79000000D03*
X160500000Y-83500000D03*
X160500000Y-79000000D03*
X160500000Y-88000000D03*
%TO.N,12vdc*%
X145739900Y-103242700D03*
%TO.N,relay2pin*%
X147076700Y-115029900D03*
%TO.N,pump-pwm*%
X146571500Y-91585500D03*
X139988800Y-102014100D03*
%TO.N,Vsense*%
X142597300Y-79928300D03*
%TD*%
D23*
%TO.N,temp_up*%
X159870000Y-70270000D02*
X159870000Y-70870000D01*
X191192283Y-78949999D02*
X191409999Y-78949999D01*
X159870000Y-70870000D02*
X167500000Y-78500000D01*
X167500000Y-78500000D02*
X190742284Y-78500000D01*
X190742284Y-78500000D02*
X191192283Y-78949999D01*
X191409999Y-78949999D02*
X192000000Y-79540000D01*
D24*
%TO.N,12vdc*%
X145016800Y-103965800D02*
X145739900Y-103242700D01*
X127705800Y-103965800D02*
X145016800Y-103965800D01*
X124380000Y-100640000D02*
X127705800Y-103965800D01*
D23*
%TO.N,relay2pin*%
X147446600Y-114660000D02*
X147076700Y-115029900D01*
X151460000Y-114660000D02*
X147446600Y-114660000D01*
%TO.N,pump-pwm*%
X139988800Y-98168200D02*
X139988800Y-102014100D01*
X146571500Y-91585500D02*
X139988800Y-98168200D01*
%TO.N,buzzer+*%
X147410000Y-117800400D02*
X147410000Y-118530000D01*
X146219800Y-116610200D02*
X147410000Y-117800400D01*
X135235200Y-116610200D02*
X146219800Y-116610200D01*
X111500000Y-92875000D02*
X135235200Y-116610200D01*
X111500000Y-91000000D02*
X111500000Y-92875000D01*
X109000000Y-91000000D02*
X111500000Y-91000000D01*
X149710000Y-118530000D02*
X147410000Y-118530000D01*
D24*
%TO.N,GND*%
X177412300Y-114660000D02*
X181899000Y-119146700D01*
X156540000Y-114660000D02*
X177412300Y-114660000D01*
X191000000Y-76000000D02*
X192000000Y-77000000D01*
X182000000Y-76000000D02*
X191000000Y-76000000D01*
X127440000Y-91000000D02*
X137080000Y-100640000D01*
X114000000Y-91000000D02*
X127440000Y-91000000D01*
X189902600Y-111080000D02*
X189902700Y-111080000D01*
X189902600Y-111143100D02*
X189902600Y-111080000D01*
X181899000Y-119146700D02*
X189902600Y-111143100D01*
D25*
X191510200Y-106489800D02*
X192000000Y-106000000D01*
X190444700Y-106489800D02*
X191510200Y-106489800D01*
D24*
X189902700Y-107031800D02*
X190444700Y-106489800D01*
X189902700Y-111080000D02*
X189902700Y-107031800D01*
X192000000Y-111080000D02*
X189902700Y-111080000D01*
X189948300Y-95488500D02*
X191050000Y-96590200D01*
X189948300Y-93625600D02*
X189948300Y-95488500D01*
X191573900Y-92000000D02*
X189948300Y-93625600D01*
X192000000Y-92000000D02*
X191573900Y-92000000D01*
D25*
X191510200Y-96590200D02*
X192000000Y-97080000D01*
X191050000Y-96590200D02*
X191510200Y-96590200D01*
D24*
X151460000Y-75000000D02*
X148757500Y-75000000D01*
X144630000Y-70270000D02*
X147170000Y-70270000D01*
X147170000Y-73412500D02*
X148757500Y-75000000D01*
X147170000Y-70270000D02*
X147170000Y-73412500D01*
D23*
%TO.N,Vsense*%
X155106800Y-69953200D02*
X155106800Y-70270000D01*
X156548600Y-68511400D02*
X155106800Y-69953200D01*
X180861400Y-68511400D02*
X156548600Y-68511400D01*
X182000000Y-69650000D02*
X180861400Y-68511400D01*
X155106800Y-70270000D02*
X154790000Y-70270000D01*
X145275600Y-77250000D02*
X142597300Y-79928300D01*
X157620600Y-77250000D02*
X145275600Y-77250000D01*
X158444200Y-76426400D02*
X157620600Y-77250000D01*
X158444200Y-73605700D02*
X158444200Y-76426400D01*
X157886800Y-73048300D02*
X158444200Y-73605700D01*
X157591000Y-73048300D02*
X157886800Y-73048300D01*
X155106800Y-70564100D02*
X157591000Y-73048300D01*
X155106800Y-70270000D02*
X155106800Y-70564100D01*
D24*
%TO.N,/current*%
X138630000Y-92200000D02*
X137080000Y-93750000D01*
X141225000Y-92200000D02*
X138630000Y-92200000D01*
X137820000Y-87600000D02*
X137080000Y-86860000D01*
X141225000Y-87600000D02*
X137820000Y-87600000D01*
X180400000Y-83000000D02*
X181920000Y-84520000D01*
X173775000Y-83000000D02*
X180400000Y-83000000D01*
X179900000Y-96800000D02*
X181840000Y-98740000D01*
X173775000Y-96800000D02*
X179900000Y-96800000D01*
%TD*%
%TA.AperFunction,Conductor*%
%TO.N,/current*%
G36*
X140891445Y-70813865D02*
G01*
X140930483Y-70858917D01*
X140939387Y-70876391D01*
X140977715Y-70951614D01*
X141098028Y-71117213D01*
X141242786Y-71261971D01*
X141385462Y-71365629D01*
X141408390Y-71382287D01*
X141506505Y-71432279D01*
X141590776Y-71475218D01*
X141590778Y-71475218D01*
X141590781Y-71475220D01*
X141693022Y-71508440D01*
X141785465Y-71538477D01*
X141879318Y-71553342D01*
X141987648Y-71570500D01*
X141987649Y-71570500D01*
X142192351Y-71570500D01*
X142192352Y-71570500D01*
X142394534Y-71538477D01*
X142589219Y-71475220D01*
X142771610Y-71382287D01*
X142886810Y-71298590D01*
X142937213Y-71261971D01*
X142937215Y-71261968D01*
X142937219Y-71261966D01*
X143081966Y-71117219D01*
X143136813Y-71041728D01*
X143192143Y-70999061D01*
X143261756Y-70993082D01*
X143323551Y-71025687D01*
X143343460Y-71052680D01*
X143344112Y-71052281D01*
X143346652Y-71056426D01*
X143346656Y-71056432D01*
X143346657Y-71056433D01*
X143485483Y-71247510D01*
X143652490Y-71414517D01*
X143843567Y-71553343D01*
X143877240Y-71570500D01*
X144054003Y-71660566D01*
X144054005Y-71660566D01*
X144054008Y-71660568D01*
X144174412Y-71699689D01*
X144278631Y-71733553D01*
X144511903Y-71770500D01*
X144511908Y-71770500D01*
X145545500Y-71770500D01*
X145612539Y-71790185D01*
X145658294Y-71842989D01*
X145669500Y-71894500D01*
X145669500Y-73530597D01*
X145706446Y-73763868D01*
X145779433Y-73988496D01*
X145886657Y-74198934D01*
X146025484Y-74390011D01*
X147423292Y-75787819D01*
X147456777Y-75849142D01*
X147451793Y-75918834D01*
X147409921Y-75974767D01*
X147344457Y-75999184D01*
X147335611Y-75999500D01*
X145177178Y-75999500D01*
X144982773Y-76030290D01*
X144795569Y-76091117D01*
X144620194Y-76180476D01*
X144547901Y-76233001D01*
X144460954Y-76296172D01*
X144460952Y-76296174D01*
X144460951Y-76296174D01*
X141643474Y-79113651D01*
X141643474Y-79113652D01*
X141643472Y-79113654D01*
X141613138Y-79155405D01*
X141527776Y-79272894D01*
X141438417Y-79448269D01*
X141377590Y-79635473D01*
X141346800Y-79829877D01*
X141346800Y-80026722D01*
X141377590Y-80221126D01*
X141438417Y-80408330D01*
X141527776Y-80583705D01*
X141643472Y-80742946D01*
X141782654Y-80882128D01*
X141941895Y-80997824D01*
X141991726Y-81023214D01*
X142117269Y-81087182D01*
X142117271Y-81087182D01*
X142117274Y-81087184D01*
X142217618Y-81119787D01*
X142304473Y-81148009D01*
X142498878Y-81178800D01*
X142498883Y-81178800D01*
X142695722Y-81178800D01*
X142890126Y-81148009D01*
X142909035Y-81141865D01*
X143077326Y-81087184D01*
X143252705Y-80997824D01*
X143411946Y-80882128D01*
X145757255Y-78536819D01*
X145818578Y-78503334D01*
X145844936Y-78500500D01*
X157719022Y-78500500D01*
X157913426Y-78469709D01*
X158100626Y-78408884D01*
X158276005Y-78319524D01*
X158435246Y-78203828D01*
X159398028Y-77241046D01*
X159513724Y-77081805D01*
X159515502Y-77078315D01*
X159603084Y-76906425D01*
X159663909Y-76719226D01*
X159679934Y-76618049D01*
X159694700Y-76524822D01*
X159694700Y-73507277D01*
X159663909Y-73312877D01*
X159663909Y-73312876D01*
X159663909Y-73312874D01*
X159636702Y-73229141D01*
X159623353Y-73188055D01*
X159603085Y-73125676D01*
X159603084Y-73125673D01*
X159553853Y-73029053D01*
X159513724Y-72950295D01*
X159398029Y-72791055D01*
X158701446Y-72094472D01*
X158542205Y-71978776D01*
X158366826Y-71889416D01*
X158276480Y-71860061D01*
X158179621Y-71828589D01*
X158172049Y-71827390D01*
X158108916Y-71797457D01*
X158103773Y-71792599D01*
X157921532Y-71610358D01*
X157888047Y-71549035D01*
X157893031Y-71479343D01*
X157934903Y-71423410D01*
X157952918Y-71412192D01*
X158011610Y-71382287D01*
X158056014Y-71350026D01*
X158177213Y-71261971D01*
X158177215Y-71261968D01*
X158177219Y-71261966D01*
X158321966Y-71117219D01*
X158409636Y-70996550D01*
X158464963Y-70953885D01*
X158534577Y-70947905D01*
X158596372Y-70980511D01*
X158630730Y-71041349D01*
X158632426Y-71050037D01*
X158650291Y-71162827D01*
X158711117Y-71350030D01*
X158791832Y-71508440D01*
X158800476Y-71525405D01*
X158916172Y-71684646D01*
X166546171Y-79314645D01*
X166546172Y-79314646D01*
X166685354Y-79453828D01*
X166844595Y-79569524D01*
X167019975Y-79658884D01*
X167130522Y-79694803D01*
X167207173Y-79719709D01*
X167262718Y-79728506D01*
X167401578Y-79750500D01*
X167401583Y-79750500D01*
X175870500Y-79750500D01*
X175937539Y-79770185D01*
X175983294Y-79822989D01*
X175994500Y-79874500D01*
X175994500Y-81375507D01*
X175999289Y-81420041D01*
X176000000Y-81433297D01*
X176000000Y-84577377D01*
X175998738Y-84595023D01*
X175994500Y-84624498D01*
X175994500Y-95175507D01*
X175999289Y-95220041D01*
X176000000Y-95233297D01*
X176000000Y-98377377D01*
X175998738Y-98395023D01*
X175994500Y-98424498D01*
X175994500Y-113035500D01*
X175974815Y-113102539D01*
X175922011Y-113148294D01*
X175870500Y-113159500D01*
X156421903Y-113159500D01*
X156188631Y-113196446D01*
X155964003Y-113269433D01*
X155753566Y-113376657D01*
X155644550Y-113455862D01*
X155562490Y-113515483D01*
X155562488Y-113515485D01*
X155562487Y-113515485D01*
X155395485Y-113682487D01*
X155395485Y-113682488D01*
X155395483Y-113682490D01*
X155335862Y-113764550D01*
X155256657Y-113873566D01*
X155149433Y-114084003D01*
X155076446Y-114308631D01*
X155039500Y-114541902D01*
X155039500Y-114778097D01*
X155076446Y-115011368D01*
X155149433Y-115235996D01*
X155228153Y-115390491D01*
X155256657Y-115446433D01*
X155395483Y-115637510D01*
X155562490Y-115804517D01*
X155753567Y-115943343D01*
X155832821Y-115983725D01*
X155964003Y-116050566D01*
X155964005Y-116050566D01*
X155964008Y-116050568D01*
X156084412Y-116089689D01*
X156188631Y-116123553D01*
X156421903Y-116160500D01*
X156421908Y-116160500D01*
X156425646Y-116160500D01*
X156654354Y-116160500D01*
X175870500Y-116160500D01*
X175937539Y-116180185D01*
X175983294Y-116232989D01*
X175994500Y-116284500D01*
X175994500Y-121876000D01*
X175974815Y-121943039D01*
X175922011Y-121988794D01*
X175870500Y-122000000D01*
X175148425Y-122000000D01*
X175092971Y-121986909D01*
X174240577Y-121560712D01*
X174240577Y-121560711D01*
X174237238Y-121559041D01*
X174193186Y-121533608D01*
X174178499Y-121529672D01*
X174167264Y-121524055D01*
X174164896Y-121522871D01*
X174164893Y-121522870D01*
X174118682Y-121513413D01*
X174115039Y-121512668D01*
X174065892Y-121499500D01*
X174050686Y-121499500D01*
X174038384Y-121496982D01*
X174035785Y-121496450D01*
X173988705Y-121499277D01*
X173981275Y-121499500D01*
X139129500Y-121499500D01*
X139062461Y-121479815D01*
X139016706Y-121427011D01*
X139005500Y-121375500D01*
X139005500Y-119915381D01*
X139003644Y-119872113D01*
X139003644Y-119872104D01*
X139001826Y-119850948D01*
X139001024Y-119844744D01*
X139000000Y-119828843D01*
X139000000Y-119447743D01*
X139019685Y-119380704D01*
X139023682Y-119374858D01*
X139142284Y-119211614D01*
X139142285Y-119211613D01*
X139142287Y-119211610D01*
X139189516Y-119118917D01*
X139237489Y-119068123D01*
X139305310Y-119051328D01*
X139371445Y-119073865D01*
X139410483Y-119118917D01*
X139454348Y-119205006D01*
X139457715Y-119211614D01*
X139578028Y-119377213D01*
X139722786Y-119521971D01*
X139877749Y-119634556D01*
X139888390Y-119642287D01*
X139979838Y-119688882D01*
X140070776Y-119735218D01*
X140070778Y-119735218D01*
X140070781Y-119735220D01*
X140115374Y-119749709D01*
X140265465Y-119798477D01*
X140325471Y-119807981D01*
X140467648Y-119830500D01*
X140467649Y-119830500D01*
X140672351Y-119830500D01*
X140672352Y-119830500D01*
X140874534Y-119798477D01*
X141069219Y-119735220D01*
X141251610Y-119642287D01*
X141406928Y-119529443D01*
X141417213Y-119521971D01*
X141417215Y-119521968D01*
X141417219Y-119521966D01*
X141561966Y-119377219D01*
X141561968Y-119377215D01*
X141561971Y-119377213D01*
X141682284Y-119211614D01*
X141682285Y-119211613D01*
X141682287Y-119211610D01*
X141729516Y-119118917D01*
X141777489Y-119068123D01*
X141845310Y-119051328D01*
X141911445Y-119073865D01*
X141950483Y-119118917D01*
X141994348Y-119205006D01*
X141997715Y-119211614D01*
X142118028Y-119377213D01*
X142262786Y-119521971D01*
X142417749Y-119634556D01*
X142428390Y-119642287D01*
X142519838Y-119688882D01*
X142610776Y-119735218D01*
X142610778Y-119735218D01*
X142610781Y-119735220D01*
X142655374Y-119749709D01*
X142805465Y-119798477D01*
X142865471Y-119807981D01*
X143007648Y-119830500D01*
X143007649Y-119830500D01*
X143212351Y-119830500D01*
X143212352Y-119830500D01*
X143414534Y-119798477D01*
X143609219Y-119735220D01*
X143791610Y-119642287D01*
X143946928Y-119529443D01*
X143957213Y-119521971D01*
X143957215Y-119521968D01*
X143957219Y-119521966D01*
X144101966Y-119377219D01*
X144101968Y-119377215D01*
X144101971Y-119377213D01*
X144222284Y-119211614D01*
X144222285Y-119211613D01*
X144222287Y-119211610D01*
X144269516Y-119118917D01*
X144317489Y-119068123D01*
X144385310Y-119051328D01*
X144451445Y-119073865D01*
X144490483Y-119118917D01*
X144534348Y-119205006D01*
X144537715Y-119211614D01*
X144658028Y-119377213D01*
X144802786Y-119521971D01*
X144957749Y-119634556D01*
X144968390Y-119642287D01*
X145059838Y-119688882D01*
X145150776Y-119735218D01*
X145150778Y-119735218D01*
X145150781Y-119735220D01*
X145195374Y-119749709D01*
X145345465Y-119798477D01*
X145405471Y-119807981D01*
X145547648Y-119830500D01*
X145547649Y-119830500D01*
X145752351Y-119830500D01*
X145752352Y-119830500D01*
X145954534Y-119798477D01*
X146149219Y-119735220D01*
X146331610Y-119642287D01*
X146418984Y-119578806D01*
X146499648Y-119520202D01*
X146565454Y-119496722D01*
X146633508Y-119512548D01*
X146645412Y-119520197D01*
X146754595Y-119599524D01*
X146837455Y-119641743D01*
X146929970Y-119688882D01*
X146929972Y-119688882D01*
X146929975Y-119688884D01*
X147030317Y-119721487D01*
X147117173Y-119749709D01*
X147311578Y-119780500D01*
X147311583Y-119780500D01*
X149330498Y-119780500D01*
X149368816Y-119786569D01*
X149382260Y-119790937D01*
X149405466Y-119798477D01*
X149607648Y-119830500D01*
X149607649Y-119830500D01*
X149812351Y-119830500D01*
X149812352Y-119830500D01*
X150014534Y-119798477D01*
X150209219Y-119735220D01*
X150391610Y-119642287D01*
X150546928Y-119529443D01*
X150557213Y-119521971D01*
X150557215Y-119521968D01*
X150557219Y-119521966D01*
X150701966Y-119377219D01*
X150701968Y-119377215D01*
X150701971Y-119377213D01*
X150822284Y-119211614D01*
X150822285Y-119211613D01*
X150822287Y-119211610D01*
X150869516Y-119118917D01*
X150917489Y-119068123D01*
X150985310Y-119051328D01*
X151051445Y-119073865D01*
X151090483Y-119118917D01*
X151134348Y-119205006D01*
X151137715Y-119211614D01*
X151258028Y-119377213D01*
X151402786Y-119521971D01*
X151557749Y-119634556D01*
X151568390Y-119642287D01*
X151659838Y-119688882D01*
X151750776Y-119735218D01*
X151750778Y-119735218D01*
X151750781Y-119735220D01*
X151795374Y-119749709D01*
X151945465Y-119798477D01*
X152005471Y-119807981D01*
X152147648Y-119830500D01*
X152147649Y-119830500D01*
X152352351Y-119830500D01*
X152352352Y-119830500D01*
X152554534Y-119798477D01*
X152749219Y-119735220D01*
X152931610Y-119642287D01*
X153086928Y-119529443D01*
X153097213Y-119521971D01*
X153097215Y-119521968D01*
X153097219Y-119521966D01*
X153241966Y-119377219D01*
X153241968Y-119377215D01*
X153241971Y-119377213D01*
X153362284Y-119211614D01*
X153362285Y-119211613D01*
X153362287Y-119211610D01*
X153409516Y-119118917D01*
X153457489Y-119068123D01*
X153525310Y-119051328D01*
X153591445Y-119073865D01*
X153630483Y-119118917D01*
X153674348Y-119205006D01*
X153677715Y-119211614D01*
X153798028Y-119377213D01*
X153942786Y-119521971D01*
X154097749Y-119634556D01*
X154108390Y-119642287D01*
X154199838Y-119688882D01*
X154290776Y-119735218D01*
X154290778Y-119735218D01*
X154290781Y-119735220D01*
X154335374Y-119749709D01*
X154485465Y-119798477D01*
X154545471Y-119807981D01*
X154687648Y-119830500D01*
X154687649Y-119830500D01*
X154892351Y-119830500D01*
X154892352Y-119830500D01*
X155094534Y-119798477D01*
X155289219Y-119735220D01*
X155471610Y-119642287D01*
X155626928Y-119529443D01*
X155637213Y-119521971D01*
X155637215Y-119521968D01*
X155637219Y-119521966D01*
X155781966Y-119377219D01*
X155781968Y-119377215D01*
X155781971Y-119377213D01*
X155902284Y-119211614D01*
X155902285Y-119211613D01*
X155902287Y-119211610D01*
X155949516Y-119118917D01*
X155997489Y-119068123D01*
X156065310Y-119051328D01*
X156131445Y-119073865D01*
X156170483Y-119118917D01*
X156214348Y-119205006D01*
X156217715Y-119211614D01*
X156338028Y-119377213D01*
X156482786Y-119521971D01*
X156637749Y-119634556D01*
X156648390Y-119642287D01*
X156739838Y-119688882D01*
X156830776Y-119735218D01*
X156830778Y-119735218D01*
X156830781Y-119735220D01*
X156875374Y-119749709D01*
X157025465Y-119798477D01*
X157085471Y-119807981D01*
X157227648Y-119830500D01*
X157227649Y-119830500D01*
X157432351Y-119830500D01*
X157432352Y-119830500D01*
X157634534Y-119798477D01*
X157829219Y-119735220D01*
X158011610Y-119642287D01*
X158166928Y-119529443D01*
X158177213Y-119521971D01*
X158177215Y-119521968D01*
X158177219Y-119521966D01*
X158321966Y-119377219D01*
X158321968Y-119377215D01*
X158321971Y-119377213D01*
X158442284Y-119211614D01*
X158442285Y-119211613D01*
X158442287Y-119211610D01*
X158489516Y-119118917D01*
X158537489Y-119068123D01*
X158605310Y-119051328D01*
X158671445Y-119073865D01*
X158710483Y-119118917D01*
X158754348Y-119205006D01*
X158757715Y-119211614D01*
X158878028Y-119377213D01*
X159022786Y-119521971D01*
X159177749Y-119634556D01*
X159188390Y-119642287D01*
X159279838Y-119688882D01*
X159370776Y-119735218D01*
X159370778Y-119735218D01*
X159370781Y-119735220D01*
X159415374Y-119749709D01*
X159565465Y-119798477D01*
X159625471Y-119807981D01*
X159767648Y-119830500D01*
X159767649Y-119830500D01*
X159972351Y-119830500D01*
X159972352Y-119830500D01*
X160174534Y-119798477D01*
X160369219Y-119735220D01*
X160551610Y-119642287D01*
X160706928Y-119529443D01*
X160717213Y-119521971D01*
X160717215Y-119521968D01*
X160717219Y-119521966D01*
X160861966Y-119377219D01*
X160861968Y-119377215D01*
X160861971Y-119377213D01*
X160982284Y-119211614D01*
X160982285Y-119211613D01*
X160982287Y-119211610D01*
X161029516Y-119118917D01*
X161077489Y-119068123D01*
X161145310Y-119051328D01*
X161211445Y-119073865D01*
X161250483Y-119118917D01*
X161294348Y-119205006D01*
X161297715Y-119211614D01*
X161418028Y-119377213D01*
X161562786Y-119521971D01*
X161717749Y-119634556D01*
X161728390Y-119642287D01*
X161819838Y-119688882D01*
X161910776Y-119735218D01*
X161910778Y-119735218D01*
X161910781Y-119735220D01*
X161955374Y-119749709D01*
X162105465Y-119798477D01*
X162165471Y-119807981D01*
X162307648Y-119830500D01*
X162307649Y-119830500D01*
X162512351Y-119830500D01*
X162512352Y-119830500D01*
X162714534Y-119798477D01*
X162909219Y-119735220D01*
X163091610Y-119642287D01*
X163246928Y-119529443D01*
X163257213Y-119521971D01*
X163257215Y-119521968D01*
X163257219Y-119521966D01*
X163401966Y-119377219D01*
X163401968Y-119377215D01*
X163401971Y-119377213D01*
X163522284Y-119211614D01*
X163522285Y-119211613D01*
X163522287Y-119211610D01*
X163569516Y-119118917D01*
X163617489Y-119068123D01*
X163685310Y-119051328D01*
X163751445Y-119073865D01*
X163790483Y-119118917D01*
X163834348Y-119205006D01*
X163837715Y-119211614D01*
X163958028Y-119377213D01*
X164102786Y-119521971D01*
X164257749Y-119634556D01*
X164268390Y-119642287D01*
X164359838Y-119688882D01*
X164450776Y-119735218D01*
X164450778Y-119735218D01*
X164450781Y-119735220D01*
X164495374Y-119749709D01*
X164645465Y-119798477D01*
X164705471Y-119807981D01*
X164847648Y-119830500D01*
X164847649Y-119830500D01*
X165052351Y-119830500D01*
X165052352Y-119830500D01*
X165254534Y-119798477D01*
X165449219Y-119735220D01*
X165631610Y-119642287D01*
X165786928Y-119529443D01*
X165797213Y-119521971D01*
X165797215Y-119521968D01*
X165797219Y-119521966D01*
X165941966Y-119377219D01*
X165941968Y-119377215D01*
X165941971Y-119377213D01*
X166062284Y-119211614D01*
X166062285Y-119211613D01*
X166062287Y-119211610D01*
X166109516Y-119118917D01*
X166157489Y-119068123D01*
X166225310Y-119051328D01*
X166291445Y-119073865D01*
X166330483Y-119118917D01*
X166374348Y-119205006D01*
X166377715Y-119211614D01*
X166498028Y-119377213D01*
X166642786Y-119521971D01*
X166797749Y-119634556D01*
X166808390Y-119642287D01*
X166899838Y-119688882D01*
X166990776Y-119735218D01*
X166990778Y-119735218D01*
X166990781Y-119735220D01*
X167035374Y-119749709D01*
X167185465Y-119798477D01*
X167245471Y-119807981D01*
X167387648Y-119830500D01*
X167387649Y-119830500D01*
X167592351Y-119830500D01*
X167592352Y-119830500D01*
X167794534Y-119798477D01*
X167989219Y-119735220D01*
X168171610Y-119642287D01*
X168326928Y-119529443D01*
X168337213Y-119521971D01*
X168337215Y-119521968D01*
X168337219Y-119521966D01*
X168481966Y-119377219D01*
X168481968Y-119377215D01*
X168481971Y-119377213D01*
X168562222Y-119266755D01*
X168602287Y-119211610D01*
X168695220Y-119029219D01*
X168758477Y-118834534D01*
X168790500Y-118632352D01*
X168790500Y-118427648D01*
X168768409Y-118288172D01*
X168758477Y-118225465D01*
X168729127Y-118135137D01*
X168695220Y-118030781D01*
X168695218Y-118030778D01*
X168695218Y-118030776D01*
X168640611Y-117923605D01*
X168602287Y-117848390D01*
X168562224Y-117793247D01*
X168481971Y-117682786D01*
X168337213Y-117538028D01*
X168171613Y-117417715D01*
X168171612Y-117417714D01*
X168171610Y-117417713D01*
X168077001Y-117369507D01*
X167989223Y-117324781D01*
X167794534Y-117261522D01*
X167619995Y-117233878D01*
X167592352Y-117229500D01*
X167387648Y-117229500D01*
X167363329Y-117233351D01*
X167185465Y-117261522D01*
X166990776Y-117324781D01*
X166808386Y-117417715D01*
X166642786Y-117538028D01*
X166498028Y-117682786D01*
X166377715Y-117848386D01*
X166330485Y-117941080D01*
X166282510Y-117991876D01*
X166214689Y-118008671D01*
X166148554Y-117986134D01*
X166109515Y-117941080D01*
X166100611Y-117923605D01*
X166062287Y-117848390D01*
X166022224Y-117793247D01*
X165941971Y-117682786D01*
X165797213Y-117538028D01*
X165631613Y-117417715D01*
X165631612Y-117417714D01*
X165631610Y-117417713D01*
X165537001Y-117369507D01*
X165449223Y-117324781D01*
X165254534Y-117261522D01*
X165079995Y-117233878D01*
X165052352Y-117229500D01*
X164847648Y-117229500D01*
X164823329Y-117233351D01*
X164645465Y-117261522D01*
X164450776Y-117324781D01*
X164268386Y-117417715D01*
X164102786Y-117538028D01*
X163958028Y-117682786D01*
X163837715Y-117848386D01*
X163790485Y-117941080D01*
X163742510Y-117991876D01*
X163674689Y-118008671D01*
X163608554Y-117986134D01*
X163569515Y-117941080D01*
X163560611Y-117923605D01*
X163522287Y-117848390D01*
X163482224Y-117793247D01*
X163401971Y-117682786D01*
X163257213Y-117538028D01*
X163091613Y-117417715D01*
X163091612Y-117417714D01*
X163091610Y-117417713D01*
X162997001Y-117369507D01*
X162909223Y-117324781D01*
X162714534Y-117261522D01*
X162539995Y-117233878D01*
X162512352Y-117229500D01*
X162307648Y-117229500D01*
X162283329Y-117233351D01*
X162105465Y-117261522D01*
X161910776Y-117324781D01*
X161728386Y-117417715D01*
X161562786Y-117538028D01*
X161418028Y-117682786D01*
X161297715Y-117848386D01*
X161250485Y-117941080D01*
X161202510Y-117991876D01*
X161134689Y-118008671D01*
X161068554Y-117986134D01*
X161029515Y-117941080D01*
X161020611Y-117923605D01*
X160982287Y-117848390D01*
X160942224Y-117793247D01*
X160861971Y-117682786D01*
X160717213Y-117538028D01*
X160551613Y-117417715D01*
X160551612Y-117417714D01*
X160551610Y-117417713D01*
X160457001Y-117369507D01*
X160369223Y-117324781D01*
X160174534Y-117261522D01*
X159999995Y-117233878D01*
X159972352Y-117229500D01*
X159767648Y-117229500D01*
X159743329Y-117233351D01*
X159565465Y-117261522D01*
X159370776Y-117324781D01*
X159188386Y-117417715D01*
X159022786Y-117538028D01*
X158878028Y-117682786D01*
X158757715Y-117848386D01*
X158710485Y-117941080D01*
X158662510Y-117991876D01*
X158594689Y-118008671D01*
X158528554Y-117986134D01*
X158489515Y-117941080D01*
X158480611Y-117923605D01*
X158442287Y-117848390D01*
X158402224Y-117793247D01*
X158321971Y-117682786D01*
X158177213Y-117538028D01*
X158011613Y-117417715D01*
X158011612Y-117417714D01*
X158011610Y-117417713D01*
X157917001Y-117369507D01*
X157829223Y-117324781D01*
X157634534Y-117261522D01*
X157459995Y-117233878D01*
X157432352Y-117229500D01*
X157227648Y-117229500D01*
X157203329Y-117233351D01*
X157025465Y-117261522D01*
X156830776Y-117324781D01*
X156648386Y-117417715D01*
X156482786Y-117538028D01*
X156338028Y-117682786D01*
X156217715Y-117848386D01*
X156170485Y-117941080D01*
X156122510Y-117991876D01*
X156054689Y-118008671D01*
X155988554Y-117986134D01*
X155949515Y-117941080D01*
X155940611Y-117923605D01*
X155902287Y-117848390D01*
X155862224Y-117793247D01*
X155781971Y-117682786D01*
X155637213Y-117538028D01*
X155471613Y-117417715D01*
X155471612Y-117417714D01*
X155471610Y-117417713D01*
X155377001Y-117369507D01*
X155289223Y-117324781D01*
X155094534Y-117261522D01*
X154919995Y-117233878D01*
X154892352Y-117229500D01*
X154687648Y-117229500D01*
X154663329Y-117233351D01*
X154485465Y-117261522D01*
X154290776Y-117324781D01*
X154108386Y-117417715D01*
X153942786Y-117538028D01*
X153798028Y-117682786D01*
X153677715Y-117848386D01*
X153630485Y-117941080D01*
X153582510Y-117991876D01*
X153514689Y-118008671D01*
X153448554Y-117986134D01*
X153409515Y-117941080D01*
X153400611Y-117923605D01*
X153362287Y-117848390D01*
X153322224Y-117793247D01*
X153241971Y-117682786D01*
X153097213Y-117538028D01*
X152931613Y-117417715D01*
X152931612Y-117417714D01*
X152931610Y-117417713D01*
X152837001Y-117369507D01*
X152749223Y-117324781D01*
X152554534Y-117261522D01*
X152379995Y-117233878D01*
X152352352Y-117229500D01*
X152147648Y-117229500D01*
X152123329Y-117233351D01*
X151945465Y-117261522D01*
X151750776Y-117324781D01*
X151568386Y-117417715D01*
X151402786Y-117538028D01*
X151258028Y-117682786D01*
X151137715Y-117848386D01*
X151090485Y-117941080D01*
X151042510Y-117991876D01*
X150974689Y-118008671D01*
X150908554Y-117986134D01*
X150869515Y-117941080D01*
X150860611Y-117923605D01*
X150822287Y-117848390D01*
X150782224Y-117793247D01*
X150701971Y-117682786D01*
X150557213Y-117538028D01*
X150391613Y-117417715D01*
X150391612Y-117417714D01*
X150391610Y-117417713D01*
X150297001Y-117369507D01*
X150209223Y-117324781D01*
X150014534Y-117261522D01*
X149839995Y-117233878D01*
X149812352Y-117229500D01*
X149607648Y-117229500D01*
X149540254Y-117240174D01*
X149405464Y-117261523D01*
X149368816Y-117273431D01*
X149330498Y-117279500D01*
X148624045Y-117279500D01*
X148557006Y-117259815D01*
X148513560Y-117211795D01*
X148479523Y-117144994D01*
X148363828Y-116985754D01*
X147684120Y-116306046D01*
X147650635Y-116244723D01*
X147655619Y-116175031D01*
X147697491Y-116119098D01*
X147715498Y-116107885D01*
X147732105Y-116099424D01*
X147891346Y-115983728D01*
X147928255Y-115946819D01*
X147989578Y-115913334D01*
X148015936Y-115910500D01*
X150007749Y-115910500D01*
X150074788Y-115930185D01*
X150107015Y-115960188D01*
X150149951Y-116017542D01*
X150149954Y-116017546D01*
X150149957Y-116017548D01*
X150265164Y-116103793D01*
X150265171Y-116103797D01*
X150400017Y-116154091D01*
X150400016Y-116154091D01*
X150406944Y-116154835D01*
X150459627Y-116160500D01*
X152460372Y-116160499D01*
X152519983Y-116154091D01*
X152654831Y-116103796D01*
X152770046Y-116017546D01*
X152856296Y-115902331D01*
X152906591Y-115767483D01*
X152913000Y-115707873D01*
X152912999Y-113612128D01*
X152906591Y-113552517D01*
X152892778Y-113515483D01*
X152856297Y-113417671D01*
X152856293Y-113417664D01*
X152770047Y-113302455D01*
X152770044Y-113302452D01*
X152654835Y-113216206D01*
X152654828Y-113216202D01*
X152519982Y-113165908D01*
X152519983Y-113165908D01*
X152460383Y-113159501D01*
X152460381Y-113159500D01*
X152460373Y-113159500D01*
X152460364Y-113159500D01*
X150459629Y-113159500D01*
X150459623Y-113159501D01*
X150400016Y-113165908D01*
X150265171Y-113216202D01*
X150265164Y-113216206D01*
X150149957Y-113302451D01*
X150149951Y-113302457D01*
X150107015Y-113359812D01*
X150051081Y-113401682D01*
X150007749Y-113409500D01*
X147348178Y-113409500D01*
X147153773Y-113440290D01*
X146966569Y-113501117D01*
X146791194Y-113590476D01*
X146739952Y-113627706D01*
X146631955Y-113706171D01*
X146631953Y-113706173D01*
X146631952Y-113706173D01*
X146122874Y-114215251D01*
X146122874Y-114215252D01*
X146122872Y-114215254D01*
X146073185Y-114283641D01*
X146007176Y-114374494D01*
X145917817Y-114549869D01*
X145856990Y-114737073D01*
X145826200Y-114931477D01*
X145826200Y-115128322D01*
X145840135Y-115216302D01*
X145831181Y-115285595D01*
X145786185Y-115339047D01*
X145719433Y-115359687D01*
X145717662Y-115359700D01*
X139129500Y-115359700D01*
X139062461Y-115340015D01*
X139016706Y-115287211D01*
X139005500Y-115235700D01*
X139005500Y-105590300D01*
X139025185Y-105523261D01*
X139077989Y-105477506D01*
X139129500Y-105466300D01*
X145134897Y-105466300D01*
X145368168Y-105429353D01*
X145592792Y-105356368D01*
X145803234Y-105249143D01*
X145994310Y-105110317D01*
X146884418Y-104220210D01*
X147023243Y-104029133D01*
X147130468Y-103818692D01*
X147203453Y-103594068D01*
X147240400Y-103360797D01*
X147240400Y-103124602D01*
X147203453Y-102891334D01*
X147203453Y-102891331D01*
X147130468Y-102666708D01*
X147023243Y-102456266D01*
X146884418Y-102265190D01*
X146717410Y-102098182D01*
X146526334Y-101959357D01*
X146315892Y-101852132D01*
X146091269Y-101779147D01*
X146091267Y-101779146D01*
X146091265Y-101779146D01*
X145857997Y-101742200D01*
X145857992Y-101742200D01*
X145621808Y-101742200D01*
X145621803Y-101742200D01*
X145388531Y-101779146D01*
X145163903Y-101852133D01*
X144953463Y-101959359D01*
X144762396Y-102098176D01*
X144762391Y-102098180D01*
X144431591Y-102428981D01*
X144370268Y-102462466D01*
X144343910Y-102465300D01*
X141327722Y-102465300D01*
X141260683Y-102445615D01*
X141214928Y-102392811D01*
X141204984Y-102323653D01*
X141207750Y-102311764D01*
X141207370Y-102311673D01*
X141208506Y-102306934D01*
X141208509Y-102306926D01*
X141229050Y-102177236D01*
X141239300Y-102112522D01*
X141239300Y-98737536D01*
X141258985Y-98670497D01*
X141275619Y-98649855D01*
X142056602Y-97868872D01*
X151999500Y-97868872D01*
X151999500Y-98131127D01*
X152011005Y-98218508D01*
X152033730Y-98391116D01*
X152101602Y-98644418D01*
X152101605Y-98644428D01*
X152201953Y-98886690D01*
X152201958Y-98886700D01*
X152333075Y-99113803D01*
X152492718Y-99321851D01*
X152492726Y-99321860D01*
X152678140Y-99507274D01*
X152678148Y-99507281D01*
X152886196Y-99666924D01*
X153113299Y-99798041D01*
X153113309Y-99798046D01*
X153271571Y-99863600D01*
X153355581Y-99898398D01*
X153608884Y-99966270D01*
X153868880Y-100000500D01*
X153868887Y-100000500D01*
X154131113Y-100000500D01*
X154131120Y-100000500D01*
X154391116Y-99966270D01*
X154644419Y-99898398D01*
X154886697Y-99798043D01*
X155113803Y-99666924D01*
X155321851Y-99507282D01*
X155321855Y-99507277D01*
X155321860Y-99507274D01*
X155507274Y-99321860D01*
X155507277Y-99321855D01*
X155507282Y-99321851D01*
X155666924Y-99113803D01*
X155798043Y-98886697D01*
X155898398Y-98644419D01*
X155966270Y-98391116D01*
X156000500Y-98131120D01*
X156000500Y-97868880D01*
X155966270Y-97608884D01*
X155898398Y-97355581D01*
X155898394Y-97355571D01*
X155798046Y-97113309D01*
X155798041Y-97113299D01*
X155666924Y-96886196D01*
X155507281Y-96678148D01*
X155507274Y-96678140D01*
X155321860Y-96492726D01*
X155321851Y-96492718D01*
X155113803Y-96333075D01*
X154886700Y-96201958D01*
X154886690Y-96201953D01*
X154644428Y-96101605D01*
X154644421Y-96101603D01*
X154644419Y-96101602D01*
X154391116Y-96033730D01*
X154333339Y-96026123D01*
X154131127Y-95999500D01*
X154131120Y-95999500D01*
X153868880Y-95999500D01*
X153868872Y-95999500D01*
X153637772Y-96029926D01*
X153608884Y-96033730D01*
X153355581Y-96101602D01*
X153355571Y-96101605D01*
X153113309Y-96201953D01*
X153113299Y-96201958D01*
X152886196Y-96333075D01*
X152678148Y-96492718D01*
X152492718Y-96678148D01*
X152333075Y-96886196D01*
X152201958Y-97113299D01*
X152201953Y-97113309D01*
X152101605Y-97355571D01*
X152101602Y-97355581D01*
X152034590Y-97605677D01*
X152033730Y-97608885D01*
X151999500Y-97868872D01*
X142056602Y-97868872D01*
X142148334Y-97777140D01*
X144834991Y-95090483D01*
X147525329Y-92400145D01*
X147641024Y-92240905D01*
X147730384Y-92065526D01*
X147791209Y-91878326D01*
X147822000Y-91683921D01*
X147822000Y-91528872D01*
X151999500Y-91528872D01*
X151999500Y-91791127D01*
X152016744Y-91922100D01*
X152033730Y-92051116D01*
X152099255Y-92295659D01*
X152101602Y-92304418D01*
X152101605Y-92304428D01*
X152201953Y-92546690D01*
X152201958Y-92546700D01*
X152333075Y-92773803D01*
X152492718Y-92981851D01*
X152492726Y-92981860D01*
X152678140Y-93167274D01*
X152678148Y-93167281D01*
X152886196Y-93326924D01*
X153113299Y-93458041D01*
X153113309Y-93458046D01*
X153355571Y-93558394D01*
X153355581Y-93558398D01*
X153608884Y-93626270D01*
X153868880Y-93660500D01*
X153868887Y-93660500D01*
X154131113Y-93660500D01*
X154131120Y-93660500D01*
X154391116Y-93626270D01*
X154644419Y-93558398D01*
X154886697Y-93458043D01*
X155113803Y-93326924D01*
X155321851Y-93167282D01*
X155321855Y-93167277D01*
X155321860Y-93167274D01*
X155507274Y-92981860D01*
X155507277Y-92981855D01*
X155507282Y-92981851D01*
X155666924Y-92773803D01*
X155798043Y-92546697D01*
X155898398Y-92304419D01*
X155966270Y-92051116D01*
X156000500Y-91791120D01*
X156000500Y-91528880D01*
X155966270Y-91268884D01*
X155898398Y-91015581D01*
X155862988Y-90930093D01*
X155798046Y-90773309D01*
X155798041Y-90773299D01*
X155666924Y-90546196D01*
X155507281Y-90338148D01*
X155507274Y-90338140D01*
X155321860Y-90152726D01*
X155321851Y-90152718D01*
X155113803Y-89993075D01*
X154886700Y-89861958D01*
X154886690Y-89861953D01*
X154644428Y-89761605D01*
X154644421Y-89761603D01*
X154644419Y-89761602D01*
X154391116Y-89693730D01*
X154333339Y-89686123D01*
X154131127Y-89659500D01*
X154131120Y-89659500D01*
X153868880Y-89659500D01*
X153868872Y-89659500D01*
X153637772Y-89689926D01*
X153608884Y-89693730D01*
X153355581Y-89761602D01*
X153355571Y-89761605D01*
X153113309Y-89861953D01*
X153113299Y-89861958D01*
X152886196Y-89993075D01*
X152678148Y-90152718D01*
X152492718Y-90338148D01*
X152333075Y-90546196D01*
X152201958Y-90773299D01*
X152201953Y-90773309D01*
X152101605Y-91015571D01*
X152101602Y-91015581D01*
X152048381Y-91214208D01*
X152033730Y-91268885D01*
X151999500Y-91528872D01*
X147822000Y-91528872D01*
X147822000Y-91487077D01*
X147791209Y-91292672D01*
X147746476Y-91155000D01*
X147730384Y-91105474D01*
X147730382Y-91105471D01*
X147730382Y-91105469D01*
X147679190Y-91005000D01*
X147641024Y-90930094D01*
X147525329Y-90770854D01*
X147386146Y-90631671D01*
X147226906Y-90515976D01*
X147224327Y-90514662D01*
X147051530Y-90426617D01*
X146864327Y-90365790D01*
X146669922Y-90335000D01*
X146669917Y-90335000D01*
X146473084Y-90335000D01*
X146473079Y-90335000D01*
X146278673Y-90365790D01*
X146091469Y-90426617D01*
X145916094Y-90515976D01*
X145874499Y-90546197D01*
X145756855Y-90631671D01*
X145756853Y-90631673D01*
X145756852Y-90631673D01*
X139217181Y-97171345D01*
X139155858Y-97204830D01*
X139086166Y-97199846D01*
X139030233Y-97157974D01*
X139005816Y-97092510D01*
X139005500Y-97083664D01*
X139005500Y-95034214D01*
X139005179Y-95016232D01*
X139005178Y-95016220D01*
X139005178Y-95016188D01*
X139004862Y-95007342D01*
X139003896Y-94989325D01*
X139002832Y-94984436D01*
X139000000Y-94958085D01*
X139000000Y-90642602D01*
X139001262Y-90624955D01*
X139004003Y-90605889D01*
X139005500Y-90595480D01*
X139005500Y-89224500D01*
X139000710Y-89179946D01*
X139000000Y-89166693D01*
X139000000Y-85622888D01*
X139001262Y-85605241D01*
X139005500Y-85575766D01*
X139005500Y-71631178D01*
X139025185Y-71564139D01*
X139077989Y-71518384D01*
X139147147Y-71508440D01*
X139167816Y-71513247D01*
X139183626Y-71518384D01*
X139245458Y-71538475D01*
X139245461Y-71538475D01*
X139245466Y-71538477D01*
X139447648Y-71570500D01*
X139447649Y-71570500D01*
X139652351Y-71570500D01*
X139652352Y-71570500D01*
X139854534Y-71538477D01*
X140049219Y-71475220D01*
X140231610Y-71382287D01*
X140346810Y-71298590D01*
X140397213Y-71261971D01*
X140397215Y-71261968D01*
X140397219Y-71261966D01*
X140541966Y-71117219D01*
X140541968Y-71117215D01*
X140541971Y-71117213D01*
X140662284Y-70951614D01*
X140662285Y-70951613D01*
X140662287Y-70951610D01*
X140709516Y-70858917D01*
X140757489Y-70808123D01*
X140825310Y-70791328D01*
X140891445Y-70813865D01*
G37*
%TD.AperFunction*%
%TA.AperFunction,Conductor*%
G36*
X175937539Y-69781585D02*
G01*
X175983294Y-69834389D01*
X175994500Y-69885900D01*
X175994500Y-77125500D01*
X175974815Y-77192539D01*
X175922011Y-77238294D01*
X175870500Y-77249500D01*
X168069336Y-77249500D01*
X168002297Y-77229815D01*
X167981655Y-77213181D01*
X162534763Y-71766289D01*
X162501278Y-71704966D01*
X162506262Y-71635274D01*
X162548134Y-71579341D01*
X162603045Y-71556135D01*
X162714534Y-71538477D01*
X162909219Y-71475220D01*
X163091610Y-71382287D01*
X163206810Y-71298590D01*
X163257213Y-71261971D01*
X163257215Y-71261968D01*
X163257219Y-71261966D01*
X163401966Y-71117219D01*
X163401968Y-71117215D01*
X163401971Y-71117213D01*
X163522284Y-70951614D01*
X163522285Y-70951613D01*
X163522287Y-70951610D01*
X163569516Y-70858917D01*
X163617489Y-70808123D01*
X163685310Y-70791328D01*
X163751445Y-70813865D01*
X163790483Y-70858917D01*
X163799387Y-70876391D01*
X163837715Y-70951614D01*
X163958028Y-71117213D01*
X164102786Y-71261971D01*
X164245462Y-71365629D01*
X164268390Y-71382287D01*
X164366505Y-71432279D01*
X164450776Y-71475218D01*
X164450778Y-71475218D01*
X164450781Y-71475220D01*
X164553022Y-71508440D01*
X164645465Y-71538477D01*
X164739318Y-71553342D01*
X164847648Y-71570500D01*
X164847649Y-71570500D01*
X165052351Y-71570500D01*
X165052352Y-71570500D01*
X165254534Y-71538477D01*
X165449219Y-71475220D01*
X165631610Y-71382287D01*
X165746810Y-71298590D01*
X165797213Y-71261971D01*
X165797215Y-71261968D01*
X165797219Y-71261966D01*
X165941966Y-71117219D01*
X165941968Y-71117215D01*
X165941971Y-71117213D01*
X166062284Y-70951614D01*
X166062285Y-70951613D01*
X166062287Y-70951610D01*
X166109516Y-70858917D01*
X166157489Y-70808123D01*
X166225310Y-70791328D01*
X166291445Y-70813865D01*
X166330483Y-70858917D01*
X166339387Y-70876391D01*
X166377715Y-70951614D01*
X166498028Y-71117213D01*
X166642786Y-71261971D01*
X166785462Y-71365629D01*
X166808390Y-71382287D01*
X166906505Y-71432279D01*
X166990776Y-71475218D01*
X166990778Y-71475218D01*
X166990781Y-71475220D01*
X167093022Y-71508440D01*
X167185465Y-71538477D01*
X167279318Y-71553342D01*
X167387648Y-71570500D01*
X167387649Y-71570500D01*
X167592351Y-71570500D01*
X167592352Y-71570500D01*
X167794534Y-71538477D01*
X167989219Y-71475220D01*
X168171610Y-71382287D01*
X168286810Y-71298590D01*
X168337213Y-71261971D01*
X168337215Y-71261968D01*
X168337219Y-71261966D01*
X168481966Y-71117219D01*
X168481968Y-71117215D01*
X168481971Y-71117213D01*
X168562222Y-71006755D01*
X168602287Y-70951610D01*
X168695220Y-70769219D01*
X168758477Y-70574534D01*
X168790500Y-70372352D01*
X168790500Y-70167648D01*
X168768409Y-70028172D01*
X168758477Y-69965465D01*
X168745075Y-69924219D01*
X168743080Y-69854378D01*
X168779160Y-69794545D01*
X168841860Y-69763716D01*
X168863006Y-69761900D01*
X175870500Y-69761900D01*
X175937539Y-69781585D01*
G37*
%TD.AperFunction*%
%TA.AperFunction,Conductor*%
G36*
X155558703Y-67520185D02*
G01*
X155604458Y-67572989D01*
X155614402Y-67642147D01*
X155585377Y-67705703D01*
X155579345Y-67712181D01*
X154174110Y-69117414D01*
X154142727Y-69140216D01*
X154108386Y-69157714D01*
X153942786Y-69278028D01*
X153798028Y-69422786D01*
X153677715Y-69588386D01*
X153584781Y-69770776D01*
X153521522Y-69965465D01*
X153489500Y-70167648D01*
X153489500Y-70372351D01*
X153521522Y-70574534D01*
X153584781Y-70769223D01*
X153639386Y-70876390D01*
X153676864Y-70949944D01*
X153677715Y-70951613D01*
X153798028Y-71117213D01*
X153942786Y-71261971D01*
X154108385Y-71382284D01*
X154108387Y-71382285D01*
X154108390Y-71382287D01*
X154189008Y-71423364D01*
X154220393Y-71446167D01*
X156062045Y-73287819D01*
X156095530Y-73349142D01*
X156090546Y-73418834D01*
X156048674Y-73474767D01*
X155983210Y-73499184D01*
X155974364Y-73499500D01*
X155539629Y-73499500D01*
X155539623Y-73499501D01*
X155480016Y-73505908D01*
X155345171Y-73556202D01*
X155345164Y-73556206D01*
X155229955Y-73642452D01*
X155229952Y-73642455D01*
X155143706Y-73757664D01*
X155143702Y-73757671D01*
X155093408Y-73892517D01*
X155087001Y-73952116D01*
X155087000Y-73952135D01*
X155087001Y-75875500D01*
X155067316Y-75942539D01*
X155014513Y-75988294D01*
X154963001Y-75999500D01*
X152831905Y-75999500D01*
X152764866Y-75979815D01*
X152719111Y-75927011D01*
X152709167Y-75857853D01*
X152731586Y-75802615D01*
X152743343Y-75786433D01*
X152850568Y-75575992D01*
X152923553Y-75351368D01*
X152960500Y-75118097D01*
X152960500Y-74881902D01*
X152923553Y-74648631D01*
X152850566Y-74424003D01*
X152743342Y-74213566D01*
X152732711Y-74198934D01*
X152604517Y-74022490D01*
X152437510Y-73855483D01*
X152246433Y-73716657D01*
X152035996Y-73609433D01*
X151811368Y-73536446D01*
X151578097Y-73499500D01*
X151578092Y-73499500D01*
X149430389Y-73499500D01*
X149363350Y-73479815D01*
X149342708Y-73463181D01*
X148706819Y-72827292D01*
X148673334Y-72765969D01*
X148670500Y-72739611D01*
X148670500Y-71365629D01*
X148690185Y-71298590D01*
X148742989Y-71252835D01*
X148812147Y-71242891D01*
X148867385Y-71265311D01*
X149028390Y-71382287D01*
X149126505Y-71432279D01*
X149210776Y-71475218D01*
X149210778Y-71475218D01*
X149210781Y-71475220D01*
X149313022Y-71508440D01*
X149405465Y-71538477D01*
X149499318Y-71553342D01*
X149607648Y-71570500D01*
X149607649Y-71570500D01*
X149812351Y-71570500D01*
X149812352Y-71570500D01*
X150014534Y-71538477D01*
X150209219Y-71475220D01*
X150391610Y-71382287D01*
X150506810Y-71298590D01*
X150557213Y-71261971D01*
X150557215Y-71261968D01*
X150557219Y-71261966D01*
X150701966Y-71117219D01*
X150701968Y-71117215D01*
X150701971Y-71117213D01*
X150782222Y-71006755D01*
X150822287Y-70951610D01*
X150915220Y-70769219D01*
X150978477Y-70574534D01*
X151010500Y-70372352D01*
X151010500Y-70167648D01*
X150988409Y-70028172D01*
X150978477Y-69965465D01*
X150949127Y-69875137D01*
X150915220Y-69770781D01*
X150915218Y-69770778D01*
X150915218Y-69770776D01*
X150860611Y-69663605D01*
X150822287Y-69588390D01*
X150814556Y-69577749D01*
X150701971Y-69422786D01*
X150557213Y-69278028D01*
X150391613Y-69157715D01*
X150391612Y-69157714D01*
X150391610Y-69157713D01*
X150312519Y-69117414D01*
X150209223Y-69064781D01*
X150014534Y-69001522D01*
X149839995Y-68973878D01*
X149812352Y-68969500D01*
X149607648Y-68969500D01*
X149583329Y-68973351D01*
X149405465Y-69001522D01*
X149210776Y-69064781D01*
X149028386Y-69157715D01*
X148862786Y-69278028D01*
X148718032Y-69422782D01*
X148663185Y-69498273D01*
X148607855Y-69540938D01*
X148538241Y-69546917D01*
X148476446Y-69514311D01*
X148456541Y-69487318D01*
X148455888Y-69487719D01*
X148453347Y-69483573D01*
X148453015Y-69483116D01*
X148314517Y-69292490D01*
X148147510Y-69125483D01*
X147956433Y-68986657D01*
X147745996Y-68879433D01*
X147521368Y-68806446D01*
X147288097Y-68769500D01*
X147288092Y-68769500D01*
X144511908Y-68769500D01*
X144511903Y-68769500D01*
X144278631Y-68806446D01*
X144054003Y-68879433D01*
X143843566Y-68986657D01*
X143736040Y-69064780D01*
X143652490Y-69125483D01*
X143652488Y-69125485D01*
X143652487Y-69125485D01*
X143485485Y-69292487D01*
X143485485Y-69292488D01*
X143485483Y-69292490D01*
X143461103Y-69326046D01*
X143346652Y-69483573D01*
X143344112Y-69487719D01*
X143342724Y-69486869D01*
X143299621Y-69532490D01*
X143231797Y-69549272D01*
X143165667Y-69526722D01*
X143136814Y-69498272D01*
X143081971Y-69422787D01*
X143081967Y-69422782D01*
X142937213Y-69278028D01*
X142771613Y-69157715D01*
X142771612Y-69157714D01*
X142771610Y-69157713D01*
X142692519Y-69117414D01*
X142589223Y-69064781D01*
X142394534Y-69001522D01*
X142219995Y-68973878D01*
X142192352Y-68969500D01*
X141987648Y-68969500D01*
X141963329Y-68973351D01*
X141785465Y-69001522D01*
X141590776Y-69064781D01*
X141408386Y-69157715D01*
X141242786Y-69278028D01*
X141098028Y-69422786D01*
X140977715Y-69588386D01*
X140930485Y-69681080D01*
X140882510Y-69731876D01*
X140814689Y-69748671D01*
X140748554Y-69726134D01*
X140709515Y-69681080D01*
X140700611Y-69663605D01*
X140662287Y-69588390D01*
X140654556Y-69577749D01*
X140541971Y-69422786D01*
X140397213Y-69278028D01*
X140231613Y-69157715D01*
X140231612Y-69157714D01*
X140231610Y-69157713D01*
X140152519Y-69117414D01*
X140049223Y-69064781D01*
X139854534Y-69001522D01*
X139679995Y-68973878D01*
X139652352Y-68969500D01*
X139447648Y-68969500D01*
X139380254Y-68980174D01*
X139245464Y-69001523D01*
X139245457Y-69001524D01*
X139167817Y-69026751D01*
X139097976Y-69028746D01*
X139038143Y-68992665D01*
X139007316Y-68929964D01*
X139005500Y-68908820D01*
X139005500Y-67624500D01*
X139025185Y-67557461D01*
X139077989Y-67511706D01*
X139129500Y-67500500D01*
X155491664Y-67500500D01*
X155558703Y-67520185D01*
G37*
%TD.AperFunction*%
%TD*%
%TA.AperFunction,NonConductor*%
G36*
X138419334Y-101808052D02*
G01*
X138475267Y-101849924D01*
X138499684Y-101915388D01*
X138500000Y-101924234D01*
X138500000Y-102341300D01*
X138480315Y-102408339D01*
X138427511Y-102454094D01*
X138376000Y-102465300D01*
X137740349Y-102465300D01*
X137673310Y-102445615D01*
X137627555Y-102392811D01*
X137617611Y-102323653D01*
X137646636Y-102260097D01*
X137692896Y-102226739D01*
X137750078Y-102203052D01*
X137833726Y-102168405D01*
X138026774Y-102056948D01*
X138203624Y-101921247D01*
X138215537Y-101909334D01*
X138288319Y-101836553D01*
X138349642Y-101803068D01*
X138419334Y-101808052D01*
G37*
%TD.AperFunction*%
%TA.AperFunction,NonConductor*%
G36*
X112955703Y-92078176D02*
G01*
X112962181Y-92084208D01*
X113022490Y-92144517D01*
X113213567Y-92283343D01*
X113281766Y-92318092D01*
X113424003Y-92390566D01*
X113424005Y-92390566D01*
X113424008Y-92390568D01*
X113544412Y-92429689D01*
X113648631Y-92463553D01*
X113881903Y-92500500D01*
X113881908Y-92500500D01*
X122568052Y-92500500D01*
X122635091Y-92520185D01*
X122680846Y-92572989D01*
X122690546Y-92640454D01*
X122690689Y-92640469D01*
X122690630Y-92641039D01*
X122690790Y-92642147D01*
X122690154Y-92645704D01*
X122679500Y-92749984D01*
X122679500Y-94750015D01*
X122690000Y-94852795D01*
X122690001Y-94852797D01*
X122696904Y-94873629D01*
X122745186Y-95019335D01*
X122745187Y-95019337D01*
X122837286Y-95168651D01*
X122837289Y-95168655D01*
X122961344Y-95292710D01*
X122961348Y-95292713D01*
X123110662Y-95384812D01*
X123110664Y-95384813D01*
X123110666Y-95384814D01*
X123277203Y-95439999D01*
X123379992Y-95450500D01*
X123379997Y-95450500D01*
X125380003Y-95450500D01*
X125380008Y-95450500D01*
X125482797Y-95439999D01*
X125649334Y-95384814D01*
X125798655Y-95292711D01*
X125922711Y-95168655D01*
X126014814Y-95019334D01*
X126069999Y-94852797D01*
X126080500Y-94750008D01*
X126080500Y-92749992D01*
X126069999Y-92647203D01*
X126069998Y-92647202D01*
X126069311Y-92640469D01*
X126071461Y-92640249D01*
X126075905Y-92580796D01*
X126117954Y-92524997D01*
X126183496Y-92500788D01*
X126191948Y-92500500D01*
X126767111Y-92500500D01*
X126834150Y-92520185D01*
X126854792Y-92536819D01*
X135428350Y-101110378D01*
X135460443Y-101165962D01*
X135466290Y-101187781D01*
X135466290Y-101187782D01*
X135551590Y-101393717D01*
X135551595Y-101393726D01*
X135663052Y-101586774D01*
X135663057Y-101586780D01*
X135663058Y-101586782D01*
X135798751Y-101763622D01*
X135798757Y-101763629D01*
X135956370Y-101921242D01*
X135956377Y-101921248D01*
X136082294Y-102017867D01*
X136133226Y-102056948D01*
X136326274Y-102168405D01*
X136360812Y-102182711D01*
X136467104Y-102226739D01*
X136521507Y-102270580D01*
X136543572Y-102336874D01*
X136526293Y-102404573D01*
X136475156Y-102452184D01*
X136419651Y-102465300D01*
X128378689Y-102465300D01*
X128311650Y-102445615D01*
X128291008Y-102428981D01*
X126116819Y-100254792D01*
X126083334Y-100193469D01*
X126080500Y-100167111D01*
X126080500Y-99639997D01*
X126080499Y-99639984D01*
X126069999Y-99537204D01*
X126069999Y-99537203D01*
X126014814Y-99370666D01*
X126007468Y-99358757D01*
X125922713Y-99221348D01*
X125922710Y-99221344D01*
X125798655Y-99097289D01*
X125798651Y-99097286D01*
X125649337Y-99005187D01*
X125649335Y-99005186D01*
X125566065Y-98977593D01*
X125482797Y-98950001D01*
X125482795Y-98950000D01*
X125380015Y-98939500D01*
X125380008Y-98939500D01*
X123379992Y-98939500D01*
X123379984Y-98939500D01*
X123277204Y-98950000D01*
X123277203Y-98950001D01*
X123110664Y-99005186D01*
X123110662Y-99005187D01*
X122961348Y-99097286D01*
X122961344Y-99097289D01*
X122837289Y-99221344D01*
X122837286Y-99221348D01*
X122745187Y-99370662D01*
X122745186Y-99370664D01*
X122690001Y-99537203D01*
X122690000Y-99537204D01*
X122679500Y-99639984D01*
X122679500Y-101640015D01*
X122690000Y-101742795D01*
X122690001Y-101742797D01*
X122696904Y-101763629D01*
X122745186Y-101909335D01*
X122745187Y-101909337D01*
X122837286Y-102058651D01*
X122837289Y-102058655D01*
X122961344Y-102182710D01*
X122961348Y-102182713D01*
X123110662Y-102274812D01*
X123110664Y-102274813D01*
X123110666Y-102274814D01*
X123277203Y-102329999D01*
X123379992Y-102340500D01*
X123907111Y-102340500D01*
X123974150Y-102360185D01*
X123994792Y-102376819D01*
X126728290Y-105110317D01*
X126919366Y-105249143D01*
X127022581Y-105301733D01*
X127129806Y-105356368D01*
X127129812Y-105356370D01*
X127202791Y-105380082D01*
X127202792Y-105380082D01*
X127278612Y-105404717D01*
X127354431Y-105429353D01*
X127587703Y-105466300D01*
X138376000Y-105466300D01*
X138443039Y-105485985D01*
X138488794Y-105538789D01*
X138500000Y-105590300D01*
X138500000Y-115235700D01*
X138480315Y-115302739D01*
X138427511Y-115348494D01*
X138376000Y-115359700D01*
X135804537Y-115359700D01*
X135737498Y-115340015D01*
X135716856Y-115323381D01*
X130110830Y-109717355D01*
X130077345Y-109656032D01*
X130082329Y-109586340D01*
X130124201Y-109530407D01*
X130125625Y-109529356D01*
X130129195Y-109526761D01*
X130129199Y-109526760D01*
X130282073Y-109415690D01*
X130415690Y-109282073D01*
X130526760Y-109129199D01*
X130612547Y-108960832D01*
X130652069Y-108839195D01*
X130691507Y-108781521D01*
X130755866Y-108754323D01*
X130824712Y-108766238D01*
X130876188Y-108813482D01*
X130887931Y-108839196D01*
X130927454Y-108960836D01*
X131013240Y-109129199D01*
X131124310Y-109282073D01*
X131257927Y-109415690D01*
X131410801Y-109526760D01*
X131490347Y-109567290D01*
X131579163Y-109612545D01*
X131579165Y-109612545D01*
X131579168Y-109612547D01*
X131675497Y-109643846D01*
X131758881Y-109670940D01*
X131945514Y-109700500D01*
X131945519Y-109700500D01*
X132134486Y-109700500D01*
X132321118Y-109670940D01*
X132500832Y-109612547D01*
X132669199Y-109526760D01*
X132822073Y-109415690D01*
X132955690Y-109282073D01*
X133066760Y-109129199D01*
X133152547Y-108960832D01*
X133210940Y-108781118D01*
X133215184Y-108754323D01*
X133240500Y-108594486D01*
X133240500Y-108405513D01*
X133210940Y-108218881D01*
X133152545Y-108039163D01*
X133076119Y-107889169D01*
X133066760Y-107870801D01*
X132955690Y-107717927D01*
X132822073Y-107584310D01*
X132669199Y-107473240D01*
X132500836Y-107387454D01*
X132321118Y-107329059D01*
X132134486Y-107299500D01*
X132134481Y-107299500D01*
X131945519Y-107299500D01*
X131945514Y-107299500D01*
X131758881Y-107329059D01*
X131579163Y-107387454D01*
X131410800Y-107473240D01*
X131323579Y-107536610D01*
X131257927Y-107584310D01*
X131257925Y-107584312D01*
X131257924Y-107584312D01*
X131124312Y-107717924D01*
X131124312Y-107717925D01*
X131124310Y-107717927D01*
X131124306Y-107717933D01*
X131013240Y-107870800D01*
X130927454Y-108039163D01*
X130887931Y-108160803D01*
X130848493Y-108218478D01*
X130784134Y-108245676D01*
X130715288Y-108233761D01*
X130663812Y-108186516D01*
X130652069Y-108160803D01*
X130612545Y-108039163D01*
X130536119Y-107889169D01*
X130526760Y-107870801D01*
X130415690Y-107717927D01*
X130282073Y-107584310D01*
X130129199Y-107473240D01*
X129960836Y-107387454D01*
X129781118Y-107329059D01*
X129594486Y-107299500D01*
X129594481Y-107299500D01*
X129405519Y-107299500D01*
X129405514Y-107299500D01*
X129218881Y-107329059D01*
X129039163Y-107387454D01*
X128870800Y-107473240D01*
X128783579Y-107536610D01*
X128717927Y-107584310D01*
X128717925Y-107584312D01*
X128717924Y-107584312D01*
X128584312Y-107717924D01*
X128584305Y-107717933D01*
X128470642Y-107874374D01*
X128415312Y-107917040D01*
X128345699Y-107923018D01*
X128283904Y-107890412D01*
X128282644Y-107889169D01*
X112786819Y-92393344D01*
X112753334Y-92332021D01*
X112750500Y-92305663D01*
X112750500Y-92171889D01*
X112770185Y-92104850D01*
X112822989Y-92059095D01*
X112892147Y-92049151D01*
X112955703Y-92078176D01*
G37*
%TD.AperFunction*%
%TA.AperFunction,NonConductor*%
G36*
X138443039Y-67520185D02*
G01*
X138488794Y-67572989D01*
X138500000Y-67624500D01*
X138500000Y-69462368D01*
X138495618Y-69477291D01*
X138496199Y-69492833D01*
X138482747Y-69525463D01*
X138479759Y-69530517D01*
X138437713Y-69588390D01*
X138388727Y-69684529D01*
X138386747Y-69687880D01*
X138363941Y-69709183D01*
X138342510Y-69731876D01*
X138338619Y-69732839D01*
X138335690Y-69735576D01*
X138304985Y-69741168D01*
X138274689Y-69748671D01*
X138270894Y-69747377D01*
X138266951Y-69748096D01*
X138238105Y-69736204D01*
X138208554Y-69726134D01*
X138206059Y-69722993D01*
X138202355Y-69721466D01*
X138169515Y-69681080D01*
X138168883Y-69679840D01*
X138122287Y-69588390D01*
X138114556Y-69577749D01*
X138001971Y-69422786D01*
X137857213Y-69278028D01*
X137691613Y-69157715D01*
X137691612Y-69157714D01*
X137691610Y-69157713D01*
X137634653Y-69128691D01*
X137509223Y-69064781D01*
X137314534Y-69001522D01*
X137139995Y-68973878D01*
X137112352Y-68969500D01*
X136907648Y-68969500D01*
X136883329Y-68973351D01*
X136705465Y-69001522D01*
X136510776Y-69064781D01*
X136328386Y-69157715D01*
X136162786Y-69278028D01*
X136018028Y-69422786D01*
X135897715Y-69588386D01*
X135850485Y-69681080D01*
X135802510Y-69731876D01*
X135734689Y-69748671D01*
X135668554Y-69726134D01*
X135629515Y-69681080D01*
X135628883Y-69679840D01*
X135582287Y-69588390D01*
X135574556Y-69577749D01*
X135461971Y-69422786D01*
X135317213Y-69278028D01*
X135151613Y-69157715D01*
X135151612Y-69157714D01*
X135151610Y-69157713D01*
X135094653Y-69128691D01*
X134969223Y-69064781D01*
X134774534Y-69001522D01*
X134599995Y-68973878D01*
X134572352Y-68969500D01*
X134367648Y-68969500D01*
X134343329Y-68973351D01*
X134165465Y-69001522D01*
X133970776Y-69064781D01*
X133788386Y-69157715D01*
X133622786Y-69278028D01*
X133478032Y-69422782D01*
X133451668Y-69459070D01*
X133396338Y-69501735D01*
X133326724Y-69507714D01*
X133264929Y-69475108D01*
X133230572Y-69414269D01*
X133228060Y-69399438D01*
X133227640Y-69395533D01*
X133224091Y-69362517D01*
X133173796Y-69227669D01*
X133173795Y-69227668D01*
X133173793Y-69227664D01*
X133087547Y-69112455D01*
X133087544Y-69112452D01*
X132972335Y-69026206D01*
X132972328Y-69026202D01*
X132837482Y-68975908D01*
X132837483Y-68975908D01*
X132777883Y-68969501D01*
X132777881Y-68969500D01*
X132777873Y-68969500D01*
X132777864Y-68969500D01*
X131082129Y-68969500D01*
X131082123Y-68969501D01*
X131022516Y-68975908D01*
X130887671Y-69026202D01*
X130887664Y-69026206D01*
X130772455Y-69112452D01*
X130772452Y-69112455D01*
X130686206Y-69227664D01*
X130686202Y-69227671D01*
X130635908Y-69362517D01*
X130629501Y-69422116D01*
X130629500Y-69422135D01*
X130629500Y-71117870D01*
X130629501Y-71117876D01*
X130635908Y-71177483D01*
X130686202Y-71312328D01*
X130686206Y-71312335D01*
X130772452Y-71427544D01*
X130772455Y-71427547D01*
X130887664Y-71513793D01*
X130887671Y-71513797D01*
X131022517Y-71564091D01*
X131022516Y-71564091D01*
X131029444Y-71564835D01*
X131082127Y-71570500D01*
X132777872Y-71570499D01*
X132837483Y-71564091D01*
X132972331Y-71513796D01*
X133087546Y-71427546D01*
X133173796Y-71312331D01*
X133224091Y-71177483D01*
X133228061Y-71140556D01*
X133254796Y-71076011D01*
X133312188Y-71036161D01*
X133382013Y-71033666D01*
X133442102Y-71069317D01*
X133451667Y-71080929D01*
X133478032Y-71117217D01*
X133622786Y-71261971D01*
X133777749Y-71374556D01*
X133788390Y-71382287D01*
X133877212Y-71427544D01*
X133970776Y-71475218D01*
X133970778Y-71475218D01*
X133970781Y-71475220D01*
X134075137Y-71509127D01*
X134165465Y-71538477D01*
X134266557Y-71554488D01*
X134367648Y-71570500D01*
X134367649Y-71570500D01*
X134572351Y-71570500D01*
X134572352Y-71570500D01*
X134774534Y-71538477D01*
X134969219Y-71475220D01*
X135151610Y-71382287D01*
X135247901Y-71312328D01*
X135317213Y-71261971D01*
X135317215Y-71261968D01*
X135317219Y-71261966D01*
X135461966Y-71117219D01*
X135461968Y-71117215D01*
X135461971Y-71117213D01*
X135582284Y-70951614D01*
X135582283Y-70951614D01*
X135582287Y-70951610D01*
X135629516Y-70858917D01*
X135677489Y-70808123D01*
X135745310Y-70791328D01*
X135811445Y-70813865D01*
X135850485Y-70858919D01*
X135897715Y-70951614D01*
X136018028Y-71117213D01*
X136162786Y-71261971D01*
X136317749Y-71374556D01*
X136328390Y-71382287D01*
X136417212Y-71427544D01*
X136510776Y-71475218D01*
X136510778Y-71475218D01*
X136510781Y-71475220D01*
X136615137Y-71509127D01*
X136705465Y-71538477D01*
X136806557Y-71554488D01*
X136907648Y-71570500D01*
X136907649Y-71570500D01*
X137112351Y-71570500D01*
X137112352Y-71570500D01*
X137314534Y-71538477D01*
X137509219Y-71475220D01*
X137691610Y-71382287D01*
X137787901Y-71312328D01*
X137857213Y-71261971D01*
X137857215Y-71261968D01*
X137857219Y-71261966D01*
X138001966Y-71117219D01*
X138001968Y-71117215D01*
X138001971Y-71117213D01*
X138122284Y-70951614D01*
X138122283Y-70951614D01*
X138122287Y-70951610D01*
X138169516Y-70858917D01*
X138175497Y-70852584D01*
X138178262Y-70844324D01*
X138199118Y-70827573D01*
X138217489Y-70808123D01*
X138225945Y-70806028D01*
X138232738Y-70800574D01*
X138259342Y-70797758D01*
X138285310Y-70791328D01*
X138293555Y-70794137D01*
X138302220Y-70793221D01*
X138326123Y-70805236D01*
X138351445Y-70813865D01*
X138358500Y-70821510D01*
X138364647Y-70824600D01*
X138379242Y-70843985D01*
X138386747Y-70852118D01*
X138388720Y-70855456D01*
X138437713Y-70951610D01*
X138479768Y-71009495D01*
X138482747Y-71014534D01*
X138489947Y-71042943D01*
X138499798Y-71070550D01*
X138500000Y-71077630D01*
X138500000Y-85575766D01*
X138480315Y-85642805D01*
X138427511Y-85688560D01*
X138358353Y-85698504D01*
X138294797Y-85669479D01*
X138288319Y-85663447D01*
X138203629Y-85578757D01*
X138203622Y-85578751D01*
X138026782Y-85443058D01*
X138026780Y-85443057D01*
X138026774Y-85443052D01*
X137833726Y-85331595D01*
X137833722Y-85331593D01*
X137627790Y-85246293D01*
X137627783Y-85246291D01*
X137627781Y-85246290D01*
X137412463Y-85188596D01*
X137412457Y-85188595D01*
X137412452Y-85188594D01*
X137191466Y-85159501D01*
X137191463Y-85159500D01*
X137191457Y-85159500D01*
X136968543Y-85159500D01*
X136968537Y-85159500D01*
X136968533Y-85159501D01*
X136747547Y-85188594D01*
X136747540Y-85188595D01*
X136747537Y-85188596D01*
X136610981Y-85225186D01*
X136532219Y-85246290D01*
X136532209Y-85246293D01*
X136326277Y-85331593D01*
X136326273Y-85331595D01*
X136133226Y-85443052D01*
X136133217Y-85443058D01*
X135956377Y-85578751D01*
X135956370Y-85578757D01*
X135798757Y-85736370D01*
X135798751Y-85736377D01*
X135663058Y-85913217D01*
X135663052Y-85913226D01*
X135551595Y-86106273D01*
X135551593Y-86106277D01*
X135466293Y-86312209D01*
X135466290Y-86312219D01*
X135408597Y-86527534D01*
X135408594Y-86527547D01*
X135379501Y-86748533D01*
X135379500Y-86748549D01*
X135379500Y-86971450D01*
X135379501Y-86971466D01*
X135408594Y-87192452D01*
X135408595Y-87192457D01*
X135408596Y-87192463D01*
X135466290Y-87407780D01*
X135466293Y-87407790D01*
X135496994Y-87481908D01*
X135551595Y-87613726D01*
X135663052Y-87806774D01*
X135663057Y-87806780D01*
X135663058Y-87806782D01*
X135798751Y-87983622D01*
X135798757Y-87983629D01*
X135956370Y-88141242D01*
X135956376Y-88141247D01*
X136133226Y-88276948D01*
X136326274Y-88388405D01*
X136532219Y-88473710D01*
X136554035Y-88479555D01*
X136609621Y-88511648D01*
X136842490Y-88744517D01*
X137033566Y-88883343D01*
X137132992Y-88934003D01*
X137244003Y-88990566D01*
X137244005Y-88990566D01*
X137244008Y-88990568D01*
X137364412Y-89029689D01*
X137468631Y-89063553D01*
X137701903Y-89100500D01*
X138376000Y-89100500D01*
X138443039Y-89120185D01*
X138488794Y-89172989D01*
X138500000Y-89224500D01*
X138500000Y-90595480D01*
X138480315Y-90662519D01*
X138427511Y-90708274D01*
X138395398Y-90717953D01*
X138278631Y-90736447D01*
X138054003Y-90809433D01*
X137843565Y-90916657D01*
X137652488Y-91055484D01*
X137652487Y-91055485D01*
X136609621Y-92098350D01*
X136554038Y-92130443D01*
X136538771Y-92134534D01*
X136532219Y-92136290D01*
X136532217Y-92136290D01*
X136532216Y-92136291D01*
X136326282Y-92221590D01*
X136326273Y-92221595D01*
X136133226Y-92333052D01*
X136133217Y-92333058D01*
X135956377Y-92468751D01*
X135956370Y-92468757D01*
X135798757Y-92626370D01*
X135798751Y-92626377D01*
X135663058Y-92803217D01*
X135663052Y-92803226D01*
X135551595Y-92996273D01*
X135551593Y-92996277D01*
X135466293Y-93202209D01*
X135466290Y-93202219D01*
X135408597Y-93417534D01*
X135408594Y-93417547D01*
X135379501Y-93638533D01*
X135379500Y-93638549D01*
X135379500Y-93861450D01*
X135379501Y-93861466D01*
X135408594Y-94082452D01*
X135408595Y-94082457D01*
X135408596Y-94082463D01*
X135466290Y-94297780D01*
X135466293Y-94297790D01*
X135551593Y-94503722D01*
X135551595Y-94503726D01*
X135663052Y-94696774D01*
X135663057Y-94696780D01*
X135663058Y-94696782D01*
X135798751Y-94873622D01*
X135798757Y-94873629D01*
X135956370Y-95031242D01*
X135956377Y-95031248D01*
X136082294Y-95127867D01*
X136133226Y-95166948D01*
X136326274Y-95278405D01*
X136532219Y-95363710D01*
X136747537Y-95421404D01*
X136968543Y-95450500D01*
X136968550Y-95450500D01*
X137191450Y-95450500D01*
X137191457Y-95450500D01*
X137412463Y-95421404D01*
X137627781Y-95363710D01*
X137833726Y-95278405D01*
X138026774Y-95166948D01*
X138203624Y-95031247D01*
X138215537Y-95019334D01*
X138288319Y-94946553D01*
X138349642Y-94913068D01*
X138419334Y-94918052D01*
X138475267Y-94959924D01*
X138499684Y-95025388D01*
X138500000Y-95034234D01*
X138500000Y-99355766D01*
X138480315Y-99422805D01*
X138427511Y-99468560D01*
X138358353Y-99478504D01*
X138294797Y-99449479D01*
X138288319Y-99443447D01*
X138203629Y-99358757D01*
X138203622Y-99358751D01*
X138026782Y-99223058D01*
X138026780Y-99223057D01*
X138026774Y-99223052D01*
X137833726Y-99111595D01*
X137833717Y-99111590D01*
X137627782Y-99026290D01*
X137605962Y-99020443D01*
X137550378Y-98988350D01*
X128417512Y-89855485D01*
X128417511Y-89855484D01*
X128397735Y-89841116D01*
X128226434Y-89716657D01*
X128193374Y-89699812D01*
X128015996Y-89609433D01*
X127791368Y-89536446D01*
X127558097Y-89499500D01*
X127558092Y-89499500D01*
X113881908Y-89499500D01*
X113881903Y-89499500D01*
X113648631Y-89536446D01*
X113424003Y-89609433D01*
X113213566Y-89716657D01*
X113104550Y-89795862D01*
X113022490Y-89855483D01*
X113022488Y-89855485D01*
X113022487Y-89855485D01*
X112855485Y-90022487D01*
X112855485Y-90022488D01*
X112855483Y-90022490D01*
X112838277Y-90046172D01*
X112716657Y-90213567D01*
X112708628Y-90229324D01*
X112660652Y-90280119D01*
X112592831Y-90296913D01*
X112526696Y-90274374D01*
X112497826Y-90245912D01*
X112453830Y-90185357D01*
X112453825Y-90185351D01*
X112314648Y-90046174D01*
X112314646Y-90046172D01*
X112155405Y-89930476D01*
X111980029Y-89841117D01*
X111792826Y-89780290D01*
X111598422Y-89749500D01*
X111598417Y-89749500D01*
X110499751Y-89749500D01*
X110432712Y-89729815D01*
X110400485Y-89699812D01*
X110357548Y-89642457D01*
X110357546Y-89642454D01*
X110313436Y-89609433D01*
X110242335Y-89556206D01*
X110242328Y-89556202D01*
X110107482Y-89505908D01*
X110107483Y-89505908D01*
X110047883Y-89499501D01*
X110047881Y-89499500D01*
X110047873Y-89499500D01*
X110047864Y-89499500D01*
X107952129Y-89499500D01*
X107952123Y-89499501D01*
X107892516Y-89505908D01*
X107757671Y-89556202D01*
X107757664Y-89556206D01*
X107642455Y-89642452D01*
X107642452Y-89642455D01*
X107556206Y-89757664D01*
X107556202Y-89757671D01*
X107505908Y-89892517D01*
X107499501Y-89952116D01*
X107499500Y-89952135D01*
X107499500Y-92047870D01*
X107499501Y-92047876D01*
X107505908Y-92107483D01*
X107556202Y-92242328D01*
X107556206Y-92242335D01*
X107642452Y-92357544D01*
X107642455Y-92357547D01*
X107757664Y-92443793D01*
X107757671Y-92443797D01*
X107892517Y-92494091D01*
X107892516Y-92494091D01*
X107899444Y-92494835D01*
X107952127Y-92500500D01*
X110047872Y-92500499D01*
X110101407Y-92494744D01*
X110112247Y-92493579D01*
X110181006Y-92505986D01*
X110232143Y-92553597D01*
X110249500Y-92616869D01*
X110249500Y-92973422D01*
X110280290Y-93167826D01*
X110341117Y-93355030D01*
X110430476Y-93530405D01*
X110546172Y-93689646D01*
X134420554Y-117564029D01*
X134427415Y-117569014D01*
X134470082Y-117624341D01*
X134476063Y-117693954D01*
X134454850Y-117742218D01*
X134377715Y-117848386D01*
X134330485Y-117941080D01*
X134282510Y-117991876D01*
X134214689Y-118008671D01*
X134148554Y-117986134D01*
X134109515Y-117941080D01*
X134108883Y-117939840D01*
X134062287Y-117848390D01*
X134048860Y-117829909D01*
X133941971Y-117682786D01*
X133797213Y-117538028D01*
X133631613Y-117417715D01*
X133631612Y-117417714D01*
X133631610Y-117417713D01*
X133574653Y-117388691D01*
X133449223Y-117324781D01*
X133254534Y-117261522D01*
X133079995Y-117233878D01*
X133052352Y-117229500D01*
X132847648Y-117229500D01*
X132823329Y-117233351D01*
X132645465Y-117261522D01*
X132450776Y-117324781D01*
X132268386Y-117417715D01*
X132102786Y-117538028D01*
X131958028Y-117682786D01*
X131837715Y-117848386D01*
X131790485Y-117941080D01*
X131742510Y-117991876D01*
X131674689Y-118008671D01*
X131608554Y-117986134D01*
X131569515Y-117941080D01*
X131568883Y-117939840D01*
X131522287Y-117848390D01*
X131508860Y-117829909D01*
X131401971Y-117682786D01*
X131257213Y-117538028D01*
X131091613Y-117417715D01*
X131091612Y-117417714D01*
X131091610Y-117417713D01*
X131034653Y-117388691D01*
X130909223Y-117324781D01*
X130714534Y-117261522D01*
X130539995Y-117233878D01*
X130512352Y-117229500D01*
X130307648Y-117229500D01*
X130283329Y-117233351D01*
X130105465Y-117261522D01*
X129910776Y-117324781D01*
X129728386Y-117417715D01*
X129562786Y-117538028D01*
X129418028Y-117682786D01*
X129297715Y-117848386D01*
X129250485Y-117941080D01*
X129202510Y-117991876D01*
X129134689Y-118008671D01*
X129068554Y-117986134D01*
X129029515Y-117941080D01*
X129028883Y-117939840D01*
X128982287Y-117848390D01*
X128968860Y-117829909D01*
X128861971Y-117682786D01*
X128717213Y-117538028D01*
X128551613Y-117417715D01*
X128551612Y-117417714D01*
X128551610Y-117417713D01*
X128494653Y-117388691D01*
X128369223Y-117324781D01*
X128174534Y-117261522D01*
X127999995Y-117233878D01*
X127972352Y-117229500D01*
X127767648Y-117229500D01*
X127743329Y-117233351D01*
X127565465Y-117261522D01*
X127370776Y-117324781D01*
X127188386Y-117417715D01*
X127022786Y-117538028D01*
X126878028Y-117682786D01*
X126757715Y-117848386D01*
X126710485Y-117941080D01*
X126662510Y-117991876D01*
X126594689Y-118008671D01*
X126528554Y-117986134D01*
X126489515Y-117941080D01*
X126488883Y-117939840D01*
X126442287Y-117848390D01*
X126428860Y-117829909D01*
X126321971Y-117682786D01*
X126177213Y-117538028D01*
X126011613Y-117417715D01*
X126011612Y-117417714D01*
X126011610Y-117417713D01*
X125954653Y-117388691D01*
X125829223Y-117324781D01*
X125634534Y-117261522D01*
X125459995Y-117233878D01*
X125432352Y-117229500D01*
X125227648Y-117229500D01*
X125203329Y-117233351D01*
X125025465Y-117261522D01*
X124830776Y-117324781D01*
X124648386Y-117417715D01*
X124482786Y-117538028D01*
X124338028Y-117682786D01*
X124217715Y-117848386D01*
X124170485Y-117941080D01*
X124122510Y-117991876D01*
X124054689Y-118008671D01*
X123988554Y-117986134D01*
X123949515Y-117941080D01*
X123948883Y-117939840D01*
X123902287Y-117848390D01*
X123888860Y-117829909D01*
X123781971Y-117682786D01*
X123637213Y-117538028D01*
X123471613Y-117417715D01*
X123471612Y-117417714D01*
X123471610Y-117417713D01*
X123414653Y-117388691D01*
X123289223Y-117324781D01*
X123094534Y-117261522D01*
X122919995Y-117233878D01*
X122892352Y-117229500D01*
X122687648Y-117229500D01*
X122663329Y-117233351D01*
X122485465Y-117261522D01*
X122290776Y-117324781D01*
X122108386Y-117417715D01*
X121942786Y-117538028D01*
X121798028Y-117682786D01*
X121677715Y-117848386D01*
X121584781Y-118030776D01*
X121521522Y-118225465D01*
X121489500Y-118427648D01*
X121489500Y-118632351D01*
X121521522Y-118834534D01*
X121584781Y-119029223D01*
X121677715Y-119211613D01*
X121798028Y-119377213D01*
X121942786Y-119521971D01*
X122097749Y-119634556D01*
X122108390Y-119642287D01*
X122224607Y-119701503D01*
X122290776Y-119735218D01*
X122290778Y-119735218D01*
X122290781Y-119735220D01*
X122395137Y-119769127D01*
X122485465Y-119798477D01*
X122586557Y-119814488D01*
X122687648Y-119830500D01*
X122687649Y-119830500D01*
X122892351Y-119830500D01*
X122892352Y-119830500D01*
X123094534Y-119798477D01*
X123289219Y-119735220D01*
X123471610Y-119642287D01*
X123564590Y-119574732D01*
X123637213Y-119521971D01*
X123637215Y-119521968D01*
X123637219Y-119521966D01*
X123781966Y-119377219D01*
X123781968Y-119377215D01*
X123781971Y-119377213D01*
X123902284Y-119211614D01*
X123902285Y-119211613D01*
X123902287Y-119211610D01*
X123949516Y-119118917D01*
X123997489Y-119068123D01*
X124065310Y-119051328D01*
X124131445Y-119073865D01*
X124170485Y-119118919D01*
X124217715Y-119211614D01*
X124338028Y-119377213D01*
X124482786Y-119521971D01*
X124637749Y-119634556D01*
X124648390Y-119642287D01*
X124764607Y-119701503D01*
X124830776Y-119735218D01*
X124830778Y-119735218D01*
X124830781Y-119735220D01*
X124935137Y-119769127D01*
X125025465Y-119798477D01*
X125126557Y-119814488D01*
X125227648Y-119830500D01*
X125227649Y-119830500D01*
X125432351Y-119830500D01*
X125432352Y-119830500D01*
X125634534Y-119798477D01*
X125829219Y-119735220D01*
X126011610Y-119642287D01*
X126104590Y-119574732D01*
X126177213Y-119521971D01*
X126177215Y-119521968D01*
X126177219Y-119521966D01*
X126321966Y-119377219D01*
X126321968Y-119377215D01*
X126321971Y-119377213D01*
X126442284Y-119211614D01*
X126442285Y-119211613D01*
X126442287Y-119211610D01*
X126489516Y-119118917D01*
X126537489Y-119068123D01*
X126605310Y-119051328D01*
X126671445Y-119073865D01*
X126710485Y-119118919D01*
X126757715Y-119211614D01*
X126878028Y-119377213D01*
X127022786Y-119521971D01*
X127177749Y-119634556D01*
X127188390Y-119642287D01*
X127304607Y-119701503D01*
X127370776Y-119735218D01*
X127370778Y-119735218D01*
X127370781Y-119735220D01*
X127475137Y-119769127D01*
X127565465Y-119798477D01*
X127666557Y-119814488D01*
X127767648Y-119830500D01*
X127767649Y-119830500D01*
X127972351Y-119830500D01*
X127972352Y-119830500D01*
X128174534Y-119798477D01*
X128369219Y-119735220D01*
X128551610Y-119642287D01*
X128644590Y-119574732D01*
X128717213Y-119521971D01*
X128717215Y-119521968D01*
X128717219Y-119521966D01*
X128861966Y-119377219D01*
X128861968Y-119377215D01*
X128861971Y-119377213D01*
X128982284Y-119211614D01*
X128982285Y-119211613D01*
X128982287Y-119211610D01*
X129029516Y-119118917D01*
X129077489Y-119068123D01*
X129145310Y-119051328D01*
X129211445Y-119073865D01*
X129250485Y-119118919D01*
X129297715Y-119211614D01*
X129418028Y-119377213D01*
X129562786Y-119521971D01*
X129717749Y-119634556D01*
X129728390Y-119642287D01*
X129844607Y-119701503D01*
X129910776Y-119735218D01*
X129910778Y-119735218D01*
X129910781Y-119735220D01*
X130015137Y-119769127D01*
X130105465Y-119798477D01*
X130206557Y-119814488D01*
X130307648Y-119830500D01*
X130307649Y-119830500D01*
X130512351Y-119830500D01*
X130512352Y-119830500D01*
X130714534Y-119798477D01*
X130909219Y-119735220D01*
X131091610Y-119642287D01*
X131184590Y-119574732D01*
X131257213Y-119521971D01*
X131257215Y-119521968D01*
X131257219Y-119521966D01*
X131401966Y-119377219D01*
X131401968Y-119377215D01*
X131401971Y-119377213D01*
X131522284Y-119211614D01*
X131522285Y-119211613D01*
X131522287Y-119211610D01*
X131569516Y-119118917D01*
X131617489Y-119068123D01*
X131685310Y-119051328D01*
X131751445Y-119073865D01*
X131790485Y-119118919D01*
X131837715Y-119211614D01*
X131958028Y-119377213D01*
X132102786Y-119521971D01*
X132257749Y-119634556D01*
X132268390Y-119642287D01*
X132384607Y-119701503D01*
X132450776Y-119735218D01*
X132450778Y-119735218D01*
X132450781Y-119735220D01*
X132555137Y-119769127D01*
X132645465Y-119798477D01*
X132746557Y-119814488D01*
X132847648Y-119830500D01*
X132847649Y-119830500D01*
X133052351Y-119830500D01*
X133052352Y-119830500D01*
X133254534Y-119798477D01*
X133449219Y-119735220D01*
X133631610Y-119642287D01*
X133724590Y-119574732D01*
X133797213Y-119521971D01*
X133797215Y-119521968D01*
X133797219Y-119521966D01*
X133941966Y-119377219D01*
X133941968Y-119377215D01*
X133941971Y-119377213D01*
X134062284Y-119211614D01*
X134062285Y-119211613D01*
X134062287Y-119211610D01*
X134109516Y-119118917D01*
X134157489Y-119068123D01*
X134225310Y-119051328D01*
X134291445Y-119073865D01*
X134330485Y-119118919D01*
X134377715Y-119211614D01*
X134498028Y-119377213D01*
X134642786Y-119521971D01*
X134797749Y-119634556D01*
X134808390Y-119642287D01*
X134924607Y-119701503D01*
X134990776Y-119735218D01*
X134990778Y-119735218D01*
X134990781Y-119735220D01*
X135095137Y-119769127D01*
X135185465Y-119798477D01*
X135286557Y-119814488D01*
X135387648Y-119830500D01*
X135387649Y-119830500D01*
X135592351Y-119830500D01*
X135592352Y-119830500D01*
X135794534Y-119798477D01*
X135989219Y-119735220D01*
X136171610Y-119642287D01*
X136264590Y-119574732D01*
X136337213Y-119521971D01*
X136337215Y-119521968D01*
X136337219Y-119521966D01*
X136481966Y-119377219D01*
X136481968Y-119377215D01*
X136481971Y-119377213D01*
X136602284Y-119211614D01*
X136602285Y-119211613D01*
X136602287Y-119211610D01*
X136649516Y-119118917D01*
X136697489Y-119068123D01*
X136765310Y-119051328D01*
X136831445Y-119073865D01*
X136870485Y-119118919D01*
X136917715Y-119211614D01*
X137038028Y-119377213D01*
X137182786Y-119521971D01*
X137337749Y-119634556D01*
X137348390Y-119642287D01*
X137464607Y-119701503D01*
X137530776Y-119735218D01*
X137530778Y-119735218D01*
X137530781Y-119735220D01*
X137635137Y-119769127D01*
X137725465Y-119798477D01*
X137826557Y-119814488D01*
X137927648Y-119830500D01*
X137927649Y-119830500D01*
X138132351Y-119830500D01*
X138132352Y-119830500D01*
X138334534Y-119798477D01*
X138337673Y-119797456D01*
X138338932Y-119797420D01*
X138339269Y-119797340D01*
X138339285Y-119797410D01*
X138407512Y-119795455D01*
X138467348Y-119831530D01*
X138498182Y-119894228D01*
X138500000Y-119915384D01*
X138500000Y-121375500D01*
X138480315Y-121442539D01*
X138427511Y-121488294D01*
X138376000Y-121499500D01*
X103624500Y-121499500D01*
X103557461Y-121479815D01*
X103511706Y-121427011D01*
X103500500Y-121375500D01*
X103500500Y-85859984D01*
X122679500Y-85859984D01*
X122679500Y-87860015D01*
X122690000Y-87962795D01*
X122690001Y-87962797D01*
X122696904Y-87983629D01*
X122745186Y-88129335D01*
X122745187Y-88129337D01*
X122837286Y-88278651D01*
X122837289Y-88278655D01*
X122961344Y-88402710D01*
X122961348Y-88402713D01*
X123110662Y-88494812D01*
X123110664Y-88494813D01*
X123110666Y-88494814D01*
X123277203Y-88549999D01*
X123379992Y-88560500D01*
X123379997Y-88560500D01*
X125380003Y-88560500D01*
X125380008Y-88560500D01*
X125482797Y-88549999D01*
X125649334Y-88494814D01*
X125798655Y-88402711D01*
X125922711Y-88278655D01*
X126014814Y-88129334D01*
X126069999Y-87962797D01*
X126080500Y-87860008D01*
X126080500Y-85859992D01*
X126069999Y-85757203D01*
X126014814Y-85590666D01*
X126007468Y-85578757D01*
X125922713Y-85441348D01*
X125922710Y-85441344D01*
X125798655Y-85317289D01*
X125798651Y-85317286D01*
X125649337Y-85225187D01*
X125649335Y-85225186D01*
X125538907Y-85188594D01*
X125482797Y-85170001D01*
X125482795Y-85170000D01*
X125380015Y-85159500D01*
X125380008Y-85159500D01*
X123379992Y-85159500D01*
X123379984Y-85159500D01*
X123277204Y-85170000D01*
X123277203Y-85170001D01*
X123110664Y-85225186D01*
X123110662Y-85225187D01*
X122961348Y-85317286D01*
X122961344Y-85317289D01*
X122837289Y-85441344D01*
X122837286Y-85441348D01*
X122745187Y-85590662D01*
X122745186Y-85590664D01*
X122690001Y-85757203D01*
X122690000Y-85757204D01*
X122679500Y-85859984D01*
X103500500Y-85859984D01*
X103500500Y-67624500D01*
X103520185Y-67557461D01*
X103572989Y-67511706D01*
X103624500Y-67500500D01*
X138376000Y-67500500D01*
X138443039Y-67520185D01*
G37*
%TD.AperFunction*%
%TA.AperFunction,NonConductor*%
G36*
X194442539Y-64520185D02*
G01*
X194488294Y-64572989D01*
X194499500Y-64624500D01*
X194499500Y-124375500D01*
X194479815Y-124442539D01*
X194427011Y-124488294D01*
X194375500Y-124499500D01*
X180147424Y-124499500D01*
X180091970Y-124486409D01*
X179169012Y-124024930D01*
X179162945Y-124021683D01*
X176562479Y-122535702D01*
X176514038Y-122485350D01*
X176500000Y-122428040D01*
X176500000Y-116284500D01*
X176502550Y-116275814D01*
X176501262Y-116266853D01*
X176512240Y-116242812D01*
X176519685Y-116217461D01*
X176526525Y-116211533D01*
X176530287Y-116203297D01*
X176552521Y-116189007D01*
X176572489Y-116171706D01*
X176583003Y-116169418D01*
X176589065Y-116165523D01*
X176624000Y-116160500D01*
X176739411Y-116160500D01*
X176806450Y-116180185D01*
X176827092Y-116196819D01*
X180754483Y-120124210D01*
X180921490Y-120291217D01*
X181112566Y-120430043D01*
X181211992Y-120480703D01*
X181323003Y-120537266D01*
X181323005Y-120537266D01*
X181323008Y-120537268D01*
X181443412Y-120576389D01*
X181547631Y-120610253D01*
X181780903Y-120647200D01*
X181780908Y-120647200D01*
X182017097Y-120647200D01*
X182250368Y-120610253D01*
X182474992Y-120537268D01*
X182685434Y-120430043D01*
X182876510Y-120291217D01*
X190550909Y-112616819D01*
X190612232Y-112583334D01*
X190638590Y-112580500D01*
X192118097Y-112580500D01*
X192351368Y-112543553D01*
X192575992Y-112470568D01*
X192786433Y-112363343D01*
X192977510Y-112224517D01*
X193144517Y-112057510D01*
X193283343Y-111866433D01*
X193390568Y-111655992D01*
X193463553Y-111431368D01*
X193469392Y-111394500D01*
X193500500Y-111198097D01*
X193500500Y-110961902D01*
X193463553Y-110728631D01*
X193390566Y-110504003D01*
X193283342Y-110293566D01*
X193144517Y-110102490D01*
X192977510Y-109935483D01*
X192815275Y-109817612D01*
X192772611Y-109762283D01*
X192766632Y-109692669D01*
X192799238Y-109630874D01*
X192815278Y-109616976D01*
X192879788Y-109570107D01*
X192879788Y-109570106D01*
X192879792Y-109570104D01*
X193030104Y-109419792D01*
X193030106Y-109419788D01*
X193030109Y-109419786D01*
X193155048Y-109247820D01*
X193155047Y-109247820D01*
X193155051Y-109247816D01*
X193251557Y-109058412D01*
X193317246Y-108856243D01*
X193350500Y-108646287D01*
X193350500Y-108433713D01*
X193317246Y-108223757D01*
X193251557Y-108021588D01*
X193155051Y-107832184D01*
X193155049Y-107832181D01*
X193155048Y-107832179D01*
X193030109Y-107660213D01*
X192916569Y-107546673D01*
X192883084Y-107485350D01*
X192888068Y-107415658D01*
X192929940Y-107359725D01*
X192960915Y-107342810D01*
X193092331Y-107293796D01*
X193207546Y-107207546D01*
X193293796Y-107092331D01*
X193344091Y-106957483D01*
X193350500Y-106897873D01*
X193350499Y-105102128D01*
X193344091Y-105042517D01*
X193338022Y-105026246D01*
X193293797Y-104907671D01*
X193293793Y-104907664D01*
X193207547Y-104792455D01*
X193207544Y-104792452D01*
X193092335Y-104706206D01*
X193092328Y-104706202D01*
X192957482Y-104655908D01*
X192957483Y-104655908D01*
X192897883Y-104649501D01*
X192897881Y-104649500D01*
X192897873Y-104649500D01*
X192897864Y-104649500D01*
X191102129Y-104649500D01*
X191102123Y-104649501D01*
X191042516Y-104655908D01*
X190907671Y-104706202D01*
X190907664Y-104706206D01*
X190792455Y-104792452D01*
X190792452Y-104792455D01*
X190706207Y-104907663D01*
X190706202Y-104907672D01*
X190704888Y-104911196D01*
X190702635Y-104914204D01*
X190701955Y-104915451D01*
X190701775Y-104915353D01*
X190663015Y-104967128D01*
X190597549Y-104991542D01*
X190569317Y-104990332D01*
X190562800Y-104989300D01*
X190562792Y-104989300D01*
X190326608Y-104989300D01*
X190326603Y-104989300D01*
X190093331Y-105026246D01*
X189868703Y-105099233D01*
X189658263Y-105206459D01*
X189467196Y-105345276D01*
X189467191Y-105345280D01*
X188758185Y-106054287D01*
X188758184Y-106054288D01*
X188619357Y-106245365D01*
X188595680Y-106291835D01*
X188512133Y-106455803D01*
X188439146Y-106680431D01*
X188402200Y-106913702D01*
X188402200Y-110470109D01*
X188382515Y-110537148D01*
X188365881Y-110557790D01*
X181986680Y-116936991D01*
X181925357Y-116970476D01*
X181855665Y-116965492D01*
X181811318Y-116936991D01*
X178389811Y-113515484D01*
X178198734Y-113376657D01*
X177988296Y-113269433D01*
X177763668Y-113196446D01*
X177530397Y-113159500D01*
X177530392Y-113159500D01*
X176624000Y-113159500D01*
X176556961Y-113139815D01*
X176511206Y-113087011D01*
X176500000Y-113035500D01*
X176500000Y-112686344D01*
X180496800Y-112686344D01*
X180496800Y-112907055D01*
X180531327Y-113125050D01*
X180599528Y-113334955D01*
X180599529Y-113334958D01*
X180691512Y-113515483D01*
X180699731Y-113531613D01*
X180829462Y-113710172D01*
X180985528Y-113866238D01*
X181164087Y-113995969D01*
X181260540Y-114045114D01*
X181360741Y-114096170D01*
X181360744Y-114096171D01*
X181465696Y-114130271D01*
X181570651Y-114164373D01*
X181788644Y-114198900D01*
X181788645Y-114198900D01*
X182009355Y-114198900D01*
X182009356Y-114198900D01*
X182227349Y-114164373D01*
X182437258Y-114096170D01*
X182633913Y-113995969D01*
X182812472Y-113866238D01*
X182968538Y-113710172D01*
X183098269Y-113531613D01*
X183198470Y-113334958D01*
X183266673Y-113125049D01*
X183301200Y-112907056D01*
X183301200Y-112686344D01*
X183266673Y-112468351D01*
X183198470Y-112258442D01*
X183198470Y-112258441D01*
X183098268Y-112061786D01*
X183095162Y-112057511D01*
X182968538Y-111883228D01*
X182812472Y-111727162D01*
X182633913Y-111597431D01*
X182437258Y-111497229D01*
X182437255Y-111497228D01*
X182227350Y-111429027D01*
X182118352Y-111411763D01*
X182009356Y-111394500D01*
X181788644Y-111394500D01*
X181715979Y-111406009D01*
X181570649Y-111429027D01*
X181360744Y-111497228D01*
X181360741Y-111497229D01*
X181164086Y-111597431D01*
X181083485Y-111655992D01*
X180985528Y-111727162D01*
X180985526Y-111727164D01*
X180985525Y-111727164D01*
X180829464Y-111883225D01*
X180829464Y-111883226D01*
X180829462Y-111883228D01*
X180773747Y-111959912D01*
X180699731Y-112061786D01*
X180599529Y-112258441D01*
X180599528Y-112258444D01*
X180531327Y-112468349D01*
X180496800Y-112686344D01*
X176500000Y-112686344D01*
X176500000Y-104979644D01*
X180437800Y-104979644D01*
X180437800Y-105200355D01*
X180472327Y-105418350D01*
X180540528Y-105628255D01*
X180540529Y-105628258D01*
X180640731Y-105824913D01*
X180770462Y-106003472D01*
X180926528Y-106159538D01*
X181105087Y-106289269D01*
X181201540Y-106338414D01*
X181301741Y-106389470D01*
X181301744Y-106389471D01*
X181406696Y-106423571D01*
X181511651Y-106457673D01*
X181729644Y-106492200D01*
X181729645Y-106492200D01*
X181950355Y-106492200D01*
X181950356Y-106492200D01*
X182168349Y-106457673D01*
X182378258Y-106389470D01*
X182574913Y-106289269D01*
X182753472Y-106159538D01*
X182909538Y-106003472D01*
X183039269Y-105824913D01*
X183139470Y-105628258D01*
X183207673Y-105418349D01*
X183242200Y-105200356D01*
X183242200Y-104979644D01*
X183207673Y-104761651D01*
X183139470Y-104551742D01*
X183139470Y-104551741D01*
X183039268Y-104355086D01*
X182909538Y-104176528D01*
X182753472Y-104020462D01*
X182574913Y-103890731D01*
X182378258Y-103790529D01*
X182378255Y-103790528D01*
X182168350Y-103722327D01*
X182059352Y-103705063D01*
X181950356Y-103687800D01*
X181729644Y-103687800D01*
X181656979Y-103699309D01*
X181511649Y-103722327D01*
X181301744Y-103790528D01*
X181301741Y-103790529D01*
X181105086Y-103890731D01*
X181003212Y-103964747D01*
X180926528Y-104020462D01*
X180926526Y-104020464D01*
X180926525Y-104020464D01*
X180770464Y-104176525D01*
X180770464Y-104176526D01*
X180770462Y-104176528D01*
X180714747Y-104253212D01*
X180640731Y-104355086D01*
X180540529Y-104551741D01*
X180540528Y-104551744D01*
X180472327Y-104761649D01*
X180437800Y-104979644D01*
X176500000Y-104979644D01*
X176500000Y-98424500D01*
X176519685Y-98357461D01*
X176572489Y-98311706D01*
X176624000Y-98300500D01*
X179227111Y-98300500D01*
X179294150Y-98320185D01*
X179314792Y-98336819D01*
X180862490Y-99884517D01*
X181053566Y-100023343D01*
X181264008Y-100130568D01*
X181264010Y-100130569D01*
X181376319Y-100167060D01*
X181488631Y-100203552D01*
X181596673Y-100220663D01*
X181721903Y-100240499D01*
X181721908Y-100240499D01*
X181958097Y-100240499D01*
X182071184Y-100222587D01*
X182191368Y-100203552D01*
X182415992Y-100130568D01*
X182626433Y-100023343D01*
X182817510Y-99884517D01*
X182984517Y-99717510D01*
X183123343Y-99526433D01*
X183230568Y-99315992D01*
X183303552Y-99091368D01*
X183322587Y-98971184D01*
X183340499Y-98858097D01*
X183340499Y-98621902D01*
X183304916Y-98397246D01*
X183303552Y-98388631D01*
X183230568Y-98164008D01*
X183123343Y-97953566D01*
X182984517Y-97762490D01*
X180877510Y-95655483D01*
X180686434Y-95516657D01*
X180475996Y-95409433D01*
X180251368Y-95336446D01*
X180018097Y-95299500D01*
X180018092Y-95299500D01*
X176624000Y-95299500D01*
X176556961Y-95279815D01*
X176511206Y-95227011D01*
X176500000Y-95175500D01*
X176500000Y-93507502D01*
X188447800Y-93507502D01*
X188447800Y-95606597D01*
X188484746Y-95839868D01*
X188557733Y-96064496D01*
X188626882Y-96200208D01*
X188664957Y-96274934D01*
X188803783Y-96466010D01*
X190072490Y-97734717D01*
X190263566Y-97873543D01*
X190362992Y-97924203D01*
X190474003Y-97980766D01*
X190474005Y-97980766D01*
X190474008Y-97980768D01*
X190594412Y-98019889D01*
X190698631Y-98053753D01*
X190931903Y-98090700D01*
X190931908Y-98090700D01*
X191053210Y-98090700D01*
X191120249Y-98110385D01*
X191126095Y-98114382D01*
X191230958Y-98190568D01*
X191292184Y-98235051D01*
X191481588Y-98331557D01*
X191683757Y-98397246D01*
X191893713Y-98430500D01*
X191893714Y-98430500D01*
X192106286Y-98430500D01*
X192106287Y-98430500D01*
X192316243Y-98397246D01*
X192518412Y-98331557D01*
X192707816Y-98235051D01*
X192769042Y-98190568D01*
X192879786Y-98110109D01*
X192879788Y-98110106D01*
X192879792Y-98110104D01*
X193030104Y-97959792D01*
X193030106Y-97959788D01*
X193030109Y-97959786D01*
X193155048Y-97787820D01*
X193155047Y-97787820D01*
X193155051Y-97787816D01*
X193251557Y-97598412D01*
X193317246Y-97396243D01*
X193350500Y-97186287D01*
X193350500Y-96973713D01*
X193317246Y-96763757D01*
X193251557Y-96561588D01*
X193155051Y-96372184D01*
X193155049Y-96372181D01*
X193155048Y-96372179D01*
X193030110Y-96200215D01*
X193030106Y-96200211D01*
X193030104Y-96200208D01*
X192879792Y-96049896D01*
X192879791Y-96049895D01*
X192877253Y-96047357D01*
X192875371Y-96045617D01*
X192704478Y-95874724D01*
X192670993Y-95813401D01*
X192675977Y-95743709D01*
X192717849Y-95687776D01*
X192719131Y-95686829D01*
X192879792Y-95570104D01*
X193030104Y-95419792D01*
X193030106Y-95419788D01*
X193030109Y-95419786D01*
X193155048Y-95247820D01*
X193155047Y-95247820D01*
X193155051Y-95247816D01*
X193251557Y-95058412D01*
X193317246Y-94856243D01*
X193350500Y-94646287D01*
X193350500Y-94433713D01*
X193317246Y-94223757D01*
X193251557Y-94021588D01*
X193155051Y-93832184D01*
X193155049Y-93832181D01*
X193155048Y-93832179D01*
X193030109Y-93660213D01*
X192916569Y-93546673D01*
X192883084Y-93485350D01*
X192888068Y-93415658D01*
X192929940Y-93359725D01*
X192960915Y-93342810D01*
X193092331Y-93293796D01*
X193207546Y-93207546D01*
X193293796Y-93092331D01*
X193344091Y-92957483D01*
X193350500Y-92897873D01*
X193350499Y-92684399D01*
X193364014Y-92628105D01*
X193390568Y-92575992D01*
X193463553Y-92351368D01*
X193476092Y-92272200D01*
X193500500Y-92118097D01*
X193500500Y-91881902D01*
X193463553Y-91648631D01*
X193390565Y-91424000D01*
X193364014Y-91371891D01*
X193350499Y-91315597D01*
X193350499Y-91102129D01*
X193350498Y-91102123D01*
X193344091Y-91042516D01*
X193293797Y-90907671D01*
X193293793Y-90907664D01*
X193207547Y-90792455D01*
X193207544Y-90792452D01*
X193092335Y-90706206D01*
X193092328Y-90706202D01*
X192957482Y-90655908D01*
X192957483Y-90655908D01*
X192897883Y-90649501D01*
X192897881Y-90649500D01*
X192897873Y-90649500D01*
X192897865Y-90649500D01*
X192684400Y-90649500D01*
X192628105Y-90635985D01*
X192575996Y-90609433D01*
X192351368Y-90536446D01*
X192118097Y-90499500D01*
X192118092Y-90499500D01*
X191455808Y-90499500D01*
X191455803Y-90499500D01*
X191222531Y-90536446D01*
X190997903Y-90609433D01*
X190787463Y-90716659D01*
X190596396Y-90855476D01*
X190596391Y-90855480D01*
X188803785Y-92648087D01*
X188803784Y-92648088D01*
X188664955Y-92839167D01*
X188594468Y-92977509D01*
X188594468Y-92977510D01*
X188557733Y-93049603D01*
X188484746Y-93274231D01*
X188447800Y-93507502D01*
X176500000Y-93507502D01*
X176500000Y-90759644D01*
X180517800Y-90759644D01*
X180517800Y-90980355D01*
X180552327Y-91198350D01*
X180620528Y-91408255D01*
X180620529Y-91408258D01*
X180720731Y-91604913D01*
X180850462Y-91783472D01*
X181006528Y-91939538D01*
X181185087Y-92069269D01*
X181280907Y-92118092D01*
X181381741Y-92169470D01*
X181381744Y-92169471D01*
X181486696Y-92203571D01*
X181591651Y-92237673D01*
X181809644Y-92272200D01*
X181809645Y-92272200D01*
X182030355Y-92272200D01*
X182030356Y-92272200D01*
X182248349Y-92237673D01*
X182458258Y-92169470D01*
X182654913Y-92069269D01*
X182833472Y-91939538D01*
X182989538Y-91783472D01*
X183119269Y-91604913D01*
X183219470Y-91408258D01*
X183287673Y-91198349D01*
X183322200Y-90980356D01*
X183322200Y-90759644D01*
X183287673Y-90541651D01*
X183219470Y-90331742D01*
X183219470Y-90331741D01*
X183119268Y-90135086D01*
X182989538Y-89956528D01*
X182833472Y-89800462D01*
X182654913Y-89670731D01*
X182458258Y-89570529D01*
X182458255Y-89570528D01*
X182248350Y-89502327D01*
X182139352Y-89485063D01*
X182030356Y-89467800D01*
X181809644Y-89467800D01*
X181736979Y-89479309D01*
X181591649Y-89502327D01*
X181381744Y-89570528D01*
X181381741Y-89570529D01*
X181185086Y-89670731D01*
X181083212Y-89744747D01*
X181006528Y-89800462D01*
X181006526Y-89800464D01*
X181006525Y-89800464D01*
X180850464Y-89956525D01*
X180850464Y-89956526D01*
X180850462Y-89956528D01*
X180794747Y-90033212D01*
X180720731Y-90135086D01*
X180620529Y-90331741D01*
X180620528Y-90331744D01*
X180552327Y-90541649D01*
X180517800Y-90759644D01*
X176500000Y-90759644D01*
X176500000Y-84624500D01*
X176519685Y-84557461D01*
X176572489Y-84511706D01*
X176624000Y-84500500D01*
X179727111Y-84500500D01*
X179794150Y-84520185D01*
X179814791Y-84536818D01*
X180584406Y-85306434D01*
X180942491Y-85664519D01*
X180942496Y-85664523D01*
X181109155Y-85785606D01*
X181133567Y-85803343D01*
X181267659Y-85871666D01*
X181344003Y-85910566D01*
X181344005Y-85910566D01*
X181344008Y-85910568D01*
X181464412Y-85949689D01*
X181568631Y-85983553D01*
X181801903Y-86020500D01*
X181801908Y-86020500D01*
X182038097Y-86020500D01*
X182167690Y-85999973D01*
X182271369Y-85983553D01*
X182495992Y-85910568D01*
X182706434Y-85803343D01*
X182897510Y-85664518D01*
X183064518Y-85497510D01*
X183203343Y-85306434D01*
X183310568Y-85095992D01*
X183383553Y-84871369D01*
X183399973Y-84767690D01*
X183420500Y-84638097D01*
X183420500Y-84401902D01*
X183383553Y-84168631D01*
X183310566Y-83944003D01*
X183271666Y-83867659D01*
X183203343Y-83733567D01*
X183088859Y-83575992D01*
X183064523Y-83542496D01*
X183064519Y-83542491D01*
X181377512Y-81855485D01*
X181377511Y-81855484D01*
X181186434Y-81716657D01*
X180975996Y-81609433D01*
X180751368Y-81536446D01*
X180518097Y-81499500D01*
X180518092Y-81499500D01*
X176624000Y-81499500D01*
X176556961Y-81479815D01*
X176511206Y-81427011D01*
X176500000Y-81375500D01*
X176500000Y-79874500D01*
X176519685Y-79807461D01*
X176572489Y-79761706D01*
X176624000Y-79750500D01*
X190172948Y-79750500D01*
X190239987Y-79770185D01*
X190260629Y-79786819D01*
X190377638Y-79903828D01*
X190536878Y-80019523D01*
X190712257Y-80108883D01*
X190737589Y-80117113D01*
X190795265Y-80156549D01*
X190809758Y-80178750D01*
X190844951Y-80247819D01*
X190969890Y-80419786D01*
X191083430Y-80533326D01*
X191116915Y-80594649D01*
X191111931Y-80664341D01*
X191070059Y-80720274D01*
X191039083Y-80737189D01*
X190907669Y-80786203D01*
X190907664Y-80786206D01*
X190792455Y-80872452D01*
X190792452Y-80872455D01*
X190706206Y-80987664D01*
X190706202Y-80987671D01*
X190655908Y-81122517D01*
X190649501Y-81182116D01*
X190649501Y-81182123D01*
X190649500Y-81182135D01*
X190649500Y-82977870D01*
X190649501Y-82977876D01*
X190655908Y-83037483D01*
X190706202Y-83172328D01*
X190706206Y-83172335D01*
X190792452Y-83287544D01*
X190792455Y-83287547D01*
X190907664Y-83373793D01*
X190907671Y-83373797D01*
X191042517Y-83424091D01*
X191042516Y-83424091D01*
X191049444Y-83424835D01*
X191102127Y-83430500D01*
X192897872Y-83430499D01*
X192957483Y-83424091D01*
X193092331Y-83373796D01*
X193207546Y-83287546D01*
X193293796Y-83172331D01*
X193344091Y-83037483D01*
X193350500Y-82977873D01*
X193350499Y-81182128D01*
X193344091Y-81122517D01*
X193293796Y-80987669D01*
X193293795Y-80987668D01*
X193293793Y-80987664D01*
X193207547Y-80872455D01*
X193207544Y-80872452D01*
X193092335Y-80786206D01*
X193092328Y-80786202D01*
X192960917Y-80737189D01*
X192904983Y-80695318D01*
X192880566Y-80629853D01*
X192895418Y-80561580D01*
X192916563Y-80533332D01*
X193030104Y-80419792D01*
X193155051Y-80247816D01*
X193251557Y-80058412D01*
X193317246Y-79856243D01*
X193350500Y-79646287D01*
X193350500Y-79433713D01*
X193317246Y-79223757D01*
X193251557Y-79021588D01*
X193155051Y-78832184D01*
X193155049Y-78832181D01*
X193155048Y-78832179D01*
X193030109Y-78660213D01*
X192879788Y-78509892D01*
X192815278Y-78463024D01*
X192772611Y-78407694D01*
X192766632Y-78338081D01*
X192799237Y-78276286D01*
X192815277Y-78262387D01*
X192977510Y-78144518D01*
X193144518Y-77977510D01*
X193283343Y-77786434D01*
X193390568Y-77575993D01*
X193463553Y-77351369D01*
X193474811Y-77280291D01*
X193500500Y-77118097D01*
X193500500Y-76881903D01*
X193463553Y-76648631D01*
X193390566Y-76424003D01*
X193351666Y-76347659D01*
X193283343Y-76213567D01*
X193265606Y-76189155D01*
X193144523Y-76022496D01*
X193144519Y-76022491D01*
X191977512Y-74855485D01*
X191977511Y-74855484D01*
X191786434Y-74716657D01*
X191575996Y-74609433D01*
X191351368Y-74536446D01*
X191118097Y-74499500D01*
X191118092Y-74499500D01*
X181881908Y-74499500D01*
X181881903Y-74499500D01*
X181648631Y-74536446D01*
X181424003Y-74609433D01*
X181213566Y-74716657D01*
X181104550Y-74795862D01*
X181022490Y-74855483D01*
X181022488Y-74855485D01*
X181022487Y-74855485D01*
X180855485Y-75022487D01*
X180855485Y-75022488D01*
X180855483Y-75022490D01*
X180795862Y-75104550D01*
X180716657Y-75213566D01*
X180609433Y-75424003D01*
X180536446Y-75648631D01*
X180499500Y-75881902D01*
X180499500Y-76118097D01*
X180536446Y-76351368D01*
X180609433Y-76575996D01*
X180716657Y-76786433D01*
X180855483Y-76977510D01*
X180855485Y-76977512D01*
X180915792Y-77037819D01*
X180949277Y-77099142D01*
X180944293Y-77168834D01*
X180902421Y-77224767D01*
X180836957Y-77249184D01*
X180828111Y-77249500D01*
X176624000Y-77249500D01*
X176556961Y-77229815D01*
X176511206Y-77177011D01*
X176500000Y-77125500D01*
X176500000Y-72921153D01*
X178699500Y-72921153D01*
X178699500Y-73078846D01*
X178730261Y-73233489D01*
X178730264Y-73233501D01*
X178790602Y-73379172D01*
X178790609Y-73379185D01*
X178878210Y-73510288D01*
X178878213Y-73510292D01*
X178989707Y-73621786D01*
X178989711Y-73621789D01*
X179120814Y-73709390D01*
X179120827Y-73709397D01*
X179266498Y-73769735D01*
X179266503Y-73769737D01*
X179421153Y-73800499D01*
X179421156Y-73800500D01*
X179421158Y-73800500D01*
X179578844Y-73800500D01*
X179578845Y-73800499D01*
X179733497Y-73769737D01*
X179879179Y-73709394D01*
X180010289Y-73621789D01*
X180121789Y-73510289D01*
X180209394Y-73379179D01*
X180269737Y-73233497D01*
X180300500Y-73078842D01*
X180300500Y-72921158D01*
X180300500Y-72921155D01*
X180300499Y-72921153D01*
X180269738Y-72766510D01*
X180269737Y-72766503D01*
X180269735Y-72766498D01*
X180209397Y-72620827D01*
X180209390Y-72620814D01*
X180121789Y-72489711D01*
X180121786Y-72489707D01*
X180010292Y-72378213D01*
X180010288Y-72378210D01*
X179879185Y-72290609D01*
X179879172Y-72290602D01*
X179733501Y-72230264D01*
X179733489Y-72230261D01*
X179578845Y-72199500D01*
X179578842Y-72199500D01*
X179421158Y-72199500D01*
X179421155Y-72199500D01*
X179266510Y-72230261D01*
X179266498Y-72230264D01*
X179120827Y-72290602D01*
X179120814Y-72290609D01*
X178989711Y-72378210D01*
X178989707Y-72378213D01*
X178878213Y-72489707D01*
X178878210Y-72489711D01*
X178790609Y-72620814D01*
X178790602Y-72620827D01*
X178730264Y-72766498D01*
X178730261Y-72766510D01*
X178699500Y-72921153D01*
X176500000Y-72921153D01*
X176500000Y-69885900D01*
X176519685Y-69818861D01*
X176572489Y-69773106D01*
X176624000Y-69761900D01*
X180292064Y-69761900D01*
X180359103Y-69781585D01*
X180379745Y-69798219D01*
X180646146Y-70064620D01*
X180676396Y-70113983D01*
X180700528Y-70188255D01*
X180700529Y-70188258D01*
X180800731Y-70384913D01*
X180930462Y-70563472D01*
X181086528Y-70719538D01*
X181265087Y-70849269D01*
X181361540Y-70898414D01*
X181461741Y-70949470D01*
X181461744Y-70949471D01*
X181566696Y-70983571D01*
X181671651Y-71017673D01*
X181889644Y-71052200D01*
X181889645Y-71052200D01*
X182110355Y-71052200D01*
X182110356Y-71052200D01*
X182328349Y-71017673D01*
X182538258Y-70949470D01*
X182734913Y-70849269D01*
X182913472Y-70719538D01*
X183069538Y-70563472D01*
X183199269Y-70384913D01*
X183299470Y-70188258D01*
X183367673Y-69978349D01*
X183402200Y-69760356D01*
X183402200Y-69539644D01*
X183367673Y-69321651D01*
X183299470Y-69111742D01*
X183299470Y-69111741D01*
X183199268Y-68915086D01*
X183069538Y-68736528D01*
X182913472Y-68580462D01*
X182734913Y-68450731D01*
X182660829Y-68412983D01*
X182538258Y-68350529D01*
X182538255Y-68350528D01*
X182463983Y-68326396D01*
X182414620Y-68296146D01*
X181676048Y-67557574D01*
X181676046Y-67557572D01*
X181516805Y-67441876D01*
X181341430Y-67352517D01*
X181154226Y-67291690D01*
X180959822Y-67260900D01*
X180959817Y-67260900D01*
X176624000Y-67260900D01*
X176615314Y-67258349D01*
X176606353Y-67259638D01*
X176582312Y-67248659D01*
X176556961Y-67241215D01*
X176551033Y-67234374D01*
X176542797Y-67230613D01*
X176528507Y-67208378D01*
X176511206Y-67188411D01*
X176508918Y-67177896D01*
X176505023Y-67171835D01*
X176500000Y-67136900D01*
X176500000Y-67051361D01*
X176519685Y-66984322D01*
X176536314Y-66963685D01*
X178780019Y-64719980D01*
X178803885Y-64701346D01*
X179109178Y-64518170D01*
X179172975Y-64500500D01*
X194375500Y-64500500D01*
X194442539Y-64520185D01*
G37*
%TD.AperFunction*%
M02*
