%TF.GenerationSoftware,KiCad,Pcbnew,9.0.9-9.0.9~ubuntu24.04.1*%
%TF.CreationDate,2026-05-28T22:50:48+02:00*%
%TF.ProjectId,arduino-shield,61726475-696e-46f2-9d73-6869656c642e,rev?*%
%TF.SameCoordinates,Original*%
%TF.FileFunction,Copper,L2,Bot*%
%TF.FilePolarity,Positive*%
%FSLAX46Y46*%
G04 Gerber Fmt 4.6, Leading zero omitted, Abs format (unit mm)*
G04 Created by KiCad (PCBNEW 9.0.9-9.0.9~ubuntu24.04.1) date 2026-05-28 22:50:48*
%MOMM*%
%LPD*%
G01*
G04 APERTURE LIST*
G04 Aperture macros list*
%AMRoundRect*
0 Rectangle with rounded corners*
0 $1 Rounding radius*
0 $2 $3 $4 $5 $6 $7 $8 $9 X,Y pos of 4 corners*
0 Add a 4 corners polygon primitive as box body*
4,1,4,$2,$3,$4,$5,$6,$7,$8,$9,$2,$3,0*
0 Add four circle primitives for the rounded corners*
1,1,$1+$1,$2,$3*
1,1,$1+$1,$4,$5*
1,1,$1+$1,$6,$7*
1,1,$1+$1,$8,$9*
0 Add four rect primitives between the rounded corners*
20,1,$1+$1,$2,$3,$4,$5,0*
20,1,$1+$1,$4,$5,$6,$7,0*
20,1,$1+$1,$6,$7,$8,$9,0*
20,1,$1+$1,$8,$9,$2,$3,0*%
G04 Aperture macros list end*
%TA.AperFunction,ComponentPad*%
%ADD10C,2.400000*%
%TD*%
%TA.AperFunction,ComponentPad*%
%ADD11RoundRect,0.250001X-0.949999X-0.949999X0.949999X-0.949999X0.949999X0.949999X-0.949999X0.949999X0*%
%TD*%
%TA.AperFunction,ComponentPad*%
%ADD12C,1.803400*%
%TD*%
%TA.AperFunction,ComponentPad*%
%ADD13C,4.500000*%
%TD*%
%TA.AperFunction,ComponentPad*%
%ADD14O,1.905000X2.000000*%
%TD*%
%TA.AperFunction,ComponentPad*%
%ADD15R,1.905000X2.000000*%
%TD*%
%TA.AperFunction,ComponentPad*%
%ADD16C,1.400000*%
%TD*%
%TA.AperFunction,ComponentPad*%
%ADD17C,1.700000*%
%TD*%
%TA.AperFunction,ComponentPad*%
%ADD18R,1.700000X1.700000*%
%TD*%
%TA.AperFunction,ComponentPad*%
%ADD19C,2.000000*%
%TD*%
%TA.AperFunction,ComponentPad*%
%ADD20R,2.000000X2.000000*%
%TD*%
%TA.AperFunction,ComponentPad*%
%ADD21R,1.600000X1.600000*%
%TD*%
%TA.AperFunction,ComponentPad*%
%ADD22O,1.600000X1.600000*%
%TD*%
%TA.AperFunction,ViaPad*%
%ADD23C,0.600000*%
%TD*%
%TA.AperFunction,Conductor*%
%ADD24C,1.500000*%
%TD*%
%TA.AperFunction,Conductor*%
%ADD25C,2.000000*%
%TD*%
G04 APERTURE END LIST*
D10*
%TO.P,D2,2,A*%
%TO.N,/current*%
X137080000Y-93750000D03*
D11*
%TO.P,D2,1,K*%
%TO.N,12vdc*%
X124380000Y-93750000D03*
%TD*%
D10*
%TO.P,D3,2,A*%
%TO.N,GND*%
X137080000Y-100640000D03*
D11*
%TO.P,D3,1,K*%
%TO.N,12vdc*%
X124380000Y-100640000D03*
%TD*%
D10*
%TO.P,D1,2,A*%
%TO.N,/current*%
X137080000Y-86860000D03*
D11*
%TO.P,D1,1,K*%
%TO.N,12vdc*%
X124380000Y-86860000D03*
%TD*%
D12*
%TO.P,J2,2,Pin_2*%
%TO.N,12vdc*%
X181840000Y-105090000D03*
%TO.P,J2,1,Pin_1*%
%TO.N,/current*%
X181840000Y-98740000D03*
%TD*%
%TO.P,J3,2,Pin_2*%
%TO.N,12vdc*%
X181899000Y-119146700D03*
%TO.P,J3,1,Pin_1*%
%TO.N,/current*%
X181899000Y-112796700D03*
%TD*%
%TO.P,J1,2,Pin_2*%
%TO.N,12vdc*%
X181920000Y-90870000D03*
%TO.P,J1,1,Pin_1*%
%TO.N,/current*%
X181920000Y-84520000D03*
%TD*%
D13*
%TO.P,Q2,*%
%TO.N,*%
X154000000Y-98000000D03*
D14*
%TO.P,Q2,3,E*%
%TO.N,GND*%
X156540000Y-114660000D03*
%TO.P,Q2,2,C*%
%TO.N,/current*%
X154000000Y-114660000D03*
D15*
%TO.P,Q2,1,B*%
%TO.N,relay2pin*%
X151460000Y-114660000D03*
%TD*%
D14*
%TO.P,Q1,3,E*%
%TO.N,GND*%
X151460000Y-75000000D03*
%TO.P,Q1,2,C*%
%TO.N,/current*%
X154000000Y-75000000D03*
D15*
%TO.P,Q1,1,B*%
%TO.N,pump-pwm*%
X156540000Y-75000000D03*
D13*
%TO.P,Q1,*%
%TO.N,*%
X154000000Y-91660000D03*
%TD*%
D16*
%TO.P,R1,2*%
%TO.N,Vsense*%
X132040000Y-108500000D03*
%TO.P,R1,1*%
%TO.N,AREF-voltage*%
X129500000Y-108500000D03*
%TD*%
D17*
%TO.P,SW3,3,C*%
%TO.N,GND*%
X194500000Y-111080000D03*
%TO.P,SW3,2,B*%
%TO.N,relay_control*%
X194500000Y-108540000D03*
D18*
%TO.P,SW3,1,A*%
%TO.N,GND*%
X194500000Y-106000000D03*
%TD*%
D17*
%TO.P,SW1,3,C*%
%TO.N,GND*%
X194500000Y-77000000D03*
%TO.P,SW1,2,B*%
%TO.N,temp_up*%
X194500000Y-79540000D03*
D18*
%TO.P,SW1,1,A*%
%TO.N,GND*%
X194500000Y-82080000D03*
%TD*%
D17*
%TO.P,SW2,3,A*%
%TO.N,GND*%
X194500000Y-97080000D03*
%TO.P,SW2,2,B*%
%TO.N,temp_down*%
X194500000Y-94540000D03*
D18*
%TO.P,SW2,1,C*%
%TO.N,GND*%
X194500000Y-92000000D03*
%TD*%
D19*
%TO.P,BZ1,2,-*%
%TO.N,GND*%
X114000000Y-91000000D03*
D20*
%TO.P,BZ1,1,+*%
%TO.N,buzzer+*%
X109000000Y-91000000D03*
%TD*%
D21*
%TO.P,A1,1,NC*%
%TO.N,unconnected-(A1-NC-Pad1)*%
X131930000Y-70270000D03*
D22*
%TO.P,A1,2,IOREF*%
%TO.N,unconnected-(A1-IOREF-Pad2)*%
X134470000Y-70270000D03*
%TO.P,A1,3,~{RESET}*%
%TO.N,unconnected-(A1-~{RESET}-Pad3)*%
X137010000Y-70270000D03*
%TO.P,A1,4,3V3*%
%TO.N,unconnected-(A1-3V3-Pad4)*%
X139550000Y-70270000D03*
%TO.P,A1,5,+5V*%
%TO.N,unconnected-(A1-+5V-Pad5)*%
X142090000Y-70270000D03*
%TO.P,A1,6,GND*%
%TO.N,GND*%
X144630000Y-70270000D03*
%TO.P,A1,7,GND*%
X147170000Y-70270000D03*
%TO.P,A1,8,VIN*%
%TO.N,unconnected-(A1-VIN-Pad8)*%
X149710000Y-70270000D03*
%TO.P,A1,9,A0*%
%TO.N,Vsense*%
X154790000Y-70270000D03*
%TO.P,A1,10,A1*%
%TO.N,unconnected-(A1-A1-Pad10)*%
X157330000Y-70270000D03*
%TO.P,A1,11,A2*%
%TO.N,temp_up*%
X159870000Y-70270000D03*
%TO.P,A1,12,A3*%
%TO.N,temp_down*%
X162410000Y-70270000D03*
%TO.P,A1,13,A4*%
%TO.N,relay_control*%
X164950000Y-70270000D03*
%TO.P,A1,14,A5*%
%TO.N,unconnected-(A1-A5-Pad14)*%
X167490000Y-70270000D03*
%TO.P,A1,15,D0/RX*%
%TO.N,unconnected-(A1-D0{slash}RX-Pad15)*%
X167490000Y-118530000D03*
%TO.P,A1,16,D1/TX*%
%TO.N,unconnected-(A1-D1{slash}TX-Pad16)*%
X164950000Y-118530000D03*
%TO.P,A1,17,D2/SDA*%
%TO.N,unconnected-(A1-D2{slash}SDA-Pad17)*%
X162410000Y-118530000D03*
%TO.P,A1,18,D3/SCL*%
%TO.N,unconnected-(A1-D3{slash}SCL-Pad18)*%
X159870000Y-118530000D03*
%TO.P,A1,19,D4*%
%TO.N,unconnected-(A1-D4-Pad19)*%
X157330000Y-118530000D03*
%TO.P,A1,20,D5*%
%TO.N,unconnected-(A1-D5-Pad20)*%
X154790000Y-118530000D03*
%TO.P,A1,21,D6*%
%TO.N,unconnected-(A1-D6-Pad21)*%
X152250000Y-118530000D03*
%TO.P,A1,22,D7*%
%TO.N,buzzer+*%
X149710000Y-118530000D03*
%TO.P,A1,23,D8*%
%TO.N,relay2pin*%
X145650000Y-118530000D03*
%TO.P,A1,24,D9*%
%TO.N,pump-pwm*%
X143110000Y-118530000D03*
%TO.P,A1,25,D10*%
%TO.N,unconnected-(A1-D10-Pad25)*%
X140570000Y-118530000D03*
%TO.P,A1,26,D11*%
%TO.N,unconnected-(A1-D11-Pad26)*%
X138030000Y-118530000D03*
%TO.P,A1,27,D12*%
%TO.N,unconnected-(A1-D12-Pad27)*%
X135490000Y-118530000D03*
%TO.P,A1,28,D13*%
%TO.N,unconnected-(A1-D13-Pad28)*%
X132950000Y-118530000D03*
%TO.P,A1,29,GND*%
%TO.N,GND*%
X130410000Y-118530000D03*
%TO.P,A1,30,AREF*%
%TO.N,AREF-voltage*%
X127870000Y-118530000D03*
%TO.P,A1,31,SDA/D2*%
%TO.N,unconnected-(A1-SDA{slash}D2-Pad31)*%
X125330000Y-118530000D03*
%TO.P,A1,32,SCL/D3*%
%TO.N,unconnected-(A1-SCL{slash}D3-Pad32)*%
X122790000Y-118530000D03*
%TD*%
D12*
%TO.P,TH1,1*%
%TO.N,Vsense*%
X182000000Y-69650000D03*
%TO.P,TH1,2*%
%TO.N,GND*%
X182000000Y-76000000D03*
%TD*%
D23*
%TO.N,/current*%
X146500000Y-72000000D03*
X147500000Y-104500000D03*
X147500000Y-102000000D03*
X160000000Y-98000000D03*
X160000000Y-95000000D03*
X160000000Y-92000000D03*
X146500000Y-90000000D03*
X146500000Y-92500000D03*
X145500000Y-78500000D03*
X140500000Y-73000000D03*
X174500000Y-71000000D03*
X170500000Y-73500000D03*
X167000000Y-77000000D03*
%TO.N,GND*%
X133654900Y-91585500D03*
X145551700Y-100328400D03*
X142577500Y-74099700D03*
X160704900Y-88671200D03*
X160331700Y-74190700D03*
%TO.N,/current*%
X181242100Y-109071300D03*
%TD*%
D24*
%TO.N,Vsense*%
X132040000Y-108500000D02*
X131654100Y-108114100D01*
X131654100Y-108114100D02*
X131654100Y-89178900D01*
X131654100Y-89178900D02*
X148263000Y-72570000D01*
X148263000Y-72570000D02*
X152500000Y-72570000D01*
X152500000Y-72570000D02*
X152500000Y-72560000D01*
X152500000Y-72560000D02*
X154790000Y-70270000D01*
D25*
%TO.N,12vdc*%
X124380000Y-93750000D02*
X124380000Y-86860000D01*
X184103600Y-116942100D02*
X181899000Y-119146700D01*
X184103600Y-107353600D02*
X184103600Y-116942100D01*
X181840000Y-105090000D02*
X184103600Y-107353600D01*
X124380000Y-100640000D02*
X124380000Y-93750000D01*
X179714100Y-102964100D02*
X181840000Y-105090000D01*
X179714100Y-92992200D02*
X179714100Y-102964100D01*
X181836300Y-90870000D02*
X179714100Y-92992200D01*
X181920000Y-90870000D02*
X181836300Y-90870000D01*
D24*
%TO.N,pump-pwm*%
X143110000Y-118530000D02*
X143110000Y-116230000D01*
X150753800Y-108586200D02*
X143110000Y-116230000D01*
X150753800Y-87585100D02*
X150753800Y-108586200D01*
X156540000Y-81798900D02*
X150753800Y-87585100D01*
X156540000Y-75000000D02*
X156540000Y-81798900D01*
%TO.N,buzzer+*%
X147410000Y-119335600D02*
X147410000Y-118530000D01*
X146211600Y-120534000D02*
X147410000Y-119335600D01*
X122262100Y-120534000D02*
X146211600Y-120534000D01*
X109000000Y-107271900D02*
X122262100Y-120534000D01*
X109000000Y-91000000D02*
X109000000Y-107271900D01*
X149710000Y-118530000D02*
X147410000Y-118530000D01*
%TO.N,temp_down*%
X193994000Y-94540000D02*
X194500000Y-94540000D01*
X187512700Y-88058700D02*
X193994000Y-94540000D01*
X187512700Y-87414600D02*
X187512700Y-88058700D01*
X168605000Y-68506900D02*
X187512700Y-87414600D01*
X164173100Y-68506900D02*
X168605000Y-68506900D01*
X162410000Y-70270000D02*
X164173100Y-68506900D01*
%TO.N,AREF-voltage*%
X127870000Y-110130000D02*
X129500000Y-108500000D01*
X127870000Y-118530000D02*
X127870000Y-110130000D01*
%TO.N,relay_control*%
X164950000Y-70270000D02*
X164950000Y-72570000D01*
X166380100Y-72570000D02*
X164950000Y-72570000D01*
X183871700Y-90061600D02*
X166380100Y-72570000D01*
X183871700Y-98473300D02*
X183871700Y-90061600D01*
X193938400Y-108540000D02*
X183871700Y-98473300D01*
X194500000Y-108540000D02*
X193938400Y-108540000D01*
D25*
%TO.N,GND*%
X130410000Y-118530000D02*
X130410000Y-115980000D01*
X137080000Y-109310000D02*
X137080000Y-100640000D01*
X130410000Y-115980000D02*
X137080000Y-109310000D01*
X151460000Y-75000000D02*
X148757500Y-75000000D01*
X148757500Y-97122600D02*
X145551700Y-100328400D01*
X148757500Y-75000000D02*
X148757500Y-97122600D01*
X143857200Y-72820000D02*
X142577500Y-74099700D01*
X144630000Y-72820000D02*
X143857200Y-72820000D01*
X144630000Y-70270000D02*
X144630000Y-72820000D01*
X133654900Y-97214900D02*
X133654900Y-91585500D01*
X137080000Y-100640000D02*
X133654900Y-97214900D01*
X160704900Y-74563900D02*
X160331700Y-74190700D01*
X160704900Y-88671200D02*
X160704900Y-74563900D01*
%TO.N,/current*%
X181899000Y-109728200D02*
X181899000Y-112796700D01*
X181242100Y-109071300D02*
X181899000Y-109728200D01*
%TD*%
%TA.AperFunction,Conductor*%
%TO.N,GND*%
G36*
X196942539Y-64520185D02*
G01*
X196988294Y-64572989D01*
X196999500Y-64624500D01*
X196999500Y-124375500D01*
X196979815Y-124442539D01*
X196927011Y-124488294D01*
X196875500Y-124499500D01*
X182601342Y-124499500D01*
X182562130Y-124493137D01*
X176718266Y-122545181D01*
X176706354Y-122541210D01*
X176693186Y-122533608D01*
X176644037Y-122520438D01*
X176640514Y-122519264D01*
X176640504Y-122519261D01*
X176639188Y-122518822D01*
X176595761Y-122504347D01*
X176595758Y-122504346D01*
X176588054Y-122501779D01*
X176588887Y-122499279D01*
X176538379Y-122473205D01*
X176503479Y-122412676D01*
X176500000Y-122383510D01*
X176500000Y-84757736D01*
X176519685Y-84690697D01*
X176572489Y-84644942D01*
X176641647Y-84634998D01*
X176705203Y-84664023D01*
X176711681Y-84670055D01*
X181314029Y-89272403D01*
X181347514Y-89333726D01*
X181342530Y-89403418D01*
X181300658Y-89459351D01*
X181264682Y-89478010D01*
X181260308Y-89479431D01*
X181049865Y-89586657D01*
X180858788Y-89725484D01*
X178569584Y-92014688D01*
X178430755Y-92205767D01*
X178365647Y-92333552D01*
X178365647Y-92333553D01*
X178323533Y-92416203D01*
X178250546Y-92640831D01*
X178213600Y-92874102D01*
X178213600Y-103082197D01*
X178250546Y-103315468D01*
X178323533Y-103540096D01*
X178430757Y-103750534D01*
X178569584Y-103941611D01*
X178569585Y-103941612D01*
X180866809Y-106238838D01*
X180866831Y-106238858D01*
X182331102Y-107703129D01*
X182364587Y-107764452D01*
X182359603Y-107834144D01*
X182317731Y-107890077D01*
X182252267Y-107914494D01*
X182183994Y-107899642D01*
X182170538Y-107891130D01*
X182028534Y-107787957D01*
X181982403Y-107764452D01*
X181818096Y-107680733D01*
X181593468Y-107607746D01*
X181360197Y-107570800D01*
X181360192Y-107570800D01*
X181124008Y-107570800D01*
X181124003Y-107570800D01*
X180890731Y-107607746D01*
X180666103Y-107680733D01*
X180455665Y-107787957D01*
X180264588Y-107926784D01*
X180097584Y-108093788D01*
X179958757Y-108284865D01*
X179851533Y-108495303D01*
X179778546Y-108719931D01*
X179741600Y-108953202D01*
X179741600Y-109189397D01*
X179778546Y-109422668D01*
X179851533Y-109647296D01*
X179958757Y-109857734D01*
X180097584Y-110048811D01*
X180362181Y-110313408D01*
X180395666Y-110374731D01*
X180398500Y-110401089D01*
X180398500Y-112914797D01*
X180435446Y-113148068D01*
X180508433Y-113372696D01*
X180615657Y-113583133D01*
X180754483Y-113774210D01*
X180921490Y-113941217D01*
X181112567Y-114080043D01*
X181194899Y-114121993D01*
X181323003Y-114187266D01*
X181323005Y-114187266D01*
X181323008Y-114187268D01*
X181443412Y-114226389D01*
X181547631Y-114260253D01*
X181780903Y-114297200D01*
X181780908Y-114297200D01*
X182017097Y-114297200D01*
X182250368Y-114260253D01*
X182440783Y-114198382D01*
X182510622Y-114196388D01*
X182570455Y-114232468D01*
X182601284Y-114295168D01*
X182603100Y-114316314D01*
X182603100Y-116269211D01*
X182583415Y-116336250D01*
X182566781Y-116356892D01*
X180754485Y-118169187D01*
X180754484Y-118169188D01*
X180615657Y-118360265D01*
X180508433Y-118570703D01*
X180435446Y-118795331D01*
X180398500Y-119028602D01*
X180398500Y-119264797D01*
X180435446Y-119498068D01*
X180508433Y-119722696D01*
X180615657Y-119933134D01*
X180754483Y-120124210D01*
X180921490Y-120291217D01*
X181112566Y-120430043D01*
X181211992Y-120480703D01*
X181323003Y-120537266D01*
X181323005Y-120537266D01*
X181323008Y-120537268D01*
X181443412Y-120576389D01*
X181547631Y-120610253D01*
X181780903Y-120647200D01*
X181780908Y-120647200D01*
X182017097Y-120647200D01*
X182250368Y-120610253D01*
X182474992Y-120537268D01*
X182685434Y-120430043D01*
X182876510Y-120291217D01*
X185248117Y-117919610D01*
X185386943Y-117728534D01*
X185494168Y-117518092D01*
X185567153Y-117293468D01*
X185604100Y-117060197D01*
X185604100Y-107235502D01*
X185567153Y-107002231D01*
X185494166Y-106777603D01*
X185439606Y-106670524D01*
X185386943Y-106567167D01*
X185377052Y-106553553D01*
X185355563Y-106523975D01*
X185248123Y-106376095D01*
X185248119Y-106376091D01*
X182988858Y-104116831D01*
X182988838Y-104116809D01*
X181250919Y-102378890D01*
X181217434Y-102317567D01*
X181214600Y-102291209D01*
X181214600Y-100181826D01*
X181234285Y-100114787D01*
X181287089Y-100069032D01*
X181356247Y-100059088D01*
X181376905Y-100063891D01*
X181511651Y-100107673D01*
X181729644Y-100142200D01*
X181729645Y-100142200D01*
X181950355Y-100142200D01*
X181950356Y-100142200D01*
X182168349Y-100107673D01*
X182378258Y-100039470D01*
X182574913Y-99939269D01*
X182753472Y-99809538D01*
X182909538Y-99653472D01*
X182981526Y-99554388D01*
X183036852Y-99511726D01*
X183106466Y-99505747D01*
X183168261Y-99538352D01*
X183169522Y-99539596D01*
X193123755Y-109493829D01*
X193282995Y-109609524D01*
X193357119Y-109647292D01*
X193458369Y-109698882D01*
X193458371Y-109698882D01*
X193458374Y-109698884D01*
X193558718Y-109731487D01*
X193645573Y-109759709D01*
X193839978Y-109790500D01*
X193839983Y-109790500D01*
X193839984Y-109790500D01*
X193958694Y-109790500D01*
X193997012Y-109796569D01*
X194069788Y-109820215D01*
X194183757Y-109857246D01*
X194393713Y-109890500D01*
X194393714Y-109890500D01*
X194606286Y-109890500D01*
X194606287Y-109890500D01*
X194816243Y-109857246D01*
X195018412Y-109791557D01*
X195207816Y-109695051D01*
X195325535Y-109609524D01*
X195379786Y-109570109D01*
X195379788Y-109570106D01*
X195379792Y-109570104D01*
X195530104Y-109419792D01*
X195530106Y-109419788D01*
X195530109Y-109419786D01*
X195655048Y-109247820D01*
X195655047Y-109247820D01*
X195655051Y-109247816D01*
X195751557Y-109058412D01*
X195817246Y-108856243D01*
X195850500Y-108646287D01*
X195850500Y-108433713D01*
X195817246Y-108223757D01*
X195751557Y-108021588D01*
X195655051Y-107832184D01*
X195655049Y-107832181D01*
X195655048Y-107832179D01*
X195530109Y-107660213D01*
X195379786Y-107509890D01*
X195207820Y-107384951D01*
X195018414Y-107288444D01*
X195018413Y-107288443D01*
X195018412Y-107288443D01*
X194816243Y-107222754D01*
X194816241Y-107222753D01*
X194816240Y-107222753D01*
X194638518Y-107194605D01*
X194606287Y-107189500D01*
X194407736Y-107189500D01*
X194340697Y-107169815D01*
X194320055Y-107153181D01*
X185158519Y-97991645D01*
X185125034Y-97930322D01*
X185122200Y-97903964D01*
X185122200Y-89963177D01*
X185091409Y-89768773D01*
X185059553Y-89670732D01*
X185059553Y-89670731D01*
X185030584Y-89581574D01*
X185030582Y-89581571D01*
X185030582Y-89581569D01*
X184978540Y-89479431D01*
X184941224Y-89406195D01*
X184825528Y-89246954D01*
X181712058Y-86133484D01*
X181678573Y-86072161D01*
X181683557Y-86002469D01*
X181725429Y-85946536D01*
X181790893Y-85922119D01*
X181809490Y-85922187D01*
X181809633Y-85922198D01*
X181809644Y-85922200D01*
X181809655Y-85922200D01*
X182030355Y-85922200D01*
X182030356Y-85922200D01*
X182248349Y-85887673D01*
X182458258Y-85819470D01*
X182654913Y-85719269D01*
X182833472Y-85589538D01*
X182989538Y-85433472D01*
X183119269Y-85254913D01*
X183198833Y-85098759D01*
X183246808Y-85047964D01*
X183314629Y-85031169D01*
X183380764Y-85053706D01*
X183396999Y-85067374D01*
X186225881Y-87896255D01*
X186259366Y-87957578D01*
X186262200Y-87983936D01*
X186262200Y-88157122D01*
X186292990Y-88351526D01*
X186353817Y-88538730D01*
X186443176Y-88714105D01*
X186558872Y-88873346D01*
X193040171Y-95354645D01*
X193040172Y-95354646D01*
X193179354Y-95493828D01*
X193338595Y-95609524D01*
X193506446Y-95695048D01*
X193513979Y-95698886D01*
X193598223Y-95726258D01*
X193640346Y-95739944D01*
X193640347Y-95739945D01*
X193640348Y-95739945D01*
X193701173Y-95759709D01*
X193774076Y-95771255D01*
X193895578Y-95790500D01*
X193895583Y-95790500D01*
X193958694Y-95790500D01*
X193997012Y-95796569D01*
X194069788Y-95820215D01*
X194183757Y-95857246D01*
X194393713Y-95890500D01*
X194393714Y-95890500D01*
X194606286Y-95890500D01*
X194606287Y-95890500D01*
X194816243Y-95857246D01*
X195018412Y-95791557D01*
X195207816Y-95695051D01*
X195325535Y-95609524D01*
X195379786Y-95570109D01*
X195379788Y-95570106D01*
X195379792Y-95570104D01*
X195530104Y-95419792D01*
X195530106Y-95419788D01*
X195530109Y-95419786D01*
X195655048Y-95247820D01*
X195655047Y-95247820D01*
X195655051Y-95247816D01*
X195751557Y-95058412D01*
X195817246Y-94856243D01*
X195850500Y-94646287D01*
X195850500Y-94433713D01*
X195817246Y-94223757D01*
X195751557Y-94021588D01*
X195655051Y-93832184D01*
X195655049Y-93832181D01*
X195655048Y-93832179D01*
X195530109Y-93660213D01*
X195379786Y-93509890D01*
X195207820Y-93384951D01*
X195018414Y-93288444D01*
X195018413Y-93288443D01*
X195018412Y-93288443D01*
X194816243Y-93222754D01*
X194816241Y-93222753D01*
X194816240Y-93222753D01*
X194654957Y-93197208D01*
X194606287Y-93189500D01*
X194606286Y-93189500D01*
X194463336Y-93189500D01*
X194396297Y-93169815D01*
X194375655Y-93153181D01*
X188799519Y-87577045D01*
X188766034Y-87515722D01*
X188763200Y-87489364D01*
X188763200Y-87316177D01*
X188745286Y-87203083D01*
X188732409Y-87121774D01*
X188732408Y-87121770D01*
X188732408Y-87121769D01*
X188673091Y-86939212D01*
X188672029Y-86935447D01*
X188657568Y-86907067D01*
X188582224Y-86759195D01*
X188567442Y-86738850D01*
X188466534Y-86599960D01*
X188466530Y-86599955D01*
X181300288Y-79433713D01*
X193149500Y-79433713D01*
X193149500Y-79646286D01*
X193182753Y-79856239D01*
X193248444Y-80058414D01*
X193344951Y-80247820D01*
X193469890Y-80419786D01*
X193620213Y-80570109D01*
X193792179Y-80695048D01*
X193792181Y-80695049D01*
X193792184Y-80695051D01*
X193981588Y-80791557D01*
X194183757Y-80857246D01*
X194393713Y-80890500D01*
X194393714Y-80890500D01*
X194606286Y-80890500D01*
X194606287Y-80890500D01*
X194816243Y-80857246D01*
X195018412Y-80791557D01*
X195207816Y-80695051D01*
X195229789Y-80679086D01*
X195379786Y-80570109D01*
X195379788Y-80570106D01*
X195379792Y-80570104D01*
X195530104Y-80419792D01*
X195530106Y-80419788D01*
X195530109Y-80419786D01*
X195655048Y-80247820D01*
X195655047Y-80247820D01*
X195655051Y-80247816D01*
X195751557Y-80058412D01*
X195817246Y-79856243D01*
X195850500Y-79646287D01*
X195850500Y-79433713D01*
X195817246Y-79223757D01*
X195751557Y-79021588D01*
X195655051Y-78832184D01*
X195655049Y-78832181D01*
X195655048Y-78832179D01*
X195530109Y-78660213D01*
X195379786Y-78509890D01*
X195207820Y-78384951D01*
X195018414Y-78288444D01*
X195018413Y-78288443D01*
X195018412Y-78288443D01*
X194816243Y-78222754D01*
X194816241Y-78222753D01*
X194816240Y-78222753D01*
X194654957Y-78197208D01*
X194606287Y-78189500D01*
X194393713Y-78189500D01*
X194345042Y-78197208D01*
X194183760Y-78222753D01*
X193981585Y-78288444D01*
X193792179Y-78384951D01*
X193620213Y-78509890D01*
X193469890Y-78660213D01*
X193344951Y-78832179D01*
X193248444Y-79021585D01*
X193182753Y-79223760D01*
X193149500Y-79433713D01*
X181300288Y-79433713D01*
X176536319Y-74669744D01*
X176502834Y-74608421D01*
X176500000Y-74582063D01*
X176500000Y-69539644D01*
X180597800Y-69539644D01*
X180597800Y-69760355D01*
X180632327Y-69978350D01*
X180700528Y-70188255D01*
X180700529Y-70188258D01*
X180800731Y-70384913D01*
X180930462Y-70563472D01*
X181086528Y-70719538D01*
X181265087Y-70849269D01*
X181361540Y-70898414D01*
X181461741Y-70949470D01*
X181461744Y-70949471D01*
X181566696Y-70983571D01*
X181671651Y-71017673D01*
X181889644Y-71052200D01*
X181889645Y-71052200D01*
X182110355Y-71052200D01*
X182110356Y-71052200D01*
X182328349Y-71017673D01*
X182538258Y-70949470D01*
X182734913Y-70849269D01*
X182913472Y-70719538D01*
X183069538Y-70563472D01*
X183199269Y-70384913D01*
X183299470Y-70188258D01*
X183367673Y-69978349D01*
X183402200Y-69760356D01*
X183402200Y-69539644D01*
X183367673Y-69321651D01*
X183299470Y-69111742D01*
X183299470Y-69111741D01*
X183199268Y-68915086D01*
X183069538Y-68736528D01*
X182913472Y-68580462D01*
X182734913Y-68450731D01*
X182538258Y-68350529D01*
X182538255Y-68350528D01*
X182328350Y-68282327D01*
X182219352Y-68265063D01*
X182110356Y-68247800D01*
X181889644Y-68247800D01*
X181816979Y-68259309D01*
X181671649Y-68282327D01*
X181461744Y-68350528D01*
X181461741Y-68350529D01*
X181265086Y-68450731D01*
X181163212Y-68524747D01*
X181086528Y-68580462D01*
X181086526Y-68580464D01*
X181086525Y-68580464D01*
X180930464Y-68736525D01*
X180930464Y-68736526D01*
X180930462Y-68736528D01*
X180884546Y-68799726D01*
X180800731Y-68915086D01*
X180700529Y-69111741D01*
X180700528Y-69111744D01*
X180632327Y-69321649D01*
X180597800Y-69539644D01*
X176500000Y-69539644D01*
X176500000Y-67614077D01*
X176507562Y-67588322D01*
X176511568Y-67561780D01*
X176517257Y-67555306D01*
X176519685Y-67547038D01*
X176539967Y-67529462D01*
X176557690Y-67509296D01*
X176569191Y-67504140D01*
X176572489Y-67501283D01*
X176589887Y-67494862D01*
X176632638Y-67482632D01*
X176634571Y-67482097D01*
X176693186Y-67466392D01*
X176693194Y-67466387D01*
X176695049Y-67465620D01*
X176695500Y-67465462D01*
X176696089Y-67465207D01*
X176698064Y-67464370D01*
X176698714Y-67464100D01*
X176699170Y-67463871D01*
X176700995Y-67463078D01*
X176701003Y-67463076D01*
X176753094Y-67431819D01*
X176754594Y-67430936D01*
X176807314Y-67400500D01*
X176807320Y-67400493D01*
X176808926Y-67399262D01*
X176820617Y-67391306D01*
X181609178Y-64518170D01*
X181672975Y-64500500D01*
X196875500Y-64500500D01*
X196942539Y-64520185D01*
G37*
%TD.AperFunction*%
%TD*%
%TA.AperFunction,NonConductor*%
G36*
X176705203Y-78376023D02*
G01*
X176711671Y-78382046D01*
X179121180Y-80791555D01*
X181372625Y-83043000D01*
X181406110Y-83104323D01*
X181401126Y-83174015D01*
X181359254Y-83229948D01*
X181341240Y-83241165D01*
X181185089Y-83320729D01*
X181095807Y-83385596D01*
X181006528Y-83450462D01*
X181006526Y-83450464D01*
X181006525Y-83450464D01*
X180850464Y-83606525D01*
X180850464Y-83606526D01*
X180850462Y-83606528D01*
X180794747Y-83683212D01*
X180720731Y-83785086D01*
X180620529Y-83981741D01*
X180620528Y-83981744D01*
X180552327Y-84191649D01*
X180517800Y-84409644D01*
X180517800Y-84630354D01*
X180517814Y-84630532D01*
X180517800Y-84630598D01*
X180517800Y-84635228D01*
X180516827Y-84635228D01*
X180503449Y-84698909D01*
X180454398Y-84748665D01*
X180386233Y-84764004D01*
X180320596Y-84740055D01*
X180306515Y-84727941D01*
X176536319Y-80957745D01*
X176502834Y-80896422D01*
X176500000Y-80870064D01*
X176500000Y-78469736D01*
X176519685Y-78402697D01*
X176572489Y-78356942D01*
X176641647Y-78346998D01*
X176705203Y-78376023D01*
G37*
%TD.AperFunction*%
%TA.AperFunction,NonConductor*%
G36*
X182540534Y-92390307D02*
G01*
X182596467Y-92432179D01*
X182620884Y-92497643D01*
X182621200Y-92506489D01*
X182621200Y-97361965D01*
X182601515Y-97429004D01*
X182548711Y-97474759D01*
X182479553Y-97484703D01*
X182440905Y-97472450D01*
X182378258Y-97440530D01*
X182378255Y-97440528D01*
X182168350Y-97372327D01*
X182059352Y-97355063D01*
X181950356Y-97337800D01*
X181729644Y-97337800D01*
X181686045Y-97344705D01*
X181511647Y-97372327D01*
X181376917Y-97416103D01*
X181307076Y-97418098D01*
X181247244Y-97382017D01*
X181216416Y-97319316D01*
X181214600Y-97298172D01*
X181214600Y-93665089D01*
X181234285Y-93598050D01*
X181250919Y-93577408D01*
X182409519Y-92418808D01*
X182470842Y-92385323D01*
X182540534Y-92390307D01*
G37*
%TD.AperFunction*%
%TA.AperFunction,Conductor*%
%TO.N,/current*%
G36*
X163461544Y-67520185D02*
G01*
X163507299Y-67572989D01*
X163517243Y-67642147D01*
X163488218Y-67705703D01*
X163482186Y-67712181D01*
X161913133Y-69281234D01*
X161881747Y-69304038D01*
X161833211Y-69328768D01*
X161753256Y-69386859D01*
X161693072Y-69430586D01*
X161693070Y-69430588D01*
X161693069Y-69430588D01*
X161570588Y-69553069D01*
X161570588Y-69553070D01*
X161570586Y-69553072D01*
X161532549Y-69605425D01*
X161468768Y-69693211D01*
X161390128Y-69847552D01*
X161336597Y-70012302D01*
X161309500Y-70183389D01*
X161309500Y-70356610D01*
X161336597Y-70527697D01*
X161336597Y-70527699D01*
X161336598Y-70527701D01*
X161390127Y-70692445D01*
X161468768Y-70846788D01*
X161570586Y-70986928D01*
X161693072Y-71109414D01*
X161833212Y-71211232D01*
X161987555Y-71289873D01*
X162152299Y-71343402D01*
X162323389Y-71370500D01*
X162323390Y-71370500D01*
X162496610Y-71370500D01*
X162496611Y-71370500D01*
X162667701Y-71343402D01*
X162832445Y-71289873D01*
X162986788Y-71211232D01*
X163126928Y-71109414D01*
X163249414Y-70986928D01*
X163351232Y-70846788D01*
X163375962Y-70798250D01*
X163398764Y-70766865D01*
X163674986Y-70490644D01*
X163677398Y-70489327D01*
X163678820Y-70486970D01*
X163707893Y-70472675D01*
X163736308Y-70457160D01*
X163739051Y-70457356D01*
X163741521Y-70456142D01*
X163773693Y-70459833D01*
X163806000Y-70462144D01*
X163808203Y-70463793D01*
X163810936Y-70464107D01*
X163836010Y-70484610D01*
X163861933Y-70504016D01*
X163863545Y-70507124D01*
X163865025Y-70508335D01*
X163880597Y-70540008D01*
X163893431Y-70579507D01*
X163899500Y-70617825D01*
X163899500Y-72673469D01*
X163939868Y-72876412D01*
X163939870Y-72876420D01*
X164019059Y-73067598D01*
X164057102Y-73124534D01*
X164134024Y-73239657D01*
X164280342Y-73385975D01*
X164280345Y-73385977D01*
X164452402Y-73500941D01*
X164643580Y-73580130D01*
X164846530Y-73620499D01*
X164846534Y-73620500D01*
X164846535Y-73620500D01*
X165893607Y-73620500D01*
X165960646Y-73640185D01*
X165981287Y-73656818D01*
X175963681Y-83639213D01*
X175997166Y-83700535D01*
X176000000Y-83726893D01*
X176000000Y-122375500D01*
X175980315Y-122442539D01*
X175927511Y-122488294D01*
X175876000Y-122499500D01*
X139124000Y-122499500D01*
X139056961Y-122479815D01*
X139011206Y-122427011D01*
X139000000Y-122375500D01*
X139000000Y-121708500D01*
X139019685Y-121641461D01*
X139072489Y-121595706D01*
X139124000Y-121584500D01*
X146315066Y-121584500D01*
X146315067Y-121584499D01*
X146518020Y-121544130D01*
X146709198Y-121464941D01*
X146881255Y-121349977D01*
X147027577Y-121203655D01*
X147027577Y-121203653D01*
X147037785Y-121193446D01*
X147037786Y-121193443D01*
X148225977Y-120005255D01*
X148340942Y-119833198D01*
X148413905Y-119657048D01*
X148457746Y-119602644D01*
X148524040Y-119580579D01*
X148528466Y-119580500D01*
X149362174Y-119580500D01*
X149400491Y-119586568D01*
X149419244Y-119592662D01*
X149452298Y-119603402D01*
X149537844Y-119616951D01*
X149623389Y-119630500D01*
X149623390Y-119630500D01*
X149796610Y-119630500D01*
X149796611Y-119630500D01*
X149967701Y-119603402D01*
X150132445Y-119549873D01*
X150286788Y-119471232D01*
X150426928Y-119369414D01*
X150549414Y-119246928D01*
X150651232Y-119106788D01*
X150729873Y-118952445D01*
X150783402Y-118787701D01*
X150810500Y-118616611D01*
X150810500Y-118443389D01*
X151149500Y-118443389D01*
X151149500Y-118616611D01*
X151176598Y-118787701D01*
X151230127Y-118952445D01*
X151308768Y-119106788D01*
X151410586Y-119246928D01*
X151533072Y-119369414D01*
X151673212Y-119471232D01*
X151827555Y-119549873D01*
X151992299Y-119603402D01*
X152163389Y-119630500D01*
X152163390Y-119630500D01*
X152336610Y-119630500D01*
X152336611Y-119630500D01*
X152507701Y-119603402D01*
X152672445Y-119549873D01*
X152826788Y-119471232D01*
X152966928Y-119369414D01*
X153089414Y-119246928D01*
X153191232Y-119106788D01*
X153269873Y-118952445D01*
X153323402Y-118787701D01*
X153350500Y-118616611D01*
X153350500Y-118443389D01*
X153689500Y-118443389D01*
X153689500Y-118616611D01*
X153716598Y-118787701D01*
X153770127Y-118952445D01*
X153848768Y-119106788D01*
X153950586Y-119246928D01*
X154073072Y-119369414D01*
X154213212Y-119471232D01*
X154367555Y-119549873D01*
X154532299Y-119603402D01*
X154703389Y-119630500D01*
X154703390Y-119630500D01*
X154876610Y-119630500D01*
X154876611Y-119630500D01*
X155047701Y-119603402D01*
X155212445Y-119549873D01*
X155366788Y-119471232D01*
X155506928Y-119369414D01*
X155629414Y-119246928D01*
X155731232Y-119106788D01*
X155809873Y-118952445D01*
X155863402Y-118787701D01*
X155890500Y-118616611D01*
X155890500Y-118443389D01*
X156229500Y-118443389D01*
X156229500Y-118616611D01*
X156256598Y-118787701D01*
X156310127Y-118952445D01*
X156388768Y-119106788D01*
X156490586Y-119246928D01*
X156613072Y-119369414D01*
X156753212Y-119471232D01*
X156907555Y-119549873D01*
X157072299Y-119603402D01*
X157243389Y-119630500D01*
X157243390Y-119630500D01*
X157416610Y-119630500D01*
X157416611Y-119630500D01*
X157587701Y-119603402D01*
X157752445Y-119549873D01*
X157906788Y-119471232D01*
X158046928Y-119369414D01*
X158169414Y-119246928D01*
X158271232Y-119106788D01*
X158349873Y-118952445D01*
X158403402Y-118787701D01*
X158430500Y-118616611D01*
X158430500Y-118443389D01*
X158769500Y-118443389D01*
X158769500Y-118616611D01*
X158796598Y-118787701D01*
X158850127Y-118952445D01*
X158928768Y-119106788D01*
X159030586Y-119246928D01*
X159153072Y-119369414D01*
X159293212Y-119471232D01*
X159447555Y-119549873D01*
X159612299Y-119603402D01*
X159783389Y-119630500D01*
X159783390Y-119630500D01*
X159956610Y-119630500D01*
X159956611Y-119630500D01*
X160127701Y-119603402D01*
X160292445Y-119549873D01*
X160446788Y-119471232D01*
X160586928Y-119369414D01*
X160709414Y-119246928D01*
X160811232Y-119106788D01*
X160889873Y-118952445D01*
X160943402Y-118787701D01*
X160970500Y-118616611D01*
X160970500Y-118443389D01*
X161309500Y-118443389D01*
X161309500Y-118616611D01*
X161336598Y-118787701D01*
X161390127Y-118952445D01*
X161468768Y-119106788D01*
X161570586Y-119246928D01*
X161693072Y-119369414D01*
X161833212Y-119471232D01*
X161987555Y-119549873D01*
X162152299Y-119603402D01*
X162323389Y-119630500D01*
X162323390Y-119630500D01*
X162496610Y-119630500D01*
X162496611Y-119630500D01*
X162667701Y-119603402D01*
X162832445Y-119549873D01*
X162986788Y-119471232D01*
X163126928Y-119369414D01*
X163249414Y-119246928D01*
X163351232Y-119106788D01*
X163429873Y-118952445D01*
X163483402Y-118787701D01*
X163510500Y-118616611D01*
X163510500Y-118443389D01*
X163849500Y-118443389D01*
X163849500Y-118616611D01*
X163876598Y-118787701D01*
X163930127Y-118952445D01*
X164008768Y-119106788D01*
X164110586Y-119246928D01*
X164233072Y-119369414D01*
X164373212Y-119471232D01*
X164527555Y-119549873D01*
X164692299Y-119603402D01*
X164863389Y-119630500D01*
X164863390Y-119630500D01*
X165036610Y-119630500D01*
X165036611Y-119630500D01*
X165207701Y-119603402D01*
X165372445Y-119549873D01*
X165526788Y-119471232D01*
X165666928Y-119369414D01*
X165789414Y-119246928D01*
X165891232Y-119106788D01*
X165969873Y-118952445D01*
X166023402Y-118787701D01*
X166050500Y-118616611D01*
X166050500Y-118443389D01*
X166389500Y-118443389D01*
X166389500Y-118616611D01*
X166416598Y-118787701D01*
X166470127Y-118952445D01*
X166548768Y-119106788D01*
X166650586Y-119246928D01*
X166773072Y-119369414D01*
X166913212Y-119471232D01*
X167067555Y-119549873D01*
X167232299Y-119603402D01*
X167403389Y-119630500D01*
X167403390Y-119630500D01*
X167576610Y-119630500D01*
X167576611Y-119630500D01*
X167747701Y-119603402D01*
X167912445Y-119549873D01*
X168066788Y-119471232D01*
X168206928Y-119369414D01*
X168329414Y-119246928D01*
X168431232Y-119106788D01*
X168509873Y-118952445D01*
X168563402Y-118787701D01*
X168590500Y-118616611D01*
X168590500Y-118443389D01*
X168563402Y-118272299D01*
X168509873Y-118107555D01*
X168431232Y-117953212D01*
X168329414Y-117813072D01*
X168206928Y-117690586D01*
X168066788Y-117588768D01*
X167912445Y-117510127D01*
X167747701Y-117456598D01*
X167747699Y-117456597D01*
X167747698Y-117456597D01*
X167616271Y-117435781D01*
X167576611Y-117429500D01*
X167403389Y-117429500D01*
X167363728Y-117435781D01*
X167232302Y-117456597D01*
X167067552Y-117510128D01*
X166913211Y-117588768D01*
X166833256Y-117646859D01*
X166773072Y-117690586D01*
X166773070Y-117690588D01*
X166773069Y-117690588D01*
X166650588Y-117813069D01*
X166650588Y-117813070D01*
X166650586Y-117813072D01*
X166634788Y-117834816D01*
X166548768Y-117953211D01*
X166470128Y-118107552D01*
X166416597Y-118272302D01*
X166389500Y-118443389D01*
X166050500Y-118443389D01*
X166023402Y-118272299D01*
X165969873Y-118107555D01*
X165891232Y-117953212D01*
X165789414Y-117813072D01*
X165666928Y-117690586D01*
X165526788Y-117588768D01*
X165372445Y-117510127D01*
X165207701Y-117456598D01*
X165207699Y-117456597D01*
X165207698Y-117456597D01*
X165076271Y-117435781D01*
X165036611Y-117429500D01*
X164863389Y-117429500D01*
X164823728Y-117435781D01*
X164692302Y-117456597D01*
X164527552Y-117510128D01*
X164373211Y-117588768D01*
X164293256Y-117646859D01*
X164233072Y-117690586D01*
X164233070Y-117690588D01*
X164233069Y-117690588D01*
X164110588Y-117813069D01*
X164110588Y-117813070D01*
X164110586Y-117813072D01*
X164094788Y-117834816D01*
X164008768Y-117953211D01*
X163930128Y-118107552D01*
X163876597Y-118272302D01*
X163849500Y-118443389D01*
X163510500Y-118443389D01*
X163483402Y-118272299D01*
X163429873Y-118107555D01*
X163351232Y-117953212D01*
X163249414Y-117813072D01*
X163126928Y-117690586D01*
X162986788Y-117588768D01*
X162832445Y-117510127D01*
X162667701Y-117456598D01*
X162667699Y-117456597D01*
X162667698Y-117456597D01*
X162536271Y-117435781D01*
X162496611Y-117429500D01*
X162323389Y-117429500D01*
X162283728Y-117435781D01*
X162152302Y-117456597D01*
X161987552Y-117510128D01*
X161833211Y-117588768D01*
X161753256Y-117646859D01*
X161693072Y-117690586D01*
X161693070Y-117690588D01*
X161693069Y-117690588D01*
X161570588Y-117813069D01*
X161570588Y-117813070D01*
X161570586Y-117813072D01*
X161554788Y-117834816D01*
X161468768Y-117953211D01*
X161390128Y-118107552D01*
X161336597Y-118272302D01*
X161309500Y-118443389D01*
X160970500Y-118443389D01*
X160943402Y-118272299D01*
X160889873Y-118107555D01*
X160811232Y-117953212D01*
X160709414Y-117813072D01*
X160586928Y-117690586D01*
X160446788Y-117588768D01*
X160292445Y-117510127D01*
X160127701Y-117456598D01*
X160127699Y-117456597D01*
X160127698Y-117456597D01*
X159996271Y-117435781D01*
X159956611Y-117429500D01*
X159783389Y-117429500D01*
X159743728Y-117435781D01*
X159612302Y-117456597D01*
X159447552Y-117510128D01*
X159293211Y-117588768D01*
X159213256Y-117646859D01*
X159153072Y-117690586D01*
X159153070Y-117690588D01*
X159153069Y-117690588D01*
X159030588Y-117813069D01*
X159030588Y-117813070D01*
X159030586Y-117813072D01*
X159014788Y-117834816D01*
X158928768Y-117953211D01*
X158850128Y-118107552D01*
X158796597Y-118272302D01*
X158769500Y-118443389D01*
X158430500Y-118443389D01*
X158403402Y-118272299D01*
X158349873Y-118107555D01*
X158271232Y-117953212D01*
X158169414Y-117813072D01*
X158046928Y-117690586D01*
X157906788Y-117588768D01*
X157752445Y-117510127D01*
X157587701Y-117456598D01*
X157587699Y-117456597D01*
X157587698Y-117456597D01*
X157456271Y-117435781D01*
X157416611Y-117429500D01*
X157243389Y-117429500D01*
X157203728Y-117435781D01*
X157072302Y-117456597D01*
X156907552Y-117510128D01*
X156753211Y-117588768D01*
X156673256Y-117646859D01*
X156613072Y-117690586D01*
X156613070Y-117690588D01*
X156613069Y-117690588D01*
X156490588Y-117813069D01*
X156490588Y-117813070D01*
X156490586Y-117813072D01*
X156474788Y-117834816D01*
X156388768Y-117953211D01*
X156310128Y-118107552D01*
X156256597Y-118272302D01*
X156229500Y-118443389D01*
X155890500Y-118443389D01*
X155863402Y-118272299D01*
X155809873Y-118107555D01*
X155731232Y-117953212D01*
X155629414Y-117813072D01*
X155506928Y-117690586D01*
X155366788Y-117588768D01*
X155212445Y-117510127D01*
X155047701Y-117456598D01*
X155047699Y-117456597D01*
X155047698Y-117456597D01*
X154916271Y-117435781D01*
X154876611Y-117429500D01*
X154703389Y-117429500D01*
X154663728Y-117435781D01*
X154532302Y-117456597D01*
X154367552Y-117510128D01*
X154213211Y-117588768D01*
X154133256Y-117646859D01*
X154073072Y-117690586D01*
X154073070Y-117690588D01*
X154073069Y-117690588D01*
X153950588Y-117813069D01*
X153950588Y-117813070D01*
X153950586Y-117813072D01*
X153934788Y-117834816D01*
X153848768Y-117953211D01*
X153770128Y-118107552D01*
X153716597Y-118272302D01*
X153689500Y-118443389D01*
X153350500Y-118443389D01*
X153323402Y-118272299D01*
X153269873Y-118107555D01*
X153191232Y-117953212D01*
X153089414Y-117813072D01*
X152966928Y-117690586D01*
X152826788Y-117588768D01*
X152672445Y-117510127D01*
X152507701Y-117456598D01*
X152507699Y-117456597D01*
X152507698Y-117456597D01*
X152376271Y-117435781D01*
X152336611Y-117429500D01*
X152163389Y-117429500D01*
X152123728Y-117435781D01*
X151992302Y-117456597D01*
X151827552Y-117510128D01*
X151673211Y-117588768D01*
X151593256Y-117646859D01*
X151533072Y-117690586D01*
X151533070Y-117690588D01*
X151533069Y-117690588D01*
X151410588Y-117813069D01*
X151410588Y-117813070D01*
X151410586Y-117813072D01*
X151394788Y-117834816D01*
X151308768Y-117953211D01*
X151230128Y-118107552D01*
X151176597Y-118272302D01*
X151149500Y-118443389D01*
X150810500Y-118443389D01*
X150783402Y-118272299D01*
X150729873Y-118107555D01*
X150651232Y-117953212D01*
X150549414Y-117813072D01*
X150426928Y-117690586D01*
X150286788Y-117588768D01*
X150132445Y-117510127D01*
X149967701Y-117456598D01*
X149967699Y-117456597D01*
X149967698Y-117456597D01*
X149836271Y-117435781D01*
X149796611Y-117429500D01*
X149623389Y-117429500D01*
X149602810Y-117432759D01*
X149452298Y-117456597D01*
X149406820Y-117471374D01*
X149400491Y-117473431D01*
X149362174Y-117479500D01*
X147306530Y-117479500D01*
X147103587Y-117519868D01*
X147103579Y-117519870D01*
X146912403Y-117599058D01*
X146740344Y-117714023D01*
X146653035Y-117801332D01*
X146591711Y-117834816D01*
X146522020Y-117829832D01*
X146477673Y-117801331D01*
X146366930Y-117690588D01*
X146366928Y-117690586D01*
X146226788Y-117588768D01*
X146072445Y-117510127D01*
X145907701Y-117456598D01*
X145907699Y-117456597D01*
X145907698Y-117456597D01*
X145776271Y-117435781D01*
X145736611Y-117429500D01*
X145563389Y-117429500D01*
X145523728Y-117435781D01*
X145392302Y-117456597D01*
X145227552Y-117510128D01*
X145073211Y-117588768D01*
X144993256Y-117646859D01*
X144933072Y-117690586D01*
X144933070Y-117690588D01*
X144933069Y-117690588D01*
X144810588Y-117813069D01*
X144810588Y-117813070D01*
X144810586Y-117813072D01*
X144794788Y-117834816D01*
X144708768Y-117953211D01*
X144630128Y-118107552D01*
X144576597Y-118272302D01*
X144549500Y-118443389D01*
X144549500Y-118616611D01*
X144576598Y-118787701D01*
X144630127Y-118952445D01*
X144708768Y-119106788D01*
X144810586Y-119246928D01*
X144810588Y-119246930D01*
X144835477Y-119271819D01*
X144868962Y-119333142D01*
X144863978Y-119402834D01*
X144822106Y-119458767D01*
X144756642Y-119483184D01*
X144747796Y-119483500D01*
X144012204Y-119483500D01*
X143945165Y-119463815D01*
X143899410Y-119411011D01*
X143889466Y-119341853D01*
X143918491Y-119278297D01*
X143924523Y-119271819D01*
X143949414Y-119246928D01*
X144051232Y-119106788D01*
X144129873Y-118952445D01*
X144183402Y-118787701D01*
X144210500Y-118616611D01*
X144210500Y-118443389D01*
X144183402Y-118272299D01*
X144183401Y-118272295D01*
X144183401Y-118272294D01*
X144166569Y-118220491D01*
X144160500Y-118182173D01*
X144160500Y-116716493D01*
X144180185Y-116649454D01*
X144196819Y-116628812D01*
X147210501Y-113615131D01*
X150207000Y-113615131D01*
X150207000Y-115704856D01*
X150207002Y-115704882D01*
X150209913Y-115729987D01*
X150209915Y-115729991D01*
X150255293Y-115832764D01*
X150255294Y-115832765D01*
X150334735Y-115912206D01*
X150437509Y-115957585D01*
X150462635Y-115960500D01*
X152457364Y-115960499D01*
X152457379Y-115960497D01*
X152457382Y-115960497D01*
X152482487Y-115957586D01*
X152482488Y-115957585D01*
X152482491Y-115957585D01*
X152585265Y-115912206D01*
X152664706Y-115832765D01*
X152710085Y-115729991D01*
X152713000Y-115704865D01*
X152712999Y-114513881D01*
X155287000Y-114513881D01*
X155287000Y-114806118D01*
X155317853Y-115000913D01*
X155378797Y-115188482D01*
X155378799Y-115188485D01*
X155468338Y-115364215D01*
X155584265Y-115523775D01*
X155723725Y-115663235D01*
X155883285Y-115779162D01*
X155988485Y-115832764D01*
X156059017Y-115868702D01*
X156152801Y-115899174D01*
X156246588Y-115929647D01*
X156336807Y-115943936D01*
X156441382Y-115960500D01*
X156441387Y-115960500D01*
X156638618Y-115960500D01*
X156733052Y-115945542D01*
X156833412Y-115929647D01*
X157020985Y-115868701D01*
X157196715Y-115779162D01*
X157356275Y-115663235D01*
X157495735Y-115523775D01*
X157611662Y-115364215D01*
X157701201Y-115188485D01*
X157762147Y-115000912D01*
X157778042Y-114900552D01*
X157793000Y-114806118D01*
X157793000Y-114513881D01*
X157775050Y-114400559D01*
X157762147Y-114319088D01*
X157701201Y-114131515D01*
X157611662Y-113955785D01*
X157495735Y-113796225D01*
X157356275Y-113656765D01*
X157196715Y-113540838D01*
X157020982Y-113451297D01*
X156833413Y-113390353D01*
X156638618Y-113359500D01*
X156638613Y-113359500D01*
X156441387Y-113359500D01*
X156441382Y-113359500D01*
X156246586Y-113390353D01*
X156059017Y-113451297D01*
X155883284Y-113540838D01*
X155723722Y-113656767D01*
X155584267Y-113796222D01*
X155468338Y-113955784D01*
X155378797Y-114131517D01*
X155317853Y-114319086D01*
X155287000Y-114513881D01*
X152712999Y-114513881D01*
X152712999Y-113615136D01*
X152712997Y-113615117D01*
X152710086Y-113590012D01*
X152710085Y-113590010D01*
X152710085Y-113590009D01*
X152664706Y-113487235D01*
X152585265Y-113407794D01*
X152545765Y-113390353D01*
X152482492Y-113362415D01*
X152457365Y-113359500D01*
X150462643Y-113359500D01*
X150462617Y-113359502D01*
X150437512Y-113362413D01*
X150437508Y-113362415D01*
X150334735Y-113407793D01*
X150255294Y-113487234D01*
X150209915Y-113590006D01*
X150209915Y-113590008D01*
X150207000Y-113615131D01*
X147210501Y-113615131D01*
X147301759Y-113523873D01*
X151569774Y-109255858D01*
X151569774Y-109255857D01*
X151569777Y-109255855D01*
X151684742Y-109083798D01*
X151763930Y-108892620D01*
X151804301Y-108689665D01*
X151804301Y-108482734D01*
X151804301Y-108477624D01*
X151804300Y-108477598D01*
X151804300Y-99691736D01*
X151823985Y-99624697D01*
X151876789Y-99578942D01*
X151945947Y-99568998D01*
X152009503Y-99598023D01*
X152025246Y-99614422D01*
X152095243Y-99702195D01*
X152297805Y-99904757D01*
X152521773Y-100083366D01*
X152764331Y-100235775D01*
X153022428Y-100360068D01*
X153022434Y-100360070D01*
X153292806Y-100454678D01*
X153292818Y-100454682D01*
X153572102Y-100518426D01*
X153572105Y-100518426D01*
X153572108Y-100518427D01*
X153572107Y-100518427D01*
X153714434Y-100534463D01*
X153856763Y-100550499D01*
X153856764Y-100550500D01*
X153856767Y-100550500D01*
X154143236Y-100550500D01*
X154143236Y-100550499D01*
X154348815Y-100527336D01*
X154427891Y-100518427D01*
X154427892Y-100518426D01*
X154427898Y-100518426D01*
X154707182Y-100454682D01*
X154977572Y-100360068D01*
X155235669Y-100235775D01*
X155478227Y-100083366D01*
X155702195Y-99904757D01*
X155904757Y-99702195D01*
X156083366Y-99478227D01*
X156235775Y-99235669D01*
X156360068Y-98977572D01*
X156454682Y-98707182D01*
X156518426Y-98427898D01*
X156550500Y-98143233D01*
X156550500Y-97856767D01*
X156518426Y-97572102D01*
X156454682Y-97292818D01*
X156360068Y-97022428D01*
X156235775Y-96764331D01*
X156083366Y-96521773D01*
X155904757Y-96297805D01*
X155702195Y-96095243D01*
X155478227Y-95916634D01*
X155235669Y-95764225D01*
X155235666Y-95764223D01*
X154977579Y-95639935D01*
X154977565Y-95639929D01*
X154707193Y-95545321D01*
X154707181Y-95545317D01*
X154427891Y-95481572D01*
X154427892Y-95481572D01*
X154143237Y-95449500D01*
X154143233Y-95449500D01*
X153856767Y-95449500D01*
X153856762Y-95449500D01*
X153572108Y-95481572D01*
X153292818Y-95545317D01*
X153292806Y-95545321D01*
X153022434Y-95639929D01*
X153022420Y-95639935D01*
X152764333Y-95764223D01*
X152521774Y-95916633D01*
X152297805Y-96095242D01*
X152095242Y-96297805D01*
X152025247Y-96385576D01*
X151968058Y-96425716D01*
X151898246Y-96428566D01*
X151837977Y-96393220D01*
X151806384Y-96330901D01*
X151804300Y-96308263D01*
X151804300Y-93351736D01*
X151823985Y-93284697D01*
X151876789Y-93238942D01*
X151945947Y-93228998D01*
X152009503Y-93258023D01*
X152025246Y-93274422D01*
X152095243Y-93362195D01*
X152297805Y-93564757D01*
X152521773Y-93743366D01*
X152764331Y-93895775D01*
X153022428Y-94020068D01*
X153022434Y-94020070D01*
X153292806Y-94114678D01*
X153292818Y-94114682D01*
X153572102Y-94178426D01*
X153572105Y-94178426D01*
X153572108Y-94178427D01*
X153572107Y-94178427D01*
X153714434Y-94194463D01*
X153856763Y-94210499D01*
X153856764Y-94210500D01*
X153856767Y-94210500D01*
X154143236Y-94210500D01*
X154143236Y-94210499D01*
X154348815Y-94187336D01*
X154427891Y-94178427D01*
X154427892Y-94178426D01*
X154427898Y-94178426D01*
X154707182Y-94114682D01*
X154977572Y-94020068D01*
X155235669Y-93895775D01*
X155478227Y-93743366D01*
X155702195Y-93564757D01*
X155904757Y-93362195D01*
X156083366Y-93138227D01*
X156235775Y-92895669D01*
X156360068Y-92637572D01*
X156454682Y-92367182D01*
X156518426Y-92087898D01*
X156550500Y-91803233D01*
X156550500Y-91516767D01*
X156518426Y-91232102D01*
X156454682Y-90952818D01*
X156360068Y-90682428D01*
X156235775Y-90424331D01*
X156083366Y-90181773D01*
X155904757Y-89957805D01*
X155702195Y-89755243D01*
X155478227Y-89576634D01*
X155235669Y-89424225D01*
X155235666Y-89424223D01*
X154977579Y-89299935D01*
X154977565Y-89299929D01*
X154707193Y-89205321D01*
X154707181Y-89205317D01*
X154427891Y-89141572D01*
X154427892Y-89141572D01*
X154143237Y-89109500D01*
X154143233Y-89109500D01*
X153856767Y-89109500D01*
X153856762Y-89109500D01*
X153572108Y-89141572D01*
X153292818Y-89205317D01*
X153292806Y-89205321D01*
X153022434Y-89299929D01*
X153022420Y-89299935D01*
X152764333Y-89424223D01*
X152521774Y-89576633D01*
X152297805Y-89755242D01*
X152095242Y-89957805D01*
X152025247Y-90045576D01*
X151968058Y-90085716D01*
X151898246Y-90088566D01*
X151837977Y-90053220D01*
X151806384Y-89990901D01*
X151804300Y-89968263D01*
X151804300Y-88071593D01*
X151823985Y-88004554D01*
X151840619Y-87983912D01*
X157355974Y-82468558D01*
X157355974Y-82468557D01*
X157355977Y-82468555D01*
X157470942Y-82296498D01*
X157550130Y-82105319D01*
X157590501Y-81902365D01*
X157590501Y-81695434D01*
X157590501Y-81690324D01*
X157590500Y-81690298D01*
X157590500Y-76366016D01*
X157610185Y-76298977D01*
X157656110Y-76259181D01*
X157655782Y-76258702D01*
X157659997Y-76255814D01*
X157662989Y-76253222D01*
X157664421Y-76252579D01*
X157664683Y-76252462D01*
X157665265Y-76252206D01*
X157744706Y-76172765D01*
X157790085Y-76069991D01*
X157793000Y-76044865D01*
X157792999Y-74088348D01*
X159031200Y-74088348D01*
X159031200Y-74293051D01*
X159057887Y-74461550D01*
X159063223Y-74495235D01*
X159126480Y-74689918D01*
X159219413Y-74872311D01*
X159339734Y-75037919D01*
X159339736Y-75037921D01*
X159368081Y-75066266D01*
X159401566Y-75127589D01*
X159404400Y-75153947D01*
X159404400Y-88773551D01*
X159436422Y-88975734D01*
X159499681Y-89170423D01*
X159592615Y-89352813D01*
X159712928Y-89518413D01*
X159857686Y-89663171D01*
X159984415Y-89755243D01*
X160023290Y-89783487D01*
X160139507Y-89842703D01*
X160205676Y-89876418D01*
X160205678Y-89876418D01*
X160205681Y-89876420D01*
X160310037Y-89910327D01*
X160400365Y-89939677D01*
X160501457Y-89955688D01*
X160602548Y-89971700D01*
X160602549Y-89971700D01*
X160807251Y-89971700D01*
X160807252Y-89971700D01*
X161009434Y-89939677D01*
X161204119Y-89876420D01*
X161386510Y-89783487D01*
X161479490Y-89715932D01*
X161552113Y-89663171D01*
X161552115Y-89663168D01*
X161552119Y-89663166D01*
X161696866Y-89518419D01*
X161696868Y-89518415D01*
X161696871Y-89518413D01*
X161788754Y-89391945D01*
X161817187Y-89352810D01*
X161910120Y-89170419D01*
X161973377Y-88975734D01*
X162005400Y-88773552D01*
X162005400Y-74671387D01*
X162005401Y-74671362D01*
X162005401Y-74461550D01*
X161996322Y-74404231D01*
X161973377Y-74259366D01*
X161973376Y-74259362D01*
X161973376Y-74259361D01*
X161910122Y-74064684D01*
X161910121Y-74064681D01*
X161817187Y-73882290D01*
X161753890Y-73795168D01*
X161696867Y-73716682D01*
X161178919Y-73198734D01*
X161013311Y-73078413D01*
X160830918Y-72985480D01*
X160636235Y-72922223D01*
X160636233Y-72922222D01*
X160636231Y-72922222D01*
X160495064Y-72899863D01*
X160434052Y-72890200D01*
X160229348Y-72890200D01*
X160182479Y-72897623D01*
X160027168Y-72922222D01*
X159832479Y-72985481D01*
X159650087Y-73078414D01*
X159650084Y-73078416D01*
X159484478Y-73198736D01*
X159339736Y-73343478D01*
X159219416Y-73509084D01*
X159219414Y-73509087D01*
X159126481Y-73691479D01*
X159063222Y-73886168D01*
X159031200Y-74088348D01*
X157792999Y-74088348D01*
X157792999Y-73955136D01*
X157792997Y-73955117D01*
X157790086Y-73930012D01*
X157790085Y-73930010D01*
X157790085Y-73930009D01*
X157744706Y-73827235D01*
X157665265Y-73747794D01*
X157665263Y-73747793D01*
X157562492Y-73702415D01*
X157537365Y-73699500D01*
X155542643Y-73699500D01*
X155542617Y-73699502D01*
X155517512Y-73702413D01*
X155517508Y-73702415D01*
X155414735Y-73747793D01*
X155335294Y-73827234D01*
X155289915Y-73930006D01*
X155289915Y-73930008D01*
X155287000Y-73955131D01*
X155287000Y-76044856D01*
X155287002Y-76044882D01*
X155289913Y-76069987D01*
X155289915Y-76069991D01*
X155335293Y-76172764D01*
X155335294Y-76172765D01*
X155414735Y-76252206D01*
X155415143Y-76252386D01*
X155415579Y-76252579D01*
X155416862Y-76253663D01*
X155424218Y-76258702D01*
X155423708Y-76259445D01*
X155468958Y-76297661D01*
X155489490Y-76364446D01*
X155489500Y-76366016D01*
X155489500Y-81312406D01*
X155469815Y-81379445D01*
X155453181Y-81400087D01*
X150269681Y-86583587D01*
X150208358Y-86617072D01*
X150138666Y-86612088D01*
X150082733Y-86570216D01*
X150058316Y-86504752D01*
X150058000Y-86495906D01*
X150058000Y-76424500D01*
X150077685Y-76357461D01*
X150130489Y-76311706D01*
X150182000Y-76300500D01*
X151562351Y-76300500D01*
X151562352Y-76300500D01*
X151764534Y-76268477D01*
X151959219Y-76205220D01*
X152141610Y-76112287D01*
X152234590Y-76044732D01*
X152307213Y-75991971D01*
X152307215Y-75991968D01*
X152307219Y-75991966D01*
X152451966Y-75847219D01*
X152451968Y-75847215D01*
X152451971Y-75847213D01*
X152504732Y-75774590D01*
X152572287Y-75681610D01*
X152665220Y-75499219D01*
X152728477Y-75304534D01*
X152760500Y-75102352D01*
X152760500Y-74897648D01*
X152728477Y-74695466D01*
X152726674Y-74689918D01*
X152665218Y-74500776D01*
X152616025Y-74404231D01*
X152572287Y-74318390D01*
X152553877Y-74293051D01*
X152451971Y-74152786D01*
X152307213Y-74008028D01*
X152141613Y-73887715D01*
X152141612Y-73887714D01*
X152141610Y-73887713D01*
X152077378Y-73854985D01*
X152026582Y-73807010D01*
X152009787Y-73739189D01*
X152032325Y-73673054D01*
X152087040Y-73629603D01*
X152133673Y-73620500D01*
X152603466Y-73620500D01*
X152603467Y-73620499D01*
X152806420Y-73580130D01*
X152997598Y-73500941D01*
X153169655Y-73385977D01*
X153315977Y-73239655D01*
X153329332Y-73219666D01*
X153344749Y-73200880D01*
X155286865Y-71258764D01*
X155318251Y-71235962D01*
X155366784Y-71211234D01*
X155366783Y-71211234D01*
X155366788Y-71211232D01*
X155506928Y-71109414D01*
X155629414Y-70986928D01*
X155731232Y-70846788D01*
X155809873Y-70692445D01*
X155863402Y-70527701D01*
X155890500Y-70356611D01*
X155890500Y-70183389D01*
X156229500Y-70183389D01*
X156229500Y-70356610D01*
X156256597Y-70527697D01*
X156256597Y-70527699D01*
X156256598Y-70527701D01*
X156310127Y-70692445D01*
X156388768Y-70846788D01*
X156490586Y-70986928D01*
X156613072Y-71109414D01*
X156753212Y-71211232D01*
X156907555Y-71289873D01*
X157072299Y-71343402D01*
X157243389Y-71370500D01*
X157243390Y-71370500D01*
X157416610Y-71370500D01*
X157416611Y-71370500D01*
X157587701Y-71343402D01*
X157752445Y-71289873D01*
X157906788Y-71211232D01*
X158046928Y-71109414D01*
X158169414Y-70986928D01*
X158271232Y-70846788D01*
X158349873Y-70692445D01*
X158403402Y-70527701D01*
X158430500Y-70356611D01*
X158430500Y-70183389D01*
X158769500Y-70183389D01*
X158769500Y-70356610D01*
X158796597Y-70527697D01*
X158796597Y-70527699D01*
X158796598Y-70527701D01*
X158850127Y-70692445D01*
X158928768Y-70846788D01*
X159030586Y-70986928D01*
X159153072Y-71109414D01*
X159293212Y-71211232D01*
X159447555Y-71289873D01*
X159612299Y-71343402D01*
X159783389Y-71370500D01*
X159783390Y-71370500D01*
X159956610Y-71370500D01*
X159956611Y-71370500D01*
X160127701Y-71343402D01*
X160292445Y-71289873D01*
X160446788Y-71211232D01*
X160586928Y-71109414D01*
X160709414Y-70986928D01*
X160811232Y-70846788D01*
X160889873Y-70692445D01*
X160943402Y-70527701D01*
X160970500Y-70356611D01*
X160970500Y-70183389D01*
X160943402Y-70012299D01*
X160889873Y-69847555D01*
X160811232Y-69693212D01*
X160709414Y-69553072D01*
X160586928Y-69430586D01*
X160446788Y-69328768D01*
X160292445Y-69250127D01*
X160127701Y-69196598D01*
X160127699Y-69196597D01*
X160127698Y-69196597D01*
X159996271Y-69175781D01*
X159956611Y-69169500D01*
X159783389Y-69169500D01*
X159743728Y-69175781D01*
X159612302Y-69196597D01*
X159447552Y-69250128D01*
X159293211Y-69328768D01*
X159213256Y-69386859D01*
X159153072Y-69430586D01*
X159153070Y-69430588D01*
X159153069Y-69430588D01*
X159030588Y-69553069D01*
X159030588Y-69553070D01*
X159030586Y-69553072D01*
X158992549Y-69605425D01*
X158928768Y-69693211D01*
X158850128Y-69847552D01*
X158796597Y-70012302D01*
X158769500Y-70183389D01*
X158430500Y-70183389D01*
X158403402Y-70012299D01*
X158349873Y-69847555D01*
X158271232Y-69693212D01*
X158169414Y-69553072D01*
X158046928Y-69430586D01*
X157906788Y-69328768D01*
X157752445Y-69250127D01*
X157587701Y-69196598D01*
X157587699Y-69196597D01*
X157587698Y-69196597D01*
X157456271Y-69175781D01*
X157416611Y-69169500D01*
X157243389Y-69169500D01*
X157203728Y-69175781D01*
X157072302Y-69196597D01*
X156907552Y-69250128D01*
X156753211Y-69328768D01*
X156673256Y-69386859D01*
X156613072Y-69430586D01*
X156613070Y-69430588D01*
X156613069Y-69430588D01*
X156490588Y-69553069D01*
X156490588Y-69553070D01*
X156490586Y-69553072D01*
X156452549Y-69605425D01*
X156388768Y-69693211D01*
X156310128Y-69847552D01*
X156256597Y-70012302D01*
X156229500Y-70183389D01*
X155890500Y-70183389D01*
X155863402Y-70012299D01*
X155809873Y-69847555D01*
X155731232Y-69693212D01*
X155629414Y-69553072D01*
X155506928Y-69430586D01*
X155366788Y-69328768D01*
X155212445Y-69250127D01*
X155047701Y-69196598D01*
X155047699Y-69196597D01*
X155047698Y-69196597D01*
X154916271Y-69175781D01*
X154876611Y-69169500D01*
X154703389Y-69169500D01*
X154663728Y-69175781D01*
X154532302Y-69196597D01*
X154367552Y-69250128D01*
X154213211Y-69328768D01*
X154133256Y-69386859D01*
X154073072Y-69430586D01*
X154073070Y-69430588D01*
X154073069Y-69430588D01*
X153950588Y-69553069D01*
X153950588Y-69553070D01*
X153950586Y-69553072D01*
X153912549Y-69605425D01*
X153848768Y-69693211D01*
X153843125Y-69704287D01*
X153826103Y-69737695D01*
X153824038Y-69741747D01*
X153801234Y-69773133D01*
X152091188Y-71483181D01*
X152029865Y-71516666D01*
X152003507Y-71519500D01*
X150198275Y-71519500D01*
X150131236Y-71499815D01*
X150085481Y-71447011D01*
X150075537Y-71377853D01*
X150104562Y-71314297D01*
X150141980Y-71285015D01*
X150220753Y-71244878D01*
X150286788Y-71211232D01*
X150426928Y-71109414D01*
X150549414Y-70986928D01*
X150651232Y-70846788D01*
X150729873Y-70692445D01*
X150783402Y-70527701D01*
X150810500Y-70356611D01*
X150810500Y-70183389D01*
X150783402Y-70012299D01*
X150729873Y-69847555D01*
X150651232Y-69693212D01*
X150549414Y-69553072D01*
X150426928Y-69430586D01*
X150286788Y-69328768D01*
X150132445Y-69250127D01*
X149967701Y-69196598D01*
X149967699Y-69196597D01*
X149967698Y-69196597D01*
X149836271Y-69175781D01*
X149796611Y-69169500D01*
X149623389Y-69169500D01*
X149583728Y-69175781D01*
X149452302Y-69196597D01*
X149287552Y-69250128D01*
X149133211Y-69328768D01*
X149053256Y-69386859D01*
X148993072Y-69430586D01*
X148993070Y-69430588D01*
X148993069Y-69430588D01*
X148870588Y-69553069D01*
X148870588Y-69553070D01*
X148870586Y-69553072D01*
X148832549Y-69605425D01*
X148768768Y-69693211D01*
X148690128Y-69847552D01*
X148636597Y-70012302D01*
X148609500Y-70183389D01*
X148609500Y-70356610D01*
X148636597Y-70527697D01*
X148636597Y-70527699D01*
X148636598Y-70527701D01*
X148690127Y-70692445D01*
X148768768Y-70846788D01*
X148870586Y-70986928D01*
X148993072Y-71109414D01*
X149133212Y-71211232D01*
X149181748Y-71235962D01*
X149278020Y-71285015D01*
X149328816Y-71332989D01*
X149345611Y-71400810D01*
X149323074Y-71466945D01*
X149268359Y-71510397D01*
X149221725Y-71519500D01*
X148372600Y-71519500D01*
X148372580Y-71519499D01*
X148366466Y-71519499D01*
X148159535Y-71519499D01*
X148159533Y-71519499D01*
X147956585Y-71559868D01*
X147956575Y-71559871D01*
X147765408Y-71639054D01*
X147765395Y-71639061D01*
X147593345Y-71754022D01*
X147593341Y-71754025D01*
X146106898Y-73240468D01*
X146045575Y-73273953D01*
X145975883Y-73268969D01*
X145919950Y-73227097D01*
X145895533Y-73161633D01*
X145898185Y-73129420D01*
X145897715Y-73129346D01*
X145930500Y-72922351D01*
X145930500Y-70777900D01*
X145950185Y-70710861D01*
X146002989Y-70665106D01*
X146072147Y-70655162D01*
X146135703Y-70684187D01*
X146164985Y-70721606D01*
X146228766Y-70846786D01*
X146259357Y-70888890D01*
X146330586Y-70986928D01*
X146453072Y-71109414D01*
X146593212Y-71211232D01*
X146747555Y-71289873D01*
X146912299Y-71343402D01*
X147083389Y-71370500D01*
X147083390Y-71370500D01*
X147256610Y-71370500D01*
X147256611Y-71370500D01*
X147427701Y-71343402D01*
X147592445Y-71289873D01*
X147746788Y-71211232D01*
X147886928Y-71109414D01*
X148009414Y-70986928D01*
X148111232Y-70846788D01*
X148189873Y-70692445D01*
X148243402Y-70527701D01*
X148270500Y-70356611D01*
X148270500Y-70183389D01*
X148243402Y-70012299D01*
X148189873Y-69847555D01*
X148111232Y-69693212D01*
X148009414Y-69553072D01*
X147886928Y-69430586D01*
X147746788Y-69328768D01*
X147592445Y-69250127D01*
X147427701Y-69196598D01*
X147427699Y-69196597D01*
X147427698Y-69196597D01*
X147296271Y-69175781D01*
X147256611Y-69169500D01*
X147083389Y-69169500D01*
X147043728Y-69175781D01*
X146912302Y-69196597D01*
X146747552Y-69250128D01*
X146593211Y-69328768D01*
X146513256Y-69386859D01*
X146453072Y-69430586D01*
X146453070Y-69430588D01*
X146453069Y-69430588D01*
X146330588Y-69553069D01*
X146330588Y-69553070D01*
X146330586Y-69553072D01*
X146292549Y-69605425D01*
X146228768Y-69693211D01*
X146150128Y-69847550D01*
X146123077Y-69930806D01*
X146083639Y-69988481D01*
X146019280Y-70015679D01*
X145950434Y-70003764D01*
X145898958Y-69956519D01*
X145887215Y-69930805D01*
X145860164Y-69847552D01*
X145835220Y-69770781D01*
X145742287Y-69588390D01*
X145720335Y-69558175D01*
X145621971Y-69422786D01*
X145477213Y-69278028D01*
X145311613Y-69157715D01*
X145311612Y-69157714D01*
X145311610Y-69157713D01*
X145254653Y-69128691D01*
X145129223Y-69064781D01*
X144934534Y-69001522D01*
X144759995Y-68973878D01*
X144732352Y-68969500D01*
X144527648Y-68969500D01*
X144503329Y-68973351D01*
X144325465Y-69001522D01*
X144130776Y-69064781D01*
X143948386Y-69157715D01*
X143782786Y-69278028D01*
X143638028Y-69422786D01*
X143517715Y-69588386D01*
X143424781Y-69770776D01*
X143372784Y-69930806D01*
X143333346Y-69988481D01*
X143268987Y-70015679D01*
X143200141Y-70003764D01*
X143148665Y-69956519D01*
X143136924Y-69930810D01*
X143109873Y-69847555D01*
X143031232Y-69693212D01*
X142929414Y-69553072D01*
X142806928Y-69430586D01*
X142666788Y-69328768D01*
X142512445Y-69250127D01*
X142347701Y-69196598D01*
X142347699Y-69196597D01*
X142347698Y-69196597D01*
X142216271Y-69175781D01*
X142176611Y-69169500D01*
X142003389Y-69169500D01*
X141963728Y-69175781D01*
X141832302Y-69196597D01*
X141667552Y-69250128D01*
X141513211Y-69328768D01*
X141433256Y-69386859D01*
X141373072Y-69430586D01*
X141373070Y-69430588D01*
X141373069Y-69430588D01*
X141250588Y-69553069D01*
X141250588Y-69553070D01*
X141250586Y-69553072D01*
X141212549Y-69605425D01*
X141148768Y-69693211D01*
X141070128Y-69847552D01*
X141016597Y-70012302D01*
X140989500Y-70183389D01*
X140989500Y-70356610D01*
X141016597Y-70527697D01*
X141016597Y-70527699D01*
X141016598Y-70527701D01*
X141070127Y-70692445D01*
X141148768Y-70846788D01*
X141250586Y-70986928D01*
X141373072Y-71109414D01*
X141513212Y-71211232D01*
X141667555Y-71289873D01*
X141832299Y-71343402D01*
X142003389Y-71370500D01*
X142003390Y-71370500D01*
X142176610Y-71370500D01*
X142176611Y-71370500D01*
X142347701Y-71343402D01*
X142512445Y-71289873D01*
X142666788Y-71211232D01*
X142806928Y-71109414D01*
X142929414Y-70986928D01*
X143031232Y-70846788D01*
X143095015Y-70721606D01*
X143142989Y-70670809D01*
X143210810Y-70654014D01*
X143276945Y-70676551D01*
X143320397Y-70731266D01*
X143329500Y-70777900D01*
X143329500Y-71553304D01*
X143309815Y-71620343D01*
X143261795Y-71663789D01*
X143175588Y-71707713D01*
X143009978Y-71828036D01*
X141585536Y-73252478D01*
X141465216Y-73418084D01*
X141465214Y-73418087D01*
X141372281Y-73600479D01*
X141309022Y-73795168D01*
X141283686Y-73955135D01*
X141277000Y-73997348D01*
X141277000Y-74202052D01*
X141309023Y-74404235D01*
X141372280Y-74598918D01*
X141465213Y-74781311D01*
X141585534Y-74946919D01*
X141730281Y-75091666D01*
X141895889Y-75211987D01*
X142078282Y-75304920D01*
X142272965Y-75368177D01*
X142475148Y-75400200D01*
X142475149Y-75400200D01*
X142679851Y-75400200D01*
X142679852Y-75400200D01*
X142882035Y-75368177D01*
X143076718Y-75304920D01*
X143259111Y-75211987D01*
X143424719Y-75091666D01*
X144359566Y-74156819D01*
X144420889Y-74123334D01*
X144447247Y-74120500D01*
X144732351Y-74120500D01*
X144732352Y-74120500D01*
X144835898Y-74104099D01*
X144939346Y-74087715D01*
X144939538Y-74088931D01*
X145003612Y-74092130D01*
X145060433Y-74132789D01*
X145086252Y-74197713D01*
X145072872Y-74266290D01*
X145050468Y-74296898D01*
X139211681Y-80135686D01*
X139150358Y-80169171D01*
X139080666Y-80164187D01*
X139024733Y-80122315D01*
X139000316Y-80056851D01*
X139000000Y-80048005D01*
X139000000Y-71419098D01*
X139019685Y-71352059D01*
X139072489Y-71306304D01*
X139141647Y-71296360D01*
X139162301Y-71301162D01*
X139292299Y-71343402D01*
X139463389Y-71370500D01*
X139463390Y-71370500D01*
X139636610Y-71370500D01*
X139636611Y-71370500D01*
X139807701Y-71343402D01*
X139972445Y-71289873D01*
X140126788Y-71211232D01*
X140266928Y-71109414D01*
X140389414Y-70986928D01*
X140491232Y-70846788D01*
X140569873Y-70692445D01*
X140623402Y-70527701D01*
X140650500Y-70356611D01*
X140650500Y-70183389D01*
X140623402Y-70012299D01*
X140569873Y-69847555D01*
X140491232Y-69693212D01*
X140389414Y-69553072D01*
X140266928Y-69430586D01*
X140126788Y-69328768D01*
X139972445Y-69250127D01*
X139807701Y-69196598D01*
X139807699Y-69196597D01*
X139807698Y-69196597D01*
X139676271Y-69175781D01*
X139636611Y-69169500D01*
X139463389Y-69169500D01*
X139423728Y-69175781D01*
X139292302Y-69196597D01*
X139292299Y-69196598D01*
X139162317Y-69238832D01*
X139092477Y-69240827D01*
X139032644Y-69204747D01*
X139001816Y-69142046D01*
X139000000Y-69120901D01*
X139000000Y-67624500D01*
X139019685Y-67557461D01*
X139072489Y-67511706D01*
X139124000Y-67500500D01*
X163394505Y-67500500D01*
X163461544Y-67520185D01*
G37*
%TD.AperFunction*%
%TA.AperFunction,Conductor*%
G36*
X147376334Y-75044811D02*
G01*
X147432267Y-75086683D01*
X147456684Y-75152147D01*
X147457000Y-75160993D01*
X147457000Y-96532553D01*
X147437315Y-96599592D01*
X147420681Y-96620234D01*
X144559736Y-99481178D01*
X144439416Y-99646784D01*
X144439414Y-99646787D01*
X144346481Y-99829179D01*
X144283222Y-100023868D01*
X144251200Y-100226048D01*
X144251200Y-100430751D01*
X144265086Y-100518427D01*
X144283223Y-100632935D01*
X144346480Y-100827618D01*
X144439413Y-101010011D01*
X144559734Y-101175619D01*
X144704481Y-101320366D01*
X144870089Y-101440687D01*
X145052482Y-101533620D01*
X145247165Y-101596877D01*
X145449348Y-101628900D01*
X145449349Y-101628900D01*
X145654051Y-101628900D01*
X145654052Y-101628900D01*
X145856235Y-101596877D01*
X146050918Y-101533620D01*
X146233311Y-101440687D01*
X146398919Y-101320366D01*
X149491619Y-98227663D01*
X149552942Y-98194179D01*
X149622634Y-98199163D01*
X149678567Y-98241035D01*
X149702984Y-98306499D01*
X149703300Y-98315345D01*
X149703300Y-108099706D01*
X149683615Y-108166745D01*
X149666981Y-108187387D01*
X142440347Y-115414021D01*
X142440345Y-115414023D01*
X142367184Y-115487184D01*
X142294023Y-115560344D01*
X142179058Y-115732403D01*
X142099870Y-115923579D01*
X142099868Y-115923587D01*
X142059500Y-116126530D01*
X142059500Y-118182173D01*
X142053431Y-118220491D01*
X142036598Y-118272294D01*
X142036598Y-118272297D01*
X142009500Y-118443389D01*
X142009500Y-118616611D01*
X142036598Y-118787701D01*
X142090127Y-118952445D01*
X142168768Y-119106788D01*
X142270586Y-119246928D01*
X142270588Y-119246930D01*
X142295477Y-119271819D01*
X142328962Y-119333142D01*
X142323978Y-119402834D01*
X142282106Y-119458767D01*
X142216642Y-119483184D01*
X142207796Y-119483500D01*
X141472204Y-119483500D01*
X141405165Y-119463815D01*
X141359410Y-119411011D01*
X141349466Y-119341853D01*
X141378491Y-119278297D01*
X141384523Y-119271819D01*
X141409414Y-119246928D01*
X141511232Y-119106788D01*
X141589873Y-118952445D01*
X141643402Y-118787701D01*
X141670500Y-118616611D01*
X141670500Y-118443389D01*
X141643402Y-118272299D01*
X141589873Y-118107555D01*
X141511232Y-117953212D01*
X141409414Y-117813072D01*
X141286928Y-117690586D01*
X141146788Y-117588768D01*
X140992445Y-117510127D01*
X140827701Y-117456598D01*
X140827699Y-117456597D01*
X140827698Y-117456597D01*
X140696271Y-117435781D01*
X140656611Y-117429500D01*
X140483389Y-117429500D01*
X140443728Y-117435781D01*
X140312302Y-117456597D01*
X140147552Y-117510128D01*
X139993211Y-117588768D01*
X139913256Y-117646859D01*
X139853072Y-117690586D01*
X139853070Y-117690588D01*
X139853069Y-117690588D01*
X139730588Y-117813069D01*
X139730588Y-117813070D01*
X139730586Y-117813072D01*
X139714788Y-117834816D01*
X139628768Y-117953211D01*
X139550128Y-118107552D01*
X139496597Y-118272302D01*
X139469500Y-118443389D01*
X139469500Y-118616611D01*
X139496598Y-118787701D01*
X139550127Y-118952445D01*
X139628768Y-119106788D01*
X139730586Y-119246928D01*
X139730588Y-119246930D01*
X139755477Y-119271819D01*
X139788962Y-119333142D01*
X139783978Y-119402834D01*
X139742106Y-119458767D01*
X139676642Y-119483184D01*
X139667796Y-119483500D01*
X139124000Y-119483500D01*
X139056961Y-119463815D01*
X139011206Y-119411011D01*
X139000000Y-119359500D01*
X139000000Y-119080096D01*
X139013514Y-119023803D01*
X139049873Y-118952445D01*
X139103402Y-118787701D01*
X139130500Y-118616611D01*
X139130500Y-118443389D01*
X139103402Y-118272299D01*
X139049873Y-118107555D01*
X139013515Y-118036197D01*
X139000000Y-117979903D01*
X139000000Y-83369993D01*
X139019685Y-83302954D01*
X139036319Y-83282312D01*
X147245319Y-75073312D01*
X147306642Y-75039827D01*
X147376334Y-75044811D01*
G37*
%TD.AperFunction*%
%TA.AperFunction,Conductor*%
G36*
X166418257Y-69558175D02*
G01*
X166420928Y-69557514D01*
X166451587Y-69567961D01*
X166482657Y-69577085D01*
X166484457Y-69579163D01*
X166487063Y-69580051D01*
X166507213Y-69605425D01*
X166528412Y-69629889D01*
X166528803Y-69632610D01*
X166530515Y-69634766D01*
X166533748Y-69667000D01*
X166538356Y-69699047D01*
X166537297Y-69702386D01*
X166537488Y-69704287D01*
X166526103Y-69737695D01*
X166470128Y-69847552D01*
X166416597Y-70012302D01*
X166389500Y-70183389D01*
X166389500Y-70356610D01*
X166416597Y-70527697D01*
X166416597Y-70527699D01*
X166416598Y-70527701D01*
X166470127Y-70692445D01*
X166548768Y-70846788D01*
X166650586Y-70986928D01*
X166773072Y-71109414D01*
X166913212Y-71211232D01*
X167067555Y-71289873D01*
X167232299Y-71343402D01*
X167403389Y-71370500D01*
X167403390Y-71370500D01*
X167576610Y-71370500D01*
X167576611Y-71370500D01*
X167747701Y-71343402D01*
X167912445Y-71289873D01*
X168066788Y-71211232D01*
X168206928Y-71109414D01*
X168329414Y-70986928D01*
X168431232Y-70846788D01*
X168509873Y-70692445D01*
X168563402Y-70527701D01*
X168590500Y-70356611D01*
X168590500Y-70277393D01*
X168610185Y-70210354D01*
X168662989Y-70164599D01*
X168732147Y-70154655D01*
X168795703Y-70183680D01*
X168802181Y-70189712D01*
X175963681Y-77351212D01*
X175997166Y-77412535D01*
X176000000Y-77438893D01*
X176000000Y-80404906D01*
X175980315Y-80471945D01*
X175927511Y-80517700D01*
X175858353Y-80527644D01*
X175794797Y-80498619D01*
X175788319Y-80492587D01*
X167203147Y-71907416D01*
X167203144Y-71907412D01*
X167203144Y-71907413D01*
X167196077Y-71900346D01*
X167196077Y-71900345D01*
X167049755Y-71754023D01*
X166877698Y-71639059D01*
X166686520Y-71559870D01*
X166686512Y-71559868D01*
X166483569Y-71519500D01*
X166483565Y-71519500D01*
X166124500Y-71519500D01*
X166057461Y-71499815D01*
X166011706Y-71447011D01*
X166000500Y-71395500D01*
X166000500Y-70617825D01*
X166006569Y-70579507D01*
X166007460Y-70576764D01*
X166023402Y-70527701D01*
X166050500Y-70356611D01*
X166050500Y-70183389D01*
X166023402Y-70012299D01*
X165969873Y-69847555D01*
X165913896Y-69737694D01*
X165901001Y-69669025D01*
X165927278Y-69604285D01*
X165984384Y-69564028D01*
X166024382Y-69557400D01*
X166415618Y-69557400D01*
X166418257Y-69558175D01*
G37*
%TD.AperFunction*%
%TA.AperFunction,Conductor*%
G36*
X175943039Y-67520185D02*
G01*
X175988794Y-67572989D01*
X176000000Y-67624500D01*
X176000000Y-74116906D01*
X175980315Y-74183945D01*
X175927511Y-74229700D01*
X175858353Y-74239644D01*
X175794797Y-74210619D01*
X175788319Y-74204587D01*
X169428047Y-67844316D01*
X169428044Y-67844312D01*
X169428044Y-67844313D01*
X169420977Y-67837246D01*
X169420977Y-67837245D01*
X169295913Y-67712181D01*
X169262429Y-67650858D01*
X169267413Y-67581166D01*
X169309285Y-67525233D01*
X169374749Y-67500816D01*
X169383595Y-67500500D01*
X175876000Y-67500500D01*
X175943039Y-67520185D01*
G37*
%TD.AperFunction*%
%TD*%
%TA.AperFunction,NonConductor*%
G36*
X138419334Y-84284653D02*
G01*
X138475267Y-84326525D01*
X138499684Y-84391989D01*
X138500000Y-84400835D01*
X138500000Y-85575766D01*
X138480315Y-85642805D01*
X138427511Y-85688560D01*
X138358353Y-85698504D01*
X138294797Y-85669479D01*
X138288319Y-85663447D01*
X138203629Y-85578757D01*
X138203622Y-85578751D01*
X138026782Y-85443058D01*
X138026780Y-85443057D01*
X138026774Y-85443052D01*
X137833726Y-85331595D01*
X137833722Y-85331593D01*
X137627782Y-85246290D01*
X137620246Y-85244271D01*
X137560585Y-85207907D01*
X137530055Y-85145061D01*
X137538349Y-85075685D01*
X137564654Y-85036818D01*
X138288319Y-84313153D01*
X138349642Y-84279669D01*
X138419334Y-84284653D01*
G37*
%TD.AperFunction*%
%TA.AperFunction,NonConductor*%
G36*
X135387830Y-87316156D02*
G01*
X135443763Y-87358028D01*
X135464270Y-87400245D01*
X135466290Y-87407781D01*
X135551595Y-87613726D01*
X135663052Y-87806774D01*
X135663057Y-87806780D01*
X135663058Y-87806782D01*
X135798751Y-87983622D01*
X135798757Y-87983629D01*
X135956370Y-88141242D01*
X135956377Y-88141248D01*
X136082294Y-88237867D01*
X136133226Y-88276948D01*
X136326274Y-88388405D01*
X136532219Y-88473710D01*
X136747537Y-88531404D01*
X136968543Y-88560500D01*
X136968550Y-88560500D01*
X137191450Y-88560500D01*
X137191457Y-88560500D01*
X137412463Y-88531404D01*
X137627781Y-88473710D01*
X137833726Y-88388405D01*
X138026774Y-88276948D01*
X138203624Y-88141247D01*
X138215537Y-88129334D01*
X138288319Y-88056553D01*
X138349642Y-88023068D01*
X138419334Y-88028052D01*
X138475267Y-88069924D01*
X138499684Y-88135388D01*
X138500000Y-88144234D01*
X138500000Y-92465766D01*
X138480315Y-92532805D01*
X138427511Y-92578560D01*
X138358353Y-92588504D01*
X138294797Y-92559479D01*
X138288319Y-92553447D01*
X138203629Y-92468757D01*
X138203622Y-92468751D01*
X138026782Y-92333058D01*
X138026780Y-92333057D01*
X138026774Y-92333052D01*
X137833726Y-92221595D01*
X137833722Y-92221593D01*
X137627790Y-92136293D01*
X137627783Y-92136291D01*
X137627781Y-92136290D01*
X137412463Y-92078596D01*
X137412457Y-92078595D01*
X137412452Y-92078594D01*
X137191466Y-92049501D01*
X137191463Y-92049500D01*
X137191457Y-92049500D01*
X136968543Y-92049500D01*
X136968537Y-92049500D01*
X136968533Y-92049501D01*
X136747547Y-92078594D01*
X136747540Y-92078595D01*
X136747537Y-92078596D01*
X136639729Y-92107483D01*
X136532219Y-92136290D01*
X136532209Y-92136293D01*
X136326277Y-92221593D01*
X136326273Y-92221595D01*
X136133226Y-92333052D01*
X136133217Y-92333058D01*
X135956377Y-92468751D01*
X135956370Y-92468757D01*
X135798757Y-92626370D01*
X135798751Y-92626377D01*
X135663058Y-92803217D01*
X135663052Y-92803226D01*
X135551595Y-92996273D01*
X135551593Y-92996277D01*
X135466293Y-93202209D01*
X135466290Y-93202219D01*
X135408597Y-93417534D01*
X135408595Y-93417545D01*
X135402339Y-93465064D01*
X135374072Y-93528960D01*
X135315748Y-93567431D01*
X135245883Y-93568262D01*
X135186660Y-93531190D01*
X135156881Y-93467984D01*
X135155400Y-93448878D01*
X135155400Y-91467402D01*
X135118453Y-91234131D01*
X135045466Y-91009503D01*
X134988902Y-90898491D01*
X134938243Y-90799067D01*
X134799417Y-90607990D01*
X134632410Y-90440983D01*
X134441333Y-90302157D01*
X134230896Y-90194933D01*
X134006268Y-90121946D01*
X133772997Y-90085000D01*
X133772992Y-90085000D01*
X133536808Y-90085000D01*
X133536803Y-90085000D01*
X133303531Y-90121946D01*
X133148565Y-90172299D01*
X133078908Y-90194932D01*
X133078905Y-90194933D01*
X133078894Y-90194937D01*
X133076040Y-90196119D01*
X133074870Y-90196244D01*
X133074275Y-90196438D01*
X133074234Y-90196312D01*
X133006570Y-90203580D01*
X132944094Y-90172299D01*
X132908448Y-90112206D01*
X132904600Y-90081553D01*
X132904600Y-89748235D01*
X132924285Y-89681196D01*
X132940914Y-89660559D01*
X135256817Y-87344655D01*
X135318138Y-87311172D01*
X135387830Y-87316156D01*
G37*
%TD.AperFunction*%
%TA.AperFunction,NonConductor*%
G36*
X135288820Y-93929565D02*
G01*
X135297047Y-93928383D01*
X135321734Y-93939657D01*
X135347676Y-93947611D01*
X135353042Y-93953955D01*
X135360603Y-93957408D01*
X135375275Y-93980238D01*
X135392799Y-94000955D01*
X135396065Y-94012588D01*
X135398377Y-94016186D01*
X135402339Y-94034936D01*
X135408594Y-94082452D01*
X135408595Y-94082457D01*
X135408596Y-94082463D01*
X135408597Y-94082465D01*
X135466290Y-94297780D01*
X135466293Y-94297790D01*
X135551593Y-94503722D01*
X135551595Y-94503726D01*
X135663052Y-94696774D01*
X135663057Y-94696780D01*
X135663058Y-94696782D01*
X135798751Y-94873622D01*
X135798757Y-94873629D01*
X135956370Y-95031242D01*
X135956377Y-95031248D01*
X136082294Y-95127867D01*
X136133226Y-95166948D01*
X136326274Y-95278405D01*
X136532219Y-95363710D01*
X136747537Y-95421404D01*
X136968543Y-95450500D01*
X136968550Y-95450500D01*
X137191450Y-95450500D01*
X137191457Y-95450500D01*
X137412463Y-95421404D01*
X137627781Y-95363710D01*
X137833726Y-95278405D01*
X138026774Y-95166948D01*
X138203624Y-95031247D01*
X138215537Y-95019334D01*
X138288319Y-94946553D01*
X138349642Y-94913068D01*
X138419334Y-94918052D01*
X138475267Y-94959924D01*
X138499684Y-95025388D01*
X138500000Y-95034234D01*
X138500000Y-99355766D01*
X138480315Y-99422805D01*
X138427511Y-99468560D01*
X138358353Y-99478504D01*
X138294797Y-99449479D01*
X138288319Y-99443447D01*
X138203629Y-99358757D01*
X138203622Y-99358751D01*
X138026782Y-99223058D01*
X138026780Y-99223057D01*
X138026774Y-99223052D01*
X137833726Y-99111595D01*
X137833722Y-99111593D01*
X137627781Y-99026290D01*
X137605962Y-99020443D01*
X137550377Y-98988350D01*
X135191719Y-96629692D01*
X135158234Y-96568369D01*
X135155400Y-96542011D01*
X135155400Y-94051121D01*
X135163045Y-94025082D01*
X135167227Y-93998271D01*
X135172743Y-93992055D01*
X135175085Y-93984082D01*
X135195591Y-93966313D01*
X135213607Y-93946015D01*
X135221609Y-93943768D01*
X135227889Y-93938327D01*
X135254747Y-93934465D01*
X135280875Y-93927130D01*
X135288820Y-93929565D01*
G37*
%TD.AperFunction*%
%TA.AperFunction,NonConductor*%
G36*
X133109803Y-98792276D02*
G01*
X133116281Y-98798308D01*
X135428350Y-101110377D01*
X135460443Y-101165962D01*
X135466290Y-101187781D01*
X135551590Y-101393716D01*
X135551592Y-101393720D01*
X135551595Y-101393726D01*
X135562888Y-101413285D01*
X135579500Y-101475284D01*
X135579500Y-108637111D01*
X135559815Y-108704150D01*
X135543181Y-108724792D01*
X129332181Y-114935792D01*
X129270858Y-114969277D01*
X129201166Y-114964293D01*
X129145233Y-114922421D01*
X129120816Y-114856957D01*
X129120500Y-114848111D01*
X129120500Y-110699336D01*
X129140185Y-110632297D01*
X129156819Y-110611655D01*
X129736897Y-110031577D01*
X130453828Y-109314646D01*
X130569524Y-109155405D01*
X130612680Y-109070705D01*
X130660652Y-109019911D01*
X130728473Y-109003115D01*
X130794608Y-109025652D01*
X130810845Y-109039320D01*
X131086172Y-109314646D01*
X131225354Y-109453828D01*
X131384595Y-109569524D01*
X131467454Y-109611742D01*
X131559969Y-109658882D01*
X131559971Y-109658882D01*
X131559974Y-109658884D01*
X131660318Y-109691487D01*
X131747173Y-109719709D01*
X131941578Y-109750500D01*
X131941583Y-109750500D01*
X132138422Y-109750500D01*
X132332826Y-109719709D01*
X132520026Y-109658884D01*
X132695405Y-109569524D01*
X132854646Y-109453828D01*
X132993828Y-109314646D01*
X133109524Y-109155405D01*
X133198884Y-108980026D01*
X133259709Y-108792826D01*
X133290500Y-108598422D01*
X133290500Y-108401577D01*
X133259709Y-108207173D01*
X133220515Y-108086547D01*
X133198884Y-108019974D01*
X133198882Y-108019971D01*
X133198882Y-108019969D01*
X133109523Y-107844594D01*
X132993828Y-107685354D01*
X132940919Y-107632445D01*
X132907434Y-107571122D01*
X132904600Y-107544764D01*
X132904600Y-98885989D01*
X132924285Y-98818950D01*
X132977089Y-98773195D01*
X133046247Y-98763251D01*
X133109803Y-98792276D01*
G37*
%TD.AperFunction*%
%TA.AperFunction,NonConductor*%
G36*
X138462421Y-110201049D02*
G01*
X138496778Y-110261888D01*
X138500000Y-110289973D01*
X138500000Y-117144614D01*
X138480315Y-117211653D01*
X138427511Y-117257408D01*
X138358353Y-117267352D01*
X138337685Y-117262546D01*
X138334539Y-117261524D01*
X138334535Y-117261523D01*
X138233443Y-117245511D01*
X138132352Y-117229500D01*
X137927648Y-117229500D01*
X137903329Y-117233351D01*
X137725465Y-117261522D01*
X137530776Y-117324781D01*
X137348386Y-117417715D01*
X137182786Y-117538028D01*
X137038028Y-117682786D01*
X136917715Y-117848386D01*
X136870485Y-117941080D01*
X136822510Y-117991876D01*
X136754689Y-118008671D01*
X136688554Y-117986134D01*
X136649515Y-117941080D01*
X136637121Y-117916755D01*
X136602287Y-117848390D01*
X136555181Y-117783553D01*
X136481971Y-117682786D01*
X136337213Y-117538028D01*
X136171613Y-117417715D01*
X136171612Y-117417714D01*
X136171610Y-117417713D01*
X136114653Y-117388691D01*
X135989223Y-117324781D01*
X135794534Y-117261522D01*
X135619995Y-117233878D01*
X135592352Y-117229500D01*
X135387648Y-117229500D01*
X135363329Y-117233351D01*
X135185465Y-117261522D01*
X134990776Y-117324781D01*
X134808386Y-117417715D01*
X134642786Y-117538028D01*
X134498028Y-117682786D01*
X134377715Y-117848386D01*
X134330485Y-117941080D01*
X134282510Y-117991876D01*
X134214689Y-118008671D01*
X134148554Y-117986134D01*
X134109515Y-117941080D01*
X134097121Y-117916755D01*
X134062287Y-117848390D01*
X134015181Y-117783553D01*
X133941971Y-117682786D01*
X133797213Y-117538028D01*
X133631613Y-117417715D01*
X133631612Y-117417714D01*
X133631610Y-117417713D01*
X133574653Y-117388691D01*
X133449223Y-117324781D01*
X133254534Y-117261522D01*
X133079995Y-117233878D01*
X133052352Y-117229500D01*
X132847648Y-117229500D01*
X132823329Y-117233351D01*
X132645465Y-117261522D01*
X132450776Y-117324781D01*
X132268386Y-117417715D01*
X132107385Y-117534688D01*
X132041578Y-117558168D01*
X131973525Y-117542342D01*
X131924830Y-117492236D01*
X131910500Y-117434370D01*
X131910500Y-116652889D01*
X131930185Y-116585850D01*
X131946819Y-116565208D01*
X133663916Y-114848111D01*
X138224517Y-110287510D01*
X138275683Y-110217085D01*
X138331012Y-110174422D01*
X138400626Y-110168443D01*
X138462421Y-110201049D01*
G37*
%TD.AperFunction*%
%TA.AperFunction,NonConductor*%
G36*
X138443039Y-67520185D02*
G01*
X138488794Y-67572989D01*
X138500000Y-67624500D01*
X138500000Y-69462368D01*
X138495618Y-69477291D01*
X138496199Y-69492833D01*
X138482747Y-69525463D01*
X138479759Y-69530517D01*
X138437713Y-69588390D01*
X138388727Y-69684529D01*
X138386747Y-69687880D01*
X138363941Y-69709183D01*
X138342510Y-69731876D01*
X138338619Y-69732839D01*
X138335690Y-69735576D01*
X138304985Y-69741168D01*
X138274689Y-69748671D01*
X138270894Y-69747377D01*
X138266951Y-69748096D01*
X138238105Y-69736204D01*
X138208554Y-69726134D01*
X138206059Y-69722993D01*
X138202355Y-69721466D01*
X138169515Y-69681080D01*
X138168883Y-69679840D01*
X138122287Y-69588390D01*
X138114556Y-69577749D01*
X138001971Y-69422786D01*
X137857213Y-69278028D01*
X137691613Y-69157715D01*
X137691612Y-69157714D01*
X137691610Y-69157713D01*
X137634653Y-69128691D01*
X137509223Y-69064781D01*
X137314534Y-69001522D01*
X137139995Y-68973878D01*
X137112352Y-68969500D01*
X136907648Y-68969500D01*
X136883329Y-68973351D01*
X136705465Y-69001522D01*
X136510776Y-69064781D01*
X136328386Y-69157715D01*
X136162786Y-69278028D01*
X136018028Y-69422786D01*
X135897715Y-69588386D01*
X135850485Y-69681080D01*
X135802510Y-69731876D01*
X135734689Y-69748671D01*
X135668554Y-69726134D01*
X135629515Y-69681080D01*
X135628883Y-69679840D01*
X135582287Y-69588390D01*
X135574556Y-69577749D01*
X135461971Y-69422786D01*
X135317213Y-69278028D01*
X135151613Y-69157715D01*
X135151612Y-69157714D01*
X135151610Y-69157713D01*
X135094653Y-69128691D01*
X134969223Y-69064781D01*
X134774534Y-69001522D01*
X134599995Y-68973878D01*
X134572352Y-68969500D01*
X134367648Y-68969500D01*
X134343329Y-68973351D01*
X134165465Y-69001522D01*
X133970776Y-69064781D01*
X133788386Y-69157715D01*
X133622786Y-69278028D01*
X133478032Y-69422782D01*
X133451668Y-69459070D01*
X133396338Y-69501735D01*
X133326724Y-69507714D01*
X133264929Y-69475108D01*
X133230572Y-69414269D01*
X133228060Y-69399438D01*
X133227640Y-69395533D01*
X133224091Y-69362517D01*
X133173796Y-69227669D01*
X133173795Y-69227668D01*
X133173793Y-69227664D01*
X133087547Y-69112455D01*
X133087544Y-69112452D01*
X132972335Y-69026206D01*
X132972328Y-69026202D01*
X132837482Y-68975908D01*
X132837483Y-68975908D01*
X132777883Y-68969501D01*
X132777881Y-68969500D01*
X132777873Y-68969500D01*
X132777864Y-68969500D01*
X131082129Y-68969500D01*
X131082123Y-68969501D01*
X131022516Y-68975908D01*
X130887671Y-69026202D01*
X130887664Y-69026206D01*
X130772455Y-69112452D01*
X130772452Y-69112455D01*
X130686206Y-69227664D01*
X130686202Y-69227671D01*
X130635908Y-69362517D01*
X130629501Y-69422116D01*
X130629500Y-69422135D01*
X130629500Y-71117870D01*
X130629501Y-71117876D01*
X130635908Y-71177483D01*
X130686202Y-71312328D01*
X130686206Y-71312335D01*
X130772452Y-71427544D01*
X130772455Y-71427547D01*
X130887664Y-71513793D01*
X130887671Y-71513797D01*
X131022517Y-71564091D01*
X131022516Y-71564091D01*
X131029444Y-71564835D01*
X131082127Y-71570500D01*
X132777872Y-71570499D01*
X132837483Y-71564091D01*
X132972331Y-71513796D01*
X133087546Y-71427546D01*
X133173796Y-71312331D01*
X133224091Y-71177483D01*
X133228061Y-71140556D01*
X133254796Y-71076011D01*
X133312188Y-71036161D01*
X133382013Y-71033666D01*
X133442102Y-71069317D01*
X133451667Y-71080929D01*
X133478032Y-71117217D01*
X133622786Y-71261971D01*
X133744351Y-71350291D01*
X133788390Y-71382287D01*
X133877212Y-71427544D01*
X133970776Y-71475218D01*
X133970778Y-71475218D01*
X133970781Y-71475220D01*
X134048511Y-71500476D01*
X134165465Y-71538477D01*
X134266557Y-71554488D01*
X134367648Y-71570500D01*
X134367649Y-71570500D01*
X134572351Y-71570500D01*
X134572352Y-71570500D01*
X134774534Y-71538477D01*
X134969219Y-71475220D01*
X135151610Y-71382287D01*
X135247901Y-71312328D01*
X135317213Y-71261971D01*
X135317215Y-71261968D01*
X135317219Y-71261966D01*
X135461966Y-71117219D01*
X135461968Y-71117215D01*
X135461971Y-71117213D01*
X135582284Y-70951614D01*
X135582283Y-70951614D01*
X135582287Y-70951610D01*
X135629516Y-70858917D01*
X135677489Y-70808123D01*
X135745310Y-70791328D01*
X135811445Y-70813865D01*
X135850485Y-70858919D01*
X135897715Y-70951614D01*
X136018028Y-71117213D01*
X136162786Y-71261971D01*
X136284351Y-71350291D01*
X136328390Y-71382287D01*
X136417212Y-71427544D01*
X136510776Y-71475218D01*
X136510778Y-71475218D01*
X136510781Y-71475220D01*
X136588511Y-71500476D01*
X136705465Y-71538477D01*
X136806557Y-71554488D01*
X136907648Y-71570500D01*
X136907649Y-71570500D01*
X137112351Y-71570500D01*
X137112352Y-71570500D01*
X137314534Y-71538477D01*
X137509219Y-71475220D01*
X137691610Y-71382287D01*
X137787901Y-71312328D01*
X137857213Y-71261971D01*
X137857215Y-71261968D01*
X137857219Y-71261966D01*
X138001966Y-71117219D01*
X138001968Y-71117215D01*
X138001971Y-71117213D01*
X138122284Y-70951614D01*
X138122283Y-70951614D01*
X138122287Y-70951610D01*
X138169516Y-70858917D01*
X138175497Y-70852584D01*
X138178262Y-70844324D01*
X138199118Y-70827573D01*
X138217489Y-70808123D01*
X138225945Y-70806028D01*
X138232738Y-70800574D01*
X138259342Y-70797758D01*
X138285310Y-70791328D01*
X138293555Y-70794137D01*
X138302220Y-70793221D01*
X138326123Y-70805236D01*
X138351445Y-70813865D01*
X138358500Y-70821510D01*
X138364647Y-70824600D01*
X138379242Y-70843985D01*
X138386747Y-70852118D01*
X138388720Y-70855456D01*
X138437713Y-70951610D01*
X138479768Y-71009495D01*
X138482747Y-71014534D01*
X138489947Y-71042943D01*
X138499798Y-71070550D01*
X138500000Y-71077630D01*
X138500000Y-80513164D01*
X138480315Y-80580203D01*
X138463681Y-80600845D01*
X130700274Y-88364251D01*
X130700274Y-88364252D01*
X130700272Y-88364254D01*
X130650585Y-88432641D01*
X130584576Y-88523494D01*
X130494769Y-88699751D01*
X130493708Y-88703512D01*
X130434391Y-88886069D01*
X130434391Y-88886072D01*
X130403600Y-89080477D01*
X130403600Y-107367436D01*
X130383915Y-107434475D01*
X130331111Y-107480230D01*
X130261953Y-107490174D01*
X130206715Y-107467754D01*
X130155408Y-107430478D01*
X130155407Y-107430477D01*
X130155405Y-107430476D01*
X130100637Y-107402570D01*
X129980030Y-107341117D01*
X129792826Y-107280290D01*
X129598421Y-107249500D01*
X129598416Y-107249500D01*
X129401583Y-107249500D01*
X129401578Y-107249500D01*
X129207173Y-107280290D01*
X129019969Y-107341117D01*
X128844594Y-107430476D01*
X128776115Y-107480230D01*
X128685354Y-107546172D01*
X128685352Y-107546174D01*
X128685351Y-107546174D01*
X126916174Y-109315351D01*
X126916174Y-109315352D01*
X126916172Y-109315354D01*
X126866485Y-109383741D01*
X126800476Y-109474594D01*
X126710669Y-109650851D01*
X126709608Y-109654612D01*
X126650291Y-109837169D01*
X126650291Y-109837172D01*
X126619500Y-110031577D01*
X126619500Y-117710668D01*
X126599815Y-117777707D01*
X126547011Y-117823462D01*
X126477853Y-117833406D01*
X126414297Y-117804381D01*
X126395182Y-117783553D01*
X126321971Y-117682787D01*
X126321967Y-117682782D01*
X126177213Y-117538028D01*
X126011613Y-117417715D01*
X126011612Y-117417714D01*
X126011610Y-117417713D01*
X125954653Y-117388691D01*
X125829223Y-117324781D01*
X125634534Y-117261522D01*
X125459995Y-117233878D01*
X125432352Y-117229500D01*
X125227648Y-117229500D01*
X125203329Y-117233351D01*
X125025465Y-117261522D01*
X124830776Y-117324781D01*
X124648386Y-117417715D01*
X124482786Y-117538028D01*
X124338028Y-117682786D01*
X124217715Y-117848386D01*
X124170485Y-117941080D01*
X124122510Y-117991876D01*
X124054689Y-118008671D01*
X123988554Y-117986134D01*
X123949515Y-117941080D01*
X123937121Y-117916755D01*
X123902287Y-117848390D01*
X123855181Y-117783553D01*
X123781971Y-117682786D01*
X123637213Y-117538028D01*
X123471613Y-117417715D01*
X123471612Y-117417714D01*
X123471610Y-117417713D01*
X123414653Y-117388691D01*
X123289223Y-117324781D01*
X123094534Y-117261522D01*
X122919995Y-117233878D01*
X122892352Y-117229500D01*
X122687648Y-117229500D01*
X122663329Y-117233351D01*
X122485465Y-117261522D01*
X122290776Y-117324781D01*
X122108386Y-117417715D01*
X121942786Y-117538028D01*
X121798028Y-117682786D01*
X121677714Y-117848386D01*
X121642878Y-117916755D01*
X121594903Y-117967550D01*
X121527081Y-117984344D01*
X121460947Y-117961806D01*
X121444713Y-117948139D01*
X110286819Y-106790245D01*
X110253334Y-106728922D01*
X110250500Y-106702564D01*
X110250500Y-92499749D01*
X110270185Y-92432710D01*
X110300190Y-92400482D01*
X110357546Y-92357546D01*
X110443796Y-92242331D01*
X110494091Y-92107483D01*
X110500500Y-92047873D01*
X110500499Y-90881902D01*
X112499500Y-90881902D01*
X112499500Y-91118097D01*
X112536446Y-91351368D01*
X112609433Y-91575996D01*
X112716657Y-91786433D01*
X112855483Y-91977510D01*
X113022490Y-92144517D01*
X113213567Y-92283343D01*
X113296213Y-92325453D01*
X113424003Y-92390566D01*
X113424005Y-92390566D01*
X113424008Y-92390568D01*
X113544412Y-92429689D01*
X113648631Y-92463553D01*
X113881903Y-92500500D01*
X113881908Y-92500500D01*
X114118097Y-92500500D01*
X114351368Y-92463553D01*
X114373336Y-92456415D01*
X114575992Y-92390568D01*
X114786433Y-92283343D01*
X114977510Y-92144517D01*
X115144517Y-91977510D01*
X115283343Y-91786433D01*
X115390568Y-91575992D01*
X115463553Y-91351368D01*
X115500500Y-91118097D01*
X115500500Y-90881902D01*
X115463553Y-90648631D01*
X115396084Y-90440985D01*
X115390568Y-90424008D01*
X115390566Y-90424005D01*
X115390566Y-90424003D01*
X115283342Y-90213566D01*
X115269807Y-90194937D01*
X115144517Y-90022490D01*
X114977510Y-89855483D01*
X114786433Y-89716657D01*
X114747607Y-89696874D01*
X114575996Y-89609433D01*
X114351368Y-89536446D01*
X114118097Y-89499500D01*
X114118092Y-89499500D01*
X113881908Y-89499500D01*
X113881903Y-89499500D01*
X113648631Y-89536446D01*
X113424003Y-89609433D01*
X113213566Y-89716657D01*
X113157119Y-89757669D01*
X113022490Y-89855483D01*
X113022488Y-89855485D01*
X113022487Y-89855485D01*
X112855485Y-90022487D01*
X112855485Y-90022488D01*
X112855483Y-90022490D01*
X112812571Y-90081553D01*
X112716657Y-90213566D01*
X112609433Y-90424003D01*
X112536446Y-90648631D01*
X112499500Y-90881902D01*
X110500499Y-90881902D01*
X110500499Y-89952128D01*
X110494091Y-89892517D01*
X110480278Y-89855483D01*
X110443797Y-89757671D01*
X110443793Y-89757664D01*
X110357547Y-89642455D01*
X110357544Y-89642452D01*
X110242335Y-89556206D01*
X110242328Y-89556202D01*
X110107482Y-89505908D01*
X110107483Y-89505908D01*
X110047883Y-89499501D01*
X110047881Y-89499500D01*
X110047873Y-89499500D01*
X110047864Y-89499500D01*
X107952129Y-89499500D01*
X107952123Y-89499501D01*
X107892516Y-89505908D01*
X107757671Y-89556202D01*
X107757664Y-89556206D01*
X107642455Y-89642452D01*
X107642452Y-89642455D01*
X107556206Y-89757664D01*
X107556202Y-89757671D01*
X107505908Y-89892517D01*
X107499501Y-89952116D01*
X107499501Y-89952123D01*
X107499500Y-89952135D01*
X107499500Y-92047870D01*
X107499501Y-92047876D01*
X107505908Y-92107483D01*
X107556202Y-92242328D01*
X107556203Y-92242329D01*
X107556204Y-92242331D01*
X107642454Y-92357546D01*
X107686563Y-92390566D01*
X107699810Y-92400482D01*
X107741682Y-92456415D01*
X107749500Y-92499749D01*
X107749500Y-107370322D01*
X107780290Y-107564726D01*
X107841117Y-107751930D01*
X107888333Y-107844595D01*
X107930476Y-107927305D01*
X108046172Y-108086546D01*
X121447455Y-121487829D01*
X121606695Y-121603524D01*
X121689554Y-121645742D01*
X121782069Y-121692882D01*
X121782071Y-121692882D01*
X121782074Y-121692884D01*
X121882418Y-121725487D01*
X121969273Y-121753709D01*
X122163678Y-121784500D01*
X138376000Y-121784500D01*
X138443039Y-121804185D01*
X138488794Y-121856989D01*
X138500000Y-121908500D01*
X138500000Y-122375500D01*
X138480315Y-122442539D01*
X138427511Y-122488294D01*
X138376000Y-122499500D01*
X106124500Y-122499500D01*
X106057461Y-122479815D01*
X106011706Y-122427011D01*
X106000500Y-122375500D01*
X106000500Y-85859984D01*
X122679500Y-85859984D01*
X122679500Y-87860015D01*
X122690000Y-87962795D01*
X122690001Y-87962797D01*
X122696904Y-87983629D01*
X122745186Y-88129335D01*
X122745187Y-88129337D01*
X122837286Y-88278651D01*
X122837289Y-88278655D01*
X122843181Y-88284547D01*
X122876666Y-88345870D01*
X122879500Y-88372228D01*
X122879500Y-92237772D01*
X122859815Y-92304811D01*
X122843181Y-92325453D01*
X122837289Y-92331344D01*
X122837286Y-92331348D01*
X122745187Y-92480662D01*
X122745186Y-92480664D01*
X122690001Y-92647203D01*
X122690000Y-92647204D01*
X122679500Y-92749984D01*
X122679500Y-94750015D01*
X122690000Y-94852795D01*
X122690001Y-94852797D01*
X122696904Y-94873629D01*
X122745186Y-95019335D01*
X122745187Y-95019337D01*
X122837286Y-95168651D01*
X122837289Y-95168655D01*
X122843181Y-95174547D01*
X122876666Y-95235870D01*
X122879500Y-95262228D01*
X122879500Y-99127772D01*
X122859815Y-99194811D01*
X122843181Y-99215453D01*
X122837289Y-99221344D01*
X122837286Y-99221348D01*
X122745187Y-99370662D01*
X122745186Y-99370664D01*
X122690001Y-99537203D01*
X122690000Y-99537204D01*
X122679500Y-99639984D01*
X122679500Y-101640015D01*
X122690000Y-101742795D01*
X122690001Y-101742796D01*
X122745186Y-101909335D01*
X122745187Y-101909337D01*
X122837286Y-102058651D01*
X122837289Y-102058655D01*
X122961344Y-102182710D01*
X122961348Y-102182713D01*
X123110662Y-102274812D01*
X123110664Y-102274813D01*
X123110666Y-102274814D01*
X123277203Y-102329999D01*
X123379992Y-102340500D01*
X123379997Y-102340500D01*
X125380003Y-102340500D01*
X125380008Y-102340500D01*
X125482797Y-102329999D01*
X125649334Y-102274814D01*
X125798655Y-102182711D01*
X125922711Y-102058655D01*
X126014814Y-101909334D01*
X126069999Y-101742797D01*
X126080500Y-101640008D01*
X126080500Y-99639992D01*
X126069999Y-99537203D01*
X126014814Y-99370666D01*
X126007468Y-99358757D01*
X125922713Y-99221348D01*
X125922710Y-99221344D01*
X125916819Y-99215453D01*
X125883334Y-99154130D01*
X125880500Y-99127772D01*
X125880500Y-95262228D01*
X125900185Y-95195189D01*
X125916819Y-95174547D01*
X125922711Y-95168655D01*
X126014814Y-95019334D01*
X126069999Y-94852797D01*
X126080500Y-94750008D01*
X126080500Y-92749992D01*
X126069999Y-92647203D01*
X126014814Y-92480666D01*
X126007468Y-92468757D01*
X125922713Y-92331348D01*
X125922710Y-92331344D01*
X125916819Y-92325453D01*
X125883334Y-92264130D01*
X125880500Y-92237772D01*
X125880500Y-88372228D01*
X125900185Y-88305189D01*
X125916819Y-88284547D01*
X125922711Y-88278655D01*
X126014814Y-88129334D01*
X126069999Y-87962797D01*
X126080500Y-87860008D01*
X126080500Y-85859992D01*
X126069999Y-85757203D01*
X126014814Y-85590666D01*
X126007468Y-85578757D01*
X125922713Y-85441348D01*
X125922710Y-85441344D01*
X125798655Y-85317289D01*
X125798651Y-85317286D01*
X125649337Y-85225187D01*
X125649335Y-85225186D01*
X125539175Y-85188683D01*
X125482797Y-85170001D01*
X125482795Y-85170000D01*
X125380015Y-85159500D01*
X125380008Y-85159500D01*
X123379992Y-85159500D01*
X123379984Y-85159500D01*
X123277204Y-85170000D01*
X123277203Y-85170001D01*
X123110664Y-85225186D01*
X123110662Y-85225187D01*
X122961348Y-85317286D01*
X122961344Y-85317289D01*
X122837289Y-85441344D01*
X122837286Y-85441348D01*
X122745187Y-85590662D01*
X122745186Y-85590664D01*
X122690001Y-85757203D01*
X122690000Y-85757204D01*
X122679500Y-85859984D01*
X106000500Y-85859984D01*
X106000500Y-67624500D01*
X106020185Y-67557461D01*
X106072989Y-67511706D01*
X106124500Y-67500500D01*
X138376000Y-67500500D01*
X138443039Y-67520185D01*
G37*
%TD.AperFunction*%
M02*
